G75*
%MOIN*%
%OFA0B0*%
%FSLAX25Y25*%
%IPPOS*%
%LPD*%
%AMOC8*
5,1,8,0,0,1.08239X$1,22.5*
%
%ADD10C,0.00300*%
%ADD11C,0.00500*%
%ADD12C,0.00400*%
%ADD13R,0.01181X0.01181*%
D10*
X0154950Y0050716D02*
X0154950Y0049481D01*
X0155567Y0048864D01*
X0156802Y0048864D01*
X0157419Y0049481D01*
X0157419Y0050716D01*
X0156802Y0051333D01*
X0156184Y0051333D01*
X0156184Y0048864D01*
X0158653Y0052547D02*
X0158653Y0053165D01*
X0154950Y0053165D01*
X0154950Y0053782D02*
X0154950Y0052547D01*
X0154950Y0056854D02*
X0154950Y0055620D01*
X0155567Y0055003D01*
X0156802Y0055003D01*
X0157419Y0055620D01*
X0157419Y0056854D01*
X0156802Y0057472D01*
X0156184Y0057472D01*
X0156184Y0055003D01*
X0157419Y0061155D02*
X0157419Y0059303D01*
X0156802Y0058686D01*
X0155567Y0058686D01*
X0154950Y0059303D01*
X0154950Y0061155D01*
X0156802Y0062369D02*
X0156802Y0064838D01*
X0157419Y0066052D02*
X0154950Y0066052D01*
X0156184Y0066052D02*
X0157419Y0067287D01*
X0157419Y0067904D01*
X0154950Y0070973D02*
X0154950Y0069739D01*
X0155567Y0069121D01*
X0156802Y0069121D01*
X0157419Y0069739D01*
X0157419Y0070973D01*
X0156802Y0071590D01*
X0156184Y0071590D01*
X0156184Y0069121D01*
X0157419Y0073422D02*
X0157419Y0074656D01*
X0156802Y0075273D01*
X0154950Y0075273D01*
X0154950Y0073422D01*
X0155567Y0072805D01*
X0156184Y0073422D01*
X0156184Y0075273D01*
X0158653Y0076488D02*
X0158653Y0077105D01*
X0154950Y0077105D01*
X0154950Y0076488D02*
X0154950Y0077722D01*
X0154950Y0078943D02*
X0155567Y0078943D01*
X0155567Y0079560D01*
X0154950Y0079560D01*
X0154950Y0078943D01*
X0157419Y0083254D02*
X0157419Y0081402D01*
X0156802Y0080785D01*
X0155567Y0080785D01*
X0154950Y0081402D01*
X0154950Y0083254D01*
X0154950Y0085085D02*
X0154950Y0086320D01*
X0155567Y0086937D01*
X0156802Y0086937D01*
X0157419Y0086320D01*
X0157419Y0085085D01*
X0156802Y0084468D01*
X0155567Y0084468D01*
X0154950Y0085085D01*
X0154950Y0088151D02*
X0157419Y0088151D01*
X0157419Y0088768D01*
X0156802Y0089385D01*
X0154950Y0089385D01*
X0156802Y0089385D02*
X0157419Y0090003D01*
X0156802Y0090620D01*
X0154950Y0090620D01*
X0154950Y0097986D02*
X0154950Y0095517D01*
X0157419Y0097986D01*
X0158036Y0097986D01*
X0158653Y0097369D01*
X0158653Y0096135D01*
X0158036Y0095517D01*
X0154950Y0099201D02*
X0158653Y0101669D01*
X0157419Y0102884D02*
X0158653Y0104118D01*
X0154950Y0104118D01*
X0154950Y0102884D02*
X0154950Y0105352D01*
X0155567Y0106567D02*
X0154950Y0107184D01*
X0154950Y0108418D01*
X0155567Y0109036D01*
X0158036Y0109036D01*
X0158653Y0108418D01*
X0158653Y0107184D01*
X0158036Y0106567D01*
X0157419Y0106567D01*
X0156802Y0107184D01*
X0156802Y0109036D01*
D11*
X0104764Y0171740D02*
X0104764Y0173709D01*
X0100335Y0173709D01*
X0096398Y0173709D02*
X0091969Y0173709D01*
X0088031Y0173709D02*
X0083602Y0173709D01*
X0079665Y0173709D02*
X0075236Y0173709D01*
X0075236Y0171740D01*
X0104764Y0164260D02*
X0104764Y0162685D01*
X0075236Y0162685D02*
X0075236Y0164260D01*
X0095906Y0154811D02*
X0098071Y0154811D01*
X0084094Y0154811D02*
X0081929Y0154811D01*
X0137771Y0067061D02*
X0154224Y0050608D01*
X0129392Y0025776D02*
X0112939Y0042229D01*
X0067061Y0137771D02*
X0050608Y0154224D01*
X0025776Y0129392D02*
X0042229Y0112939D01*
X0107817Y0121736D02*
X0121736Y0107817D01*
X0072183Y0058264D02*
X0058264Y0072183D01*
X0107817Y0121736D02*
X0111993Y0134821D01*
X0121736Y0107817D02*
X0134821Y0111993D01*
X0111993Y0134821D02*
X0104198Y0142615D01*
X0134821Y0111993D02*
X0142615Y0104198D01*
X0058264Y0072183D02*
X0045179Y0068007D01*
X0072183Y0058264D02*
X0068007Y0045179D01*
X0075245Y0037941D01*
X0045179Y0068007D02*
X0036271Y0076916D01*
X0075245Y0037942D02*
X0076518Y0037584D01*
X0077798Y0037258D01*
X0079086Y0036963D01*
X0080381Y0036699D01*
X0081682Y0036468D01*
X0082988Y0036268D01*
X0084299Y0036100D01*
X0085613Y0035964D01*
X0086930Y0035861D01*
X0088250Y0035789D01*
X0089571Y0035750D01*
X0090892Y0035743D01*
X0092213Y0035769D01*
X0093533Y0035827D01*
X0094852Y0035917D01*
X0096167Y0036039D01*
X0097480Y0036193D01*
X0098788Y0036380D01*
X0100091Y0036598D01*
X0101389Y0036848D01*
X0102680Y0037130D01*
X0103963Y0037443D01*
X0105239Y0037787D01*
X0106506Y0038163D01*
X0107763Y0038569D01*
X0109010Y0039006D01*
X0110246Y0039474D01*
X0111470Y0039971D01*
X0112682Y0040498D01*
X0113880Y0041055D01*
X0115065Y0041641D01*
X0116235Y0042255D01*
X0117389Y0042898D01*
X0118527Y0043569D01*
X0119649Y0044268D01*
X0120753Y0044994D01*
X0121839Y0045746D01*
X0122907Y0046525D01*
X0123955Y0047330D01*
X0124983Y0048160D01*
X0125990Y0049015D01*
X0126977Y0049894D01*
X0127941Y0050798D01*
X0128883Y0051724D01*
X0129802Y0052673D01*
X0130698Y0053645D01*
X0131570Y0054638D01*
X0132417Y0055652D01*
X0133239Y0056687D01*
X0134036Y0057741D01*
X0134806Y0058814D01*
X0135550Y0059906D01*
X0136268Y0061016D01*
X0136957Y0062143D01*
X0137620Y0063287D01*
X0138253Y0064446D01*
X0138859Y0065620D01*
X0139435Y0066809D01*
X0139983Y0068012D01*
X0140501Y0069228D01*
X0140988Y0070456D01*
X0141446Y0071695D01*
X0141873Y0072946D01*
X0142270Y0074206D01*
X0142636Y0075476D01*
X0142970Y0076754D01*
X0143273Y0078041D01*
X0143545Y0079334D01*
X0143785Y0080633D01*
X0143993Y0081938D01*
X0144169Y0083248D01*
X0144314Y0084561D01*
X0144426Y0085878D01*
X0144505Y0087197D01*
X0144553Y0088517D01*
X0144568Y0089838D01*
X0144551Y0091160D01*
X0144502Y0092480D01*
X0144420Y0093799D01*
X0144306Y0095116D01*
X0144160Y0096429D01*
X0143982Y0097738D01*
X0143772Y0099043D01*
X0143530Y0100342D01*
X0143257Y0101635D01*
X0142952Y0102920D01*
X0142615Y0104198D01*
X0104198Y0142616D02*
X0102916Y0142964D01*
X0101626Y0143280D01*
X0100329Y0143565D01*
X0099025Y0143818D01*
X0097716Y0144040D01*
X0096402Y0144230D01*
X0095083Y0144388D01*
X0093761Y0144513D01*
X0092436Y0144606D01*
X0091110Y0144668D01*
X0089782Y0144696D01*
X0088454Y0144693D01*
X0087126Y0144657D01*
X0085800Y0144589D01*
X0084476Y0144489D01*
X0083154Y0144357D01*
X0081837Y0144192D01*
X0080523Y0143996D01*
X0079215Y0143767D01*
X0077913Y0143507D01*
X0076617Y0143215D01*
X0075329Y0142892D01*
X0074049Y0142538D01*
X0072778Y0142152D01*
X0071517Y0141736D01*
X0070266Y0141289D01*
X0069027Y0140812D01*
X0067800Y0140305D01*
X0066585Y0139769D01*
X0065384Y0139203D01*
X0064196Y0138607D01*
X0063024Y0137983D01*
X0061867Y0137331D01*
X0060726Y0136651D01*
X0059603Y0135943D01*
X0058496Y0135209D01*
X0057408Y0134447D01*
X0056339Y0133659D01*
X0055290Y0132846D01*
X0054260Y0132007D01*
X0053251Y0131144D01*
X0052263Y0130256D01*
X0051298Y0129344D01*
X0050354Y0128409D01*
X0049434Y0127452D01*
X0048537Y0126472D01*
X0047665Y0125471D01*
X0046817Y0124449D01*
X0045994Y0123407D01*
X0045197Y0122345D01*
X0044425Y0121264D01*
X0043681Y0120164D01*
X0042963Y0119047D01*
X0042272Y0117912D01*
X0041610Y0116761D01*
X0040975Y0115595D01*
X0040370Y0114413D01*
X0039793Y0113217D01*
X0039245Y0112007D01*
X0038727Y0110784D01*
X0038239Y0109549D01*
X0037781Y0108302D01*
X0037353Y0107045D01*
X0036956Y0105778D01*
X0036590Y0104501D01*
X0036256Y0103216D01*
X0035952Y0101923D01*
X0035680Y0100623D01*
X0035440Y0099317D01*
X0035232Y0098005D01*
X0035056Y0096689D01*
X0034911Y0095369D01*
X0034799Y0094046D01*
X0034719Y0092720D01*
X0034671Y0091393D01*
X0034656Y0090065D01*
X0034673Y0088737D01*
X0034722Y0087410D01*
X0034804Y0086084D01*
X0034917Y0084761D01*
X0035063Y0083441D01*
X0035241Y0082125D01*
X0035451Y0080814D01*
X0035692Y0079508D01*
X0035966Y0078208D01*
X0036271Y0076916D01*
X0065251Y0114749D02*
X0058180Y0121820D01*
X0065251Y0121820D02*
X0058180Y0114749D01*
D12*
X0072712Y0161304D02*
X0072712Y0157467D01*
X0071944Y0156700D01*
X0070410Y0156700D01*
X0069643Y0157467D01*
X0069643Y0161304D01*
X0065039Y0160537D02*
X0065806Y0161304D01*
X0067341Y0161304D01*
X0068108Y0160537D01*
X0068108Y0159769D01*
X0067341Y0159002D01*
X0065806Y0159002D01*
X0065039Y0158235D01*
X0065039Y0157467D01*
X0065806Y0156700D01*
X0067341Y0156700D01*
X0068108Y0157467D01*
X0063504Y0156700D02*
X0063504Y0161304D01*
X0061202Y0161304D01*
X0060435Y0160537D01*
X0060435Y0159769D01*
X0061202Y0159002D01*
X0060435Y0158235D01*
X0060435Y0157467D01*
X0061202Y0156700D01*
X0063504Y0156700D01*
X0063504Y0159002D02*
X0061202Y0159002D01*
X0070177Y0064808D02*
X0066922Y0068063D01*
X0065294Y0066435D01*
X0065294Y0065350D01*
X0066379Y0064265D01*
X0067465Y0064265D01*
X0069092Y0065893D01*
X0068007Y0064808D02*
X0068007Y0062637D01*
X0061496Y0062637D02*
X0063124Y0063180D01*
X0065294Y0063180D01*
X0066379Y0062095D01*
X0066379Y0061010D01*
X0065294Y0059924D01*
X0064209Y0059924D01*
X0063667Y0060467D01*
X0063667Y0061552D01*
X0065294Y0063180D01*
X0059212Y0055324D02*
X0055957Y0058580D01*
X0054329Y0056952D01*
X0054329Y0055867D01*
X0055414Y0054782D01*
X0056499Y0054782D01*
X0058127Y0056409D01*
X0057042Y0055324D02*
X0057042Y0053154D01*
X0054872Y0050983D02*
X0051616Y0054239D01*
X0052701Y0055324D02*
X0050531Y0053154D01*
X0049446Y0052069D02*
X0052701Y0048813D01*
X0051074Y0050441D02*
X0048903Y0048271D01*
X0047276Y0049898D02*
X0050531Y0046643D01*
X0044020Y0046643D02*
X0046190Y0048813D01*
X0049446Y0045558D01*
X0047276Y0043387D01*
X0046733Y0046100D02*
X0047818Y0047185D01*
X0046190Y0042302D02*
X0042935Y0045558D01*
X0041307Y0043930D01*
X0041307Y0042845D01*
X0042392Y0041760D01*
X0043478Y0041760D01*
X0045105Y0043387D01*
X0044020Y0042302D02*
X0044020Y0040132D01*
X0042935Y0039047D02*
X0039680Y0042302D01*
X0039680Y0040132D01*
X0037509Y0040132D01*
X0040765Y0036876D01*
D13*
G36*
X0060725Y0057859D02*
X0061559Y0058693D01*
X0062393Y0057859D01*
X0061559Y0057025D01*
X0060725Y0057859D01*
G37*
G36*
X0066678Y0056171D02*
X0067512Y0057005D01*
X0068346Y0056171D01*
X0067512Y0055337D01*
X0066678Y0056171D01*
G37*
M02*
