%
M48
M72
T01C0.0100
T02C0.0130
T03C0.0132
T04C0.0140
T05C0.1260
%
T01
X11590Y14290
X11710Y15510
X8680Y6240
X9400Y5070
X7450Y15020
X10850Y2750
X12990Y5000
X7040Y15600
X8490Y15200
X2830Y10300
X3230Y4860
X2920Y5970
X9590Y15470
X5720Y6000
X6870Y16710
X12390Y11100
X10960Y2060
X8960Y3610
X6610Y9910
X9590Y11730
X2170Y7700
X2180Y6810
T02
X10580Y5300
X7920Y2410
X9450Y3000
X8450Y7730
X8070Y8750
X10000Y9390
X10300Y15080
X13050Y13240
X13190Y12280
X13390Y11950
X12870Y12290
X7230Y6560
X8300Y14050
X13240Y14450
X12160Y10720
X12100Y10310
X8030Y9900
X7980Y8230
X10000Y8260
T03
X10840Y13030
T04
X11240Y13020
X10840Y12620
X11240Y12620
T05
X5430Y16370
X16900Y6840
X9000Y880
M30
