G75*
%MOIN*%
%OFA0B0*%
%FSLAX25Y25*%
%IPPOS*%
%LPD*%
%AMOC8*
5,1,8,0,0,1.08239X$1,22.5*
%
%ADD10C,0.01000*%
%ADD11C,0.00000*%
D10*
X0000000Y0090000D02*
X0000027Y0092209D01*
X0000108Y0094416D01*
X0000244Y0096621D01*
X0000433Y0098822D01*
X0000677Y0101017D01*
X0000974Y0103206D01*
X0001325Y0105387D01*
X0001729Y0107558D01*
X0002187Y0109719D01*
X0002697Y0111868D01*
X0003260Y0114004D01*
X0003875Y0116126D01*
X0004542Y0118231D01*
X0005261Y0120320D01*
X0006031Y0122391D01*
X0006851Y0124442D01*
X0007721Y0126472D01*
X0008641Y0128480D01*
X0009610Y0130465D01*
X0010627Y0132426D01*
X0011692Y0134361D01*
X0012804Y0136269D01*
X0013963Y0138150D01*
X0015168Y0140001D01*
X0016417Y0141823D01*
X0017711Y0143613D01*
X0019049Y0145371D01*
X0020429Y0147095D01*
X0021851Y0148786D01*
X0023314Y0150440D01*
X0024818Y0152059D01*
X0026360Y0153640D01*
X0027941Y0155182D01*
X0029560Y0156686D01*
X0031214Y0158149D01*
X0032905Y0159571D01*
X0034629Y0160951D01*
X0036387Y0162289D01*
X0038177Y0163583D01*
X0039999Y0164832D01*
X0041850Y0166037D01*
X0043731Y0167196D01*
X0045639Y0168308D01*
X0047574Y0169373D01*
X0049535Y0170390D01*
X0051520Y0171359D01*
X0053528Y0172279D01*
X0055558Y0173149D01*
X0057609Y0173969D01*
X0059680Y0174739D01*
X0061769Y0175458D01*
X0063874Y0176125D01*
X0065996Y0176740D01*
X0068132Y0177303D01*
X0070281Y0177813D01*
X0072442Y0178271D01*
X0074613Y0178675D01*
X0076794Y0179026D01*
X0078983Y0179323D01*
X0081178Y0179567D01*
X0083379Y0179756D01*
X0085584Y0179892D01*
X0087791Y0179973D01*
X0090000Y0180000D01*
X0092209Y0179973D01*
X0094416Y0179892D01*
X0096621Y0179756D01*
X0098822Y0179567D01*
X0101017Y0179323D01*
X0103206Y0179026D01*
X0105387Y0178675D01*
X0107558Y0178271D01*
X0109719Y0177813D01*
X0111868Y0177303D01*
X0114004Y0176740D01*
X0116126Y0176125D01*
X0118231Y0175458D01*
X0120320Y0174739D01*
X0122391Y0173969D01*
X0124442Y0173149D01*
X0126472Y0172279D01*
X0128480Y0171359D01*
X0130465Y0170390D01*
X0132426Y0169373D01*
X0134361Y0168308D01*
X0136269Y0167196D01*
X0138150Y0166037D01*
X0140001Y0164832D01*
X0141823Y0163583D01*
X0143613Y0162289D01*
X0145371Y0160951D01*
X0147095Y0159571D01*
X0148786Y0158149D01*
X0150440Y0156686D01*
X0152059Y0155182D01*
X0153640Y0153640D01*
X0155182Y0152059D01*
X0156686Y0150440D01*
X0158149Y0148786D01*
X0159571Y0147095D01*
X0160951Y0145371D01*
X0162289Y0143613D01*
X0163583Y0141823D01*
X0164832Y0140001D01*
X0166037Y0138150D01*
X0167196Y0136269D01*
X0168308Y0134361D01*
X0169373Y0132426D01*
X0170390Y0130465D01*
X0171359Y0128480D01*
X0172279Y0126472D01*
X0173149Y0124442D01*
X0173969Y0122391D01*
X0174739Y0120320D01*
X0175458Y0118231D01*
X0176125Y0116126D01*
X0176740Y0114004D01*
X0177303Y0111868D01*
X0177813Y0109719D01*
X0178271Y0107558D01*
X0178675Y0105387D01*
X0179026Y0103206D01*
X0179323Y0101017D01*
X0179567Y0098822D01*
X0179756Y0096621D01*
X0179892Y0094416D01*
X0179973Y0092209D01*
X0180000Y0090000D01*
X0179973Y0087791D01*
X0179892Y0085584D01*
X0179756Y0083379D01*
X0179567Y0081178D01*
X0179323Y0078983D01*
X0179026Y0076794D01*
X0178675Y0074613D01*
X0178271Y0072442D01*
X0177813Y0070281D01*
X0177303Y0068132D01*
X0176740Y0065996D01*
X0176125Y0063874D01*
X0175458Y0061769D01*
X0174739Y0059680D01*
X0173969Y0057609D01*
X0173149Y0055558D01*
X0172279Y0053528D01*
X0171359Y0051520D01*
X0170390Y0049535D01*
X0169373Y0047574D01*
X0168308Y0045639D01*
X0167196Y0043731D01*
X0166037Y0041850D01*
X0164832Y0039999D01*
X0163583Y0038177D01*
X0162289Y0036387D01*
X0160951Y0034629D01*
X0159571Y0032905D01*
X0158149Y0031214D01*
X0156686Y0029560D01*
X0155182Y0027941D01*
X0153640Y0026360D01*
X0152059Y0024818D01*
X0150440Y0023314D01*
X0148786Y0021851D01*
X0147095Y0020429D01*
X0145371Y0019049D01*
X0143613Y0017711D01*
X0141823Y0016417D01*
X0140001Y0015168D01*
X0138150Y0013963D01*
X0136269Y0012804D01*
X0134361Y0011692D01*
X0132426Y0010627D01*
X0130465Y0009610D01*
X0128480Y0008641D01*
X0126472Y0007721D01*
X0124442Y0006851D01*
X0122391Y0006031D01*
X0120320Y0005261D01*
X0118231Y0004542D01*
X0116126Y0003875D01*
X0114004Y0003260D01*
X0111868Y0002697D01*
X0109719Y0002187D01*
X0107558Y0001729D01*
X0105387Y0001325D01*
X0103206Y0000974D01*
X0101017Y0000677D01*
X0098822Y0000433D01*
X0096621Y0000244D01*
X0094416Y0000108D01*
X0092209Y0000027D01*
X0090000Y0000000D01*
X0087791Y0000027D01*
X0085584Y0000108D01*
X0083379Y0000244D01*
X0081178Y0000433D01*
X0078983Y0000677D01*
X0076794Y0000974D01*
X0074613Y0001325D01*
X0072442Y0001729D01*
X0070281Y0002187D01*
X0068132Y0002697D01*
X0065996Y0003260D01*
X0063874Y0003875D01*
X0061769Y0004542D01*
X0059680Y0005261D01*
X0057609Y0006031D01*
X0055558Y0006851D01*
X0053528Y0007721D01*
X0051520Y0008641D01*
X0049535Y0009610D01*
X0047574Y0010627D01*
X0045639Y0011692D01*
X0043731Y0012804D01*
X0041850Y0013963D01*
X0039999Y0015168D01*
X0038177Y0016417D01*
X0036387Y0017711D01*
X0034629Y0019049D01*
X0032905Y0020429D01*
X0031214Y0021851D01*
X0029560Y0023314D01*
X0027941Y0024818D01*
X0026360Y0026360D01*
X0024818Y0027941D01*
X0023314Y0029560D01*
X0021851Y0031214D01*
X0020429Y0032905D01*
X0019049Y0034629D01*
X0017711Y0036387D01*
X0016417Y0038177D01*
X0015168Y0039999D01*
X0013963Y0041850D01*
X0012804Y0043731D01*
X0011692Y0045639D01*
X0010627Y0047574D01*
X0009610Y0049535D01*
X0008641Y0051520D01*
X0007721Y0053528D01*
X0006851Y0055558D01*
X0006031Y0057609D01*
X0005261Y0059680D01*
X0004542Y0061769D01*
X0003875Y0063874D01*
X0003260Y0065996D01*
X0002697Y0068132D01*
X0002187Y0070281D01*
X0001729Y0072442D01*
X0001325Y0074613D01*
X0000974Y0076794D01*
X0000677Y0078983D01*
X0000433Y0081178D01*
X0000244Y0083379D01*
X0000108Y0085584D01*
X0000027Y0087791D01*
X0000000Y0090000D01*
D11*
X0048001Y0163700D02*
X0048003Y0163858D01*
X0048009Y0164016D01*
X0048019Y0164174D01*
X0048033Y0164332D01*
X0048051Y0164489D01*
X0048072Y0164646D01*
X0048098Y0164802D01*
X0048128Y0164958D01*
X0048161Y0165113D01*
X0048199Y0165266D01*
X0048240Y0165419D01*
X0048285Y0165571D01*
X0048334Y0165722D01*
X0048387Y0165871D01*
X0048443Y0166019D01*
X0048503Y0166165D01*
X0048567Y0166310D01*
X0048635Y0166453D01*
X0048706Y0166595D01*
X0048780Y0166735D01*
X0048858Y0166872D01*
X0048940Y0167008D01*
X0049024Y0167142D01*
X0049113Y0167273D01*
X0049204Y0167402D01*
X0049299Y0167529D01*
X0049396Y0167654D01*
X0049497Y0167776D01*
X0049601Y0167895D01*
X0049708Y0168012D01*
X0049818Y0168126D01*
X0049931Y0168237D01*
X0050046Y0168346D01*
X0050164Y0168451D01*
X0050285Y0168553D01*
X0050408Y0168653D01*
X0050534Y0168749D01*
X0050662Y0168842D01*
X0050792Y0168932D01*
X0050925Y0169018D01*
X0051060Y0169102D01*
X0051196Y0169181D01*
X0051335Y0169258D01*
X0051476Y0169330D01*
X0051618Y0169400D01*
X0051762Y0169465D01*
X0051908Y0169527D01*
X0052055Y0169585D01*
X0052204Y0169640D01*
X0052354Y0169691D01*
X0052505Y0169738D01*
X0052657Y0169781D01*
X0052810Y0169820D01*
X0052965Y0169856D01*
X0053120Y0169887D01*
X0053276Y0169915D01*
X0053432Y0169939D01*
X0053589Y0169959D01*
X0053747Y0169975D01*
X0053904Y0169987D01*
X0054063Y0169995D01*
X0054221Y0169999D01*
X0054379Y0169999D01*
X0054537Y0169995D01*
X0054696Y0169987D01*
X0054853Y0169975D01*
X0055011Y0169959D01*
X0055168Y0169939D01*
X0055324Y0169915D01*
X0055480Y0169887D01*
X0055635Y0169856D01*
X0055790Y0169820D01*
X0055943Y0169781D01*
X0056095Y0169738D01*
X0056246Y0169691D01*
X0056396Y0169640D01*
X0056545Y0169585D01*
X0056692Y0169527D01*
X0056838Y0169465D01*
X0056982Y0169400D01*
X0057124Y0169330D01*
X0057265Y0169258D01*
X0057404Y0169181D01*
X0057540Y0169102D01*
X0057675Y0169018D01*
X0057808Y0168932D01*
X0057938Y0168842D01*
X0058066Y0168749D01*
X0058192Y0168653D01*
X0058315Y0168553D01*
X0058436Y0168451D01*
X0058554Y0168346D01*
X0058669Y0168237D01*
X0058782Y0168126D01*
X0058892Y0168012D01*
X0058999Y0167895D01*
X0059103Y0167776D01*
X0059204Y0167654D01*
X0059301Y0167529D01*
X0059396Y0167402D01*
X0059487Y0167273D01*
X0059576Y0167142D01*
X0059660Y0167008D01*
X0059742Y0166872D01*
X0059820Y0166735D01*
X0059894Y0166595D01*
X0059965Y0166453D01*
X0060033Y0166310D01*
X0060097Y0166165D01*
X0060157Y0166019D01*
X0060213Y0165871D01*
X0060266Y0165722D01*
X0060315Y0165571D01*
X0060360Y0165419D01*
X0060401Y0165266D01*
X0060439Y0165113D01*
X0060472Y0164958D01*
X0060502Y0164802D01*
X0060528Y0164646D01*
X0060549Y0164489D01*
X0060567Y0164332D01*
X0060581Y0164174D01*
X0060591Y0164016D01*
X0060597Y0163858D01*
X0060599Y0163700D01*
X0060597Y0163542D01*
X0060591Y0163384D01*
X0060581Y0163226D01*
X0060567Y0163068D01*
X0060549Y0162911D01*
X0060528Y0162754D01*
X0060502Y0162598D01*
X0060472Y0162442D01*
X0060439Y0162287D01*
X0060401Y0162134D01*
X0060360Y0161981D01*
X0060315Y0161829D01*
X0060266Y0161678D01*
X0060213Y0161529D01*
X0060157Y0161381D01*
X0060097Y0161235D01*
X0060033Y0161090D01*
X0059965Y0160947D01*
X0059894Y0160805D01*
X0059820Y0160665D01*
X0059742Y0160528D01*
X0059660Y0160392D01*
X0059576Y0160258D01*
X0059487Y0160127D01*
X0059396Y0159998D01*
X0059301Y0159871D01*
X0059204Y0159746D01*
X0059103Y0159624D01*
X0058999Y0159505D01*
X0058892Y0159388D01*
X0058782Y0159274D01*
X0058669Y0159163D01*
X0058554Y0159054D01*
X0058436Y0158949D01*
X0058315Y0158847D01*
X0058192Y0158747D01*
X0058066Y0158651D01*
X0057938Y0158558D01*
X0057808Y0158468D01*
X0057675Y0158382D01*
X0057540Y0158298D01*
X0057404Y0158219D01*
X0057265Y0158142D01*
X0057124Y0158070D01*
X0056982Y0158000D01*
X0056838Y0157935D01*
X0056692Y0157873D01*
X0056545Y0157815D01*
X0056396Y0157760D01*
X0056246Y0157709D01*
X0056095Y0157662D01*
X0055943Y0157619D01*
X0055790Y0157580D01*
X0055635Y0157544D01*
X0055480Y0157513D01*
X0055324Y0157485D01*
X0055168Y0157461D01*
X0055011Y0157441D01*
X0054853Y0157425D01*
X0054696Y0157413D01*
X0054537Y0157405D01*
X0054379Y0157401D01*
X0054221Y0157401D01*
X0054063Y0157405D01*
X0053904Y0157413D01*
X0053747Y0157425D01*
X0053589Y0157441D01*
X0053432Y0157461D01*
X0053276Y0157485D01*
X0053120Y0157513D01*
X0052965Y0157544D01*
X0052810Y0157580D01*
X0052657Y0157619D01*
X0052505Y0157662D01*
X0052354Y0157709D01*
X0052204Y0157760D01*
X0052055Y0157815D01*
X0051908Y0157873D01*
X0051762Y0157935D01*
X0051618Y0158000D01*
X0051476Y0158070D01*
X0051335Y0158142D01*
X0051196Y0158219D01*
X0051060Y0158298D01*
X0050925Y0158382D01*
X0050792Y0158468D01*
X0050662Y0158558D01*
X0050534Y0158651D01*
X0050408Y0158747D01*
X0050285Y0158847D01*
X0050164Y0158949D01*
X0050046Y0159054D01*
X0049931Y0159163D01*
X0049818Y0159274D01*
X0049708Y0159388D01*
X0049601Y0159505D01*
X0049497Y0159624D01*
X0049396Y0159746D01*
X0049299Y0159871D01*
X0049204Y0159998D01*
X0049113Y0160127D01*
X0049024Y0160258D01*
X0048940Y0160392D01*
X0048858Y0160528D01*
X0048780Y0160665D01*
X0048706Y0160805D01*
X0048635Y0160947D01*
X0048567Y0161090D01*
X0048503Y0161235D01*
X0048443Y0161381D01*
X0048387Y0161529D01*
X0048334Y0161678D01*
X0048285Y0161829D01*
X0048240Y0161981D01*
X0048199Y0162134D01*
X0048161Y0162287D01*
X0048128Y0162442D01*
X0048098Y0162598D01*
X0048072Y0162754D01*
X0048051Y0162911D01*
X0048033Y0163068D01*
X0048019Y0163226D01*
X0048009Y0163384D01*
X0048003Y0163542D01*
X0048001Y0163700D01*
X0162701Y0068400D02*
X0162703Y0068558D01*
X0162709Y0068716D01*
X0162719Y0068874D01*
X0162733Y0069032D01*
X0162751Y0069189D01*
X0162772Y0069346D01*
X0162798Y0069502D01*
X0162828Y0069658D01*
X0162861Y0069813D01*
X0162899Y0069966D01*
X0162940Y0070119D01*
X0162985Y0070271D01*
X0163034Y0070422D01*
X0163087Y0070571D01*
X0163143Y0070719D01*
X0163203Y0070865D01*
X0163267Y0071010D01*
X0163335Y0071153D01*
X0163406Y0071295D01*
X0163480Y0071435D01*
X0163558Y0071572D01*
X0163640Y0071708D01*
X0163724Y0071842D01*
X0163813Y0071973D01*
X0163904Y0072102D01*
X0163999Y0072229D01*
X0164096Y0072354D01*
X0164197Y0072476D01*
X0164301Y0072595D01*
X0164408Y0072712D01*
X0164518Y0072826D01*
X0164631Y0072937D01*
X0164746Y0073046D01*
X0164864Y0073151D01*
X0164985Y0073253D01*
X0165108Y0073353D01*
X0165234Y0073449D01*
X0165362Y0073542D01*
X0165492Y0073632D01*
X0165625Y0073718D01*
X0165760Y0073802D01*
X0165896Y0073881D01*
X0166035Y0073958D01*
X0166176Y0074030D01*
X0166318Y0074100D01*
X0166462Y0074165D01*
X0166608Y0074227D01*
X0166755Y0074285D01*
X0166904Y0074340D01*
X0167054Y0074391D01*
X0167205Y0074438D01*
X0167357Y0074481D01*
X0167510Y0074520D01*
X0167665Y0074556D01*
X0167820Y0074587D01*
X0167976Y0074615D01*
X0168132Y0074639D01*
X0168289Y0074659D01*
X0168447Y0074675D01*
X0168604Y0074687D01*
X0168763Y0074695D01*
X0168921Y0074699D01*
X0169079Y0074699D01*
X0169237Y0074695D01*
X0169396Y0074687D01*
X0169553Y0074675D01*
X0169711Y0074659D01*
X0169868Y0074639D01*
X0170024Y0074615D01*
X0170180Y0074587D01*
X0170335Y0074556D01*
X0170490Y0074520D01*
X0170643Y0074481D01*
X0170795Y0074438D01*
X0170946Y0074391D01*
X0171096Y0074340D01*
X0171245Y0074285D01*
X0171392Y0074227D01*
X0171538Y0074165D01*
X0171682Y0074100D01*
X0171824Y0074030D01*
X0171965Y0073958D01*
X0172104Y0073881D01*
X0172240Y0073802D01*
X0172375Y0073718D01*
X0172508Y0073632D01*
X0172638Y0073542D01*
X0172766Y0073449D01*
X0172892Y0073353D01*
X0173015Y0073253D01*
X0173136Y0073151D01*
X0173254Y0073046D01*
X0173369Y0072937D01*
X0173482Y0072826D01*
X0173592Y0072712D01*
X0173699Y0072595D01*
X0173803Y0072476D01*
X0173904Y0072354D01*
X0174001Y0072229D01*
X0174096Y0072102D01*
X0174187Y0071973D01*
X0174276Y0071842D01*
X0174360Y0071708D01*
X0174442Y0071572D01*
X0174520Y0071435D01*
X0174594Y0071295D01*
X0174665Y0071153D01*
X0174733Y0071010D01*
X0174797Y0070865D01*
X0174857Y0070719D01*
X0174913Y0070571D01*
X0174966Y0070422D01*
X0175015Y0070271D01*
X0175060Y0070119D01*
X0175101Y0069966D01*
X0175139Y0069813D01*
X0175172Y0069658D01*
X0175202Y0069502D01*
X0175228Y0069346D01*
X0175249Y0069189D01*
X0175267Y0069032D01*
X0175281Y0068874D01*
X0175291Y0068716D01*
X0175297Y0068558D01*
X0175299Y0068400D01*
X0175297Y0068242D01*
X0175291Y0068084D01*
X0175281Y0067926D01*
X0175267Y0067768D01*
X0175249Y0067611D01*
X0175228Y0067454D01*
X0175202Y0067298D01*
X0175172Y0067142D01*
X0175139Y0066987D01*
X0175101Y0066834D01*
X0175060Y0066681D01*
X0175015Y0066529D01*
X0174966Y0066378D01*
X0174913Y0066229D01*
X0174857Y0066081D01*
X0174797Y0065935D01*
X0174733Y0065790D01*
X0174665Y0065647D01*
X0174594Y0065505D01*
X0174520Y0065365D01*
X0174442Y0065228D01*
X0174360Y0065092D01*
X0174276Y0064958D01*
X0174187Y0064827D01*
X0174096Y0064698D01*
X0174001Y0064571D01*
X0173904Y0064446D01*
X0173803Y0064324D01*
X0173699Y0064205D01*
X0173592Y0064088D01*
X0173482Y0063974D01*
X0173369Y0063863D01*
X0173254Y0063754D01*
X0173136Y0063649D01*
X0173015Y0063547D01*
X0172892Y0063447D01*
X0172766Y0063351D01*
X0172638Y0063258D01*
X0172508Y0063168D01*
X0172375Y0063082D01*
X0172240Y0062998D01*
X0172104Y0062919D01*
X0171965Y0062842D01*
X0171824Y0062770D01*
X0171682Y0062700D01*
X0171538Y0062635D01*
X0171392Y0062573D01*
X0171245Y0062515D01*
X0171096Y0062460D01*
X0170946Y0062409D01*
X0170795Y0062362D01*
X0170643Y0062319D01*
X0170490Y0062280D01*
X0170335Y0062244D01*
X0170180Y0062213D01*
X0170024Y0062185D01*
X0169868Y0062161D01*
X0169711Y0062141D01*
X0169553Y0062125D01*
X0169396Y0062113D01*
X0169237Y0062105D01*
X0169079Y0062101D01*
X0168921Y0062101D01*
X0168763Y0062105D01*
X0168604Y0062113D01*
X0168447Y0062125D01*
X0168289Y0062141D01*
X0168132Y0062161D01*
X0167976Y0062185D01*
X0167820Y0062213D01*
X0167665Y0062244D01*
X0167510Y0062280D01*
X0167357Y0062319D01*
X0167205Y0062362D01*
X0167054Y0062409D01*
X0166904Y0062460D01*
X0166755Y0062515D01*
X0166608Y0062573D01*
X0166462Y0062635D01*
X0166318Y0062700D01*
X0166176Y0062770D01*
X0166035Y0062842D01*
X0165896Y0062919D01*
X0165760Y0062998D01*
X0165625Y0063082D01*
X0165492Y0063168D01*
X0165362Y0063258D01*
X0165234Y0063351D01*
X0165108Y0063447D01*
X0164985Y0063547D01*
X0164864Y0063649D01*
X0164746Y0063754D01*
X0164631Y0063863D01*
X0164518Y0063974D01*
X0164408Y0064088D01*
X0164301Y0064205D01*
X0164197Y0064324D01*
X0164096Y0064446D01*
X0163999Y0064571D01*
X0163904Y0064698D01*
X0163813Y0064827D01*
X0163724Y0064958D01*
X0163640Y0065092D01*
X0163558Y0065228D01*
X0163480Y0065365D01*
X0163406Y0065505D01*
X0163335Y0065647D01*
X0163267Y0065790D01*
X0163203Y0065935D01*
X0163143Y0066081D01*
X0163087Y0066229D01*
X0163034Y0066378D01*
X0162985Y0066529D01*
X0162940Y0066681D01*
X0162899Y0066834D01*
X0162861Y0066987D01*
X0162828Y0067142D01*
X0162798Y0067298D01*
X0162772Y0067454D01*
X0162751Y0067611D01*
X0162733Y0067768D01*
X0162719Y0067926D01*
X0162709Y0068084D01*
X0162703Y0068242D01*
X0162701Y0068400D01*
X0083701Y0008800D02*
X0083703Y0008958D01*
X0083709Y0009116D01*
X0083719Y0009274D01*
X0083733Y0009432D01*
X0083751Y0009589D01*
X0083772Y0009746D01*
X0083798Y0009902D01*
X0083828Y0010058D01*
X0083861Y0010213D01*
X0083899Y0010366D01*
X0083940Y0010519D01*
X0083985Y0010671D01*
X0084034Y0010822D01*
X0084087Y0010971D01*
X0084143Y0011119D01*
X0084203Y0011265D01*
X0084267Y0011410D01*
X0084335Y0011553D01*
X0084406Y0011695D01*
X0084480Y0011835D01*
X0084558Y0011972D01*
X0084640Y0012108D01*
X0084724Y0012242D01*
X0084813Y0012373D01*
X0084904Y0012502D01*
X0084999Y0012629D01*
X0085096Y0012754D01*
X0085197Y0012876D01*
X0085301Y0012995D01*
X0085408Y0013112D01*
X0085518Y0013226D01*
X0085631Y0013337D01*
X0085746Y0013446D01*
X0085864Y0013551D01*
X0085985Y0013653D01*
X0086108Y0013753D01*
X0086234Y0013849D01*
X0086362Y0013942D01*
X0086492Y0014032D01*
X0086625Y0014118D01*
X0086760Y0014202D01*
X0086896Y0014281D01*
X0087035Y0014358D01*
X0087176Y0014430D01*
X0087318Y0014500D01*
X0087462Y0014565D01*
X0087608Y0014627D01*
X0087755Y0014685D01*
X0087904Y0014740D01*
X0088054Y0014791D01*
X0088205Y0014838D01*
X0088357Y0014881D01*
X0088510Y0014920D01*
X0088665Y0014956D01*
X0088820Y0014987D01*
X0088976Y0015015D01*
X0089132Y0015039D01*
X0089289Y0015059D01*
X0089447Y0015075D01*
X0089604Y0015087D01*
X0089763Y0015095D01*
X0089921Y0015099D01*
X0090079Y0015099D01*
X0090237Y0015095D01*
X0090396Y0015087D01*
X0090553Y0015075D01*
X0090711Y0015059D01*
X0090868Y0015039D01*
X0091024Y0015015D01*
X0091180Y0014987D01*
X0091335Y0014956D01*
X0091490Y0014920D01*
X0091643Y0014881D01*
X0091795Y0014838D01*
X0091946Y0014791D01*
X0092096Y0014740D01*
X0092245Y0014685D01*
X0092392Y0014627D01*
X0092538Y0014565D01*
X0092682Y0014500D01*
X0092824Y0014430D01*
X0092965Y0014358D01*
X0093104Y0014281D01*
X0093240Y0014202D01*
X0093375Y0014118D01*
X0093508Y0014032D01*
X0093638Y0013942D01*
X0093766Y0013849D01*
X0093892Y0013753D01*
X0094015Y0013653D01*
X0094136Y0013551D01*
X0094254Y0013446D01*
X0094369Y0013337D01*
X0094482Y0013226D01*
X0094592Y0013112D01*
X0094699Y0012995D01*
X0094803Y0012876D01*
X0094904Y0012754D01*
X0095001Y0012629D01*
X0095096Y0012502D01*
X0095187Y0012373D01*
X0095276Y0012242D01*
X0095360Y0012108D01*
X0095442Y0011972D01*
X0095520Y0011835D01*
X0095594Y0011695D01*
X0095665Y0011553D01*
X0095733Y0011410D01*
X0095797Y0011265D01*
X0095857Y0011119D01*
X0095913Y0010971D01*
X0095966Y0010822D01*
X0096015Y0010671D01*
X0096060Y0010519D01*
X0096101Y0010366D01*
X0096139Y0010213D01*
X0096172Y0010058D01*
X0096202Y0009902D01*
X0096228Y0009746D01*
X0096249Y0009589D01*
X0096267Y0009432D01*
X0096281Y0009274D01*
X0096291Y0009116D01*
X0096297Y0008958D01*
X0096299Y0008800D01*
X0096297Y0008642D01*
X0096291Y0008484D01*
X0096281Y0008326D01*
X0096267Y0008168D01*
X0096249Y0008011D01*
X0096228Y0007854D01*
X0096202Y0007698D01*
X0096172Y0007542D01*
X0096139Y0007387D01*
X0096101Y0007234D01*
X0096060Y0007081D01*
X0096015Y0006929D01*
X0095966Y0006778D01*
X0095913Y0006629D01*
X0095857Y0006481D01*
X0095797Y0006335D01*
X0095733Y0006190D01*
X0095665Y0006047D01*
X0095594Y0005905D01*
X0095520Y0005765D01*
X0095442Y0005628D01*
X0095360Y0005492D01*
X0095276Y0005358D01*
X0095187Y0005227D01*
X0095096Y0005098D01*
X0095001Y0004971D01*
X0094904Y0004846D01*
X0094803Y0004724D01*
X0094699Y0004605D01*
X0094592Y0004488D01*
X0094482Y0004374D01*
X0094369Y0004263D01*
X0094254Y0004154D01*
X0094136Y0004049D01*
X0094015Y0003947D01*
X0093892Y0003847D01*
X0093766Y0003751D01*
X0093638Y0003658D01*
X0093508Y0003568D01*
X0093375Y0003482D01*
X0093240Y0003398D01*
X0093104Y0003319D01*
X0092965Y0003242D01*
X0092824Y0003170D01*
X0092682Y0003100D01*
X0092538Y0003035D01*
X0092392Y0002973D01*
X0092245Y0002915D01*
X0092096Y0002860D01*
X0091946Y0002809D01*
X0091795Y0002762D01*
X0091643Y0002719D01*
X0091490Y0002680D01*
X0091335Y0002644D01*
X0091180Y0002613D01*
X0091024Y0002585D01*
X0090868Y0002561D01*
X0090711Y0002541D01*
X0090553Y0002525D01*
X0090396Y0002513D01*
X0090237Y0002505D01*
X0090079Y0002501D01*
X0089921Y0002501D01*
X0089763Y0002505D01*
X0089604Y0002513D01*
X0089447Y0002525D01*
X0089289Y0002541D01*
X0089132Y0002561D01*
X0088976Y0002585D01*
X0088820Y0002613D01*
X0088665Y0002644D01*
X0088510Y0002680D01*
X0088357Y0002719D01*
X0088205Y0002762D01*
X0088054Y0002809D01*
X0087904Y0002860D01*
X0087755Y0002915D01*
X0087608Y0002973D01*
X0087462Y0003035D01*
X0087318Y0003100D01*
X0087176Y0003170D01*
X0087035Y0003242D01*
X0086896Y0003319D01*
X0086760Y0003398D01*
X0086625Y0003482D01*
X0086492Y0003568D01*
X0086362Y0003658D01*
X0086234Y0003751D01*
X0086108Y0003847D01*
X0085985Y0003947D01*
X0085864Y0004049D01*
X0085746Y0004154D01*
X0085631Y0004263D01*
X0085518Y0004374D01*
X0085408Y0004488D01*
X0085301Y0004605D01*
X0085197Y0004724D01*
X0085096Y0004846D01*
X0084999Y0004971D01*
X0084904Y0005098D01*
X0084813Y0005227D01*
X0084724Y0005358D01*
X0084640Y0005492D01*
X0084558Y0005628D01*
X0084480Y0005765D01*
X0084406Y0005905D01*
X0084335Y0006047D01*
X0084267Y0006190D01*
X0084203Y0006335D01*
X0084143Y0006481D01*
X0084087Y0006629D01*
X0084034Y0006778D01*
X0083985Y0006929D01*
X0083940Y0007081D01*
X0083899Y0007234D01*
X0083861Y0007387D01*
X0083828Y0007542D01*
X0083798Y0007698D01*
X0083772Y0007854D01*
X0083751Y0008011D01*
X0083733Y0008168D01*
X0083719Y0008326D01*
X0083709Y0008484D01*
X0083703Y0008642D01*
X0083701Y0008800D01*
M02*
