G75*
%MOIN*%
%OFA0B0*%
%FSLAX25Y25*%
%IPPOS*%
%LPD*%
%AMOC8*
5,1,8,0,0,1.08239X$1,22.5*
%
%ADD10R,0.06693X0.11811*%
%ADD11R,0.03150X0.11811*%
%ADD12R,0.02717X0.03898*%
%ADD13R,0.02756X0.01969*%
%ADD14R,0.03543X0.02756*%
%ADD15R,0.01969X0.02756*%
%ADD16R,0.01969X0.00787*%
%ADD17R,0.00787X0.01969*%
%ADD18R,0.18110X0.18110*%
%ADD19R,0.02756X0.03543*%
%ADD20R,0.03150X0.03150*%
%ADD21C,0.00394*%
%ADD22C,0.00354*%
%ADD23C,0.00630*%
%ADD24C,0.00118*%
%ADD25R,0.03543X0.03937*%
%ADD26R,0.04000X0.10000*%
%ADD27R,0.05512X0.03937*%
%ADD28R,0.03937X0.05512*%
%ADD29R,0.01772X0.01772*%
%ADD30R,0.03740X0.03346*%
%ADD31R,0.04331X0.03937*%
%ADD32R,0.02600X0.02500*%
%ADD33C,0.00157*%
%ADD34C,0.01213*%
%ADD35R,0.08661X0.05118*%
%ADD36R,0.05906X0.03150*%
%ADD37R,0.07480X0.05512*%
%ADD38R,0.05512X0.07087*%
%ADD39R,0.33071X0.03937*%
%ADD40C,0.00600*%
%ADD41C,0.03000*%
%ADD42C,0.00700*%
%ADD43C,0.02919*%
%ADD44C,0.00866*%
%ADD45C,0.02400*%
%ADD46C,0.02900*%
%ADD47C,0.02600*%
%ADD48C,0.01600*%
D10*
X0123841Y0083974D03*
X0123841Y0068226D03*
X0113959Y0068226D03*
X0113959Y0083974D03*
D11*
X0130731Y0083974D03*
X0130731Y0068226D03*
X0107069Y0068226D03*
X0107069Y0083974D03*
D12*
X0098040Y0069018D03*
X0094300Y0069018D03*
X0090560Y0069018D03*
X0090560Y0058782D03*
X0094300Y0058782D03*
X0098040Y0058782D03*
D13*
X0127500Y0129775D03*
X0127500Y0126625D03*
X0128200Y0140675D03*
X0128200Y0137525D03*
X0131800Y0140675D03*
X0131800Y0137525D03*
X0132200Y0149125D03*
X0132200Y0152275D03*
X0117100Y0150875D03*
X0117100Y0147725D03*
X0102900Y0147575D03*
X0102900Y0144425D03*
X0091500Y0140475D03*
X0091500Y0137325D03*
X0086722Y0140437D03*
X0086722Y0143587D03*
X0099900Y0034125D03*
X0099900Y0037275D03*
X0080700Y0090825D03*
X0080700Y0093975D03*
X0100000Y0089175D03*
X0100000Y0086025D03*
X0095800Y0040125D03*
X0095800Y0043275D03*
X0070000Y0035575D03*
X0070000Y0032425D03*
X0066300Y0035475D03*
X0066300Y0032325D03*
X0106600Y0151075D03*
X0106600Y0147925D03*
X0070400Y0158925D03*
X0070400Y0162075D03*
X0070900Y0148675D03*
X0070900Y0145525D03*
D14*
X0091200Y0150159D03*
X0091200Y0145041D03*
D15*
X0116325Y0142900D03*
X0119475Y0142900D03*
X0088775Y0024400D03*
X0085625Y0024400D03*
X0094025Y0047300D03*
X0097175Y0047300D03*
X0079975Y0049300D03*
X0076825Y0049300D03*
X0125467Y0050115D03*
X0122318Y0050115D03*
X0087625Y0077400D03*
X0090775Y0077400D03*
X0125475Y0046500D03*
X0122325Y0046500D03*
X0130925Y0028200D03*
X0134075Y0028200D03*
X0124225Y0028200D03*
X0127375Y0028200D03*
X0125375Y0033200D03*
X0122225Y0033200D03*
X0125375Y0042600D03*
X0122225Y0042600D03*
X0091475Y0028200D03*
X0088325Y0028200D03*
X0091375Y0031900D03*
X0088225Y0031900D03*
X0099275Y0171400D03*
X0096125Y0171400D03*
X0099275Y0164500D03*
X0096125Y0164500D03*
X0099275Y0167900D03*
X0096125Y0167900D03*
X0130525Y0126600D03*
X0133675Y0126600D03*
X0020825Y0054100D03*
X0023975Y0054100D03*
X0023975Y0058800D03*
X0020825Y0058800D03*
X0024075Y0049500D03*
X0020925Y0049500D03*
D16*
X0099180Y0136861D03*
X0099180Y0135287D03*
X0099180Y0133712D03*
X0099180Y0132137D03*
X0099180Y0130562D03*
X0099180Y0128987D03*
X0099180Y0127413D03*
X0099180Y0125838D03*
X0099180Y0124263D03*
X0099180Y0122688D03*
X0099180Y0121113D03*
X0099180Y0119539D03*
X0121620Y0119539D03*
X0121620Y0121113D03*
X0121620Y0122688D03*
X0121620Y0124263D03*
X0121620Y0125838D03*
X0121620Y0127413D03*
X0121620Y0128987D03*
X0121620Y0130562D03*
X0121620Y0132137D03*
X0121620Y0133712D03*
X0121620Y0135287D03*
X0121620Y0136861D03*
D17*
X0101739Y0116980D03*
X0103313Y0116980D03*
X0104888Y0116980D03*
X0106463Y0116980D03*
X0108038Y0116980D03*
X0109613Y0116980D03*
X0111187Y0116980D03*
X0112762Y0116980D03*
X0114337Y0116980D03*
X0115912Y0116980D03*
X0117487Y0116980D03*
X0119061Y0116980D03*
X0119061Y0139420D03*
X0117487Y0139420D03*
X0115912Y0139420D03*
X0114337Y0139420D03*
X0112762Y0139420D03*
X0111187Y0139420D03*
X0109613Y0139420D03*
X0108038Y0139420D03*
X0106463Y0139420D03*
X0104888Y0139420D03*
X0103313Y0139420D03*
X0101739Y0139420D03*
D18*
X0110400Y0128200D03*
D19*
X0081641Y0040100D03*
X0086759Y0040100D03*
X0105741Y0036100D03*
X0110859Y0036100D03*
D20*
X0069947Y0039100D03*
X0075853Y0039100D03*
X0069947Y0043500D03*
X0075853Y0043500D03*
D21*
X0076347Y0033754D02*
X0074379Y0033754D01*
X0074379Y0034146D01*
X0076347Y0034146D01*
X0076347Y0033754D01*
X0076347Y0032179D02*
X0074379Y0032179D01*
X0074379Y0032571D01*
X0076347Y0032571D01*
X0076347Y0032179D01*
X0076347Y0030604D02*
X0074379Y0030604D01*
X0074379Y0030996D01*
X0076347Y0030996D01*
X0076347Y0030604D01*
X0076347Y0029029D02*
X0074379Y0029029D01*
X0074379Y0029421D01*
X0076347Y0029421D01*
X0076347Y0029029D01*
X0076347Y0027454D02*
X0074379Y0027454D01*
X0074379Y0027846D01*
X0076347Y0027846D01*
X0076347Y0027454D01*
X0084221Y0027454D02*
X0082253Y0027454D01*
X0082253Y0027846D01*
X0084221Y0027846D01*
X0084221Y0027454D01*
X0084221Y0029029D02*
X0082253Y0029029D01*
X0082253Y0029421D01*
X0084221Y0029421D01*
X0084221Y0029029D01*
X0084221Y0030604D02*
X0082253Y0030604D01*
X0082253Y0030996D01*
X0084221Y0030996D01*
X0084221Y0030604D01*
X0084221Y0032179D02*
X0082253Y0032179D01*
X0082253Y0032571D01*
X0084221Y0032571D01*
X0084221Y0032179D01*
X0084221Y0033754D02*
X0082253Y0033754D01*
X0082253Y0034146D01*
X0084221Y0034146D01*
X0084221Y0033754D01*
D22*
X0080894Y0033969D02*
X0080894Y0027631D01*
X0077706Y0027631D01*
X0077706Y0033969D01*
X0080894Y0033969D01*
X0080894Y0027984D02*
X0077706Y0027984D01*
X0077706Y0028337D02*
X0080894Y0028337D01*
X0080894Y0028690D02*
X0077706Y0028690D01*
X0077706Y0029043D02*
X0080894Y0029043D01*
X0080894Y0029396D02*
X0077706Y0029396D01*
X0077706Y0029749D02*
X0080894Y0029749D01*
X0080894Y0030102D02*
X0077706Y0030102D01*
X0077706Y0030455D02*
X0080894Y0030455D01*
X0080894Y0030808D02*
X0077706Y0030808D01*
X0077706Y0031161D02*
X0080894Y0031161D01*
X0080894Y0031514D02*
X0077706Y0031514D01*
X0077706Y0031867D02*
X0080894Y0031867D01*
X0080894Y0032220D02*
X0077706Y0032220D01*
X0077706Y0032573D02*
X0080894Y0032573D01*
X0080894Y0032926D02*
X0077706Y0032926D01*
X0077706Y0033279D02*
X0080894Y0033279D01*
X0080894Y0033632D02*
X0077706Y0033632D01*
D23*
X0102966Y0049609D02*
X0108634Y0049609D01*
X0108634Y0040791D01*
X0102966Y0040791D01*
X0102966Y0049609D01*
X0102966Y0041420D02*
X0108634Y0041420D01*
X0108634Y0042049D02*
X0102966Y0042049D01*
X0102966Y0042678D02*
X0108634Y0042678D01*
X0108634Y0043307D02*
X0102966Y0043307D01*
X0102966Y0043936D02*
X0108634Y0043936D01*
X0108634Y0044565D02*
X0102966Y0044565D01*
X0102966Y0045194D02*
X0108634Y0045194D01*
X0108634Y0045823D02*
X0102966Y0045823D01*
X0102966Y0046452D02*
X0108634Y0046452D01*
X0108634Y0047081D02*
X0102966Y0047081D01*
X0102966Y0047710D02*
X0108634Y0047710D01*
X0108634Y0048339D02*
X0102966Y0048339D01*
X0102966Y0048968D02*
X0108634Y0048968D01*
X0108634Y0049597D02*
X0102966Y0049597D01*
D24*
X0110781Y0041892D02*
X0112631Y0041892D01*
X0112631Y0040830D01*
X0110781Y0040830D01*
X0110781Y0041892D01*
X0110781Y0040947D02*
X0112631Y0040947D01*
X0112631Y0041064D02*
X0110781Y0041064D01*
X0110781Y0041181D02*
X0112631Y0041181D01*
X0112631Y0041298D02*
X0110781Y0041298D01*
X0110781Y0041415D02*
X0112631Y0041415D01*
X0112631Y0041532D02*
X0110781Y0041532D01*
X0110781Y0041649D02*
X0112631Y0041649D01*
X0112631Y0041766D02*
X0110781Y0041766D01*
X0110781Y0041883D02*
X0112631Y0041883D01*
X0110781Y0044451D02*
X0112631Y0044451D01*
X0112631Y0043389D01*
X0110781Y0043389D01*
X0110781Y0044451D01*
X0110781Y0043506D02*
X0112631Y0043506D01*
X0112631Y0043623D02*
X0110781Y0043623D01*
X0110781Y0043740D02*
X0112631Y0043740D01*
X0112631Y0043857D02*
X0110781Y0043857D01*
X0110781Y0043974D02*
X0112631Y0043974D01*
X0112631Y0044091D02*
X0110781Y0044091D01*
X0110781Y0044208D02*
X0112631Y0044208D01*
X0112631Y0044325D02*
X0110781Y0044325D01*
X0110781Y0044442D02*
X0112631Y0044442D01*
X0110781Y0047011D02*
X0112631Y0047011D01*
X0112631Y0045949D01*
X0110781Y0045949D01*
X0110781Y0047011D01*
X0110781Y0046066D02*
X0112631Y0046066D01*
X0112631Y0046183D02*
X0110781Y0046183D01*
X0110781Y0046300D02*
X0112631Y0046300D01*
X0112631Y0046417D02*
X0110781Y0046417D01*
X0110781Y0046534D02*
X0112631Y0046534D01*
X0112631Y0046651D02*
X0110781Y0046651D01*
X0110781Y0046768D02*
X0112631Y0046768D01*
X0112631Y0046885D02*
X0110781Y0046885D01*
X0110781Y0047002D02*
X0112631Y0047002D01*
X0110781Y0049570D02*
X0112631Y0049570D01*
X0112631Y0048508D01*
X0110781Y0048508D01*
X0110781Y0049570D01*
X0110781Y0048625D02*
X0112631Y0048625D01*
X0112631Y0048742D02*
X0110781Y0048742D01*
X0110781Y0048859D02*
X0112631Y0048859D01*
X0112631Y0048976D02*
X0110781Y0048976D01*
X0110781Y0049093D02*
X0112631Y0049093D01*
X0112631Y0049210D02*
X0110781Y0049210D01*
X0110781Y0049327D02*
X0112631Y0049327D01*
X0112631Y0049444D02*
X0110781Y0049444D01*
X0110781Y0049561D02*
X0112631Y0049561D01*
X0098969Y0049570D02*
X0100819Y0049570D01*
X0100819Y0048508D01*
X0098969Y0048508D01*
X0098969Y0049570D01*
X0098969Y0048625D02*
X0100819Y0048625D01*
X0100819Y0048742D02*
X0098969Y0048742D01*
X0098969Y0048859D02*
X0100819Y0048859D01*
X0100819Y0048976D02*
X0098969Y0048976D01*
X0098969Y0049093D02*
X0100819Y0049093D01*
X0100819Y0049210D02*
X0098969Y0049210D01*
X0098969Y0049327D02*
X0100819Y0049327D01*
X0100819Y0049444D02*
X0098969Y0049444D01*
X0098969Y0049561D02*
X0100819Y0049561D01*
X0098969Y0047011D02*
X0100819Y0047011D01*
X0100819Y0045949D01*
X0098969Y0045949D01*
X0098969Y0047011D01*
X0098969Y0046066D02*
X0100819Y0046066D01*
X0100819Y0046183D02*
X0098969Y0046183D01*
X0098969Y0046300D02*
X0100819Y0046300D01*
X0100819Y0046417D02*
X0098969Y0046417D01*
X0098969Y0046534D02*
X0100819Y0046534D01*
X0100819Y0046651D02*
X0098969Y0046651D01*
X0098969Y0046768D02*
X0100819Y0046768D01*
X0100819Y0046885D02*
X0098969Y0046885D01*
X0098969Y0047002D02*
X0100819Y0047002D01*
X0098969Y0044451D02*
X0100819Y0044451D01*
X0100819Y0043389D01*
X0098969Y0043389D01*
X0098969Y0044451D01*
X0098969Y0043506D02*
X0100819Y0043506D01*
X0100819Y0043623D02*
X0098969Y0043623D01*
X0098969Y0043740D02*
X0100819Y0043740D01*
X0100819Y0043857D02*
X0098969Y0043857D01*
X0098969Y0043974D02*
X0100819Y0043974D01*
X0100819Y0044091D02*
X0098969Y0044091D01*
X0098969Y0044208D02*
X0100819Y0044208D01*
X0100819Y0044325D02*
X0098969Y0044325D01*
X0098969Y0044442D02*
X0100819Y0044442D01*
X0098969Y0041892D02*
X0100819Y0041892D01*
X0100819Y0040830D01*
X0098969Y0040830D01*
X0098969Y0041892D01*
X0098969Y0040947D02*
X0100819Y0040947D01*
X0100819Y0041064D02*
X0098969Y0041064D01*
X0098969Y0041181D02*
X0100819Y0041181D01*
X0100819Y0041298D02*
X0098969Y0041298D01*
X0098969Y0041415D02*
X0100819Y0041415D01*
X0100819Y0041532D02*
X0098969Y0041532D01*
X0098969Y0041649D02*
X0100819Y0041649D01*
X0100819Y0041766D02*
X0098969Y0041766D01*
X0098969Y0041883D02*
X0100819Y0041883D01*
D25*
X0082653Y0065609D03*
X0076747Y0065609D03*
X0076747Y0054191D03*
X0082653Y0054191D03*
D26*
X0138000Y0126600D03*
X0164000Y0126600D03*
D27*
X0125360Y0037484D03*
X0134022Y0041224D03*
X0134022Y0033744D03*
D28*
X0116220Y0018052D03*
X0112480Y0027501D03*
X0119960Y0027501D03*
D29*
X0088327Y0171173D03*
X0091673Y0171173D03*
X0091673Y0167827D03*
X0088327Y0167827D03*
D30*
X0121646Y0147736D03*
X0127354Y0147736D03*
X0127354Y0152264D03*
X0121646Y0152264D03*
D31*
X0098700Y0143954D03*
X0098700Y0150646D03*
D32*
X0144800Y0073040D03*
X0157000Y0073040D03*
X0144800Y0062960D03*
X0157000Y0062960D03*
D33*
X0085197Y0094252D02*
X0085197Y0093622D01*
X0084173Y0093622D01*
X0084173Y0094252D01*
X0085197Y0094252D01*
X0085197Y0093778D02*
X0084173Y0093778D01*
X0084173Y0093934D02*
X0085197Y0093934D01*
X0085197Y0094090D02*
X0084173Y0094090D01*
X0084173Y0094246D02*
X0085197Y0094246D01*
X0085197Y0092677D02*
X0085197Y0092047D01*
X0084173Y0092047D01*
X0084173Y0092677D01*
X0085197Y0092677D01*
X0085197Y0092203D02*
X0084173Y0092203D01*
X0084173Y0092359D02*
X0085197Y0092359D01*
X0085197Y0092515D02*
X0084173Y0092515D01*
X0084173Y0092671D02*
X0085197Y0092671D01*
X0085197Y0091102D02*
X0085197Y0090472D01*
X0084173Y0090472D01*
X0084173Y0091102D01*
X0085197Y0091102D01*
X0085197Y0090628D02*
X0084173Y0090628D01*
X0084173Y0090784D02*
X0085197Y0090784D01*
X0085197Y0090940D02*
X0084173Y0090940D01*
X0084173Y0091096D02*
X0085197Y0091096D01*
X0085197Y0089528D02*
X0085197Y0088898D01*
X0084173Y0088898D01*
X0084173Y0089528D01*
X0085197Y0089528D01*
X0085197Y0089054D02*
X0084173Y0089054D01*
X0084173Y0089210D02*
X0085197Y0089210D01*
X0085197Y0089366D02*
X0084173Y0089366D01*
X0084173Y0089522D02*
X0085197Y0089522D01*
X0085197Y0087953D02*
X0085197Y0087323D01*
X0084173Y0087323D01*
X0084173Y0087953D01*
X0085197Y0087953D01*
X0085197Y0087479D02*
X0084173Y0087479D01*
X0084173Y0087635D02*
X0085197Y0087635D01*
X0085197Y0087791D02*
X0084173Y0087791D01*
X0084173Y0087947D02*
X0085197Y0087947D01*
X0085197Y0086378D02*
X0085197Y0085748D01*
X0084173Y0085748D01*
X0084173Y0086378D01*
X0085197Y0086378D01*
X0085197Y0085904D02*
X0084173Y0085904D01*
X0084173Y0086060D02*
X0085197Y0086060D01*
X0085197Y0086216D02*
X0084173Y0086216D01*
X0084173Y0086372D02*
X0085197Y0086372D01*
X0086378Y0084173D02*
X0085748Y0084173D01*
X0085748Y0085197D01*
X0086378Y0085197D01*
X0086378Y0084173D01*
X0086378Y0084329D02*
X0085748Y0084329D01*
X0085748Y0084485D02*
X0086378Y0084485D01*
X0086378Y0084641D02*
X0085748Y0084641D01*
X0085748Y0084797D02*
X0086378Y0084797D01*
X0086378Y0084953D02*
X0085748Y0084953D01*
X0085748Y0085109D02*
X0086378Y0085109D01*
X0087953Y0084173D02*
X0087323Y0084173D01*
X0087323Y0085197D01*
X0087953Y0085197D01*
X0087953Y0084173D01*
X0087953Y0084329D02*
X0087323Y0084329D01*
X0087323Y0084485D02*
X0087953Y0084485D01*
X0087953Y0084641D02*
X0087323Y0084641D01*
X0087323Y0084797D02*
X0087953Y0084797D01*
X0087953Y0084953D02*
X0087323Y0084953D01*
X0087323Y0085109D02*
X0087953Y0085109D01*
X0089528Y0084173D02*
X0088898Y0084173D01*
X0088898Y0085197D01*
X0089528Y0085197D01*
X0089528Y0084173D01*
X0089528Y0084329D02*
X0088898Y0084329D01*
X0088898Y0084485D02*
X0089528Y0084485D01*
X0089528Y0084641D02*
X0088898Y0084641D01*
X0088898Y0084797D02*
X0089528Y0084797D01*
X0089528Y0084953D02*
X0088898Y0084953D01*
X0088898Y0085109D02*
X0089528Y0085109D01*
X0091102Y0084173D02*
X0090472Y0084173D01*
X0090472Y0085197D01*
X0091102Y0085197D01*
X0091102Y0084173D01*
X0091102Y0084329D02*
X0090472Y0084329D01*
X0090472Y0084485D02*
X0091102Y0084485D01*
X0091102Y0084641D02*
X0090472Y0084641D01*
X0090472Y0084797D02*
X0091102Y0084797D01*
X0091102Y0084953D02*
X0090472Y0084953D01*
X0090472Y0085109D02*
X0091102Y0085109D01*
X0092677Y0084173D02*
X0092047Y0084173D01*
X0092047Y0085197D01*
X0092677Y0085197D01*
X0092677Y0084173D01*
X0092677Y0084329D02*
X0092047Y0084329D01*
X0092047Y0084485D02*
X0092677Y0084485D01*
X0092677Y0084641D02*
X0092047Y0084641D01*
X0092047Y0084797D02*
X0092677Y0084797D01*
X0092677Y0084953D02*
X0092047Y0084953D01*
X0092047Y0085109D02*
X0092677Y0085109D01*
X0094252Y0084173D02*
X0093622Y0084173D01*
X0093622Y0085197D01*
X0094252Y0085197D01*
X0094252Y0084173D01*
X0094252Y0084329D02*
X0093622Y0084329D01*
X0093622Y0084485D02*
X0094252Y0084485D01*
X0094252Y0084641D02*
X0093622Y0084641D01*
X0093622Y0084797D02*
X0094252Y0084797D01*
X0094252Y0084953D02*
X0093622Y0084953D01*
X0093622Y0085109D02*
X0094252Y0085109D01*
X0095827Y0086378D02*
X0095827Y0085748D01*
X0094803Y0085748D01*
X0094803Y0086378D01*
X0095827Y0086378D01*
X0095827Y0085904D02*
X0094803Y0085904D01*
X0094803Y0086060D02*
X0095827Y0086060D01*
X0095827Y0086216D02*
X0094803Y0086216D01*
X0094803Y0086372D02*
X0095827Y0086372D01*
X0095827Y0087953D02*
X0095827Y0087323D01*
X0094803Y0087323D01*
X0094803Y0087953D01*
X0095827Y0087953D01*
X0095827Y0087479D02*
X0094803Y0087479D01*
X0094803Y0087635D02*
X0095827Y0087635D01*
X0095827Y0087791D02*
X0094803Y0087791D01*
X0094803Y0087947D02*
X0095827Y0087947D01*
X0095827Y0089528D02*
X0095827Y0088898D01*
X0094803Y0088898D01*
X0094803Y0089528D01*
X0095827Y0089528D01*
X0095827Y0089054D02*
X0094803Y0089054D01*
X0094803Y0089210D02*
X0095827Y0089210D01*
X0095827Y0089366D02*
X0094803Y0089366D01*
X0094803Y0089522D02*
X0095827Y0089522D01*
X0095827Y0091102D02*
X0095827Y0090472D01*
X0094803Y0090472D01*
X0094803Y0091102D01*
X0095827Y0091102D01*
X0095827Y0090628D02*
X0094803Y0090628D01*
X0094803Y0090784D02*
X0095827Y0090784D01*
X0095827Y0090940D02*
X0094803Y0090940D01*
X0094803Y0091096D02*
X0095827Y0091096D01*
X0095827Y0092677D02*
X0095827Y0092047D01*
X0094803Y0092047D01*
X0094803Y0092677D01*
X0095827Y0092677D01*
X0095827Y0092203D02*
X0094803Y0092203D01*
X0094803Y0092359D02*
X0095827Y0092359D01*
X0095827Y0092515D02*
X0094803Y0092515D01*
X0094803Y0092671D02*
X0095827Y0092671D01*
X0095827Y0094252D02*
X0095827Y0093622D01*
X0094803Y0093622D01*
X0094803Y0094252D01*
X0095827Y0094252D01*
X0095827Y0093778D02*
X0094803Y0093778D01*
X0094803Y0093934D02*
X0095827Y0093934D01*
X0095827Y0094090D02*
X0094803Y0094090D01*
X0094803Y0094246D02*
X0095827Y0094246D01*
X0093622Y0095827D02*
X0094252Y0095827D01*
X0094252Y0094803D01*
X0093622Y0094803D01*
X0093622Y0095827D01*
X0093622Y0094959D02*
X0094252Y0094959D01*
X0094252Y0095115D02*
X0093622Y0095115D01*
X0093622Y0095271D02*
X0094252Y0095271D01*
X0094252Y0095427D02*
X0093622Y0095427D01*
X0093622Y0095583D02*
X0094252Y0095583D01*
X0094252Y0095739D02*
X0093622Y0095739D01*
X0092677Y0094803D02*
X0092047Y0094803D01*
X0092047Y0095827D01*
X0092677Y0095827D01*
X0092677Y0094803D01*
X0092677Y0094959D02*
X0092047Y0094959D01*
X0092047Y0095115D02*
X0092677Y0095115D01*
X0092677Y0095271D02*
X0092047Y0095271D01*
X0092047Y0095427D02*
X0092677Y0095427D01*
X0092677Y0095583D02*
X0092047Y0095583D01*
X0092047Y0095739D02*
X0092677Y0095739D01*
X0091102Y0094803D02*
X0090472Y0094803D01*
X0090472Y0095827D01*
X0091102Y0095827D01*
X0091102Y0094803D01*
X0091102Y0094959D02*
X0090472Y0094959D01*
X0090472Y0095115D02*
X0091102Y0095115D01*
X0091102Y0095271D02*
X0090472Y0095271D01*
X0090472Y0095427D02*
X0091102Y0095427D01*
X0091102Y0095583D02*
X0090472Y0095583D01*
X0090472Y0095739D02*
X0091102Y0095739D01*
X0089528Y0094803D02*
X0088898Y0094803D01*
X0088898Y0095827D01*
X0089528Y0095827D01*
X0089528Y0094803D01*
X0089528Y0094959D02*
X0088898Y0094959D01*
X0088898Y0095115D02*
X0089528Y0095115D01*
X0089528Y0095271D02*
X0088898Y0095271D01*
X0088898Y0095427D02*
X0089528Y0095427D01*
X0089528Y0095583D02*
X0088898Y0095583D01*
X0088898Y0095739D02*
X0089528Y0095739D01*
X0087953Y0094803D02*
X0087323Y0094803D01*
X0087323Y0095827D01*
X0087953Y0095827D01*
X0087953Y0094803D01*
X0087953Y0094959D02*
X0087323Y0094959D01*
X0087323Y0095115D02*
X0087953Y0095115D01*
X0087953Y0095271D02*
X0087323Y0095271D01*
X0087323Y0095427D02*
X0087953Y0095427D01*
X0087953Y0095583D02*
X0087323Y0095583D01*
X0087323Y0095739D02*
X0087953Y0095739D01*
X0086378Y0094803D02*
X0085748Y0094803D01*
X0085748Y0095827D01*
X0086378Y0095827D01*
X0086378Y0094803D01*
X0086378Y0094959D02*
X0085748Y0094959D01*
X0085748Y0095115D02*
X0086378Y0095115D01*
X0086378Y0095271D02*
X0085748Y0095271D01*
X0085748Y0095427D02*
X0086378Y0095427D01*
X0086378Y0095583D02*
X0085748Y0095583D01*
X0085748Y0095739D02*
X0086378Y0095739D01*
D34*
X0092740Y0092425D02*
X0092740Y0087575D01*
X0087260Y0087575D01*
X0087260Y0092425D01*
X0092740Y0092425D01*
X0092740Y0088787D02*
X0087260Y0088787D01*
X0087260Y0089999D02*
X0092740Y0089999D01*
X0092740Y0091211D02*
X0087260Y0091211D01*
X0087260Y0092423D02*
X0092740Y0092423D01*
D35*
X0077900Y0162068D03*
X0077900Y0145532D03*
D36*
X0023993Y0111654D03*
X0023993Y0107323D03*
X0023206Y0102992D03*
X0023993Y0098661D03*
X0023206Y0094331D03*
X0023993Y0090000D03*
X0025568Y0085669D03*
X0023993Y0081339D03*
D37*
X0013363Y0114803D03*
X0008835Y0063031D03*
D38*
X0064544Y0109291D03*
X0064544Y0086850D03*
D39*
X0042800Y0038088D03*
X0042839Y0054112D03*
D40*
X0127200Y0056800D02*
X0092900Y0056800D01*
X0092900Y0071100D01*
X0099500Y0071100D01*
X0099500Y0061100D01*
X0111100Y0061100D01*
X0111100Y0090200D01*
X0127200Y0090200D01*
X0127200Y0056800D01*
X0127200Y0056859D02*
X0092900Y0056859D01*
X0092900Y0057457D02*
X0127200Y0057457D01*
X0127200Y0058056D02*
X0092900Y0058056D01*
X0092900Y0058654D02*
X0127200Y0058654D01*
X0127200Y0059253D02*
X0092900Y0059253D01*
X0092900Y0059851D02*
X0127200Y0059851D01*
X0127200Y0060450D02*
X0092900Y0060450D01*
X0092900Y0061048D02*
X0127200Y0061048D01*
X0099500Y0061647D02*
X0092900Y0061647D01*
X0111100Y0061647D02*
X0127200Y0061647D01*
X0099500Y0062245D02*
X0092900Y0062245D01*
X0111100Y0062245D02*
X0127200Y0062245D01*
X0099500Y0062844D02*
X0092900Y0062844D01*
X0111100Y0062844D02*
X0127200Y0062844D01*
X0099500Y0063442D02*
X0092900Y0063442D01*
X0111100Y0063442D02*
X0127200Y0063442D01*
X0099500Y0064041D02*
X0092900Y0064041D01*
X0111100Y0064041D02*
X0127200Y0064041D01*
X0099500Y0064639D02*
X0092900Y0064639D01*
X0111100Y0064639D02*
X0127200Y0064639D01*
X0099500Y0065238D02*
X0092900Y0065238D01*
X0111100Y0065238D02*
X0127200Y0065238D01*
X0099500Y0065836D02*
X0092900Y0065836D01*
X0111100Y0065836D02*
X0127200Y0065836D01*
X0099500Y0066435D02*
X0092900Y0066435D01*
X0111100Y0066435D02*
X0127200Y0066435D01*
X0099500Y0067033D02*
X0092900Y0067033D01*
X0111100Y0067033D02*
X0127200Y0067033D01*
X0099500Y0067632D02*
X0092900Y0067632D01*
X0111100Y0067632D02*
X0127200Y0067632D01*
X0099500Y0068230D02*
X0092900Y0068230D01*
X0111100Y0068230D02*
X0127200Y0068230D01*
X0099500Y0068829D02*
X0092900Y0068829D01*
X0111100Y0068829D02*
X0127200Y0068829D01*
X0099500Y0069427D02*
X0092900Y0069427D01*
X0111100Y0069427D02*
X0127200Y0069427D01*
X0099500Y0070026D02*
X0092900Y0070026D01*
X0111100Y0070026D02*
X0127200Y0070026D01*
X0099500Y0070624D02*
X0092900Y0070624D01*
X0111100Y0070624D02*
X0127200Y0070624D01*
X0127200Y0071223D02*
X0111100Y0071223D01*
X0111100Y0071821D02*
X0127200Y0071821D01*
X0127200Y0072420D02*
X0111100Y0072420D01*
X0111100Y0073018D02*
X0127200Y0073018D01*
X0127200Y0073617D02*
X0111100Y0073617D01*
X0111100Y0074215D02*
X0127200Y0074215D01*
X0127200Y0074814D02*
X0111100Y0074814D01*
X0111100Y0075412D02*
X0127200Y0075412D01*
X0127200Y0076011D02*
X0111100Y0076011D01*
X0111100Y0076609D02*
X0127200Y0076609D01*
X0127200Y0077208D02*
X0111100Y0077208D01*
X0111100Y0077806D02*
X0127200Y0077806D01*
X0127200Y0078405D02*
X0111100Y0078405D01*
X0111100Y0079003D02*
X0127200Y0079003D01*
X0127200Y0079602D02*
X0111100Y0079602D01*
X0111100Y0080201D02*
X0127200Y0080201D01*
X0127200Y0080799D02*
X0111100Y0080799D01*
X0111100Y0081398D02*
X0127200Y0081398D01*
X0127200Y0081996D02*
X0111100Y0081996D01*
X0111100Y0082595D02*
X0127200Y0082595D01*
X0127200Y0083193D02*
X0111100Y0083193D01*
X0111100Y0083792D02*
X0127200Y0083792D01*
X0127200Y0084390D02*
X0111100Y0084390D01*
X0111100Y0084989D02*
X0127200Y0084989D01*
X0127200Y0085587D02*
X0111100Y0085587D01*
X0111100Y0086186D02*
X0127200Y0086186D01*
X0127200Y0086784D02*
X0111100Y0086784D01*
X0111100Y0087383D02*
X0127200Y0087383D01*
X0127200Y0087981D02*
X0111100Y0087981D01*
X0111100Y0088580D02*
X0127200Y0088580D01*
X0127200Y0089178D02*
X0111100Y0089178D01*
X0111100Y0089777D02*
X0127200Y0089777D01*
X0106463Y0116980D02*
X0106463Y0111600D01*
X0071700Y0111600D01*
X0090560Y0069018D02*
X0090560Y0071500D01*
X0071700Y0071500D01*
X0071700Y0111600D01*
X0121620Y0128987D02*
X0124387Y0128987D01*
X0125200Y0129800D01*
X0127475Y0129800D01*
X0127500Y0129775D01*
X0111706Y0049039D02*
X0105800Y0049039D01*
X0105800Y0050900D01*
X0075363Y0027650D02*
X0075363Y0027800D01*
X0079200Y0027800D01*
X0091375Y0031900D02*
X0094500Y0031900D01*
X0094500Y0030000D01*
X0094500Y0028200D01*
X0091475Y0028200D01*
X0088775Y0024400D02*
X0091475Y0024400D01*
X0091475Y0028200D01*
X0087625Y0077400D02*
X0084500Y0077300D01*
X0080700Y0087500D02*
X0080700Y0090825D01*
X0100000Y0089175D02*
X0100000Y0093900D01*
X0100000Y0093937D01*
X0092362Y0097600D02*
X0100000Y0097600D01*
X0100000Y0093900D01*
X0091463Y0140437D02*
X0091500Y0140475D01*
X0102900Y0147575D02*
X0103000Y0150800D01*
X0092362Y0097600D02*
X0092362Y0095315D01*
X0095315Y0093937D02*
X0095315Y0093900D01*
X0100000Y0093900D01*
X0110400Y0128200D02*
X0110400Y0130200D01*
X0076747Y0065609D02*
X0072300Y0065609D01*
X0072300Y0065600D01*
X0086722Y0140437D02*
X0083400Y0140437D01*
X0083000Y0140500D01*
X0134900Y0139700D02*
X0134700Y0139900D01*
X0127000Y0139900D01*
X0125700Y0141200D01*
X0125700Y0149200D01*
X0130600Y0149200D01*
X0130600Y0149800D01*
X0135692Y0149800D01*
X0135685Y0139700D01*
X0134900Y0139700D01*
X0135685Y0140052D02*
X0126848Y0140052D01*
X0126250Y0140650D02*
X0135685Y0140650D01*
X0135686Y0141249D02*
X0125700Y0141249D01*
X0125700Y0141847D02*
X0135686Y0141847D01*
X0135686Y0142446D02*
X0125700Y0142446D01*
X0125700Y0143044D02*
X0135687Y0143044D01*
X0135687Y0143643D02*
X0125700Y0143643D01*
X0125700Y0144241D02*
X0135688Y0144241D01*
X0135688Y0144840D02*
X0125700Y0144840D01*
X0125700Y0145438D02*
X0135689Y0145438D01*
X0135689Y0146037D02*
X0125700Y0146037D01*
X0125700Y0146635D02*
X0135689Y0146635D01*
X0135690Y0147234D02*
X0125700Y0147234D01*
X0125700Y0147832D02*
X0135690Y0147832D01*
X0135691Y0148431D02*
X0125700Y0148431D01*
X0125700Y0149029D02*
X0135691Y0149029D01*
X0135691Y0149628D02*
X0130600Y0149628D01*
X0121646Y0152264D02*
X0121646Y0155100D01*
X0117100Y0155100D01*
X0117100Y0150875D01*
X0090560Y0058782D02*
X0090560Y0062400D01*
X0086800Y0062400D01*
X0086800Y0049300D01*
X0079975Y0049300D01*
X0094025Y0047300D02*
X0094000Y0047300D01*
X0094000Y0050700D01*
X0094100Y0050600D01*
X0091500Y0140475D02*
X0086722Y0140475D01*
X0086722Y0140437D01*
X0115900Y0142900D02*
X0116325Y0142900D01*
X0070900Y0148675D02*
X0070900Y0150200D01*
X0074500Y0150200D01*
X0122225Y0042600D02*
X0119700Y0042600D01*
X0119700Y0049039D01*
X0111706Y0049039D01*
X0112480Y0027501D02*
X0108500Y0027501D01*
X0108500Y0027500D01*
X0125467Y0050115D02*
X0125467Y0050000D01*
X0129900Y0050000D01*
X0099900Y0034125D02*
X0105741Y0034125D01*
X0105741Y0036100D01*
X0070400Y0156000D02*
X0070400Y0158925D01*
X0091200Y0150159D02*
X0084900Y0150159D01*
X0084900Y0152000D01*
X0023206Y0102992D02*
X0023206Y0103000D01*
X0028300Y0103000D01*
X0024075Y0049500D02*
X0032300Y0049500D01*
X0032300Y0048600D01*
X0023975Y0058800D02*
X0029200Y0058800D01*
X0029200Y0059700D01*
X0075363Y0029225D02*
X0063600Y0029225D01*
X0063600Y0046500D01*
X0075853Y0046500D01*
X0075853Y0043500D01*
X0075853Y0039100D01*
X0075363Y0033950D02*
X0075853Y0033950D01*
X0075853Y0039100D01*
X0063600Y0046500D02*
X0063600Y0060000D01*
X0086200Y0161900D02*
X0095900Y0161900D01*
X0095900Y0154700D01*
X0086200Y0161900D02*
X0086200Y0167100D01*
X0068700Y0167100D01*
X0063600Y0060000D02*
X0057200Y0060000D01*
X0121600Y0107200D02*
X0121600Y0119518D01*
X0121620Y0119539D01*
X0121000Y0103100D02*
X0119061Y0105039D01*
X0119061Y0116980D01*
X0121620Y0121113D02*
X0123187Y0121113D01*
X0124200Y0120100D01*
X0124200Y0111400D01*
X0123900Y0111000D01*
X0121620Y0127413D02*
X0124387Y0127413D01*
X0125200Y0126600D01*
X0127475Y0126600D01*
X0127500Y0126625D01*
X0121620Y0130562D02*
X0123962Y0130562D01*
X0128500Y0135100D01*
X0130000Y0135100D01*
X0131800Y0136900D01*
X0131800Y0137525D01*
X0121620Y0132137D02*
X0123437Y0132137D01*
X0128200Y0136900D01*
X0128200Y0137525D01*
X0121620Y0133712D02*
X0123112Y0133712D01*
X0124900Y0135500D01*
X0124900Y0140300D01*
X0124500Y0140700D01*
X0124500Y0151000D01*
X0125764Y0152264D01*
X0127354Y0152264D01*
X0132200Y0152275D02*
X0127354Y0152275D01*
X0127354Y0152264D01*
X0121620Y0135287D02*
X0122787Y0135287D01*
X0123600Y0136100D01*
X0121700Y0141700D02*
X0121700Y0147682D01*
X0121646Y0147736D01*
X0123600Y0136100D02*
X0123600Y0139800D01*
X0121700Y0141700D01*
X0117100Y0147725D02*
X0117111Y0147736D01*
X0121646Y0147736D01*
X0103313Y0139420D02*
X0103313Y0141700D01*
X0098700Y0141700D01*
X0098700Y0143954D01*
X0106600Y0151075D02*
X0106600Y0153200D01*
X0098700Y0153200D01*
X0098700Y0150646D01*
X0104888Y0139420D02*
X0104888Y0144425D01*
X0102900Y0144425D01*
X0106600Y0147925D02*
X0106600Y0144425D01*
X0104888Y0144425D01*
X0103313Y0116980D02*
X0103313Y0114700D01*
X0068600Y0114700D01*
X0068600Y0060200D01*
X0082300Y0060200D01*
X0082300Y0054191D01*
X0082653Y0054191D01*
X0108038Y0116980D02*
X0108038Y0110100D01*
X0073300Y0110100D01*
X0073300Y0073300D01*
X0094500Y0073300D01*
X0094500Y0081800D01*
X0093937Y0081800D01*
X0093937Y0084685D01*
X0109613Y0116980D02*
X0109613Y0108500D01*
X0074700Y0108500D01*
X0074700Y0074800D01*
X0093100Y0074800D01*
X0093100Y0080300D01*
X0092362Y0080300D01*
X0092362Y0084685D01*
X0111187Y0116980D02*
X0111187Y0107000D01*
X0076300Y0107000D01*
X0076300Y0079700D01*
X0089200Y0079700D01*
X0089213Y0084685D02*
X0089213Y0079713D01*
X0089200Y0079700D01*
X0112762Y0116980D02*
X0112762Y0105500D01*
X0077800Y0105500D01*
X0077800Y0084685D01*
X0086063Y0084685D01*
X0114337Y0116980D02*
X0114337Y0104000D01*
X0086063Y0104000D01*
X0086063Y0095315D01*
X0115912Y0116980D02*
X0115912Y0102500D01*
X0087638Y0102500D01*
X0087638Y0095315D01*
X0117487Y0116980D02*
X0117487Y0101000D01*
X0089213Y0101000D01*
X0089213Y0095315D01*
X0090787Y0099600D02*
X0128500Y0099600D01*
X0121620Y0122688D02*
X0125412Y0122688D01*
X0128500Y0119600D01*
X0128500Y0099600D01*
X0090787Y0099600D02*
X0090787Y0095315D01*
X0099180Y0136861D02*
X0091500Y0136861D01*
X0091500Y0137325D01*
X0083237Y0027650D02*
X0083237Y0024400D01*
X0085625Y0024400D01*
X0083237Y0029225D02*
X0088225Y0029225D01*
X0088325Y0028200D01*
X0083237Y0030800D02*
X0088225Y0030800D01*
X0088225Y0031900D01*
X0134022Y0041224D02*
X0129600Y0041224D01*
X0129600Y0030700D01*
X0124225Y0030700D01*
X0124225Y0028200D01*
X0110859Y0036100D02*
X0116300Y0036100D01*
X0116300Y0023100D01*
X0116300Y0022800D01*
X0124225Y0022800D01*
X0124225Y0028200D01*
X0111706Y0043920D02*
X0116300Y0043920D01*
X0116300Y0041361D01*
X0116300Y0036100D01*
X0116300Y0041361D02*
X0111706Y0041361D01*
X0083237Y0033950D02*
X0084450Y0033950D01*
X0086759Y0036259D01*
X0086759Y0040100D01*
X0110859Y0036100D02*
X0110859Y0031400D01*
X0098200Y0031400D01*
X0089500Y0040100D01*
X0086759Y0040100D01*
X0083237Y0032375D02*
X0084875Y0032375D01*
X0088600Y0036100D01*
X0089600Y0036100D01*
X0075363Y0030800D02*
X0072500Y0030800D01*
X0072500Y0030500D01*
X0066300Y0030500D01*
X0066300Y0032325D01*
X0075363Y0032375D02*
X0070000Y0032375D01*
X0070000Y0032425D01*
X0070000Y0035575D02*
X0069947Y0035575D01*
X0069947Y0039100D01*
X0066300Y0035475D02*
X0066300Y0043500D01*
X0069947Y0043500D01*
X0099894Y0049039D02*
X0099894Y0052900D01*
X0091700Y0052900D01*
X0095800Y0043275D02*
X0091700Y0043275D01*
X0091700Y0052900D01*
X0100000Y0086025D02*
X0100000Y0086063D01*
X0099894Y0043920D02*
X0099894Y0041361D01*
X0099875Y0041361D01*
X0099900Y0037275D01*
X0101739Y0139420D02*
X0094600Y0139420D01*
X0094600Y0145000D01*
X0091200Y0145000D01*
X0091200Y0145041D01*
X0086822Y0145041D01*
X0086722Y0143587D01*
X0082451Y0092709D02*
X0079000Y0092709D01*
X0079000Y0104300D01*
X0084863Y0104300D01*
X0084863Y0097300D01*
X0082876Y0097300D01*
X0082700Y0097124D01*
X0082700Y0092460D01*
X0082451Y0092709D01*
X0088013Y0080900D02*
X0077500Y0080900D01*
X0077500Y0083485D01*
X0082700Y0083485D01*
X0082700Y0082876D01*
X0082876Y0082700D01*
X0088013Y0082700D01*
X0088013Y0080900D01*
X0097729Y0118339D02*
X0097822Y0118245D01*
X0100537Y0118245D01*
X0100754Y0118463D01*
X0100972Y0118245D01*
X0102020Y0118245D01*
X0102020Y0115900D01*
X0068103Y0115900D01*
X0067400Y0115197D01*
X0067400Y0113735D01*
X0065744Y0113735D01*
X0065744Y0118339D01*
X0097729Y0118339D01*
X0067400Y0104848D02*
X0067400Y0091294D01*
X0063200Y0091294D01*
X0063200Y0104848D01*
X0067400Y0104848D01*
X0063344Y0113735D02*
X0061415Y0113735D01*
X0060888Y0113207D01*
X0060888Y0109877D01*
X0060800Y0109788D01*
X0060800Y0088603D01*
X0060888Y0088515D01*
X0060888Y0082934D01*
X0061415Y0082407D01*
X0067400Y0082407D01*
X0067400Y0059703D01*
X0068103Y0059000D01*
X0081100Y0059000D01*
X0081100Y0057060D01*
X0080508Y0057060D01*
X0079981Y0056533D01*
X0079981Y0051850D01*
X0080253Y0051578D01*
X0078618Y0051578D01*
X0078091Y0051051D01*
X0078091Y0047549D01*
X0078618Y0047022D01*
X0081332Y0047022D01*
X0081859Y0047549D01*
X0081859Y0048100D01*
X0087297Y0048100D01*
X0088000Y0048803D01*
X0088000Y0060489D01*
X0088302Y0060790D01*
X0088302Y0056460D01*
X0088829Y0055933D01*
X0092070Y0055933D01*
X0092403Y0055600D01*
X0127697Y0055600D01*
X0128400Y0056303D01*
X0128400Y0090697D01*
X0127697Y0091400D01*
X0110603Y0091400D01*
X0109900Y0090697D01*
X0109900Y0090440D01*
X0109713Y0090252D01*
X0109713Y0077696D01*
X0109900Y0077508D01*
X0109900Y0074692D01*
X0109713Y0074504D01*
X0109713Y0062300D01*
X0100700Y0062300D01*
X0100700Y0071597D01*
X0099997Y0072300D01*
X0095197Y0072300D01*
X0095700Y0072803D01*
X0095700Y0082297D01*
X0095297Y0082700D01*
X0097124Y0082700D01*
X0097300Y0082876D01*
X0097300Y0092700D01*
X0097877Y0092700D01*
X0098800Y0091777D01*
X0098800Y0091059D01*
X0098249Y0091059D01*
X0097722Y0090532D01*
X0097722Y0087818D01*
X0098249Y0087291D01*
X0101751Y0087291D01*
X0102278Y0087818D01*
X0102278Y0090532D01*
X0101751Y0091059D01*
X0101200Y0091059D01*
X0101200Y0091777D01*
X0102350Y0092927D01*
X0102350Y0094873D01*
X0101200Y0096023D01*
X0101200Y0098097D01*
X0100897Y0098400D01*
X0128997Y0098400D01*
X0129700Y0099103D01*
X0129700Y0120097D01*
X0129247Y0120550D01*
X0129673Y0120550D01*
X0130250Y0121127D01*
X0130927Y0120450D01*
X0131550Y0120450D01*
X0131550Y0118527D01*
X0132927Y0117150D01*
X0134873Y0117150D01*
X0135669Y0117946D01*
X0135639Y0074240D01*
X0134903Y0074240D01*
X0134200Y0073537D01*
X0134200Y0055400D01*
X0121821Y0055400D01*
X0121118Y0054697D01*
X0121118Y0052393D01*
X0120961Y0052393D01*
X0120434Y0051866D01*
X0120434Y0050002D01*
X0120197Y0050239D01*
X0113318Y0050239D01*
X0113028Y0050529D01*
X0110383Y0050529D01*
X0110093Y0050239D01*
X0109724Y0050239D01*
X0109138Y0050824D01*
X0107900Y0050824D01*
X0107900Y0051777D01*
X0108150Y0052027D01*
X0108150Y0053973D01*
X0106773Y0055350D01*
X0104827Y0055350D01*
X0103450Y0053973D01*
X0103450Y0052027D01*
X0103700Y0051777D01*
X0103700Y0050824D01*
X0102462Y0050824D01*
X0101750Y0050113D01*
X0101750Y0049996D01*
X0101217Y0050529D01*
X0101094Y0050529D01*
X0101094Y0053397D01*
X0100392Y0054100D01*
X0091203Y0054100D01*
X0090500Y0053397D01*
X0090500Y0042778D01*
X0091203Y0042075D01*
X0093522Y0042075D01*
X0093522Y0041918D01*
X0094049Y0041391D01*
X0097551Y0041391D01*
X0098078Y0041918D01*
X0098078Y0044632D01*
X0097688Y0045022D01*
X0098532Y0045022D01*
X0098535Y0045026D01*
X0098572Y0044989D01*
X0101217Y0044989D01*
X0101750Y0045522D01*
X0101750Y0040287D01*
X0102462Y0039576D01*
X0103700Y0039576D01*
X0103700Y0038481D01*
X0103463Y0038244D01*
X0103463Y0035325D01*
X0102178Y0035325D01*
X0102178Y0035482D01*
X0101651Y0036009D01*
X0098149Y0036009D01*
X0097622Y0035482D01*
X0097622Y0033675D01*
X0090700Y0040597D01*
X0089997Y0041300D01*
X0089037Y0041300D01*
X0089037Y0042244D01*
X0088510Y0042772D01*
X0085008Y0042772D01*
X0084481Y0042244D01*
X0084481Y0037956D01*
X0085008Y0037428D01*
X0085559Y0037428D01*
X0085559Y0036756D01*
X0084046Y0035243D01*
X0081798Y0035243D01*
X0081471Y0034916D01*
X0081400Y0034987D01*
X0081400Y0037428D01*
X0083392Y0037428D01*
X0083919Y0037956D01*
X0083919Y0042244D01*
X0083392Y0042772D01*
X0079890Y0042772D01*
X0079363Y0042244D01*
X0079363Y0042200D01*
X0078430Y0042200D01*
X0078328Y0042097D01*
X0078328Y0045448D01*
X0077800Y0045975D01*
X0077053Y0045975D01*
X0077053Y0046997D01*
X0076350Y0047700D01*
X0064800Y0047700D01*
X0064800Y0060497D01*
X0064097Y0061200D01*
X0059111Y0061200D01*
X0058111Y0062200D01*
X0056289Y0062200D01*
X0055000Y0060911D01*
X0055000Y0059089D01*
X0056289Y0057800D01*
X0058111Y0057800D01*
X0059111Y0058800D01*
X0062400Y0058800D01*
X0062400Y0028728D01*
X0063103Y0028025D01*
X0073282Y0028025D01*
X0073282Y0026999D01*
X0073924Y0026357D01*
X0076802Y0026357D01*
X0077045Y0026600D01*
X0077100Y0026600D01*
X0077100Y0025323D01*
X0076850Y0025073D01*
X0076850Y0023127D01*
X0078227Y0021750D01*
X0080173Y0021750D01*
X0081550Y0023127D01*
X0081550Y0025073D01*
X0081300Y0025323D01*
X0081300Y0026554D01*
X0081341Y0026554D01*
X0081471Y0026684D01*
X0081798Y0026357D01*
X0082037Y0026357D01*
X0082037Y0023903D01*
X0082740Y0023200D01*
X0083741Y0023200D01*
X0083741Y0022649D01*
X0084268Y0022122D01*
X0086982Y0022122D01*
X0087200Y0022340D01*
X0087418Y0022122D01*
X0090132Y0022122D01*
X0090659Y0022649D01*
X0090659Y0023200D01*
X0091972Y0023200D01*
X0092675Y0023903D01*
X0092675Y0025922D01*
X0092832Y0025922D01*
X0093359Y0026449D01*
X0093359Y0027000D01*
X0094997Y0027000D01*
X0095700Y0027703D01*
X0095700Y0027877D01*
X0096850Y0029027D01*
X0096850Y0030973D01*
X0095700Y0032123D01*
X0095700Y0032203D01*
X0097703Y0030200D01*
X0109612Y0030200D01*
X0109612Y0029500D01*
X0109411Y0029700D01*
X0107589Y0029700D01*
X0106300Y0028411D01*
X0106300Y0026589D01*
X0107589Y0025300D01*
X0109411Y0025300D01*
X0109612Y0025500D01*
X0109612Y0024372D01*
X0110139Y0023845D01*
X0110441Y0023845D01*
X0109396Y0022800D01*
X0108689Y0022800D01*
X0107400Y0021511D01*
X0107400Y0019689D01*
X0108689Y0018400D01*
X0110511Y0018400D01*
X0111800Y0019689D01*
X0111800Y0020396D01*
X0112804Y0021400D01*
X0113571Y0021400D01*
X0113352Y0021181D01*
X0113352Y0014924D01*
X0113879Y0014396D01*
X0118561Y0014396D01*
X0119089Y0014924D01*
X0119089Y0016852D01*
X0127872Y0016852D01*
X0128575Y0017555D01*
X0128575Y0025922D01*
X0128732Y0025922D01*
X0129150Y0026340D01*
X0129568Y0025922D01*
X0132282Y0025922D01*
X0132500Y0026140D01*
X0132718Y0025922D01*
X0135432Y0025922D01*
X0135606Y0026096D01*
X0135600Y0018141D01*
X0134167Y0017142D01*
X0124488Y0012092D01*
X0114242Y0008321D01*
X0103598Y0005892D01*
X0100104Y0005555D01*
X0100599Y0007405D01*
X0100599Y0010195D01*
X0099877Y0012891D01*
X0098481Y0015308D01*
X0096508Y0017281D01*
X0094091Y0018677D01*
X0091395Y0019399D01*
X0088605Y0019399D01*
X0085909Y0018677D01*
X0083492Y0017281D01*
X0081519Y0015308D01*
X0080123Y0012891D01*
X0079401Y0010195D01*
X0079401Y0007405D01*
X0079911Y0005502D01*
X0071041Y0006936D01*
X0060575Y0010042D01*
X0050592Y0014462D01*
X0041256Y0020121D01*
X0032720Y0026928D01*
X0025125Y0034771D01*
X0018595Y0043520D01*
X0013237Y0053033D01*
X0010670Y0059376D01*
X0012948Y0059376D01*
X0013476Y0059903D01*
X0013476Y0061831D01*
X0022297Y0061831D01*
X0023000Y0062534D01*
X0023000Y0066189D01*
X0024000Y0067189D01*
X0024000Y0069011D01*
X0022711Y0070300D01*
X0020889Y0070300D01*
X0019600Y0069011D01*
X0019600Y0067189D01*
X0020600Y0066189D01*
X0020600Y0064231D01*
X0013476Y0064231D01*
X0013476Y0066160D01*
X0012948Y0066687D01*
X0009900Y0066687D01*
X0009900Y0111147D01*
X0017476Y0111147D01*
X0018003Y0111674D01*
X0018003Y0117932D01*
X0017476Y0118459D01*
X0009793Y0118459D01*
X0013237Y0126967D01*
X0018595Y0136480D01*
X0025125Y0145229D01*
X0032720Y0153072D01*
X0041256Y0159879D01*
X0043918Y0161493D01*
X0044423Y0159609D01*
X0045819Y0157192D01*
X0047792Y0155219D01*
X0050209Y0153823D01*
X0052905Y0153101D01*
X0055695Y0153101D01*
X0058391Y0153823D01*
X0060808Y0155219D01*
X0062781Y0157192D01*
X0064177Y0159609D01*
X0064899Y0162305D01*
X0064899Y0165095D01*
X0064177Y0167791D01*
X0062781Y0170208D01*
X0062470Y0170520D01*
X0071041Y0173064D01*
X0081819Y0174806D01*
X0092731Y0175156D01*
X0103598Y0174108D01*
X0114242Y0171679D01*
X0124488Y0167908D01*
X0134167Y0162858D01*
X0135700Y0161789D01*
X0135692Y0151000D01*
X0134478Y0151000D01*
X0134478Y0153632D01*
X0133951Y0154159D01*
X0130449Y0154159D01*
X0130124Y0153834D01*
X0130124Y0154310D01*
X0129597Y0154837D01*
X0125111Y0154837D01*
X0124584Y0154310D01*
X0124584Y0152781D01*
X0124564Y0152761D01*
X0124416Y0152613D01*
X0124416Y0154310D01*
X0123889Y0154837D01*
X0122846Y0154837D01*
X0122846Y0155597D01*
X0122143Y0156300D01*
X0119011Y0156300D01*
X0118011Y0157300D01*
X0116189Y0157300D01*
X0114900Y0156011D01*
X0114900Y0154189D01*
X0115900Y0153189D01*
X0115900Y0152759D01*
X0115349Y0152759D01*
X0114822Y0152232D01*
X0114822Y0149518D01*
X0115040Y0149300D01*
X0114822Y0149082D01*
X0114822Y0146368D01*
X0115349Y0145841D01*
X0118851Y0145841D01*
X0118876Y0145866D01*
X0118876Y0145690D01*
X0119403Y0145163D01*
X0120500Y0145163D01*
X0120500Y0141203D01*
X0122400Y0139303D01*
X0122400Y0136597D01*
X0122383Y0136580D01*
X0120355Y0136580D01*
X0120355Y0137628D01*
X0120137Y0137846D01*
X0120355Y0138063D01*
X0120355Y0140778D01*
X0119828Y0141305D01*
X0118295Y0141305D01*
X0118274Y0141284D01*
X0118253Y0141305D01*
X0118209Y0141305D01*
X0118209Y0144651D01*
X0117682Y0145178D01*
X0114968Y0145178D01*
X0114441Y0144651D01*
X0114441Y0144552D01*
X0113962Y0144073D01*
X0113962Y0170797D01*
X0113259Y0171500D01*
X0101159Y0171500D01*
X0101159Y0173151D01*
X0100632Y0173678D01*
X0097918Y0173678D01*
X0097700Y0173460D01*
X0097482Y0173678D01*
X0094768Y0173678D01*
X0094241Y0173151D01*
X0094241Y0172600D01*
X0093291Y0172600D01*
X0092932Y0172959D01*
X0090415Y0172959D01*
X0089887Y0172432D01*
X0089887Y0169915D01*
X0090302Y0169500D01*
X0090000Y0169198D01*
X0089585Y0169613D01*
X0087068Y0169613D01*
X0086541Y0169085D01*
X0086541Y0168300D01*
X0070611Y0168300D01*
X0069611Y0169300D01*
X0067789Y0169300D01*
X0066500Y0168011D01*
X0066500Y0166189D01*
X0067789Y0164900D01*
X0069611Y0164900D01*
X0070611Y0165900D01*
X0085000Y0165900D01*
X0085000Y0161403D01*
X0085703Y0160700D01*
X0094700Y0160700D01*
X0094700Y0156611D01*
X0093700Y0155611D01*
X0093700Y0153789D01*
X0094989Y0152500D01*
X0095635Y0152500D01*
X0095635Y0148305D01*
X0096162Y0147778D01*
X0100622Y0147778D01*
X0100622Y0146822D01*
X0096162Y0146822D01*
X0095635Y0146295D01*
X0095635Y0141612D01*
X0096162Y0141085D01*
X0097618Y0141085D01*
X0098203Y0140500D01*
X0102020Y0140500D01*
X0102020Y0138155D01*
X0100972Y0138155D01*
X0100754Y0137937D01*
X0100537Y0138155D01*
X0097822Y0138155D01*
X0097729Y0138061D01*
X0093778Y0138061D01*
X0093778Y0138682D01*
X0093560Y0138900D01*
X0093778Y0139118D01*
X0093778Y0141832D01*
X0093251Y0142359D01*
X0089749Y0142359D01*
X0089222Y0141832D01*
X0089222Y0141675D01*
X0089000Y0141675D01*
X0089000Y0141794D01*
X0088473Y0142322D01*
X0084971Y0142322D01*
X0084737Y0142087D01*
X0083973Y0142850D01*
X0083131Y0142850D01*
X0083131Y0148464D01*
X0082603Y0148991D01*
X0076403Y0148991D01*
X0076700Y0149289D01*
X0076700Y0151111D01*
X0075411Y0152400D01*
X0073589Y0152400D01*
X0072589Y0151400D01*
X0070403Y0151400D01*
X0069700Y0150697D01*
X0069700Y0150559D01*
X0069149Y0150559D01*
X0069000Y0150410D01*
X0069000Y0152400D01*
X0078397Y0152400D01*
X0079100Y0153103D01*
X0079100Y0158609D01*
X0082603Y0158609D01*
X0083131Y0159136D01*
X0083131Y0165000D01*
X0082603Y0165527D01*
X0073196Y0165527D01*
X0072669Y0165000D01*
X0072669Y0163440D01*
X0072151Y0163959D01*
X0068649Y0163959D01*
X0068122Y0163432D01*
X0068122Y0160718D01*
X0068340Y0160500D01*
X0068122Y0160282D01*
X0068122Y0157568D01*
X0068489Y0157201D01*
X0068200Y0156911D01*
X0068200Y0155089D01*
X0068489Y0154800D01*
X0067303Y0154800D01*
X0066600Y0154097D01*
X0066600Y0140803D01*
X0067303Y0140100D01*
X0074600Y0140100D01*
X0074600Y0133337D01*
X0023496Y0133337D01*
X0022793Y0132634D01*
X0022793Y0114128D01*
X0020667Y0114128D01*
X0020140Y0113601D01*
X0020140Y0109706D01*
X0020358Y0109488D01*
X0020140Y0109270D01*
X0020140Y0105467D01*
X0019880Y0105467D01*
X0019353Y0104940D01*
X0019353Y0101045D01*
X0019880Y0100517D01*
X0020140Y0100517D01*
X0020140Y0096714D01*
X0020667Y0096187D01*
X0027318Y0096187D01*
X0027846Y0096714D01*
X0027846Y0097461D01*
X0031497Y0097461D01*
X0031700Y0097664D01*
X0031700Y0091200D01*
X0027846Y0091200D01*
X0027846Y0091948D01*
X0027318Y0092475D01*
X0020667Y0092475D01*
X0020140Y0091948D01*
X0020140Y0088052D01*
X0020667Y0087525D01*
X0021715Y0087525D01*
X0021715Y0083813D01*
X0020667Y0083813D01*
X0020140Y0083286D01*
X0020140Y0079391D01*
X0020560Y0078971D01*
X0019500Y0077911D01*
X0019500Y0076089D01*
X0020789Y0074800D01*
X0022611Y0074800D01*
X0023611Y0075800D01*
X0038997Y0075800D01*
X0039700Y0076503D01*
X0039700Y0121488D01*
X0041639Y0121488D01*
X0041639Y0056980D01*
X0025931Y0056980D01*
X0025404Y0056453D01*
X0025404Y0056306D01*
X0025332Y0056378D01*
X0022618Y0056378D01*
X0022400Y0056160D01*
X0022182Y0056378D01*
X0022025Y0056378D01*
X0022025Y0056522D01*
X0022182Y0056522D01*
X0022400Y0056740D01*
X0022618Y0056522D01*
X0025332Y0056522D01*
X0025859Y0057049D01*
X0025859Y0057600D01*
X0028189Y0057600D01*
X0028289Y0057500D01*
X0030111Y0057500D01*
X0031400Y0058789D01*
X0031400Y0060611D01*
X0030111Y0061900D01*
X0028289Y0061900D01*
X0027000Y0060611D01*
X0027000Y0060000D01*
X0025859Y0060000D01*
X0025859Y0060551D01*
X0025332Y0061078D01*
X0022618Y0061078D01*
X0022400Y0060860D01*
X0022182Y0061078D01*
X0019468Y0061078D01*
X0018941Y0060551D01*
X0018941Y0057049D01*
X0019468Y0056522D01*
X0019625Y0056522D01*
X0019625Y0056378D01*
X0019468Y0056378D01*
X0018941Y0055851D01*
X0018941Y0052349D01*
X0019468Y0051822D01*
X0019625Y0051822D01*
X0019625Y0051778D01*
X0019568Y0051778D01*
X0019041Y0051251D01*
X0019041Y0047749D01*
X0019568Y0047222D01*
X0022282Y0047222D01*
X0022500Y0047440D01*
X0022718Y0047222D01*
X0025432Y0047222D01*
X0025959Y0047749D01*
X0025959Y0048300D01*
X0030100Y0048300D01*
X0030100Y0047689D01*
X0031389Y0046400D01*
X0033211Y0046400D01*
X0034500Y0047689D01*
X0034500Y0049511D01*
X0033211Y0050800D01*
X0031389Y0050800D01*
X0031289Y0050700D01*
X0025959Y0050700D01*
X0025959Y0051243D01*
X0059748Y0051243D01*
X0060275Y0051771D01*
X0060275Y0056453D01*
X0059748Y0056980D01*
X0044039Y0056980D01*
X0044039Y0119913D01*
X0063344Y0119913D01*
X0063344Y0113735D01*
X0089056Y0147881D02*
X0093344Y0147881D01*
X0093872Y0148408D01*
X0093872Y0151910D01*
X0093344Y0152437D01*
X0089056Y0152437D01*
X0088528Y0151910D01*
X0088528Y0151359D01*
X0087100Y0151359D01*
X0087100Y0152911D01*
X0085811Y0154200D01*
X0083989Y0154200D01*
X0082700Y0152911D01*
X0082700Y0151089D01*
X0083700Y0150089D01*
X0083700Y0149662D01*
X0084403Y0148959D01*
X0088528Y0148959D01*
X0088528Y0148408D01*
X0089056Y0147881D01*
X0079781Y0005985D02*
X0076924Y0005985D01*
X0100219Y0005985D02*
X0104005Y0005985D01*
X0079621Y0006584D02*
X0073222Y0006584D01*
X0100379Y0006584D02*
X0106628Y0006584D01*
X0079460Y0007182D02*
X0070212Y0007182D01*
X0100540Y0007182D02*
X0109250Y0007182D01*
X0079401Y0007781D02*
X0068196Y0007781D01*
X0100599Y0007781D02*
X0111872Y0007781D01*
X0079401Y0008379D02*
X0066179Y0008379D01*
X0100599Y0008379D02*
X0114398Y0008379D01*
X0079401Y0008978D02*
X0064163Y0008978D01*
X0100599Y0008978D02*
X0116025Y0008978D01*
X0079401Y0009576D02*
X0062146Y0009576D01*
X0100599Y0009576D02*
X0117651Y0009576D01*
X0079401Y0010175D02*
X0060276Y0010175D01*
X0100599Y0010175D02*
X0119278Y0010175D01*
X0079556Y0010773D02*
X0058924Y0010773D01*
X0100444Y0010773D02*
X0120904Y0010773D01*
X0079716Y0011372D02*
X0057572Y0011372D01*
X0100284Y0011372D02*
X0122530Y0011372D01*
X0079876Y0011970D02*
X0056220Y0011970D01*
X0100124Y0011970D02*
X0124157Y0011970D01*
X0080037Y0012569D02*
X0054868Y0012569D01*
X0099963Y0012569D02*
X0125401Y0012569D01*
X0080283Y0013167D02*
X0053516Y0013167D01*
X0099717Y0013167D02*
X0126549Y0013167D01*
X0080628Y0013766D02*
X0052164Y0013766D01*
X0099372Y0013766D02*
X0127696Y0013766D01*
X0080974Y0014364D02*
X0050812Y0014364D01*
X0099026Y0014364D02*
X0128843Y0014364D01*
X0081319Y0014963D02*
X0049765Y0014963D01*
X0098681Y0014963D02*
X0113352Y0014963D01*
X0119089Y0014963D02*
X0129990Y0014963D01*
X0081772Y0015561D02*
X0048778Y0015561D01*
X0098228Y0015561D02*
X0113352Y0015561D01*
X0119089Y0015561D02*
X0131137Y0015561D01*
X0082370Y0016160D02*
X0047791Y0016160D01*
X0097630Y0016160D02*
X0113352Y0016160D01*
X0119089Y0016160D02*
X0132285Y0016160D01*
X0082969Y0016758D02*
X0046803Y0016758D01*
X0097031Y0016758D02*
X0113352Y0016758D01*
X0119089Y0016758D02*
X0133432Y0016758D01*
X0083622Y0017357D02*
X0045816Y0017357D01*
X0096378Y0017357D02*
X0113352Y0017357D01*
X0128376Y0017357D02*
X0134475Y0017357D01*
X0084659Y0017955D02*
X0044829Y0017955D01*
X0095341Y0017955D02*
X0113352Y0017955D01*
X0128575Y0017955D02*
X0135333Y0017955D01*
X0085696Y0018554D02*
X0043841Y0018554D01*
X0094304Y0018554D02*
X0108535Y0018554D01*
X0110665Y0018554D02*
X0113352Y0018554D01*
X0128575Y0018554D02*
X0135600Y0018554D01*
X0087683Y0019152D02*
X0042854Y0019152D01*
X0092317Y0019152D02*
X0107936Y0019152D01*
X0111264Y0019152D02*
X0113352Y0019152D01*
X0128575Y0019152D02*
X0135601Y0019152D01*
X0107400Y0019751D02*
X0041867Y0019751D01*
X0111800Y0019751D02*
X0113352Y0019751D01*
X0128575Y0019751D02*
X0135601Y0019751D01*
X0107400Y0020349D02*
X0040970Y0020349D01*
X0111800Y0020349D02*
X0113352Y0020349D01*
X0128575Y0020349D02*
X0135602Y0020349D01*
X0107400Y0020948D02*
X0040219Y0020948D01*
X0112352Y0020948D02*
X0113352Y0020948D01*
X0128575Y0020948D02*
X0135602Y0020948D01*
X0107435Y0021546D02*
X0039469Y0021546D01*
X0128575Y0021546D02*
X0135602Y0021546D01*
X0077832Y0022145D02*
X0038718Y0022145D01*
X0080568Y0022145D02*
X0084245Y0022145D01*
X0087005Y0022145D02*
X0087395Y0022145D01*
X0090155Y0022145D02*
X0108034Y0022145D01*
X0128575Y0022145D02*
X0135603Y0022145D01*
X0077233Y0022743D02*
X0037968Y0022743D01*
X0081167Y0022743D02*
X0083741Y0022743D01*
X0090659Y0022743D02*
X0108632Y0022743D01*
X0128575Y0022743D02*
X0135603Y0022743D01*
X0076850Y0023342D02*
X0037217Y0023342D01*
X0081550Y0023342D02*
X0082598Y0023342D01*
X0092114Y0023342D02*
X0109938Y0023342D01*
X0128575Y0023342D02*
X0135604Y0023342D01*
X0076850Y0023940D02*
X0036467Y0023940D01*
X0081550Y0023940D02*
X0082037Y0023940D01*
X0092675Y0023940D02*
X0110043Y0023940D01*
X0128575Y0023940D02*
X0135604Y0023940D01*
X0076850Y0024539D02*
X0035716Y0024539D01*
X0081550Y0024539D02*
X0082037Y0024539D01*
X0092675Y0024539D02*
X0109612Y0024539D01*
X0128575Y0024539D02*
X0135605Y0024539D01*
X0076914Y0025137D02*
X0034966Y0025137D01*
X0081486Y0025137D02*
X0082037Y0025137D01*
X0092675Y0025137D02*
X0109612Y0025137D01*
X0128575Y0025137D02*
X0135605Y0025137D01*
X0077100Y0025736D02*
X0034215Y0025736D01*
X0081300Y0025736D02*
X0082037Y0025736D01*
X0092675Y0025736D02*
X0107153Y0025736D01*
X0128575Y0025736D02*
X0135605Y0025736D01*
X0077100Y0026334D02*
X0033465Y0026334D01*
X0081300Y0026334D02*
X0082037Y0026334D01*
X0093244Y0026334D02*
X0106554Y0026334D01*
X0129144Y0026334D02*
X0129156Y0026334D01*
X0073348Y0026933D02*
X0032715Y0026933D01*
X0093359Y0026933D02*
X0106300Y0026933D01*
X0073282Y0027532D02*
X0032136Y0027532D01*
X0095529Y0027532D02*
X0106300Y0027532D01*
X0062998Y0028130D02*
X0031556Y0028130D01*
X0095953Y0028130D02*
X0106300Y0028130D01*
X0062400Y0028729D02*
X0030977Y0028729D01*
X0096552Y0028729D02*
X0106617Y0028729D01*
X0062400Y0029327D02*
X0030397Y0029327D01*
X0096850Y0029327D02*
X0107216Y0029327D01*
X0062400Y0029926D02*
X0029817Y0029926D01*
X0096850Y0029926D02*
X0109612Y0029926D01*
X0062400Y0030524D02*
X0029238Y0030524D01*
X0096850Y0030524D02*
X0097379Y0030524D01*
X0062400Y0031123D02*
X0028658Y0031123D01*
X0096701Y0031123D02*
X0096780Y0031123D01*
X0062400Y0031721D02*
X0028078Y0031721D01*
X0096102Y0031721D02*
X0096182Y0031721D01*
X0062400Y0032320D02*
X0027499Y0032320D01*
X0026919Y0032918D02*
X0062400Y0032918D01*
X0062400Y0033517D02*
X0026340Y0033517D01*
X0025760Y0034115D02*
X0062400Y0034115D01*
X0097182Y0034115D02*
X0097622Y0034115D01*
X0062400Y0034714D02*
X0025180Y0034714D01*
X0096583Y0034714D02*
X0097622Y0034714D01*
X0062400Y0035312D02*
X0024721Y0035312D01*
X0081400Y0035312D02*
X0084115Y0035312D01*
X0095985Y0035312D02*
X0097622Y0035312D01*
X0062400Y0035911D02*
X0024274Y0035911D01*
X0081400Y0035911D02*
X0084714Y0035911D01*
X0095386Y0035911D02*
X0098050Y0035911D01*
X0101749Y0035911D02*
X0103463Y0035911D01*
X0062400Y0036509D02*
X0023827Y0036509D01*
X0081400Y0036509D02*
X0085312Y0036509D01*
X0094788Y0036509D02*
X0103463Y0036509D01*
X0062400Y0037108D02*
X0023381Y0037108D01*
X0081400Y0037108D02*
X0085559Y0037108D01*
X0094189Y0037108D02*
X0103463Y0037108D01*
X0062400Y0037706D02*
X0022934Y0037706D01*
X0083670Y0037706D02*
X0084730Y0037706D01*
X0093591Y0037706D02*
X0103463Y0037706D01*
X0062400Y0038305D02*
X0022487Y0038305D01*
X0083919Y0038305D02*
X0084481Y0038305D01*
X0092992Y0038305D02*
X0103523Y0038305D01*
X0062400Y0038903D02*
X0022041Y0038903D01*
X0083919Y0038903D02*
X0084481Y0038903D01*
X0092394Y0038903D02*
X0103700Y0038903D01*
X0062400Y0039502D02*
X0021594Y0039502D01*
X0083919Y0039502D02*
X0084481Y0039502D01*
X0091795Y0039502D02*
X0103700Y0039502D01*
X0062400Y0040100D02*
X0021147Y0040100D01*
X0083919Y0040100D02*
X0084481Y0040100D01*
X0091197Y0040100D02*
X0101937Y0040100D01*
X0062400Y0040699D02*
X0020701Y0040699D01*
X0083919Y0040699D02*
X0084481Y0040699D01*
X0090598Y0040699D02*
X0101750Y0040699D01*
X0062400Y0041297D02*
X0020254Y0041297D01*
X0083919Y0041297D02*
X0084481Y0041297D01*
X0090000Y0041297D02*
X0101750Y0041297D01*
X0062400Y0041896D02*
X0019807Y0041896D01*
X0083919Y0041896D02*
X0084481Y0041896D01*
X0089037Y0041896D02*
X0093544Y0041896D01*
X0098056Y0041896D02*
X0101750Y0041896D01*
X0062400Y0042494D02*
X0019361Y0042494D01*
X0078328Y0042494D02*
X0079613Y0042494D01*
X0083669Y0042494D02*
X0084731Y0042494D01*
X0088787Y0042494D02*
X0090783Y0042494D01*
X0098078Y0042494D02*
X0101750Y0042494D01*
X0062400Y0043093D02*
X0018914Y0043093D01*
X0078328Y0043093D02*
X0090500Y0043093D01*
X0098078Y0043093D02*
X0101750Y0043093D01*
X0062400Y0043691D02*
X0018499Y0043691D01*
X0078328Y0043691D02*
X0090500Y0043691D01*
X0098078Y0043691D02*
X0101750Y0043691D01*
X0062400Y0044290D02*
X0018162Y0044290D01*
X0078328Y0044290D02*
X0090500Y0044290D01*
X0098078Y0044290D02*
X0101750Y0044290D01*
X0062400Y0044888D02*
X0017824Y0044888D01*
X0078328Y0044888D02*
X0090500Y0044888D01*
X0097821Y0044888D02*
X0101750Y0044888D01*
X0062400Y0045487D02*
X0017487Y0045487D01*
X0078288Y0045487D02*
X0090500Y0045487D01*
X0101715Y0045487D02*
X0101750Y0045487D01*
X0062400Y0046085D02*
X0017150Y0046085D01*
X0077053Y0046085D02*
X0090500Y0046085D01*
X0031105Y0046684D02*
X0016813Y0046684D01*
X0033495Y0046684D02*
X0062400Y0046684D01*
X0077053Y0046684D02*
X0090500Y0046684D01*
X0019508Y0047282D02*
X0016476Y0047282D01*
X0022343Y0047282D02*
X0022657Y0047282D01*
X0025492Y0047282D02*
X0030506Y0047282D01*
X0034094Y0047282D02*
X0062400Y0047282D01*
X0076767Y0047282D02*
X0078357Y0047282D01*
X0081592Y0047282D02*
X0090500Y0047282D01*
X0019041Y0047881D02*
X0016139Y0047881D01*
X0025959Y0047881D02*
X0030100Y0047881D01*
X0034500Y0047881D02*
X0062400Y0047881D01*
X0064800Y0047881D02*
X0078091Y0047881D01*
X0081859Y0047881D02*
X0090500Y0047881D01*
X0019041Y0048479D02*
X0015802Y0048479D01*
X0034500Y0048479D02*
X0062400Y0048479D01*
X0064800Y0048479D02*
X0078091Y0048479D01*
X0087676Y0048479D02*
X0090500Y0048479D01*
X0019041Y0049078D02*
X0015465Y0049078D01*
X0034500Y0049078D02*
X0062400Y0049078D01*
X0064800Y0049078D02*
X0078091Y0049078D01*
X0088000Y0049078D02*
X0090500Y0049078D01*
X0019041Y0049676D02*
X0015128Y0049676D01*
X0034335Y0049676D02*
X0062400Y0049676D01*
X0064800Y0049676D02*
X0078091Y0049676D01*
X0088000Y0049676D02*
X0090500Y0049676D01*
X0019041Y0050275D02*
X0014791Y0050275D01*
X0033736Y0050275D02*
X0062400Y0050275D01*
X0064800Y0050275D02*
X0078091Y0050275D01*
X0088000Y0050275D02*
X0090500Y0050275D01*
X0101471Y0050275D02*
X0101913Y0050275D01*
X0109687Y0050275D02*
X0110129Y0050275D01*
X0113282Y0050275D02*
X0120434Y0050275D01*
X0019041Y0050873D02*
X0014454Y0050873D01*
X0025959Y0050873D02*
X0062400Y0050873D01*
X0064800Y0050873D02*
X0078091Y0050873D01*
X0088000Y0050873D02*
X0090500Y0050873D01*
X0101094Y0050873D02*
X0103700Y0050873D01*
X0107900Y0050873D02*
X0120434Y0050873D01*
X0019262Y0051472D02*
X0014117Y0051472D01*
X0059976Y0051472D02*
X0062400Y0051472D01*
X0064800Y0051472D02*
X0078512Y0051472D01*
X0088000Y0051472D02*
X0090500Y0051472D01*
X0101094Y0051472D02*
X0103700Y0051472D01*
X0107900Y0051472D02*
X0120434Y0051472D01*
X0019220Y0052070D02*
X0013780Y0052070D01*
X0060275Y0052070D02*
X0062400Y0052070D01*
X0064800Y0052070D02*
X0079981Y0052070D01*
X0088000Y0052070D02*
X0090500Y0052070D01*
X0101094Y0052070D02*
X0103450Y0052070D01*
X0108150Y0052070D02*
X0120638Y0052070D01*
X0018941Y0052669D02*
X0013443Y0052669D01*
X0060275Y0052669D02*
X0062400Y0052669D01*
X0064800Y0052669D02*
X0079981Y0052669D01*
X0088000Y0052669D02*
X0090500Y0052669D01*
X0101094Y0052669D02*
X0103450Y0052669D01*
X0108150Y0052669D02*
X0121118Y0052669D01*
X0018941Y0053268D02*
X0013143Y0053268D01*
X0060275Y0053268D02*
X0062400Y0053268D01*
X0064800Y0053268D02*
X0079981Y0053268D01*
X0088000Y0053268D02*
X0090500Y0053268D01*
X0101094Y0053268D02*
X0103450Y0053268D01*
X0108150Y0053268D02*
X0121118Y0053268D01*
X0018941Y0053866D02*
X0012900Y0053866D01*
X0060275Y0053866D02*
X0062400Y0053866D01*
X0064800Y0053866D02*
X0079981Y0053866D01*
X0088000Y0053866D02*
X0090969Y0053866D01*
X0100626Y0053866D02*
X0103450Y0053866D01*
X0108150Y0053866D02*
X0121118Y0053866D01*
X0018941Y0054465D02*
X0012658Y0054465D01*
X0060275Y0054465D02*
X0062400Y0054465D01*
X0064800Y0054465D02*
X0079981Y0054465D01*
X0088000Y0054465D02*
X0103941Y0054465D01*
X0107659Y0054465D02*
X0121118Y0054465D01*
X0018941Y0055063D02*
X0012416Y0055063D01*
X0060275Y0055063D02*
X0062400Y0055063D01*
X0064800Y0055063D02*
X0079981Y0055063D01*
X0088000Y0055063D02*
X0104540Y0055063D01*
X0107060Y0055063D02*
X0121484Y0055063D01*
X0018941Y0055662D02*
X0012173Y0055662D01*
X0060275Y0055662D02*
X0062400Y0055662D01*
X0064800Y0055662D02*
X0079981Y0055662D01*
X0088000Y0055662D02*
X0092341Y0055662D01*
X0127759Y0055662D02*
X0134200Y0055662D01*
X0019350Y0056260D02*
X0011931Y0056260D01*
X0022300Y0056260D02*
X0022500Y0056260D01*
X0060275Y0056260D02*
X0062400Y0056260D01*
X0064800Y0056260D02*
X0079981Y0056260D01*
X0088000Y0056260D02*
X0088502Y0056260D01*
X0128357Y0056260D02*
X0134200Y0056260D01*
X0019132Y0056859D02*
X0011689Y0056859D01*
X0025668Y0056859D02*
X0025809Y0056859D01*
X0059869Y0056859D02*
X0062400Y0056859D01*
X0064800Y0056859D02*
X0080307Y0056859D01*
X0088000Y0056859D02*
X0088302Y0056859D01*
X0128400Y0056859D02*
X0134200Y0056859D01*
X0018941Y0057457D02*
X0011446Y0057457D01*
X0025859Y0057457D02*
X0041639Y0057457D01*
X0044039Y0057457D02*
X0062400Y0057457D01*
X0064800Y0057457D02*
X0081100Y0057457D01*
X0088000Y0057457D02*
X0088302Y0057457D01*
X0128400Y0057457D02*
X0134200Y0057457D01*
X0018941Y0058056D02*
X0011204Y0058056D01*
X0030667Y0058056D02*
X0041639Y0058056D01*
X0044039Y0058056D02*
X0056033Y0058056D01*
X0058367Y0058056D02*
X0062400Y0058056D01*
X0064800Y0058056D02*
X0081100Y0058056D01*
X0088000Y0058056D02*
X0088302Y0058056D01*
X0128400Y0058056D02*
X0134200Y0058056D01*
X0018941Y0058654D02*
X0010962Y0058654D01*
X0031265Y0058654D02*
X0041639Y0058654D01*
X0044039Y0058654D02*
X0055435Y0058654D01*
X0058965Y0058654D02*
X0062400Y0058654D01*
X0064800Y0058654D02*
X0081100Y0058654D01*
X0088000Y0058654D02*
X0088302Y0058654D01*
X0128400Y0058654D02*
X0134200Y0058654D01*
X0018941Y0059253D02*
X0010719Y0059253D01*
X0031400Y0059253D02*
X0041639Y0059253D01*
X0044039Y0059253D02*
X0055000Y0059253D01*
X0064800Y0059253D02*
X0067850Y0059253D01*
X0088000Y0059253D02*
X0088302Y0059253D01*
X0128400Y0059253D02*
X0134200Y0059253D01*
X0018941Y0059851D02*
X0013424Y0059851D01*
X0031400Y0059851D02*
X0041639Y0059851D01*
X0044039Y0059851D02*
X0055000Y0059851D01*
X0064800Y0059851D02*
X0067400Y0059851D01*
X0088000Y0059851D02*
X0088302Y0059851D01*
X0128400Y0059851D02*
X0134200Y0059851D01*
X0018941Y0060450D02*
X0013476Y0060450D01*
X0025859Y0060450D02*
X0027000Y0060450D01*
X0031400Y0060450D02*
X0041639Y0060450D01*
X0044039Y0060450D02*
X0055000Y0060450D01*
X0064800Y0060450D02*
X0067400Y0060450D01*
X0088000Y0060450D02*
X0088302Y0060450D01*
X0128400Y0060450D02*
X0134200Y0060450D01*
X0019438Y0061048D02*
X0013476Y0061048D01*
X0022212Y0061048D02*
X0022588Y0061048D01*
X0025362Y0061048D02*
X0027437Y0061048D01*
X0030963Y0061048D02*
X0041639Y0061048D01*
X0044039Y0061048D02*
X0055137Y0061048D01*
X0064249Y0061048D02*
X0067400Y0061048D01*
X0128400Y0061048D02*
X0134200Y0061048D01*
X0028035Y0061647D02*
X0013476Y0061647D01*
X0030365Y0061647D02*
X0041639Y0061647D01*
X0044039Y0061647D02*
X0055735Y0061647D01*
X0058665Y0061647D02*
X0067400Y0061647D01*
X0128400Y0061647D02*
X0134200Y0061647D01*
X0041639Y0062245D02*
X0022711Y0062245D01*
X0044039Y0062245D02*
X0067400Y0062245D01*
X0128400Y0062245D02*
X0134200Y0062245D01*
X0041639Y0062844D02*
X0023000Y0062844D01*
X0044039Y0062844D02*
X0067400Y0062844D01*
X0100700Y0062844D02*
X0109713Y0062844D01*
X0128400Y0062844D02*
X0134200Y0062844D01*
X0041639Y0063442D02*
X0023000Y0063442D01*
X0044039Y0063442D02*
X0067400Y0063442D01*
X0100700Y0063442D02*
X0109713Y0063442D01*
X0128400Y0063442D02*
X0134200Y0063442D01*
X0041639Y0064041D02*
X0023000Y0064041D01*
X0044039Y0064041D02*
X0067400Y0064041D01*
X0100700Y0064041D02*
X0109713Y0064041D01*
X0128400Y0064041D02*
X0134200Y0064041D01*
X0020600Y0064639D02*
X0013476Y0064639D01*
X0023000Y0064639D02*
X0041639Y0064639D01*
X0044039Y0064639D02*
X0067400Y0064639D01*
X0100700Y0064639D02*
X0109713Y0064639D01*
X0128400Y0064639D02*
X0134200Y0064639D01*
X0020600Y0065238D02*
X0013476Y0065238D01*
X0023000Y0065238D02*
X0041639Y0065238D01*
X0044039Y0065238D02*
X0067400Y0065238D01*
X0100700Y0065238D02*
X0109713Y0065238D01*
X0128400Y0065238D02*
X0134200Y0065238D01*
X0020600Y0065836D02*
X0013476Y0065836D01*
X0023000Y0065836D02*
X0041639Y0065836D01*
X0044039Y0065836D02*
X0067400Y0065836D01*
X0100700Y0065836D02*
X0109713Y0065836D01*
X0128400Y0065836D02*
X0134200Y0065836D01*
X0020354Y0066435D02*
X0013201Y0066435D01*
X0023246Y0066435D02*
X0041639Y0066435D01*
X0044039Y0066435D02*
X0067400Y0066435D01*
X0100700Y0066435D02*
X0109713Y0066435D01*
X0128400Y0066435D02*
X0134200Y0066435D01*
X0019755Y0067033D02*
X0009900Y0067033D01*
X0023845Y0067033D02*
X0041639Y0067033D01*
X0044039Y0067033D02*
X0067400Y0067033D01*
X0100700Y0067033D02*
X0109713Y0067033D01*
X0128400Y0067033D02*
X0134200Y0067033D01*
X0019600Y0067632D02*
X0009900Y0067632D01*
X0024000Y0067632D02*
X0041639Y0067632D01*
X0044039Y0067632D02*
X0067400Y0067632D01*
X0100700Y0067632D02*
X0109713Y0067632D01*
X0128400Y0067632D02*
X0134200Y0067632D01*
X0019600Y0068230D02*
X0009900Y0068230D01*
X0024000Y0068230D02*
X0041639Y0068230D01*
X0044039Y0068230D02*
X0067400Y0068230D01*
X0100700Y0068230D02*
X0109713Y0068230D01*
X0128400Y0068230D02*
X0134200Y0068230D01*
X0019600Y0068829D02*
X0009900Y0068829D01*
X0024000Y0068829D02*
X0041639Y0068829D01*
X0044039Y0068829D02*
X0067400Y0068829D01*
X0100700Y0068829D02*
X0109713Y0068829D01*
X0128400Y0068829D02*
X0134200Y0068829D01*
X0020016Y0069427D02*
X0009900Y0069427D01*
X0023584Y0069427D02*
X0041639Y0069427D01*
X0044039Y0069427D02*
X0067400Y0069427D01*
X0100700Y0069427D02*
X0109713Y0069427D01*
X0128400Y0069427D02*
X0134200Y0069427D01*
X0020615Y0070026D02*
X0009900Y0070026D01*
X0022985Y0070026D02*
X0041639Y0070026D01*
X0044039Y0070026D02*
X0067400Y0070026D01*
X0100700Y0070026D02*
X0109713Y0070026D01*
X0128400Y0070026D02*
X0134200Y0070026D01*
X0041639Y0070624D02*
X0009900Y0070624D01*
X0044039Y0070624D02*
X0067400Y0070624D01*
X0100700Y0070624D02*
X0109713Y0070624D01*
X0128400Y0070624D02*
X0134200Y0070624D01*
X0041639Y0071223D02*
X0009900Y0071223D01*
X0044039Y0071223D02*
X0067400Y0071223D01*
X0100700Y0071223D02*
X0109713Y0071223D01*
X0128400Y0071223D02*
X0134200Y0071223D01*
X0041639Y0071821D02*
X0009900Y0071821D01*
X0044039Y0071821D02*
X0067400Y0071821D01*
X0100476Y0071821D02*
X0109713Y0071821D01*
X0128400Y0071821D02*
X0134200Y0071821D01*
X0041639Y0072420D02*
X0009900Y0072420D01*
X0044039Y0072420D02*
X0067400Y0072420D01*
X0095317Y0072420D02*
X0109713Y0072420D01*
X0128400Y0072420D02*
X0134200Y0072420D01*
X0041639Y0073018D02*
X0009900Y0073018D01*
X0044039Y0073018D02*
X0067400Y0073018D01*
X0095700Y0073018D02*
X0109713Y0073018D01*
X0128400Y0073018D02*
X0134200Y0073018D01*
X0041639Y0073617D02*
X0009900Y0073617D01*
X0044039Y0073617D02*
X0067400Y0073617D01*
X0095700Y0073617D02*
X0109713Y0073617D01*
X0128400Y0073617D02*
X0134280Y0073617D01*
X0041639Y0074215D02*
X0009900Y0074215D01*
X0044039Y0074215D02*
X0067400Y0074215D01*
X0095700Y0074215D02*
X0109713Y0074215D01*
X0128400Y0074215D02*
X0134878Y0074215D01*
X0020775Y0074814D02*
X0009900Y0074814D01*
X0022625Y0074814D02*
X0041639Y0074814D01*
X0044039Y0074814D02*
X0067400Y0074814D01*
X0095700Y0074814D02*
X0109900Y0074814D01*
X0128400Y0074814D02*
X0135639Y0074814D01*
X0020176Y0075412D02*
X0009900Y0075412D01*
X0023224Y0075412D02*
X0041639Y0075412D01*
X0044039Y0075412D02*
X0067400Y0075412D01*
X0095700Y0075412D02*
X0109900Y0075412D01*
X0128400Y0075412D02*
X0135640Y0075412D01*
X0019578Y0076011D02*
X0009900Y0076011D01*
X0039208Y0076011D02*
X0041639Y0076011D01*
X0044039Y0076011D02*
X0067400Y0076011D01*
X0095700Y0076011D02*
X0109900Y0076011D01*
X0128400Y0076011D02*
X0135640Y0076011D01*
X0019500Y0076609D02*
X0009900Y0076609D01*
X0039700Y0076609D02*
X0041639Y0076609D01*
X0044039Y0076609D02*
X0067400Y0076609D01*
X0095700Y0076609D02*
X0109900Y0076609D01*
X0128400Y0076609D02*
X0135641Y0076609D01*
X0019500Y0077208D02*
X0009900Y0077208D01*
X0039700Y0077208D02*
X0041639Y0077208D01*
X0044039Y0077208D02*
X0067400Y0077208D01*
X0095700Y0077208D02*
X0109900Y0077208D01*
X0128400Y0077208D02*
X0135641Y0077208D01*
X0019500Y0077806D02*
X0009900Y0077806D01*
X0039700Y0077806D02*
X0041639Y0077806D01*
X0044039Y0077806D02*
X0067400Y0077806D01*
X0095700Y0077806D02*
X0109713Y0077806D01*
X0128400Y0077806D02*
X0135642Y0077806D01*
X0019994Y0078405D02*
X0009900Y0078405D01*
X0039700Y0078405D02*
X0041639Y0078405D01*
X0044039Y0078405D02*
X0067400Y0078405D01*
X0095700Y0078405D02*
X0109713Y0078405D01*
X0128400Y0078405D02*
X0135642Y0078405D01*
X0020528Y0079003D02*
X0009900Y0079003D01*
X0039700Y0079003D02*
X0041639Y0079003D01*
X0044039Y0079003D02*
X0067400Y0079003D01*
X0095700Y0079003D02*
X0109713Y0079003D01*
X0128400Y0079003D02*
X0135642Y0079003D01*
X0020140Y0079602D02*
X0009900Y0079602D01*
X0039700Y0079602D02*
X0041639Y0079602D01*
X0044039Y0079602D02*
X0067400Y0079602D01*
X0095700Y0079602D02*
X0109713Y0079602D01*
X0128400Y0079602D02*
X0135643Y0079602D01*
X0020140Y0080201D02*
X0009900Y0080201D01*
X0039700Y0080201D02*
X0041639Y0080201D01*
X0044039Y0080201D02*
X0067400Y0080201D01*
X0095700Y0080201D02*
X0109713Y0080201D01*
X0128400Y0080201D02*
X0135643Y0080201D01*
X0020140Y0080799D02*
X0009900Y0080799D01*
X0039700Y0080799D02*
X0041639Y0080799D01*
X0044039Y0080799D02*
X0067400Y0080799D01*
X0095700Y0080799D02*
X0109713Y0080799D01*
X0128400Y0080799D02*
X0135644Y0080799D01*
X0020140Y0081398D02*
X0009900Y0081398D01*
X0039700Y0081398D02*
X0041639Y0081398D01*
X0044039Y0081398D02*
X0067400Y0081398D01*
X0077500Y0081398D02*
X0088013Y0081398D01*
X0095700Y0081398D02*
X0109713Y0081398D01*
X0128400Y0081398D02*
X0135644Y0081398D01*
X0020140Y0081996D02*
X0009900Y0081996D01*
X0039700Y0081996D02*
X0041639Y0081996D01*
X0044039Y0081996D02*
X0067400Y0081996D01*
X0077500Y0081996D02*
X0088013Y0081996D01*
X0095700Y0081996D02*
X0109713Y0081996D01*
X0128400Y0081996D02*
X0135644Y0081996D01*
X0020140Y0082595D02*
X0009900Y0082595D01*
X0039700Y0082595D02*
X0041639Y0082595D01*
X0044039Y0082595D02*
X0061228Y0082595D01*
X0077500Y0082595D02*
X0088013Y0082595D01*
X0095402Y0082595D02*
X0109713Y0082595D01*
X0128400Y0082595D02*
X0135645Y0082595D01*
X0020140Y0083193D02*
X0009900Y0083193D01*
X0039700Y0083193D02*
X0041639Y0083193D01*
X0044039Y0083193D02*
X0060888Y0083193D01*
X0077500Y0083193D02*
X0082700Y0083193D01*
X0097300Y0083193D02*
X0109713Y0083193D01*
X0128400Y0083193D02*
X0135645Y0083193D01*
X0020646Y0083792D02*
X0009900Y0083792D01*
X0039700Y0083792D02*
X0041639Y0083792D01*
X0044039Y0083792D02*
X0060888Y0083792D01*
X0097300Y0083792D02*
X0109713Y0083792D01*
X0128400Y0083792D02*
X0135646Y0083792D01*
X0021715Y0084390D02*
X0009900Y0084390D01*
X0039700Y0084390D02*
X0041639Y0084390D01*
X0044039Y0084390D02*
X0060888Y0084390D01*
X0097300Y0084390D02*
X0109713Y0084390D01*
X0128400Y0084390D02*
X0135646Y0084390D01*
X0021715Y0084989D02*
X0009900Y0084989D01*
X0039700Y0084989D02*
X0041639Y0084989D01*
X0044039Y0084989D02*
X0060888Y0084989D01*
X0097300Y0084989D02*
X0109713Y0084989D01*
X0128400Y0084989D02*
X0135647Y0084989D01*
X0021715Y0085587D02*
X0009900Y0085587D01*
X0039700Y0085587D02*
X0041639Y0085587D01*
X0044039Y0085587D02*
X0060888Y0085587D01*
X0097300Y0085587D02*
X0109713Y0085587D01*
X0128400Y0085587D02*
X0135647Y0085587D01*
X0021715Y0086186D02*
X0009900Y0086186D01*
X0039700Y0086186D02*
X0041639Y0086186D01*
X0044039Y0086186D02*
X0060888Y0086186D01*
X0097300Y0086186D02*
X0109713Y0086186D01*
X0128400Y0086186D02*
X0135647Y0086186D01*
X0021715Y0086784D02*
X0009900Y0086784D01*
X0039700Y0086784D02*
X0041639Y0086784D01*
X0044039Y0086784D02*
X0060888Y0086784D01*
X0097300Y0086784D02*
X0109713Y0086784D01*
X0128400Y0086784D02*
X0135648Y0086784D01*
X0021715Y0087383D02*
X0009900Y0087383D01*
X0039700Y0087383D02*
X0041639Y0087383D01*
X0044039Y0087383D02*
X0060888Y0087383D01*
X0097300Y0087383D02*
X0098157Y0087383D01*
X0101843Y0087383D02*
X0109713Y0087383D01*
X0128400Y0087383D02*
X0135648Y0087383D01*
X0020211Y0087981D02*
X0009900Y0087981D01*
X0039700Y0087981D02*
X0041639Y0087981D01*
X0044039Y0087981D02*
X0060888Y0087981D01*
X0097300Y0087981D02*
X0097722Y0087981D01*
X0102278Y0087981D02*
X0109713Y0087981D01*
X0128400Y0087981D02*
X0135649Y0087981D01*
X0020140Y0088580D02*
X0009900Y0088580D01*
X0039700Y0088580D02*
X0041639Y0088580D01*
X0044039Y0088580D02*
X0060823Y0088580D01*
X0097300Y0088580D02*
X0097722Y0088580D01*
X0102278Y0088580D02*
X0109713Y0088580D01*
X0128400Y0088580D02*
X0135649Y0088580D01*
X0020140Y0089178D02*
X0009900Y0089178D01*
X0039700Y0089178D02*
X0041639Y0089178D01*
X0044039Y0089178D02*
X0060800Y0089178D01*
X0097300Y0089178D02*
X0097722Y0089178D01*
X0102278Y0089178D02*
X0109713Y0089178D01*
X0128400Y0089178D02*
X0135649Y0089178D01*
X0020140Y0089777D02*
X0009900Y0089777D01*
X0039700Y0089777D02*
X0041639Y0089777D01*
X0044039Y0089777D02*
X0060800Y0089777D01*
X0097300Y0089777D02*
X0097722Y0089777D01*
X0102278Y0089777D02*
X0109713Y0089777D01*
X0128400Y0089777D02*
X0135650Y0089777D01*
X0020140Y0090375D02*
X0009900Y0090375D01*
X0039700Y0090375D02*
X0041639Y0090375D01*
X0044039Y0090375D02*
X0060800Y0090375D01*
X0097300Y0090375D02*
X0097722Y0090375D01*
X0102278Y0090375D02*
X0109835Y0090375D01*
X0128400Y0090375D02*
X0135650Y0090375D01*
X0020140Y0090974D02*
X0009900Y0090974D01*
X0039700Y0090974D02*
X0041639Y0090974D01*
X0044039Y0090974D02*
X0060800Y0090974D01*
X0097300Y0090974D02*
X0098164Y0090974D01*
X0101836Y0090974D02*
X0110177Y0090974D01*
X0128123Y0090974D02*
X0135651Y0090974D01*
X0020140Y0091572D02*
X0009900Y0091572D01*
X0027846Y0091572D02*
X0031700Y0091572D01*
X0039700Y0091572D02*
X0041639Y0091572D01*
X0044039Y0091572D02*
X0060800Y0091572D01*
X0063200Y0091572D02*
X0067400Y0091572D01*
X0097300Y0091572D02*
X0098800Y0091572D01*
X0101200Y0091572D02*
X0135651Y0091572D01*
X0020363Y0092171D02*
X0009900Y0092171D01*
X0027623Y0092171D02*
X0031700Y0092171D01*
X0039700Y0092171D02*
X0041639Y0092171D01*
X0044039Y0092171D02*
X0060800Y0092171D01*
X0063200Y0092171D02*
X0067400Y0092171D01*
X0097300Y0092171D02*
X0098406Y0092171D01*
X0101594Y0092171D02*
X0135652Y0092171D01*
X0031700Y0092769D02*
X0009900Y0092769D01*
X0039700Y0092769D02*
X0041639Y0092769D01*
X0044039Y0092769D02*
X0060800Y0092769D01*
X0063200Y0092769D02*
X0067400Y0092769D01*
X0079000Y0092769D02*
X0082700Y0092769D01*
X0102193Y0092769D02*
X0135652Y0092769D01*
X0031700Y0093368D02*
X0009900Y0093368D01*
X0039700Y0093368D02*
X0041639Y0093368D01*
X0044039Y0093368D02*
X0060800Y0093368D01*
X0063200Y0093368D02*
X0067400Y0093368D01*
X0079000Y0093368D02*
X0082700Y0093368D01*
X0102350Y0093368D02*
X0135652Y0093368D01*
X0031700Y0093966D02*
X0009900Y0093966D01*
X0039700Y0093966D02*
X0041639Y0093966D01*
X0044039Y0093966D02*
X0060800Y0093966D01*
X0063200Y0093966D02*
X0067400Y0093966D01*
X0079000Y0093966D02*
X0082700Y0093966D01*
X0102350Y0093966D02*
X0135653Y0093966D01*
X0031700Y0094565D02*
X0009900Y0094565D01*
X0039700Y0094565D02*
X0041639Y0094565D01*
X0044039Y0094565D02*
X0060800Y0094565D01*
X0063200Y0094565D02*
X0067400Y0094565D01*
X0079000Y0094565D02*
X0082700Y0094565D01*
X0102350Y0094565D02*
X0135653Y0094565D01*
X0031700Y0095163D02*
X0009900Y0095163D01*
X0039700Y0095163D02*
X0041639Y0095163D01*
X0044039Y0095163D02*
X0060800Y0095163D01*
X0063200Y0095163D02*
X0067400Y0095163D01*
X0079000Y0095163D02*
X0082700Y0095163D01*
X0102060Y0095163D02*
X0135654Y0095163D01*
X0031700Y0095762D02*
X0009900Y0095762D01*
X0039700Y0095762D02*
X0041639Y0095762D01*
X0044039Y0095762D02*
X0060800Y0095762D01*
X0063200Y0095762D02*
X0067400Y0095762D01*
X0079000Y0095762D02*
X0082700Y0095762D01*
X0101462Y0095762D02*
X0135654Y0095762D01*
X0020494Y0096360D02*
X0009900Y0096360D01*
X0027492Y0096360D02*
X0031700Y0096360D01*
X0039700Y0096360D02*
X0041639Y0096360D01*
X0044039Y0096360D02*
X0060800Y0096360D01*
X0063200Y0096360D02*
X0067400Y0096360D01*
X0079000Y0096360D02*
X0082700Y0096360D01*
X0101200Y0096360D02*
X0135654Y0096360D01*
X0020140Y0096959D02*
X0009900Y0096959D01*
X0027846Y0096959D02*
X0031700Y0096959D01*
X0039700Y0096959D02*
X0041639Y0096959D01*
X0044039Y0096959D02*
X0060800Y0096959D01*
X0063200Y0096959D02*
X0067400Y0096959D01*
X0079000Y0096959D02*
X0082700Y0096959D01*
X0101200Y0096959D02*
X0135655Y0096959D01*
X0020140Y0097557D02*
X0009900Y0097557D01*
X0031593Y0097557D02*
X0031700Y0097557D01*
X0039700Y0097557D02*
X0041639Y0097557D01*
X0044039Y0097557D02*
X0060800Y0097557D01*
X0063200Y0097557D02*
X0067400Y0097557D01*
X0079000Y0097557D02*
X0084863Y0097557D01*
X0101200Y0097557D02*
X0135655Y0097557D01*
X0020140Y0098156D02*
X0009900Y0098156D01*
X0039700Y0098156D02*
X0041639Y0098156D01*
X0044039Y0098156D02*
X0060800Y0098156D01*
X0063200Y0098156D02*
X0067400Y0098156D01*
X0079000Y0098156D02*
X0084863Y0098156D01*
X0101141Y0098156D02*
X0135656Y0098156D01*
X0020140Y0098754D02*
X0009900Y0098754D01*
X0039700Y0098754D02*
X0041639Y0098754D01*
X0044039Y0098754D02*
X0060800Y0098754D01*
X0063200Y0098754D02*
X0067400Y0098754D01*
X0079000Y0098754D02*
X0084863Y0098754D01*
X0129351Y0098754D02*
X0135656Y0098754D01*
X0020140Y0099353D02*
X0009900Y0099353D01*
X0039700Y0099353D02*
X0041639Y0099353D01*
X0044039Y0099353D02*
X0060800Y0099353D01*
X0063200Y0099353D02*
X0067400Y0099353D01*
X0079000Y0099353D02*
X0084863Y0099353D01*
X0129700Y0099353D02*
X0135657Y0099353D01*
X0020140Y0099951D02*
X0009900Y0099951D01*
X0039700Y0099951D02*
X0041639Y0099951D01*
X0044039Y0099951D02*
X0060800Y0099951D01*
X0063200Y0099951D02*
X0067400Y0099951D01*
X0079000Y0099951D02*
X0084863Y0099951D01*
X0129700Y0099951D02*
X0135657Y0099951D01*
X0019847Y0100550D02*
X0009900Y0100550D01*
X0039700Y0100550D02*
X0041639Y0100550D01*
X0044039Y0100550D02*
X0060800Y0100550D01*
X0063200Y0100550D02*
X0067400Y0100550D01*
X0079000Y0100550D02*
X0084863Y0100550D01*
X0129700Y0100550D02*
X0135657Y0100550D01*
X0019353Y0101148D02*
X0009900Y0101148D01*
X0039700Y0101148D02*
X0041639Y0101148D01*
X0044039Y0101148D02*
X0060800Y0101148D01*
X0063200Y0101148D02*
X0067400Y0101148D01*
X0079000Y0101148D02*
X0084863Y0101148D01*
X0129700Y0101148D02*
X0135658Y0101148D01*
X0019353Y0101747D02*
X0009900Y0101747D01*
X0039700Y0101747D02*
X0041639Y0101747D01*
X0044039Y0101747D02*
X0060800Y0101747D01*
X0063200Y0101747D02*
X0067400Y0101747D01*
X0079000Y0101747D02*
X0084863Y0101747D01*
X0129700Y0101747D02*
X0135658Y0101747D01*
X0019353Y0102345D02*
X0009900Y0102345D01*
X0039700Y0102345D02*
X0041639Y0102345D01*
X0044039Y0102345D02*
X0060800Y0102345D01*
X0063200Y0102345D02*
X0067400Y0102345D01*
X0079000Y0102345D02*
X0084863Y0102345D01*
X0129700Y0102345D02*
X0135659Y0102345D01*
X0019353Y0102944D02*
X0009900Y0102944D01*
X0039700Y0102944D02*
X0041639Y0102944D01*
X0044039Y0102944D02*
X0060800Y0102944D01*
X0063200Y0102944D02*
X0067400Y0102944D01*
X0079000Y0102944D02*
X0084863Y0102944D01*
X0129700Y0102944D02*
X0135659Y0102944D01*
X0019353Y0103542D02*
X0009900Y0103542D01*
X0039700Y0103542D02*
X0041639Y0103542D01*
X0044039Y0103542D02*
X0060800Y0103542D01*
X0063200Y0103542D02*
X0067400Y0103542D01*
X0079000Y0103542D02*
X0084863Y0103542D01*
X0129700Y0103542D02*
X0135659Y0103542D01*
X0019353Y0104141D02*
X0009900Y0104141D01*
X0039700Y0104141D02*
X0041639Y0104141D01*
X0044039Y0104141D02*
X0060800Y0104141D01*
X0063200Y0104141D02*
X0067400Y0104141D01*
X0079000Y0104141D02*
X0084863Y0104141D01*
X0129700Y0104141D02*
X0135660Y0104141D01*
X0019353Y0104739D02*
X0009900Y0104739D01*
X0039700Y0104739D02*
X0041639Y0104739D01*
X0044039Y0104739D02*
X0060800Y0104739D01*
X0063200Y0104739D02*
X0067400Y0104739D01*
X0129700Y0104739D02*
X0135660Y0104739D01*
X0019751Y0105338D02*
X0009900Y0105338D01*
X0039700Y0105338D02*
X0041639Y0105338D01*
X0044039Y0105338D02*
X0060800Y0105338D01*
X0129700Y0105338D02*
X0135661Y0105338D01*
X0020140Y0105937D02*
X0009900Y0105937D01*
X0039700Y0105937D02*
X0041639Y0105937D01*
X0044039Y0105937D02*
X0060800Y0105937D01*
X0129700Y0105937D02*
X0135661Y0105937D01*
X0020140Y0106535D02*
X0009900Y0106535D01*
X0039700Y0106535D02*
X0041639Y0106535D01*
X0044039Y0106535D02*
X0060800Y0106535D01*
X0129700Y0106535D02*
X0135661Y0106535D01*
X0020140Y0107134D02*
X0009900Y0107134D01*
X0039700Y0107134D02*
X0041639Y0107134D01*
X0044039Y0107134D02*
X0060800Y0107134D01*
X0129700Y0107134D02*
X0135662Y0107134D01*
X0020140Y0107732D02*
X0009900Y0107732D01*
X0039700Y0107732D02*
X0041639Y0107732D01*
X0044039Y0107732D02*
X0060800Y0107732D01*
X0129700Y0107732D02*
X0135662Y0107732D01*
X0020140Y0108331D02*
X0009900Y0108331D01*
X0039700Y0108331D02*
X0041639Y0108331D01*
X0044039Y0108331D02*
X0060800Y0108331D01*
X0129700Y0108331D02*
X0135663Y0108331D01*
X0020140Y0108929D02*
X0009900Y0108929D01*
X0039700Y0108929D02*
X0041639Y0108929D01*
X0044039Y0108929D02*
X0060800Y0108929D01*
X0129700Y0108929D02*
X0135663Y0108929D01*
X0020319Y0109528D02*
X0009900Y0109528D01*
X0039700Y0109528D02*
X0041639Y0109528D01*
X0044039Y0109528D02*
X0060800Y0109528D01*
X0129700Y0109528D02*
X0135664Y0109528D01*
X0020140Y0110126D02*
X0009900Y0110126D01*
X0039700Y0110126D02*
X0041639Y0110126D01*
X0044039Y0110126D02*
X0060888Y0110126D01*
X0129700Y0110126D02*
X0135664Y0110126D01*
X0020140Y0110725D02*
X0009900Y0110725D01*
X0039700Y0110725D02*
X0041639Y0110725D01*
X0044039Y0110725D02*
X0060888Y0110725D01*
X0129700Y0110725D02*
X0135664Y0110725D01*
X0020140Y0111323D02*
X0017652Y0111323D01*
X0039700Y0111323D02*
X0041639Y0111323D01*
X0044039Y0111323D02*
X0060888Y0111323D01*
X0129700Y0111323D02*
X0135665Y0111323D01*
X0020140Y0111922D02*
X0018003Y0111922D01*
X0039700Y0111922D02*
X0041639Y0111922D01*
X0044039Y0111922D02*
X0060888Y0111922D01*
X0129700Y0111922D02*
X0135665Y0111922D01*
X0020140Y0112520D02*
X0018003Y0112520D01*
X0039700Y0112520D02*
X0041639Y0112520D01*
X0044039Y0112520D02*
X0060888Y0112520D01*
X0129700Y0112520D02*
X0135666Y0112520D01*
X0020140Y0113119D02*
X0018003Y0113119D01*
X0039700Y0113119D02*
X0041639Y0113119D01*
X0044039Y0113119D02*
X0060888Y0113119D01*
X0129700Y0113119D02*
X0135666Y0113119D01*
X0020256Y0113717D02*
X0018003Y0113717D01*
X0039700Y0113717D02*
X0041639Y0113717D01*
X0044039Y0113717D02*
X0061398Y0113717D01*
X0129700Y0113717D02*
X0135666Y0113717D01*
X0022793Y0114316D02*
X0018003Y0114316D01*
X0039700Y0114316D02*
X0041639Y0114316D01*
X0044039Y0114316D02*
X0063344Y0114316D01*
X0065744Y0114316D02*
X0067400Y0114316D01*
X0129700Y0114316D02*
X0135667Y0114316D01*
X0022793Y0114914D02*
X0018003Y0114914D01*
X0039700Y0114914D02*
X0041639Y0114914D01*
X0044039Y0114914D02*
X0063344Y0114914D01*
X0065744Y0114914D02*
X0067400Y0114914D01*
X0129700Y0114914D02*
X0135667Y0114914D01*
X0022793Y0115513D02*
X0018003Y0115513D01*
X0039700Y0115513D02*
X0041639Y0115513D01*
X0044039Y0115513D02*
X0063344Y0115513D01*
X0065744Y0115513D02*
X0067716Y0115513D01*
X0129700Y0115513D02*
X0135668Y0115513D01*
X0022793Y0116111D02*
X0018003Y0116111D01*
X0039700Y0116111D02*
X0041639Y0116111D01*
X0044039Y0116111D02*
X0063344Y0116111D01*
X0065744Y0116111D02*
X0102020Y0116111D01*
X0129700Y0116111D02*
X0135668Y0116111D01*
X0022793Y0116710D02*
X0018003Y0116710D01*
X0039700Y0116710D02*
X0041639Y0116710D01*
X0044039Y0116710D02*
X0063344Y0116710D01*
X0065744Y0116710D02*
X0102020Y0116710D01*
X0129700Y0116710D02*
X0135669Y0116710D01*
X0022793Y0117308D02*
X0018003Y0117308D01*
X0039700Y0117308D02*
X0041639Y0117308D01*
X0044039Y0117308D02*
X0063344Y0117308D01*
X0065744Y0117308D02*
X0102020Y0117308D01*
X0129700Y0117308D02*
X0132768Y0117308D01*
X0135032Y0117308D02*
X0135669Y0117308D01*
X0022793Y0117907D02*
X0018003Y0117907D01*
X0039700Y0117907D02*
X0041639Y0117907D01*
X0044039Y0117907D02*
X0063344Y0117907D01*
X0065744Y0117907D02*
X0102020Y0117907D01*
X0129700Y0117907D02*
X0132170Y0117907D01*
X0135630Y0117907D02*
X0135669Y0117907D01*
X0022793Y0118505D02*
X0009812Y0118505D01*
X0039700Y0118505D02*
X0041639Y0118505D01*
X0044039Y0118505D02*
X0063344Y0118505D01*
X0129700Y0118505D02*
X0131571Y0118505D01*
X0022793Y0119104D02*
X0010054Y0119104D01*
X0039700Y0119104D02*
X0041639Y0119104D01*
X0044039Y0119104D02*
X0063344Y0119104D01*
X0129700Y0119104D02*
X0131550Y0119104D01*
X0022793Y0119702D02*
X0010296Y0119702D01*
X0039700Y0119702D02*
X0041639Y0119702D01*
X0044039Y0119702D02*
X0063344Y0119702D01*
X0129700Y0119702D02*
X0131550Y0119702D01*
X0022793Y0120301D02*
X0010539Y0120301D01*
X0039700Y0120301D02*
X0041639Y0120301D01*
X0129496Y0120301D02*
X0131550Y0120301D01*
X0022793Y0120899D02*
X0010781Y0120899D01*
X0039700Y0120899D02*
X0041639Y0120899D01*
X0130023Y0120899D02*
X0130477Y0120899D01*
X0022793Y0121498D02*
X0011023Y0121498D01*
X0011266Y0122096D02*
X0022793Y0122096D01*
X0022793Y0122695D02*
X0011508Y0122695D01*
X0011750Y0123293D02*
X0022793Y0123293D01*
X0022793Y0123892D02*
X0011992Y0123892D01*
X0012235Y0124490D02*
X0022793Y0124490D01*
X0022793Y0125089D02*
X0012477Y0125089D01*
X0012719Y0125687D02*
X0022793Y0125687D01*
X0022793Y0126286D02*
X0012962Y0126286D01*
X0013204Y0126884D02*
X0022793Y0126884D01*
X0022793Y0127483D02*
X0013528Y0127483D01*
X0013865Y0128081D02*
X0022793Y0128081D01*
X0022793Y0128680D02*
X0014202Y0128680D01*
X0014539Y0129278D02*
X0022793Y0129278D01*
X0022793Y0129877D02*
X0014876Y0129877D01*
X0015213Y0130475D02*
X0022793Y0130475D01*
X0022793Y0131074D02*
X0015551Y0131074D01*
X0015888Y0131672D02*
X0022793Y0131672D01*
X0022793Y0132271D02*
X0016225Y0132271D01*
X0016562Y0132870D02*
X0023028Y0132870D01*
X0016899Y0133468D02*
X0074600Y0133468D01*
X0074600Y0134067D02*
X0017236Y0134067D01*
X0017573Y0134665D02*
X0074600Y0134665D01*
X0074600Y0135264D02*
X0017910Y0135264D01*
X0018247Y0135862D02*
X0074600Y0135862D01*
X0074600Y0136461D02*
X0018584Y0136461D01*
X0019027Y0137059D02*
X0074600Y0137059D01*
X0120355Y0137059D02*
X0122400Y0137059D01*
X0074600Y0137658D02*
X0019474Y0137658D01*
X0120325Y0137658D02*
X0122400Y0137658D01*
X0074600Y0138256D02*
X0019921Y0138256D01*
X0093778Y0138256D02*
X0102020Y0138256D01*
X0120355Y0138256D02*
X0122400Y0138256D01*
X0074600Y0138855D02*
X0020367Y0138855D01*
X0093606Y0138855D02*
X0102020Y0138855D01*
X0120355Y0138855D02*
X0122400Y0138855D01*
X0074600Y0139453D02*
X0020814Y0139453D01*
X0093778Y0139453D02*
X0102020Y0139453D01*
X0120355Y0139453D02*
X0122250Y0139453D01*
X0074600Y0140052D02*
X0021261Y0140052D01*
X0093778Y0140052D02*
X0102020Y0140052D01*
X0120355Y0140052D02*
X0121651Y0140052D01*
X0066753Y0140650D02*
X0021707Y0140650D01*
X0093778Y0140650D02*
X0098053Y0140650D01*
X0120355Y0140650D02*
X0121053Y0140650D01*
X0066600Y0141249D02*
X0022154Y0141249D01*
X0093778Y0141249D02*
X0095998Y0141249D01*
X0119884Y0141249D02*
X0120500Y0141249D01*
X0066600Y0141847D02*
X0022601Y0141847D01*
X0088947Y0141847D02*
X0089237Y0141847D01*
X0093763Y0141847D02*
X0095635Y0141847D01*
X0118209Y0141847D02*
X0120500Y0141847D01*
X0066600Y0142446D02*
X0023048Y0142446D01*
X0084378Y0142446D02*
X0095635Y0142446D01*
X0118209Y0142446D02*
X0120500Y0142446D01*
X0066600Y0143044D02*
X0023494Y0143044D01*
X0083131Y0143044D02*
X0095635Y0143044D01*
X0118209Y0143044D02*
X0120500Y0143044D01*
X0066600Y0143643D02*
X0023941Y0143643D01*
X0083131Y0143643D02*
X0095635Y0143643D01*
X0118209Y0143643D02*
X0120500Y0143643D01*
X0066600Y0144241D02*
X0024388Y0144241D01*
X0083131Y0144241D02*
X0095635Y0144241D01*
X0113962Y0144241D02*
X0114130Y0144241D01*
X0118209Y0144241D02*
X0120500Y0144241D01*
X0066600Y0144840D02*
X0024834Y0144840D01*
X0083131Y0144840D02*
X0095635Y0144840D01*
X0113962Y0144840D02*
X0114630Y0144840D01*
X0118020Y0144840D02*
X0120500Y0144840D01*
X0066600Y0145438D02*
X0025327Y0145438D01*
X0083131Y0145438D02*
X0095635Y0145438D01*
X0113962Y0145438D02*
X0119128Y0145438D01*
X0066600Y0146037D02*
X0025907Y0146037D01*
X0083131Y0146037D02*
X0095635Y0146037D01*
X0113962Y0146037D02*
X0115153Y0146037D01*
X0066600Y0146635D02*
X0026487Y0146635D01*
X0083131Y0146635D02*
X0095975Y0146635D01*
X0113962Y0146635D02*
X0114822Y0146635D01*
X0066600Y0147234D02*
X0027066Y0147234D01*
X0083131Y0147234D02*
X0100622Y0147234D01*
X0113962Y0147234D02*
X0114822Y0147234D01*
X0066600Y0147832D02*
X0027646Y0147832D01*
X0083131Y0147832D02*
X0096108Y0147832D01*
X0113962Y0147832D02*
X0114822Y0147832D01*
X0066600Y0148431D02*
X0028226Y0148431D01*
X0083131Y0148431D02*
X0088528Y0148431D01*
X0093872Y0148431D02*
X0095635Y0148431D01*
X0113962Y0148431D02*
X0114822Y0148431D01*
X0066600Y0149029D02*
X0028805Y0149029D01*
X0076441Y0149029D02*
X0084333Y0149029D01*
X0093872Y0149029D02*
X0095635Y0149029D01*
X0113962Y0149029D02*
X0114822Y0149029D01*
X0066600Y0149628D02*
X0029385Y0149628D01*
X0076700Y0149628D02*
X0083734Y0149628D01*
X0093872Y0149628D02*
X0095635Y0149628D01*
X0113962Y0149628D02*
X0114822Y0149628D01*
X0066600Y0150226D02*
X0029964Y0150226D01*
X0076700Y0150226D02*
X0083562Y0150226D01*
X0093872Y0150226D02*
X0095635Y0150226D01*
X0113962Y0150226D02*
X0114822Y0150226D01*
X0066600Y0150825D02*
X0030544Y0150825D01*
X0069000Y0150825D02*
X0069828Y0150825D01*
X0076700Y0150825D02*
X0082964Y0150825D01*
X0093872Y0150825D02*
X0095635Y0150825D01*
X0113962Y0150825D02*
X0114822Y0150825D01*
X0066600Y0151423D02*
X0031124Y0151423D01*
X0069000Y0151423D02*
X0072612Y0151423D01*
X0076388Y0151423D02*
X0082700Y0151423D01*
X0087100Y0151423D02*
X0088528Y0151423D01*
X0093872Y0151423D02*
X0095635Y0151423D01*
X0113962Y0151423D02*
X0114822Y0151423D01*
X0134478Y0151423D02*
X0135693Y0151423D01*
X0066600Y0152022D02*
X0031703Y0152022D01*
X0069000Y0152022D02*
X0073211Y0152022D01*
X0075789Y0152022D02*
X0082700Y0152022D01*
X0087100Y0152022D02*
X0088640Y0152022D01*
X0093760Y0152022D02*
X0095635Y0152022D01*
X0113962Y0152022D02*
X0114822Y0152022D01*
X0134478Y0152022D02*
X0135693Y0152022D01*
X0066600Y0152620D02*
X0032283Y0152620D01*
X0078617Y0152620D02*
X0082700Y0152620D01*
X0087100Y0152620D02*
X0094868Y0152620D01*
X0113962Y0152620D02*
X0115211Y0152620D01*
X0124416Y0152620D02*
X0124423Y0152620D01*
X0134478Y0152620D02*
X0135693Y0152620D01*
X0052464Y0153219D02*
X0032905Y0153219D01*
X0056136Y0153219D02*
X0066600Y0153219D01*
X0079100Y0153219D02*
X0083008Y0153219D01*
X0086792Y0153219D02*
X0094270Y0153219D01*
X0113962Y0153219D02*
X0115870Y0153219D01*
X0124416Y0153219D02*
X0124584Y0153219D01*
X0134478Y0153219D02*
X0135694Y0153219D01*
X0050230Y0153817D02*
X0033655Y0153817D01*
X0058370Y0153817D02*
X0066600Y0153817D01*
X0079100Y0153817D02*
X0083606Y0153817D01*
X0086194Y0153817D02*
X0093700Y0153817D01*
X0113962Y0153817D02*
X0115271Y0153817D01*
X0124416Y0153817D02*
X0124584Y0153817D01*
X0134292Y0153817D02*
X0135694Y0153817D01*
X0049182Y0154416D02*
X0034406Y0154416D01*
X0059418Y0154416D02*
X0066919Y0154416D01*
X0079100Y0154416D02*
X0093700Y0154416D01*
X0113962Y0154416D02*
X0114900Y0154416D01*
X0124310Y0154416D02*
X0124690Y0154416D01*
X0130018Y0154416D02*
X0135695Y0154416D01*
X0048145Y0155014D02*
X0035156Y0155014D01*
X0060455Y0155014D02*
X0068274Y0155014D01*
X0079100Y0155014D02*
X0093700Y0155014D01*
X0113962Y0155014D02*
X0114900Y0155014D01*
X0122846Y0155014D02*
X0135695Y0155014D01*
X0047398Y0155613D02*
X0035907Y0155613D01*
X0061202Y0155613D02*
X0068200Y0155613D01*
X0079100Y0155613D02*
X0093702Y0155613D01*
X0113962Y0155613D02*
X0114900Y0155613D01*
X0122830Y0155613D02*
X0135696Y0155613D01*
X0046799Y0156211D02*
X0036657Y0156211D01*
X0061801Y0156211D02*
X0068200Y0156211D01*
X0079100Y0156211D02*
X0094300Y0156211D01*
X0113962Y0156211D02*
X0115100Y0156211D01*
X0122231Y0156211D02*
X0135696Y0156211D01*
X0046200Y0156810D02*
X0037408Y0156810D01*
X0062400Y0156810D02*
X0068200Y0156810D01*
X0079100Y0156810D02*
X0094700Y0156810D01*
X0113962Y0156810D02*
X0115699Y0156810D01*
X0118501Y0156810D02*
X0135696Y0156810D01*
X0045693Y0157408D02*
X0038158Y0157408D01*
X0062906Y0157408D02*
X0068282Y0157408D01*
X0079100Y0157408D02*
X0094700Y0157408D01*
X0113962Y0157408D02*
X0135697Y0157408D01*
X0045348Y0158007D02*
X0038909Y0158007D01*
X0063252Y0158007D02*
X0068122Y0158007D01*
X0079100Y0158007D02*
X0094700Y0158007D01*
X0113962Y0158007D02*
X0135697Y0158007D01*
X0045002Y0158605D02*
X0039659Y0158605D01*
X0063598Y0158605D02*
X0068122Y0158605D01*
X0079100Y0158605D02*
X0094700Y0158605D01*
X0113962Y0158605D02*
X0135698Y0158605D01*
X0044657Y0159204D02*
X0040410Y0159204D01*
X0063943Y0159204D02*
X0068122Y0159204D01*
X0083131Y0159204D02*
X0094700Y0159204D01*
X0113962Y0159204D02*
X0135698Y0159204D01*
X0044371Y0159803D02*
X0041160Y0159803D01*
X0064229Y0159803D02*
X0068122Y0159803D01*
X0083131Y0159803D02*
X0094700Y0159803D01*
X0113962Y0159803D02*
X0135698Y0159803D01*
X0044211Y0160401D02*
X0042117Y0160401D01*
X0064389Y0160401D02*
X0068241Y0160401D01*
X0083131Y0160401D02*
X0094700Y0160401D01*
X0113962Y0160401D02*
X0135699Y0160401D01*
X0044050Y0161000D02*
X0043105Y0161000D01*
X0064550Y0161000D02*
X0068122Y0161000D01*
X0083131Y0161000D02*
X0085403Y0161000D01*
X0113962Y0161000D02*
X0135699Y0161000D01*
X0068122Y0161598D02*
X0064710Y0161598D01*
X0083131Y0161598D02*
X0085000Y0161598D01*
X0113962Y0161598D02*
X0135700Y0161598D01*
X0068122Y0162197D02*
X0064870Y0162197D01*
X0083131Y0162197D02*
X0085000Y0162197D01*
X0113962Y0162197D02*
X0135115Y0162197D01*
X0068122Y0162795D02*
X0064899Y0162795D01*
X0083131Y0162795D02*
X0085000Y0162795D01*
X0113962Y0162795D02*
X0134257Y0162795D01*
X0068122Y0163394D02*
X0064899Y0163394D01*
X0083131Y0163394D02*
X0085000Y0163394D01*
X0113962Y0163394D02*
X0133141Y0163394D01*
X0072669Y0163992D02*
X0064899Y0163992D01*
X0083131Y0163992D02*
X0085000Y0163992D01*
X0113962Y0163992D02*
X0131993Y0163992D01*
X0072669Y0164591D02*
X0064899Y0164591D01*
X0083131Y0164591D02*
X0085000Y0164591D01*
X0113962Y0164591D02*
X0130846Y0164591D01*
X0067500Y0165189D02*
X0064874Y0165189D01*
X0069900Y0165189D02*
X0072859Y0165189D01*
X0082941Y0165189D02*
X0085000Y0165189D01*
X0113962Y0165189D02*
X0129699Y0165189D01*
X0066901Y0165788D02*
X0064714Y0165788D01*
X0070499Y0165788D02*
X0085000Y0165788D01*
X0113962Y0165788D02*
X0128552Y0165788D01*
X0066500Y0166386D02*
X0064553Y0166386D01*
X0113962Y0166386D02*
X0127405Y0166386D01*
X0066500Y0166985D02*
X0064393Y0166985D01*
X0113962Y0166985D02*
X0126257Y0166985D01*
X0066500Y0167583D02*
X0064233Y0167583D01*
X0113962Y0167583D02*
X0125110Y0167583D01*
X0066670Y0168182D02*
X0063951Y0168182D01*
X0113962Y0168182D02*
X0123744Y0168182D01*
X0067269Y0168780D02*
X0063606Y0168780D01*
X0070131Y0168780D02*
X0086541Y0168780D01*
X0113962Y0168780D02*
X0122117Y0168780D01*
X0086834Y0169379D02*
X0063260Y0169379D01*
X0089819Y0169379D02*
X0090181Y0169379D01*
X0113962Y0169379D02*
X0120491Y0169379D01*
X0089887Y0169977D02*
X0062915Y0169977D01*
X0113962Y0169977D02*
X0118865Y0169977D01*
X0089887Y0170576D02*
X0062658Y0170576D01*
X0113962Y0170576D02*
X0117238Y0170576D01*
X0089887Y0171174D02*
X0064674Y0171174D01*
X0113585Y0171174D02*
X0115612Y0171174D01*
X0089887Y0171773D02*
X0066691Y0171773D01*
X0101159Y0171773D02*
X0113829Y0171773D01*
X0089887Y0172371D02*
X0068708Y0172371D01*
X0101159Y0172371D02*
X0111207Y0172371D01*
X0094241Y0172970D02*
X0070724Y0172970D01*
X0101159Y0172970D02*
X0108584Y0172970D01*
X0094658Y0173568D02*
X0074161Y0173568D01*
X0097592Y0173568D02*
X0097808Y0173568D01*
X0100741Y0173568D02*
X0105962Y0173568D01*
X0102987Y0174167D02*
X0077863Y0174167D01*
X0081565Y0174765D02*
X0096783Y0174765D01*
X0084685Y0093937D02*
X0084685Y0094315D01*
X0080300Y0099000D01*
X0100000Y0086025D02*
X0100000Y0082600D01*
X0100000Y0086063D02*
X0095315Y0086063D01*
X0087638Y0084685D02*
X0087638Y0081600D01*
X0079800Y0082300D01*
X0099894Y0046480D02*
X0097175Y0046480D01*
X0097175Y0047300D01*
X0104888Y0116980D02*
X0104888Y0113100D01*
X0070100Y0113100D01*
X0070100Y0069600D01*
X0082700Y0069600D01*
X0082700Y0065609D01*
X0082653Y0065609D01*
X0119960Y0027501D02*
X0119960Y0033200D01*
X0122225Y0033200D01*
X0122325Y0046500D02*
X0122325Y0050115D01*
X0122318Y0050115D01*
X0122318Y0054200D01*
X0135400Y0054200D01*
X0135400Y0073040D01*
X0144800Y0073040D01*
X0134022Y0033744D02*
X0134022Y0028200D01*
X0134075Y0028200D01*
X0134022Y0033744D02*
X0144800Y0033744D01*
X0144800Y0062960D01*
X0111706Y0046480D02*
X0117900Y0046480D01*
X0117900Y0037400D01*
X0125360Y0037400D01*
X0125360Y0037484D01*
X0125475Y0046500D02*
X0125475Y0042600D01*
X0125375Y0042600D01*
X0125375Y0037484D01*
X0125360Y0037484D01*
X0125360Y0037400D02*
X0125360Y0033200D01*
X0125375Y0033200D01*
X0127375Y0028200D02*
X0130925Y0028200D01*
X0116220Y0018052D02*
X0127375Y0018052D01*
X0127375Y0028200D01*
X0099180Y0132137D02*
X0023993Y0132137D01*
X0023993Y0111654D01*
X0099180Y0130562D02*
X0028900Y0130562D01*
X0028900Y0107323D01*
X0023993Y0107323D01*
X0099180Y0128987D02*
X0031000Y0128987D01*
X0031000Y0098661D01*
X0023993Y0098661D01*
X0099180Y0119539D02*
X0064544Y0119539D01*
X0064544Y0109291D01*
X0062000Y0109291D01*
X0062000Y0089100D01*
X0064544Y0089100D01*
X0064544Y0086850D01*
X0099180Y0127413D02*
X0032900Y0127413D01*
X0032900Y0090000D01*
X0023993Y0090000D01*
X0099180Y0125838D02*
X0034900Y0125838D01*
X0034900Y0085669D01*
X0025568Y0085669D01*
X0099180Y0124263D02*
X0036800Y0124263D01*
X0036800Y0081339D01*
X0023993Y0081339D01*
X0090775Y0077400D02*
X0090787Y0080600D01*
X0090787Y0084685D01*
X0091673Y0167827D02*
X0091673Y0167900D01*
X0096125Y0167900D01*
X0088327Y0167827D02*
X0088327Y0164500D01*
X0096125Y0164500D01*
X0091673Y0171173D02*
X0091673Y0171200D01*
X0096125Y0171400D02*
X0091900Y0171400D01*
X0091673Y0171173D01*
X0099275Y0171400D02*
X0100375Y0170300D01*
X0112762Y0170300D01*
X0112762Y0139420D01*
X0109613Y0139420D02*
X0109613Y0164500D01*
X0099275Y0164500D01*
X0111187Y0139420D02*
X0111187Y0167900D01*
X0099275Y0167900D01*
X0099180Y0135287D02*
X0077900Y0135287D01*
X0077900Y0145532D01*
X0070900Y0145532D01*
X0070900Y0145525D01*
X0099180Y0133712D02*
X0075800Y0133712D01*
X0075800Y0141300D01*
X0067800Y0141300D01*
X0067800Y0153600D01*
X0077900Y0153600D01*
X0077900Y0162068D01*
X0070400Y0162068D01*
X0070400Y0162075D01*
X0099180Y0122688D02*
X0038500Y0122688D01*
X0038500Y0077000D01*
X0021700Y0077000D01*
X0013363Y0114803D02*
X0008700Y0114803D01*
X0008700Y0063031D01*
X0008835Y0063031D01*
X0021800Y0068100D02*
X0021800Y0063031D01*
X0008835Y0063031D01*
X0099180Y0121113D02*
X0042839Y0121113D01*
X0042839Y0054112D01*
X0042828Y0054100D01*
X0023975Y0054100D01*
X0020925Y0049500D02*
X0020825Y0049500D01*
X0020825Y0054100D01*
X0020825Y0058800D01*
D41*
X0112400Y0130200D03*
X0108400Y0126200D03*
X0112400Y0126200D03*
D42*
X0112400Y0128987D02*
X0112400Y0130200D01*
X0110400Y0130200D01*
X0106463Y0139420D02*
X0106463Y0132237D01*
X0108400Y0130300D01*
X0079300Y0030800D02*
X0079200Y0023950D01*
X0119100Y0116941D02*
X0119061Y0116980D01*
X0088327Y0167827D02*
X0088259Y0167827D01*
D43*
X0108400Y0130300D03*
D44*
X0121620Y0128987D02*
X0113613Y0128987D01*
X0113545Y0128989D01*
X0113477Y0128995D01*
X0113410Y0129004D01*
X0113343Y0129017D01*
X0113277Y0129034D01*
X0113212Y0129055D01*
X0113149Y0129079D01*
X0113087Y0129107D01*
X0113026Y0129138D01*
X0112968Y0129173D01*
X0112911Y0129211D01*
X0112857Y0129252D01*
X0112805Y0129296D01*
X0112755Y0129342D01*
X0112709Y0129392D01*
X0112665Y0129444D01*
X0112624Y0129498D01*
X0112586Y0129555D01*
X0112551Y0129613D01*
X0112520Y0129674D01*
X0112492Y0129736D01*
X0112468Y0129799D01*
X0112447Y0129864D01*
X0112430Y0129930D01*
X0112417Y0129997D01*
X0112408Y0130064D01*
X0112402Y0130132D01*
X0112400Y0130200D01*
D45*
X0105800Y0045200D02*
X0105800Y0036159D01*
X0105799Y0036146D01*
X0105794Y0036133D01*
X0105787Y0036122D01*
X0105778Y0036113D01*
X0105767Y0036106D01*
X0105754Y0036101D01*
X0105741Y0036100D01*
X0105800Y0045200D02*
X0105800Y0050900D01*
X0105800Y0053000D01*
X0079200Y0027800D02*
X0079200Y0023950D01*
X0079300Y0030800D02*
X0079341Y0030800D01*
X0081641Y0040100D02*
X0079300Y0040100D01*
X0079300Y0030800D01*
X0127475Y0126600D02*
X0130525Y0126600D01*
X0133675Y0126600D02*
X0138000Y0126600D01*
D46*
X0105800Y0053000D03*
X0079200Y0024100D03*
X0094500Y0030000D03*
X0084500Y0077300D03*
X0080700Y0087500D03*
X0100000Y0093900D03*
X0103000Y0150800D03*
X0130500Y0132400D03*
X0131900Y0122800D03*
X0133900Y0119500D03*
X0128700Y0122900D03*
X0072300Y0065600D03*
X0083000Y0140500D03*
X0132400Y0144500D03*
X0121600Y0107200D03*
X0121000Y0103100D03*
X0080300Y0099000D03*
X0079800Y0082300D03*
X0100000Y0082600D03*
D47*
X0115900Y0142900D03*
X0117100Y0155100D03*
X0086800Y0062400D03*
X0094000Y0050700D03*
X0074500Y0150200D03*
X0108500Y0027500D03*
X0129900Y0050000D03*
X0070400Y0156000D03*
X0084900Y0152000D03*
X0028300Y0103000D03*
X0032300Y0048600D03*
X0029200Y0059700D03*
X0095900Y0154700D03*
X0057200Y0060000D03*
X0068700Y0167100D03*
X0123900Y0111000D03*
X0109600Y0020600D03*
X0089600Y0036100D03*
X0066100Y0099100D03*
X0095900Y0117300D03*
X0021700Y0077000D03*
X0021800Y0068100D03*
D48*
X0109600Y0020600D02*
X0112100Y0023100D01*
X0116300Y0023100D01*
M02*
