G75*
%MOIN*%
%OFA0B0*%
%FSLAX25Y25*%
%IPPOS*%
%LPD*%
%AMOC8*
5,1,8,0,0,1.08239X$1,22.5*
%
%ADD10C,0.12798*%
%ADD11R,0.06893X0.12011*%
%ADD12R,0.03350X0.12011*%
%ADD13R,0.02917X0.04098*%
%ADD14R,0.02956X0.02169*%
%ADD15R,0.03743X0.02956*%
%ADD16R,0.02169X0.02956*%
%ADD17R,0.02169X0.00987*%
%ADD18R,0.00987X0.02169*%
%ADD19R,0.18310X0.18310*%
%ADD20R,0.02956X0.03743*%
%ADD21R,0.03350X0.03350*%
%ADD22C,0.00494*%
%ADD23C,0.00374*%
%ADD24C,0.00650*%
%ADD25C,0.00138*%
%ADD26R,0.03743X0.04137*%
%ADD27R,0.04200X0.10200*%
%ADD28R,0.05712X0.04137*%
%ADD29R,0.04137X0.05712*%
%ADD30R,0.01972X0.01972*%
%ADD31R,0.03940X0.03546*%
%ADD32R,0.04531X0.04137*%
%ADD33R,0.02800X0.02700*%
%ADD34C,0.00197*%
%ADD35C,0.01253*%
%ADD36R,0.08861X0.05318*%
%ADD37R,0.06106X0.03350*%
%ADD38R,0.07680X0.05712*%
%ADD39R,0.05712X0.07287*%
%ADD40R,0.33271X0.04137*%
%ADD41C,0.03000*%
%ADD42C,0.03200*%
%ADD43C,0.02919*%
%ADD44C,0.03119*%
%ADD45C,0.02900*%
%ADD46C,0.03100*%
%ADD47C,0.02600*%
%ADD48C,0.02800*%
D10*
X0054300Y0163700D03*
X0169000Y0068400D03*
X0090000Y0008800D03*
D11*
X0123841Y0083974D03*
X0123841Y0068226D03*
X0113959Y0068226D03*
X0113959Y0083974D03*
D12*
X0130731Y0083974D03*
X0130731Y0068226D03*
X0107069Y0068226D03*
X0107069Y0083974D03*
D13*
X0098040Y0069018D03*
X0094300Y0069018D03*
X0090560Y0069018D03*
X0090560Y0058782D03*
X0094300Y0058782D03*
X0098040Y0058782D03*
D14*
X0127500Y0129775D03*
X0127500Y0126625D03*
X0128200Y0140675D03*
X0128200Y0137525D03*
X0131800Y0140675D03*
X0131800Y0137525D03*
X0132200Y0149125D03*
X0132200Y0152275D03*
X0117100Y0150875D03*
X0117100Y0147725D03*
X0102900Y0147575D03*
X0102900Y0144425D03*
X0091500Y0140475D03*
X0091500Y0137325D03*
X0086722Y0140437D03*
X0086722Y0143587D03*
X0099900Y0034125D03*
X0099900Y0037275D03*
X0080700Y0090825D03*
X0080700Y0093975D03*
X0100000Y0089175D03*
X0100000Y0086025D03*
X0095800Y0040125D03*
X0095800Y0043275D03*
X0070000Y0035575D03*
X0070000Y0032425D03*
X0066300Y0035475D03*
X0066300Y0032325D03*
X0106600Y0151075D03*
X0106600Y0147925D03*
X0070400Y0158925D03*
X0070400Y0162075D03*
X0070900Y0148675D03*
X0070900Y0145525D03*
D15*
X0091200Y0150159D03*
X0091200Y0145041D03*
D16*
X0116325Y0142900D03*
X0119475Y0142900D03*
X0088775Y0024400D03*
X0085625Y0024400D03*
X0094025Y0047300D03*
X0097175Y0047300D03*
X0079975Y0049300D03*
X0076825Y0049300D03*
X0125467Y0050115D03*
X0122318Y0050115D03*
X0087625Y0077400D03*
X0090775Y0077400D03*
X0125475Y0046500D03*
X0122325Y0046500D03*
X0130925Y0028200D03*
X0134075Y0028200D03*
X0124225Y0028200D03*
X0127375Y0028200D03*
X0125375Y0033200D03*
X0122225Y0033200D03*
X0125375Y0042600D03*
X0122225Y0042600D03*
X0091475Y0028200D03*
X0088325Y0028200D03*
X0091375Y0031900D03*
X0088225Y0031900D03*
X0099275Y0171400D03*
X0096125Y0171400D03*
X0099275Y0164500D03*
X0096125Y0164500D03*
X0099275Y0167900D03*
X0096125Y0167900D03*
X0130525Y0126600D03*
X0133675Y0126600D03*
X0020825Y0054100D03*
X0023975Y0054100D03*
X0023975Y0058800D03*
X0020825Y0058800D03*
X0024075Y0049500D03*
X0020925Y0049500D03*
D17*
X0099180Y0136861D03*
X0099180Y0135287D03*
X0099180Y0133712D03*
X0099180Y0132137D03*
X0099180Y0130562D03*
X0099180Y0128987D03*
X0099180Y0127413D03*
X0099180Y0125838D03*
X0099180Y0124263D03*
X0099180Y0122688D03*
X0099180Y0121113D03*
X0099180Y0119539D03*
X0121620Y0119539D03*
X0121620Y0121113D03*
X0121620Y0122688D03*
X0121620Y0124263D03*
X0121620Y0125838D03*
X0121620Y0127413D03*
X0121620Y0128987D03*
X0121620Y0130562D03*
X0121620Y0132137D03*
X0121620Y0133712D03*
X0121620Y0135287D03*
X0121620Y0136861D03*
D18*
X0101739Y0116980D03*
X0103313Y0116980D03*
X0104888Y0116980D03*
X0106463Y0116980D03*
X0108038Y0116980D03*
X0109613Y0116980D03*
X0111187Y0116980D03*
X0112762Y0116980D03*
X0114337Y0116980D03*
X0115912Y0116980D03*
X0117487Y0116980D03*
X0119061Y0116980D03*
X0119061Y0139420D03*
X0117487Y0139420D03*
X0115912Y0139420D03*
X0114337Y0139420D03*
X0112762Y0139420D03*
X0111187Y0139420D03*
X0109613Y0139420D03*
X0108038Y0139420D03*
X0106463Y0139420D03*
X0104888Y0139420D03*
X0103313Y0139420D03*
X0101739Y0139420D03*
D19*
X0110400Y0128200D03*
D20*
X0081641Y0040100D03*
X0086759Y0040100D03*
X0105741Y0036100D03*
X0110859Y0036100D03*
D21*
X0069947Y0039100D03*
X0075853Y0039100D03*
X0069947Y0043500D03*
X0075853Y0043500D03*
D22*
X0076397Y0033704D02*
X0074329Y0033704D01*
X0074329Y0034196D01*
X0076397Y0034196D01*
X0076397Y0033704D01*
X0076397Y0032129D02*
X0074329Y0032129D01*
X0074329Y0032621D01*
X0076397Y0032621D01*
X0076397Y0032129D01*
X0076397Y0030554D02*
X0074329Y0030554D01*
X0074329Y0031046D01*
X0076397Y0031046D01*
X0076397Y0030554D01*
X0076397Y0028979D02*
X0074329Y0028979D01*
X0074329Y0029471D01*
X0076397Y0029471D01*
X0076397Y0028979D01*
X0076397Y0027404D02*
X0074329Y0027404D01*
X0074329Y0027896D01*
X0076397Y0027896D01*
X0076397Y0027404D01*
X0084271Y0027404D02*
X0082203Y0027404D01*
X0082203Y0027896D01*
X0084271Y0027896D01*
X0084271Y0027404D01*
X0084271Y0028979D02*
X0082203Y0028979D01*
X0082203Y0029471D01*
X0084271Y0029471D01*
X0084271Y0028979D01*
X0084271Y0030554D02*
X0082203Y0030554D01*
X0082203Y0031046D01*
X0084271Y0031046D01*
X0084271Y0030554D01*
X0084271Y0032129D02*
X0082203Y0032129D01*
X0082203Y0032621D01*
X0084271Y0032621D01*
X0084271Y0032129D01*
X0084271Y0033704D02*
X0082203Y0033704D01*
X0082203Y0034196D01*
X0084271Y0034196D01*
X0084271Y0033704D01*
D23*
X0080984Y0034059D02*
X0080984Y0027541D01*
X0077616Y0027541D01*
X0077616Y0034059D01*
X0080984Y0034059D01*
X0080984Y0027914D02*
X0077616Y0027914D01*
X0077616Y0028287D02*
X0080984Y0028287D01*
X0080984Y0028660D02*
X0077616Y0028660D01*
X0077616Y0029033D02*
X0080984Y0029033D01*
X0080984Y0029406D02*
X0077616Y0029406D01*
X0077616Y0029779D02*
X0080984Y0029779D01*
X0080984Y0030152D02*
X0077616Y0030152D01*
X0077616Y0030525D02*
X0080984Y0030525D01*
X0080984Y0030898D02*
X0077616Y0030898D01*
X0077616Y0031271D02*
X0080984Y0031271D01*
X0080984Y0031644D02*
X0077616Y0031644D01*
X0077616Y0032017D02*
X0080984Y0032017D01*
X0080984Y0032390D02*
X0077616Y0032390D01*
X0077616Y0032763D02*
X0080984Y0032763D01*
X0080984Y0033136D02*
X0077616Y0033136D01*
X0077616Y0033509D02*
X0080984Y0033509D01*
X0080984Y0033882D02*
X0077616Y0033882D01*
D24*
X0102876Y0049699D02*
X0108724Y0049699D01*
X0108724Y0040701D01*
X0102876Y0040701D01*
X0102876Y0049699D01*
X0102876Y0041350D02*
X0108724Y0041350D01*
X0108724Y0041999D02*
X0102876Y0041999D01*
X0102876Y0042648D02*
X0108724Y0042648D01*
X0108724Y0043297D02*
X0102876Y0043297D01*
X0102876Y0043946D02*
X0108724Y0043946D01*
X0108724Y0044595D02*
X0102876Y0044595D01*
X0102876Y0045244D02*
X0108724Y0045244D01*
X0108724Y0045893D02*
X0102876Y0045893D01*
X0102876Y0046542D02*
X0108724Y0046542D01*
X0108724Y0047191D02*
X0102876Y0047191D01*
X0102876Y0047840D02*
X0108724Y0047840D01*
X0108724Y0048489D02*
X0102876Y0048489D01*
X0102876Y0049138D02*
X0108724Y0049138D01*
D25*
X0110691Y0041982D02*
X0112721Y0041982D01*
X0112721Y0040740D01*
X0110691Y0040740D01*
X0110691Y0041982D01*
X0110691Y0040877D02*
X0112721Y0040877D01*
X0112721Y0041014D02*
X0110691Y0041014D01*
X0110691Y0041151D02*
X0112721Y0041151D01*
X0112721Y0041288D02*
X0110691Y0041288D01*
X0110691Y0041425D02*
X0112721Y0041425D01*
X0112721Y0041562D02*
X0110691Y0041562D01*
X0110691Y0041699D02*
X0112721Y0041699D01*
X0112721Y0041836D02*
X0110691Y0041836D01*
X0110691Y0041973D02*
X0112721Y0041973D01*
X0110691Y0044541D02*
X0112721Y0044541D01*
X0112721Y0043299D01*
X0110691Y0043299D01*
X0110691Y0044541D01*
X0110691Y0043436D02*
X0112721Y0043436D01*
X0112721Y0043573D02*
X0110691Y0043573D01*
X0110691Y0043710D02*
X0112721Y0043710D01*
X0112721Y0043847D02*
X0110691Y0043847D01*
X0110691Y0043984D02*
X0112721Y0043984D01*
X0112721Y0044121D02*
X0110691Y0044121D01*
X0110691Y0044258D02*
X0112721Y0044258D01*
X0112721Y0044395D02*
X0110691Y0044395D01*
X0110691Y0044532D02*
X0112721Y0044532D01*
X0110691Y0047101D02*
X0112721Y0047101D01*
X0112721Y0045859D01*
X0110691Y0045859D01*
X0110691Y0047101D01*
X0110691Y0045996D02*
X0112721Y0045996D01*
X0112721Y0046133D02*
X0110691Y0046133D01*
X0110691Y0046270D02*
X0112721Y0046270D01*
X0112721Y0046407D02*
X0110691Y0046407D01*
X0110691Y0046544D02*
X0112721Y0046544D01*
X0112721Y0046681D02*
X0110691Y0046681D01*
X0110691Y0046818D02*
X0112721Y0046818D01*
X0112721Y0046955D02*
X0110691Y0046955D01*
X0110691Y0047092D02*
X0112721Y0047092D01*
X0110691Y0049660D02*
X0112721Y0049660D01*
X0112721Y0048418D01*
X0110691Y0048418D01*
X0110691Y0049660D01*
X0110691Y0048555D02*
X0112721Y0048555D01*
X0112721Y0048692D02*
X0110691Y0048692D01*
X0110691Y0048829D02*
X0112721Y0048829D01*
X0112721Y0048966D02*
X0110691Y0048966D01*
X0110691Y0049103D02*
X0112721Y0049103D01*
X0112721Y0049240D02*
X0110691Y0049240D01*
X0110691Y0049377D02*
X0112721Y0049377D01*
X0112721Y0049514D02*
X0110691Y0049514D01*
X0110691Y0049651D02*
X0112721Y0049651D01*
X0098879Y0049660D02*
X0100909Y0049660D01*
X0100909Y0048418D01*
X0098879Y0048418D01*
X0098879Y0049660D01*
X0098879Y0048555D02*
X0100909Y0048555D01*
X0100909Y0048692D02*
X0098879Y0048692D01*
X0098879Y0048829D02*
X0100909Y0048829D01*
X0100909Y0048966D02*
X0098879Y0048966D01*
X0098879Y0049103D02*
X0100909Y0049103D01*
X0100909Y0049240D02*
X0098879Y0049240D01*
X0098879Y0049377D02*
X0100909Y0049377D01*
X0100909Y0049514D02*
X0098879Y0049514D01*
X0098879Y0049651D02*
X0100909Y0049651D01*
X0098879Y0047101D02*
X0100909Y0047101D01*
X0100909Y0045859D01*
X0098879Y0045859D01*
X0098879Y0047101D01*
X0098879Y0045996D02*
X0100909Y0045996D01*
X0100909Y0046133D02*
X0098879Y0046133D01*
X0098879Y0046270D02*
X0100909Y0046270D01*
X0100909Y0046407D02*
X0098879Y0046407D01*
X0098879Y0046544D02*
X0100909Y0046544D01*
X0100909Y0046681D02*
X0098879Y0046681D01*
X0098879Y0046818D02*
X0100909Y0046818D01*
X0100909Y0046955D02*
X0098879Y0046955D01*
X0098879Y0047092D02*
X0100909Y0047092D01*
X0098879Y0044541D02*
X0100909Y0044541D01*
X0100909Y0043299D01*
X0098879Y0043299D01*
X0098879Y0044541D01*
X0098879Y0043436D02*
X0100909Y0043436D01*
X0100909Y0043573D02*
X0098879Y0043573D01*
X0098879Y0043710D02*
X0100909Y0043710D01*
X0100909Y0043847D02*
X0098879Y0043847D01*
X0098879Y0043984D02*
X0100909Y0043984D01*
X0100909Y0044121D02*
X0098879Y0044121D01*
X0098879Y0044258D02*
X0100909Y0044258D01*
X0100909Y0044395D02*
X0098879Y0044395D01*
X0098879Y0044532D02*
X0100909Y0044532D01*
X0098879Y0041982D02*
X0100909Y0041982D01*
X0100909Y0040740D01*
X0098879Y0040740D01*
X0098879Y0041982D01*
X0098879Y0040877D02*
X0100909Y0040877D01*
X0100909Y0041014D02*
X0098879Y0041014D01*
X0098879Y0041151D02*
X0100909Y0041151D01*
X0100909Y0041288D02*
X0098879Y0041288D01*
X0098879Y0041425D02*
X0100909Y0041425D01*
X0100909Y0041562D02*
X0098879Y0041562D01*
X0098879Y0041699D02*
X0100909Y0041699D01*
X0100909Y0041836D02*
X0098879Y0041836D01*
X0098879Y0041973D02*
X0100909Y0041973D01*
D26*
X0082653Y0065609D03*
X0076747Y0065609D03*
X0076747Y0054191D03*
X0082653Y0054191D03*
D27*
X0138000Y0126600D03*
X0164000Y0126600D03*
D28*
X0125360Y0037484D03*
X0134022Y0041224D03*
X0134022Y0033744D03*
D29*
X0116220Y0018052D03*
X0112480Y0027501D03*
X0119960Y0027501D03*
D30*
X0088327Y0171173D03*
X0091673Y0171173D03*
X0091673Y0167827D03*
X0088327Y0167827D03*
D31*
X0121646Y0147736D03*
X0127354Y0147736D03*
X0127354Y0152264D03*
X0121646Y0152264D03*
D32*
X0098700Y0143954D03*
X0098700Y0150646D03*
D33*
X0144800Y0073040D03*
X0157000Y0073040D03*
X0144800Y0062960D03*
X0157000Y0062960D03*
D34*
X0085277Y0094332D02*
X0085277Y0093542D01*
X0084093Y0093542D01*
X0084093Y0094332D01*
X0085277Y0094332D01*
X0085277Y0093738D02*
X0084093Y0093738D01*
X0084093Y0093934D02*
X0085277Y0093934D01*
X0085277Y0094130D02*
X0084093Y0094130D01*
X0084093Y0094326D02*
X0085277Y0094326D01*
X0085277Y0092757D02*
X0085277Y0091967D01*
X0084093Y0091967D01*
X0084093Y0092757D01*
X0085277Y0092757D01*
X0085277Y0092163D02*
X0084093Y0092163D01*
X0084093Y0092359D02*
X0085277Y0092359D01*
X0085277Y0092555D02*
X0084093Y0092555D01*
X0084093Y0092751D02*
X0085277Y0092751D01*
X0085277Y0091182D02*
X0085277Y0090392D01*
X0084093Y0090392D01*
X0084093Y0091182D01*
X0085277Y0091182D01*
X0085277Y0090588D02*
X0084093Y0090588D01*
X0084093Y0090784D02*
X0085277Y0090784D01*
X0085277Y0090980D02*
X0084093Y0090980D01*
X0084093Y0091176D02*
X0085277Y0091176D01*
X0085277Y0089608D02*
X0085277Y0088818D01*
X0084093Y0088818D01*
X0084093Y0089608D01*
X0085277Y0089608D01*
X0085277Y0089014D02*
X0084093Y0089014D01*
X0084093Y0089210D02*
X0085277Y0089210D01*
X0085277Y0089406D02*
X0084093Y0089406D01*
X0084093Y0089602D02*
X0085277Y0089602D01*
X0085277Y0088033D02*
X0085277Y0087243D01*
X0084093Y0087243D01*
X0084093Y0088033D01*
X0085277Y0088033D01*
X0085277Y0087439D02*
X0084093Y0087439D01*
X0084093Y0087635D02*
X0085277Y0087635D01*
X0085277Y0087831D02*
X0084093Y0087831D01*
X0084093Y0088027D02*
X0085277Y0088027D01*
X0085277Y0086458D02*
X0085277Y0085668D01*
X0084093Y0085668D01*
X0084093Y0086458D01*
X0085277Y0086458D01*
X0085277Y0085864D02*
X0084093Y0085864D01*
X0084093Y0086060D02*
X0085277Y0086060D01*
X0085277Y0086256D02*
X0084093Y0086256D01*
X0084093Y0086452D02*
X0085277Y0086452D01*
X0086458Y0084093D02*
X0085668Y0084093D01*
X0085668Y0085277D01*
X0086458Y0085277D01*
X0086458Y0084093D01*
X0086458Y0084289D02*
X0085668Y0084289D01*
X0085668Y0084485D02*
X0086458Y0084485D01*
X0086458Y0084681D02*
X0085668Y0084681D01*
X0085668Y0084877D02*
X0086458Y0084877D01*
X0086458Y0085073D02*
X0085668Y0085073D01*
X0085668Y0085269D02*
X0086458Y0085269D01*
X0088033Y0084093D02*
X0087243Y0084093D01*
X0087243Y0085277D01*
X0088033Y0085277D01*
X0088033Y0084093D01*
X0088033Y0084289D02*
X0087243Y0084289D01*
X0087243Y0084485D02*
X0088033Y0084485D01*
X0088033Y0084681D02*
X0087243Y0084681D01*
X0087243Y0084877D02*
X0088033Y0084877D01*
X0088033Y0085073D02*
X0087243Y0085073D01*
X0087243Y0085269D02*
X0088033Y0085269D01*
X0089608Y0084093D02*
X0088818Y0084093D01*
X0088818Y0085277D01*
X0089608Y0085277D01*
X0089608Y0084093D01*
X0089608Y0084289D02*
X0088818Y0084289D01*
X0088818Y0084485D02*
X0089608Y0084485D01*
X0089608Y0084681D02*
X0088818Y0084681D01*
X0088818Y0084877D02*
X0089608Y0084877D01*
X0089608Y0085073D02*
X0088818Y0085073D01*
X0088818Y0085269D02*
X0089608Y0085269D01*
X0091182Y0084093D02*
X0090392Y0084093D01*
X0090392Y0085277D01*
X0091182Y0085277D01*
X0091182Y0084093D01*
X0091182Y0084289D02*
X0090392Y0084289D01*
X0090392Y0084485D02*
X0091182Y0084485D01*
X0091182Y0084681D02*
X0090392Y0084681D01*
X0090392Y0084877D02*
X0091182Y0084877D01*
X0091182Y0085073D02*
X0090392Y0085073D01*
X0090392Y0085269D02*
X0091182Y0085269D01*
X0092757Y0084093D02*
X0091967Y0084093D01*
X0091967Y0085277D01*
X0092757Y0085277D01*
X0092757Y0084093D01*
X0092757Y0084289D02*
X0091967Y0084289D01*
X0091967Y0084485D02*
X0092757Y0084485D01*
X0092757Y0084681D02*
X0091967Y0084681D01*
X0091967Y0084877D02*
X0092757Y0084877D01*
X0092757Y0085073D02*
X0091967Y0085073D01*
X0091967Y0085269D02*
X0092757Y0085269D01*
X0094332Y0084093D02*
X0093542Y0084093D01*
X0093542Y0085277D01*
X0094332Y0085277D01*
X0094332Y0084093D01*
X0094332Y0084289D02*
X0093542Y0084289D01*
X0093542Y0084485D02*
X0094332Y0084485D01*
X0094332Y0084681D02*
X0093542Y0084681D01*
X0093542Y0084877D02*
X0094332Y0084877D01*
X0094332Y0085073D02*
X0093542Y0085073D01*
X0093542Y0085269D02*
X0094332Y0085269D01*
X0095907Y0086458D02*
X0095907Y0085668D01*
X0094723Y0085668D01*
X0094723Y0086458D01*
X0095907Y0086458D01*
X0095907Y0085864D02*
X0094723Y0085864D01*
X0094723Y0086060D02*
X0095907Y0086060D01*
X0095907Y0086256D02*
X0094723Y0086256D01*
X0094723Y0086452D02*
X0095907Y0086452D01*
X0095907Y0088033D02*
X0095907Y0087243D01*
X0094723Y0087243D01*
X0094723Y0088033D01*
X0095907Y0088033D01*
X0095907Y0087439D02*
X0094723Y0087439D01*
X0094723Y0087635D02*
X0095907Y0087635D01*
X0095907Y0087831D02*
X0094723Y0087831D01*
X0094723Y0088027D02*
X0095907Y0088027D01*
X0095907Y0089608D02*
X0095907Y0088818D01*
X0094723Y0088818D01*
X0094723Y0089608D01*
X0095907Y0089608D01*
X0095907Y0089014D02*
X0094723Y0089014D01*
X0094723Y0089210D02*
X0095907Y0089210D01*
X0095907Y0089406D02*
X0094723Y0089406D01*
X0094723Y0089602D02*
X0095907Y0089602D01*
X0095907Y0091182D02*
X0095907Y0090392D01*
X0094723Y0090392D01*
X0094723Y0091182D01*
X0095907Y0091182D01*
X0095907Y0090588D02*
X0094723Y0090588D01*
X0094723Y0090784D02*
X0095907Y0090784D01*
X0095907Y0090980D02*
X0094723Y0090980D01*
X0094723Y0091176D02*
X0095907Y0091176D01*
X0095907Y0092757D02*
X0095907Y0091967D01*
X0094723Y0091967D01*
X0094723Y0092757D01*
X0095907Y0092757D01*
X0095907Y0092163D02*
X0094723Y0092163D01*
X0094723Y0092359D02*
X0095907Y0092359D01*
X0095907Y0092555D02*
X0094723Y0092555D01*
X0094723Y0092751D02*
X0095907Y0092751D01*
X0095907Y0094332D02*
X0095907Y0093542D01*
X0094723Y0093542D01*
X0094723Y0094332D01*
X0095907Y0094332D01*
X0095907Y0093738D02*
X0094723Y0093738D01*
X0094723Y0093934D02*
X0095907Y0093934D01*
X0095907Y0094130D02*
X0094723Y0094130D01*
X0094723Y0094326D02*
X0095907Y0094326D01*
X0093542Y0095907D02*
X0094332Y0095907D01*
X0094332Y0094723D01*
X0093542Y0094723D01*
X0093542Y0095907D01*
X0093542Y0094919D02*
X0094332Y0094919D01*
X0094332Y0095115D02*
X0093542Y0095115D01*
X0093542Y0095311D02*
X0094332Y0095311D01*
X0094332Y0095507D02*
X0093542Y0095507D01*
X0093542Y0095703D02*
X0094332Y0095703D01*
X0094332Y0095899D02*
X0093542Y0095899D01*
X0092757Y0094723D02*
X0091967Y0094723D01*
X0091967Y0095907D01*
X0092757Y0095907D01*
X0092757Y0094723D01*
X0092757Y0094919D02*
X0091967Y0094919D01*
X0091967Y0095115D02*
X0092757Y0095115D01*
X0092757Y0095311D02*
X0091967Y0095311D01*
X0091967Y0095507D02*
X0092757Y0095507D01*
X0092757Y0095703D02*
X0091967Y0095703D01*
X0091967Y0095899D02*
X0092757Y0095899D01*
X0091182Y0094723D02*
X0090392Y0094723D01*
X0090392Y0095907D01*
X0091182Y0095907D01*
X0091182Y0094723D01*
X0091182Y0094919D02*
X0090392Y0094919D01*
X0090392Y0095115D02*
X0091182Y0095115D01*
X0091182Y0095311D02*
X0090392Y0095311D01*
X0090392Y0095507D02*
X0091182Y0095507D01*
X0091182Y0095703D02*
X0090392Y0095703D01*
X0090392Y0095899D02*
X0091182Y0095899D01*
X0089608Y0094723D02*
X0088818Y0094723D01*
X0088818Y0095907D01*
X0089608Y0095907D01*
X0089608Y0094723D01*
X0089608Y0094919D02*
X0088818Y0094919D01*
X0088818Y0095115D02*
X0089608Y0095115D01*
X0089608Y0095311D02*
X0088818Y0095311D01*
X0088818Y0095507D02*
X0089608Y0095507D01*
X0089608Y0095703D02*
X0088818Y0095703D01*
X0088818Y0095899D02*
X0089608Y0095899D01*
X0088033Y0094723D02*
X0087243Y0094723D01*
X0087243Y0095907D01*
X0088033Y0095907D01*
X0088033Y0094723D01*
X0088033Y0094919D02*
X0087243Y0094919D01*
X0087243Y0095115D02*
X0088033Y0095115D01*
X0088033Y0095311D02*
X0087243Y0095311D01*
X0087243Y0095507D02*
X0088033Y0095507D01*
X0088033Y0095703D02*
X0087243Y0095703D01*
X0087243Y0095899D02*
X0088033Y0095899D01*
X0086458Y0094723D02*
X0085668Y0094723D01*
X0085668Y0095907D01*
X0086458Y0095907D01*
X0086458Y0094723D01*
X0086458Y0094919D02*
X0085668Y0094919D01*
X0085668Y0095115D02*
X0086458Y0095115D01*
X0086458Y0095311D02*
X0085668Y0095311D01*
X0085668Y0095507D02*
X0086458Y0095507D01*
X0086458Y0095703D02*
X0085668Y0095703D01*
X0085668Y0095899D02*
X0086458Y0095899D01*
D35*
X0092820Y0092505D02*
X0092820Y0087495D01*
X0087180Y0087495D01*
X0087180Y0092505D01*
X0092820Y0092505D01*
X0092820Y0088747D02*
X0087180Y0088747D01*
X0087180Y0089999D02*
X0092820Y0089999D01*
X0092820Y0091251D02*
X0087180Y0091251D01*
X0087180Y0092503D02*
X0092820Y0092503D01*
D36*
X0077900Y0162068D03*
X0077900Y0145532D03*
D37*
X0023993Y0111654D03*
X0023993Y0107323D03*
X0023206Y0102992D03*
X0023993Y0098661D03*
X0023206Y0094331D03*
X0023993Y0090000D03*
X0025568Y0085669D03*
X0023993Y0081339D03*
D38*
X0013363Y0114803D03*
X0008835Y0063031D03*
D39*
X0064544Y0109291D03*
X0064544Y0086850D03*
D40*
X0042800Y0038088D03*
X0042839Y0054112D03*
D41*
X0112400Y0130200D03*
X0108400Y0126200D03*
X0112400Y0126200D03*
D42*
X0112400Y0130200D03*
X0108400Y0126200D03*
X0112400Y0126200D03*
D43*
X0108400Y0130300D03*
D44*
X0108400Y0130300D03*
D45*
X0105800Y0053000D03*
X0079200Y0024100D03*
X0094500Y0030000D03*
X0084500Y0077300D03*
X0080700Y0087500D03*
X0100000Y0093900D03*
X0103000Y0150800D03*
X0130500Y0132400D03*
X0131900Y0122800D03*
X0133900Y0119500D03*
X0128700Y0122900D03*
X0072300Y0065600D03*
X0083000Y0140500D03*
X0132400Y0144500D03*
X0121600Y0107200D03*
X0121000Y0103100D03*
X0080300Y0099000D03*
X0079800Y0082300D03*
X0100000Y0082600D03*
D46*
X0105800Y0053000D03*
X0079200Y0024100D03*
X0094500Y0030000D03*
X0084500Y0077300D03*
X0080700Y0087500D03*
X0100000Y0093900D03*
X0103000Y0150800D03*
X0130500Y0132400D03*
X0131900Y0122800D03*
X0133900Y0119500D03*
X0128700Y0122900D03*
X0072300Y0065600D03*
X0083000Y0140500D03*
X0132400Y0144500D03*
X0121600Y0107200D03*
X0121000Y0103100D03*
X0080300Y0099000D03*
X0079800Y0082300D03*
X0100000Y0082600D03*
D47*
X0115900Y0142900D03*
X0117100Y0155100D03*
X0086800Y0062400D03*
X0094000Y0050700D03*
X0074500Y0150200D03*
X0108500Y0027500D03*
X0129900Y0050000D03*
X0070400Y0156000D03*
X0084900Y0152000D03*
X0028300Y0103000D03*
X0032300Y0048600D03*
X0029200Y0059700D03*
X0095900Y0154700D03*
X0057200Y0060000D03*
X0068700Y0167100D03*
X0123900Y0111000D03*
X0109600Y0020600D03*
X0089600Y0036100D03*
X0066100Y0099100D03*
X0095900Y0117300D03*
X0021700Y0077000D03*
X0021800Y0068100D03*
D48*
X0115900Y0142900D03*
X0117100Y0155100D03*
X0086800Y0062400D03*
X0094000Y0050700D03*
X0074500Y0150200D03*
X0108500Y0027500D03*
X0129900Y0050000D03*
X0070400Y0156000D03*
X0084900Y0152000D03*
X0028300Y0103000D03*
X0032300Y0048600D03*
X0029200Y0059700D03*
X0095900Y0154700D03*
X0057200Y0060000D03*
X0068700Y0167100D03*
X0123900Y0111000D03*
X0109600Y0020600D03*
X0089600Y0036100D03*
X0066100Y0099100D03*
X0095900Y0117300D03*
X0021700Y0077000D03*
X0021800Y0068100D03*
M02*
