G75*
%MOIN*%
%OFA0B0*%
%FSLAX25Y25*%
%IPPOS*%
%LPD*%
%AMOC8*
5,1,8,0,0,1.08239X$1,22.5*
%
%ADD10C,0.12798*%
%ADD11R,0.08468X0.08074*%
%ADD12R,0.06499X0.07680*%
%ADD13R,0.01775X0.05515*%
%ADD14R,0.20200X0.20200*%
%ADD15R,0.02169X0.02956*%
%ADD16C,0.05543*%
%ADD17C,0.05743*%
%ADD18C,0.06496*%
%ADD19C,0.06696*%
%ADD20C,0.04924*%
%ADD21C,0.03000*%
%ADD22C,0.03200*%
%ADD23C,0.02919*%
%ADD24C,0.03119*%
%ADD25C,0.02900*%
%ADD26C,0.03100*%
%ADD27C,0.02600*%
%ADD28C,0.02800*%
D10*
X0054300Y0163700D03*
X0169000Y0068400D03*
X0090000Y0008800D03*
D11*
X0077795Y0158748D03*
X0102205Y0158748D03*
D12*
X0073858Y0168000D03*
X0106142Y0168000D03*
D13*
X0084882Y0157469D03*
X0087441Y0157469D03*
X0090000Y0157469D03*
X0092559Y0157469D03*
X0095118Y0157469D03*
D14*
G36*
X0143033Y0051250D02*
X0157316Y0036967D01*
X0143033Y0022684D01*
X0128750Y0036967D01*
X0143033Y0051250D01*
G37*
G36*
X0036967Y0157316D02*
X0051250Y0143033D01*
X0036967Y0128750D01*
X0022684Y0143033D01*
X0036967Y0157316D01*
G37*
D15*
G36*
X0060861Y0059250D02*
X0062394Y0060783D01*
X0064483Y0058694D01*
X0062950Y0057161D01*
X0060861Y0059250D01*
G37*
G36*
X0058634Y0057023D02*
X0060167Y0058556D01*
X0062256Y0056467D01*
X0060723Y0054934D01*
X0058634Y0057023D01*
G37*
G36*
X0066815Y0057562D02*
X0068348Y0059095D01*
X0070437Y0057006D01*
X0068904Y0055473D01*
X0066815Y0057562D01*
G37*
G36*
X0064588Y0055335D02*
X0066121Y0056868D01*
X0068210Y0054779D01*
X0066677Y0053246D01*
X0064588Y0055335D01*
G37*
D16*
X0025400Y0103800D03*
D17*
X0025400Y0103800D03*
D18*
X0045400Y0063800D03*
D19*
X0045400Y0063800D03*
D20*
X0015400Y0103800D03*
X0055400Y0063800D03*
D21*
X0112400Y0130200D03*
X0108400Y0126200D03*
X0112400Y0126200D03*
D22*
X0112400Y0130200D03*
X0108400Y0126200D03*
X0112400Y0126200D03*
D23*
X0108400Y0130300D03*
D24*
X0108400Y0130300D03*
D25*
X0067400Y0030600D03*
X0089100Y0030600D03*
X0072300Y0043200D03*
X0050000Y0038900D03*
X0065300Y0044800D03*
X0094100Y0045700D03*
X0099600Y0042300D03*
X0084500Y0077300D03*
X0080700Y0087500D03*
X0100000Y0093900D03*
X0132900Y0051300D03*
X0084400Y0150200D03*
X0103000Y0150800D03*
X0130500Y0132400D03*
X0131900Y0122800D03*
X0133900Y0119500D03*
X0128700Y0122900D03*
X0072300Y0065600D03*
X0083000Y0140500D03*
X0132400Y0144500D03*
X0081600Y0152600D03*
X0095800Y0155900D03*
X0121600Y0107200D03*
X0121000Y0103100D03*
X0080300Y0099000D03*
X0079800Y0082300D03*
X0100000Y0082600D03*
D26*
X0067400Y0030600D03*
X0089100Y0030600D03*
X0072300Y0043200D03*
X0050000Y0038900D03*
X0065300Y0044800D03*
X0094100Y0045700D03*
X0099600Y0042300D03*
X0084500Y0077300D03*
X0080700Y0087500D03*
X0100000Y0093900D03*
X0132900Y0051300D03*
X0084400Y0150200D03*
X0103000Y0150800D03*
X0130500Y0132400D03*
X0131900Y0122800D03*
X0133900Y0119500D03*
X0128700Y0122900D03*
X0072300Y0065600D03*
X0083000Y0140500D03*
X0132400Y0144500D03*
X0081600Y0152600D03*
X0095800Y0155900D03*
X0121600Y0107200D03*
X0121000Y0103100D03*
X0080300Y0099000D03*
X0079800Y0082300D03*
X0100000Y0082600D03*
D27*
X0115900Y0142900D03*
X0117100Y0155100D03*
X0086800Y0062400D03*
X0086800Y0042400D03*
X0074500Y0150200D03*
X0065300Y0150300D03*
X0059300Y0113700D03*
X0076900Y0117500D03*
X0046200Y0053300D03*
X0040700Y0057000D03*
X0030200Y0119400D03*
X0123900Y0111000D03*
X0061100Y0025600D03*
X0062900Y0054500D03*
X0066100Y0099100D03*
X0081500Y0118000D03*
D28*
X0115900Y0142900D03*
X0117100Y0155100D03*
X0086800Y0062400D03*
X0086800Y0042400D03*
X0074500Y0150200D03*
X0065300Y0150300D03*
X0059300Y0113700D03*
X0076900Y0117500D03*
X0046200Y0053300D03*
X0040700Y0057000D03*
X0030200Y0119400D03*
X0123900Y0111000D03*
X0061100Y0025600D03*
X0062900Y0054500D03*
X0066100Y0099100D03*
X0081500Y0118000D03*
M02*
