G75*
%MOIN*%
%OFA0B0*%
%FSLAX25Y25*%
%IPPOS*%
%LPD*%
%AMOC8*
5,1,8,0,0,1.08239X$1,22.5*
%
%ADD10R,0.08268X0.07874*%
%ADD11R,0.06299X0.07480*%
%ADD12R,0.01575X0.05315*%
%ADD13R,0.20000X0.20000*%
%ADD14R,0.01969X0.02756*%
%ADD15C,0.05543*%
%ADD16C,0.06496*%
%ADD17C,0.03000*%
%ADD18C,0.02919*%
%ADD19C,0.00600*%
%ADD20C,0.02900*%
%ADD21C,0.02600*%
%ADD22C,0.01200*%
%ADD23C,0.02400*%
D10*
X0077795Y0158748D03*
X0102205Y0158748D03*
D11*
X0073858Y0168000D03*
X0106142Y0168000D03*
D12*
X0084882Y0157469D03*
X0087441Y0157469D03*
X0090000Y0157469D03*
X0092559Y0157469D03*
X0095118Y0157469D03*
D13*
G36*
X0143033Y0051109D02*
X0157175Y0036967D01*
X0143033Y0022825D01*
X0128891Y0036967D01*
X0143033Y0051109D01*
G37*
G36*
X0036967Y0157175D02*
X0051109Y0143033D01*
X0036967Y0128891D01*
X0022825Y0143033D01*
X0036967Y0157175D01*
G37*
D14*
G36*
X0061002Y0059250D02*
X0062394Y0060642D01*
X0064342Y0058694D01*
X0062950Y0057302D01*
X0061002Y0059250D01*
G37*
G36*
X0058775Y0057023D02*
X0060167Y0058415D01*
X0062115Y0056467D01*
X0060723Y0055075D01*
X0058775Y0057023D01*
G37*
G36*
X0066956Y0057562D02*
X0068348Y0058954D01*
X0070296Y0057006D01*
X0068904Y0055614D01*
X0066956Y0057562D01*
G37*
G36*
X0064729Y0055335D02*
X0066121Y0056727D01*
X0068069Y0054779D01*
X0066677Y0053387D01*
X0064729Y0055335D01*
G37*
D15*
X0025400Y0103800D03*
D16*
X0045400Y0063800D03*
D17*
X0112400Y0130200D03*
X0108400Y0126200D03*
X0112400Y0126200D03*
D18*
X0108400Y0130300D03*
D19*
X0063300Y0024689D02*
X0063300Y0026511D01*
X0062011Y0027800D01*
X0060189Y0027800D01*
X0060089Y0027700D01*
X0043570Y0027700D01*
X0018800Y0052470D01*
X0018800Y0067370D01*
X0017570Y0068600D01*
X0009800Y0076370D01*
X0009800Y0099978D01*
X0011626Y0098152D01*
X0014075Y0097138D01*
X0016725Y0097138D01*
X0019174Y0098152D01*
X0021048Y0100026D01*
X0022062Y0102475D01*
X0022062Y0105125D01*
X0021048Y0107574D01*
X0019174Y0109448D01*
X0016725Y0110462D01*
X0014075Y0110462D01*
X0013490Y0110220D01*
X0033927Y0130658D01*
X0036594Y0127991D01*
X0037094Y0127991D01*
X0030703Y0121600D01*
X0029289Y0121600D01*
X0028000Y0120311D01*
X0028000Y0118489D01*
X0029289Y0117200D01*
X0031111Y0117200D01*
X0032400Y0118489D01*
X0032400Y0119903D01*
X0063897Y0151400D01*
X0079477Y0151400D01*
X0080627Y0150250D01*
X0082573Y0150250D01*
X0083950Y0151627D01*
X0083950Y0153573D01*
X0082829Y0154694D01*
X0082829Y0159826D01*
X0085754Y0159826D01*
X0085754Y0154438D01*
X0085941Y0154251D01*
X0085941Y0136038D01*
X0118650Y0103329D01*
X0118650Y0102127D01*
X0120027Y0100750D01*
X0121973Y0100750D01*
X0123350Y0102127D01*
X0123350Y0104073D01*
X0122573Y0104850D01*
X0122573Y0104850D01*
X0123950Y0106227D01*
X0123950Y0108173D01*
X0123323Y0108800D01*
X0124811Y0108800D01*
X0126100Y0110089D01*
X0126100Y0111911D01*
X0124811Y0113200D01*
X0122989Y0113200D01*
X0122289Y0112500D01*
X0120221Y0112500D01*
X0094059Y0138662D01*
X0094059Y0153911D01*
X0094466Y0153911D01*
X0094827Y0153550D01*
X0096773Y0153550D01*
X0097416Y0154193D01*
X0097698Y0153911D01*
X0106711Y0153911D01*
X0107239Y0154438D01*
X0107239Y0163058D01*
X0106937Y0163360D01*
X0109664Y0163360D01*
X0110191Y0163887D01*
X0110191Y0172113D01*
X0109664Y0172640D01*
X0105064Y0172640D01*
X0105064Y0173773D01*
X0114242Y0171679D01*
X0124488Y0167908D01*
X0134167Y0162858D01*
X0135700Y0161789D01*
X0135700Y0018211D01*
X0134167Y0017142D01*
X0124488Y0012092D01*
X0114242Y0008321D01*
X0103598Y0005892D01*
X0100104Y0005555D01*
X0100599Y0007405D01*
X0100599Y0010195D01*
X0099877Y0012891D01*
X0098481Y0015308D01*
X0096508Y0017281D01*
X0094091Y0018677D01*
X0091395Y0019399D01*
X0088605Y0019399D01*
X0085909Y0018677D01*
X0083492Y0017281D01*
X0081519Y0015308D01*
X0080123Y0012891D01*
X0079401Y0010195D01*
X0079401Y0007405D01*
X0079911Y0005502D01*
X0071041Y0006936D01*
X0060575Y0010042D01*
X0050592Y0014462D01*
X0041256Y0020121D01*
X0032720Y0026928D01*
X0025125Y0034771D01*
X0018595Y0043520D01*
X0013237Y0053033D01*
X0009140Y0063153D01*
X0006371Y0073713D01*
X0006350Y0073881D01*
X0014600Y0065630D01*
X0014600Y0050730D01*
X0040600Y0024730D01*
X0041830Y0023500D01*
X0060089Y0023500D01*
X0060189Y0023400D01*
X0062011Y0023400D01*
X0063300Y0024689D01*
X0102350Y0081627D02*
X0102350Y0083573D01*
X0100973Y0084950D01*
X0099027Y0084950D01*
X0098600Y0084523D01*
X0098600Y0099497D01*
X0097897Y0100200D01*
X0082423Y0100200D01*
X0081273Y0101350D01*
X0079327Y0101350D01*
X0078277Y0100300D01*
X0068011Y0100300D01*
X0067300Y0101011D01*
X0067300Y0108697D01*
X0066597Y0109400D01*
X0056700Y0109400D01*
X0056700Y0122600D01*
X0080300Y0122600D01*
X0080300Y0119911D01*
X0079300Y0118911D01*
X0079300Y0117089D01*
X0080589Y0115800D01*
X0082411Y0115800D01*
X0083700Y0117089D01*
X0083700Y0118911D01*
X0082700Y0119911D01*
X0082700Y0124297D01*
X0081997Y0125000D01*
X0055003Y0125000D01*
X0054300Y0124297D01*
X0054300Y0107703D01*
X0055003Y0107000D01*
X0064900Y0107000D01*
X0064900Y0101011D01*
X0063900Y0100011D01*
X0063900Y0098189D01*
X0064900Y0097189D01*
X0064900Y0081803D01*
X0065603Y0081100D01*
X0077677Y0081100D01*
X0078827Y0079950D01*
X0080773Y0079950D01*
X0082150Y0081327D01*
X0082150Y0083273D01*
X0080773Y0084650D01*
X0078827Y0084650D01*
X0077677Y0083500D01*
X0067300Y0083500D01*
X0067300Y0097189D01*
X0068011Y0097900D01*
X0078077Y0097900D01*
X0079327Y0096650D01*
X0081273Y0096650D01*
X0082423Y0097800D01*
X0096200Y0097800D01*
X0096200Y0097300D01*
X0082876Y0097300D01*
X0082700Y0097124D01*
X0082700Y0082876D01*
X0082876Y0082700D01*
X0096200Y0082700D01*
X0096200Y0082103D01*
X0096903Y0081400D01*
X0097877Y0081400D01*
X0099027Y0080250D01*
X0100973Y0080250D01*
X0102350Y0081627D01*
X0066304Y0052487D02*
X0067050Y0052487D01*
X0068969Y0054406D01*
X0068969Y0055152D01*
X0066493Y0057627D01*
X0065747Y0057627D01*
X0065642Y0057523D01*
X0065067Y0058146D01*
X0065242Y0058321D01*
X0065242Y0059067D01*
X0062767Y0061542D01*
X0062021Y0061542D01*
X0061432Y0060954D01*
X0062062Y0062475D01*
X0062062Y0065125D01*
X0061048Y0067574D01*
X0059174Y0069448D01*
X0056725Y0070462D01*
X0054075Y0070462D01*
X0051626Y0069448D01*
X0049752Y0067574D01*
X0049039Y0065853D01*
X0048917Y0066150D01*
X0047750Y0067317D01*
X0046225Y0067948D01*
X0044575Y0067948D01*
X0043050Y0067317D01*
X0041883Y0066150D01*
X0041252Y0064625D01*
X0041252Y0062975D01*
X0041883Y0061450D01*
X0043050Y0060283D01*
X0044575Y0059652D01*
X0046225Y0059652D01*
X0047750Y0060283D01*
X0048917Y0061450D01*
X0049039Y0061747D01*
X0049752Y0060026D01*
X0051578Y0058200D01*
X0042611Y0058200D01*
X0041611Y0059200D01*
X0039789Y0059200D01*
X0038500Y0057911D01*
X0038500Y0056089D01*
X0039789Y0054800D01*
X0041611Y0054800D01*
X0042611Y0055800D01*
X0058725Y0055800D01*
X0060351Y0054175D01*
X0060700Y0054175D01*
X0060700Y0053589D01*
X0061989Y0052300D01*
X0063811Y0052300D01*
X0065100Y0053589D01*
X0065100Y0053691D01*
X0066304Y0052487D01*
X0076924Y0005985D02*
X0079781Y0005985D01*
X0100219Y0005985D02*
X0104005Y0005985D01*
X0079621Y0006584D02*
X0073222Y0006584D01*
X0100379Y0006584D02*
X0106628Y0006584D01*
X0079460Y0007182D02*
X0070212Y0007182D01*
X0100540Y0007182D02*
X0109250Y0007182D01*
X0079401Y0007781D02*
X0068196Y0007781D01*
X0100599Y0007781D02*
X0111872Y0007781D01*
X0079401Y0008379D02*
X0066179Y0008379D01*
X0100599Y0008379D02*
X0114398Y0008379D01*
X0079401Y0008978D02*
X0064163Y0008978D01*
X0100599Y0008978D02*
X0116025Y0008978D01*
X0079401Y0009576D02*
X0062146Y0009576D01*
X0100599Y0009576D02*
X0117651Y0009576D01*
X0079401Y0010175D02*
X0060276Y0010175D01*
X0100599Y0010175D02*
X0119278Y0010175D01*
X0079556Y0010773D02*
X0058924Y0010773D01*
X0100444Y0010773D02*
X0120904Y0010773D01*
X0079716Y0011372D02*
X0057572Y0011372D01*
X0100284Y0011372D02*
X0122530Y0011372D01*
X0079876Y0011970D02*
X0056220Y0011970D01*
X0100124Y0011970D02*
X0124157Y0011970D01*
X0080037Y0012569D02*
X0054868Y0012569D01*
X0099963Y0012569D02*
X0125401Y0012569D01*
X0080283Y0013167D02*
X0053516Y0013167D01*
X0099717Y0013167D02*
X0126549Y0013167D01*
X0080628Y0013766D02*
X0052164Y0013766D01*
X0099372Y0013766D02*
X0127696Y0013766D01*
X0080974Y0014364D02*
X0050812Y0014364D01*
X0099026Y0014364D02*
X0128843Y0014364D01*
X0081319Y0014963D02*
X0049765Y0014963D01*
X0098681Y0014963D02*
X0129990Y0014963D01*
X0081772Y0015561D02*
X0048778Y0015561D01*
X0098228Y0015561D02*
X0131137Y0015561D01*
X0082370Y0016160D02*
X0047791Y0016160D01*
X0097630Y0016160D02*
X0132285Y0016160D01*
X0082969Y0016758D02*
X0046803Y0016758D01*
X0097031Y0016758D02*
X0133432Y0016758D01*
X0083622Y0017357D02*
X0045816Y0017357D01*
X0096378Y0017357D02*
X0134475Y0017357D01*
X0084659Y0017955D02*
X0044829Y0017955D01*
X0095341Y0017955D02*
X0135333Y0017955D01*
X0085696Y0018554D02*
X0043841Y0018554D01*
X0094304Y0018554D02*
X0135700Y0018554D01*
X0087683Y0019152D02*
X0042854Y0019152D01*
X0092317Y0019152D02*
X0135700Y0019152D01*
X0135700Y0019751D02*
X0041867Y0019751D01*
X0040970Y0020349D02*
X0135700Y0020349D01*
X0135700Y0020948D02*
X0040219Y0020948D01*
X0039469Y0021546D02*
X0135700Y0021546D01*
X0135700Y0022145D02*
X0038718Y0022145D01*
X0037968Y0022743D02*
X0135700Y0022743D01*
X0135700Y0023342D02*
X0037217Y0023342D01*
X0036467Y0023940D02*
X0041390Y0023940D01*
X0062552Y0023940D02*
X0135700Y0023940D01*
X0040791Y0024539D02*
X0035716Y0024539D01*
X0063150Y0024539D02*
X0135700Y0024539D01*
X0040193Y0025137D02*
X0034966Y0025137D01*
X0063300Y0025137D02*
X0135700Y0025137D01*
X0039594Y0025736D02*
X0034215Y0025736D01*
X0063300Y0025736D02*
X0135700Y0025736D01*
X0038996Y0026334D02*
X0033465Y0026334D01*
X0063300Y0026334D02*
X0135700Y0026334D01*
X0038397Y0026933D02*
X0032715Y0026933D01*
X0062878Y0026933D02*
X0135700Y0026933D01*
X0037799Y0027532D02*
X0032136Y0027532D01*
X0062280Y0027532D02*
X0135700Y0027532D01*
X0037200Y0028130D02*
X0031556Y0028130D01*
X0043140Y0028130D02*
X0135700Y0028130D01*
X0036602Y0028729D02*
X0030977Y0028729D01*
X0042541Y0028729D02*
X0135700Y0028729D01*
X0036003Y0029327D02*
X0030397Y0029327D01*
X0041943Y0029327D02*
X0135700Y0029327D01*
X0035405Y0029926D02*
X0029817Y0029926D01*
X0041344Y0029926D02*
X0135700Y0029926D01*
X0034806Y0030524D02*
X0029238Y0030524D01*
X0040746Y0030524D02*
X0135700Y0030524D01*
X0034208Y0031123D02*
X0028658Y0031123D01*
X0040147Y0031123D02*
X0135700Y0031123D01*
X0033609Y0031721D02*
X0028078Y0031721D01*
X0039549Y0031721D02*
X0135700Y0031721D01*
X0033011Y0032320D02*
X0027499Y0032320D01*
X0038950Y0032320D02*
X0135700Y0032320D01*
X0032412Y0032918D02*
X0026919Y0032918D01*
X0038352Y0032918D02*
X0135700Y0032918D01*
X0031814Y0033517D02*
X0026340Y0033517D01*
X0037753Y0033517D02*
X0135700Y0033517D01*
X0031215Y0034115D02*
X0025760Y0034115D01*
X0037155Y0034115D02*
X0135700Y0034115D01*
X0030616Y0034714D02*
X0025180Y0034714D01*
X0036556Y0034714D02*
X0135700Y0034714D01*
X0030018Y0035312D02*
X0024721Y0035312D01*
X0035958Y0035312D02*
X0135700Y0035312D01*
X0029419Y0035911D02*
X0024274Y0035911D01*
X0035359Y0035911D02*
X0135700Y0035911D01*
X0028821Y0036509D02*
X0023827Y0036509D01*
X0034761Y0036509D02*
X0135700Y0036509D01*
X0028222Y0037108D02*
X0023381Y0037108D01*
X0034162Y0037108D02*
X0135700Y0037108D01*
X0027624Y0037706D02*
X0022934Y0037706D01*
X0033564Y0037706D02*
X0135700Y0037706D01*
X0027025Y0038305D02*
X0022487Y0038305D01*
X0032965Y0038305D02*
X0135700Y0038305D01*
X0026427Y0038903D02*
X0022041Y0038903D01*
X0032367Y0038903D02*
X0135700Y0038903D01*
X0025828Y0039502D02*
X0021594Y0039502D01*
X0031768Y0039502D02*
X0135700Y0039502D01*
X0025230Y0040100D02*
X0021147Y0040100D01*
X0031170Y0040100D02*
X0135700Y0040100D01*
X0024631Y0040699D02*
X0020701Y0040699D01*
X0030571Y0040699D02*
X0135700Y0040699D01*
X0024033Y0041297D02*
X0020254Y0041297D01*
X0029973Y0041297D02*
X0135700Y0041297D01*
X0023434Y0041896D02*
X0019807Y0041896D01*
X0029374Y0041896D02*
X0135700Y0041896D01*
X0022836Y0042494D02*
X0019361Y0042494D01*
X0028776Y0042494D02*
X0135700Y0042494D01*
X0022237Y0043093D02*
X0018914Y0043093D01*
X0028177Y0043093D02*
X0135700Y0043093D01*
X0021639Y0043691D02*
X0018499Y0043691D01*
X0027579Y0043691D02*
X0135700Y0043691D01*
X0021040Y0044290D02*
X0018162Y0044290D01*
X0026980Y0044290D02*
X0135700Y0044290D01*
X0020442Y0044888D02*
X0017824Y0044888D01*
X0026381Y0044888D02*
X0135700Y0044888D01*
X0019843Y0045487D02*
X0017487Y0045487D01*
X0025783Y0045487D02*
X0135700Y0045487D01*
X0019245Y0046085D02*
X0017150Y0046085D01*
X0025184Y0046085D02*
X0135700Y0046085D01*
X0018646Y0046684D02*
X0016813Y0046684D01*
X0024586Y0046684D02*
X0135700Y0046684D01*
X0018048Y0047282D02*
X0016476Y0047282D01*
X0023987Y0047282D02*
X0135700Y0047282D01*
X0017449Y0047881D02*
X0016139Y0047881D01*
X0023389Y0047881D02*
X0135700Y0047881D01*
X0016851Y0048479D02*
X0015802Y0048479D01*
X0022790Y0048479D02*
X0135700Y0048479D01*
X0016252Y0049078D02*
X0015465Y0049078D01*
X0022192Y0049078D02*
X0135700Y0049078D01*
X0015654Y0049676D02*
X0015128Y0049676D01*
X0021593Y0049676D02*
X0135700Y0049676D01*
X0015055Y0050275D02*
X0014791Y0050275D01*
X0020995Y0050275D02*
X0135700Y0050275D01*
X0014600Y0050873D02*
X0014454Y0050873D01*
X0020396Y0050873D02*
X0135700Y0050873D01*
X0014600Y0051472D02*
X0014117Y0051472D01*
X0019798Y0051472D02*
X0135700Y0051472D01*
X0014600Y0052070D02*
X0013780Y0052070D01*
X0019199Y0052070D02*
X0135700Y0052070D01*
X0014600Y0052669D02*
X0013443Y0052669D01*
X0018800Y0052669D02*
X0061620Y0052669D01*
X0064180Y0052669D02*
X0066122Y0052669D01*
X0067232Y0052669D02*
X0135700Y0052669D01*
X0014600Y0053268D02*
X0013143Y0053268D01*
X0018800Y0053268D02*
X0061021Y0053268D01*
X0064779Y0053268D02*
X0065523Y0053268D01*
X0067830Y0053268D02*
X0135700Y0053268D01*
X0014600Y0053866D02*
X0012900Y0053866D01*
X0018800Y0053866D02*
X0060700Y0053866D01*
X0068429Y0053866D02*
X0135700Y0053866D01*
X0014600Y0054465D02*
X0012658Y0054465D01*
X0018800Y0054465D02*
X0060061Y0054465D01*
X0068969Y0054465D02*
X0135700Y0054465D01*
X0014600Y0055063D02*
X0012416Y0055063D01*
X0018800Y0055063D02*
X0039526Y0055063D01*
X0041874Y0055063D02*
X0059462Y0055063D01*
X0068969Y0055063D02*
X0135700Y0055063D01*
X0014600Y0055662D02*
X0012173Y0055662D01*
X0018800Y0055662D02*
X0038927Y0055662D01*
X0042473Y0055662D02*
X0058864Y0055662D01*
X0068459Y0055662D02*
X0135700Y0055662D01*
X0014600Y0056260D02*
X0011931Y0056260D01*
X0018800Y0056260D02*
X0038500Y0056260D01*
X0067860Y0056260D02*
X0135700Y0056260D01*
X0014600Y0056859D02*
X0011689Y0056859D01*
X0018800Y0056859D02*
X0038500Y0056859D01*
X0067262Y0056859D02*
X0135700Y0056859D01*
X0014600Y0057457D02*
X0011446Y0057457D01*
X0018800Y0057457D02*
X0038500Y0057457D01*
X0066663Y0057457D02*
X0135700Y0057457D01*
X0014600Y0058056D02*
X0011204Y0058056D01*
X0018800Y0058056D02*
X0038644Y0058056D01*
X0065151Y0058056D02*
X0135700Y0058056D01*
X0014600Y0058654D02*
X0010962Y0058654D01*
X0018800Y0058654D02*
X0039243Y0058654D01*
X0042157Y0058654D02*
X0051124Y0058654D01*
X0065242Y0058654D02*
X0135700Y0058654D01*
X0014600Y0059253D02*
X0010719Y0059253D01*
X0018800Y0059253D02*
X0050526Y0059253D01*
X0065056Y0059253D02*
X0135700Y0059253D01*
X0014600Y0059851D02*
X0010477Y0059851D01*
X0018800Y0059851D02*
X0044094Y0059851D01*
X0046706Y0059851D02*
X0049927Y0059851D01*
X0064458Y0059851D02*
X0135700Y0059851D01*
X0014600Y0060450D02*
X0010235Y0060450D01*
X0018800Y0060450D02*
X0042884Y0060450D01*
X0047916Y0060450D02*
X0049577Y0060450D01*
X0063859Y0060450D02*
X0135700Y0060450D01*
X0014600Y0061048D02*
X0009993Y0061048D01*
X0018800Y0061048D02*
X0042286Y0061048D01*
X0048514Y0061048D02*
X0049329Y0061048D01*
X0061471Y0061048D02*
X0061527Y0061048D01*
X0063261Y0061048D02*
X0135700Y0061048D01*
X0014600Y0061647D02*
X0009750Y0061647D01*
X0018800Y0061647D02*
X0041802Y0061647D01*
X0048998Y0061647D02*
X0049081Y0061647D01*
X0061719Y0061647D02*
X0135700Y0061647D01*
X0014600Y0062245D02*
X0009508Y0062245D01*
X0018800Y0062245D02*
X0041554Y0062245D01*
X0061967Y0062245D02*
X0135700Y0062245D01*
X0014600Y0062844D02*
X0009266Y0062844D01*
X0018800Y0062844D02*
X0041306Y0062844D01*
X0062062Y0062844D02*
X0135700Y0062844D01*
X0014600Y0063442D02*
X0009065Y0063442D01*
X0018800Y0063442D02*
X0041252Y0063442D01*
X0062062Y0063442D02*
X0135700Y0063442D01*
X0014600Y0064041D02*
X0008908Y0064041D01*
X0018800Y0064041D02*
X0041252Y0064041D01*
X0062062Y0064041D02*
X0135700Y0064041D01*
X0014600Y0064639D02*
X0008751Y0064639D01*
X0018800Y0064639D02*
X0041258Y0064639D01*
X0062062Y0064639D02*
X0135700Y0064639D01*
X0014600Y0065238D02*
X0008594Y0065238D01*
X0018800Y0065238D02*
X0041506Y0065238D01*
X0062016Y0065238D02*
X0135700Y0065238D01*
X0014394Y0065836D02*
X0008437Y0065836D01*
X0018800Y0065836D02*
X0041754Y0065836D01*
X0061768Y0065836D02*
X0135700Y0065836D01*
X0013795Y0066435D02*
X0008280Y0066435D01*
X0018800Y0066435D02*
X0042169Y0066435D01*
X0048631Y0066435D02*
X0049280Y0066435D01*
X0061520Y0066435D02*
X0135700Y0066435D01*
X0013197Y0067033D02*
X0008123Y0067033D01*
X0018800Y0067033D02*
X0042767Y0067033D01*
X0048033Y0067033D02*
X0049528Y0067033D01*
X0061272Y0067033D02*
X0135700Y0067033D01*
X0012598Y0067632D02*
X0007966Y0067632D01*
X0018538Y0067632D02*
X0043811Y0067632D01*
X0046989Y0067632D02*
X0049810Y0067632D01*
X0060990Y0067632D02*
X0135700Y0067632D01*
X0012000Y0068230D02*
X0007809Y0068230D01*
X0017940Y0068230D02*
X0050409Y0068230D01*
X0060391Y0068230D02*
X0135700Y0068230D01*
X0011401Y0068829D02*
X0007652Y0068829D01*
X0017341Y0068829D02*
X0051007Y0068829D01*
X0059793Y0068829D02*
X0135700Y0068829D01*
X0010803Y0069427D02*
X0007495Y0069427D01*
X0016743Y0069427D02*
X0051606Y0069427D01*
X0059194Y0069427D02*
X0135700Y0069427D01*
X0010204Y0070026D02*
X0007338Y0070026D01*
X0016144Y0070026D02*
X0053021Y0070026D01*
X0057779Y0070026D02*
X0135700Y0070026D01*
X0009606Y0070624D02*
X0007181Y0070624D01*
X0015545Y0070624D02*
X0135700Y0070624D01*
X0009007Y0071223D02*
X0007024Y0071223D01*
X0014947Y0071223D02*
X0135700Y0071223D01*
X0008409Y0071821D02*
X0006867Y0071821D01*
X0014348Y0071821D02*
X0135700Y0071821D01*
X0007810Y0072420D02*
X0006710Y0072420D01*
X0013750Y0072420D02*
X0135700Y0072420D01*
X0007212Y0073018D02*
X0006553Y0073018D01*
X0013151Y0073018D02*
X0135700Y0073018D01*
X0006613Y0073617D02*
X0006396Y0073617D01*
X0012553Y0073617D02*
X0135700Y0073617D01*
X0135700Y0074215D02*
X0011954Y0074215D01*
X0011356Y0074814D02*
X0135700Y0074814D01*
X0135700Y0075412D02*
X0010757Y0075412D01*
X0010159Y0076011D02*
X0135700Y0076011D01*
X0135700Y0076609D02*
X0009800Y0076609D01*
X0009800Y0077208D02*
X0135700Y0077208D01*
X0135700Y0077806D02*
X0009800Y0077806D01*
X0009800Y0078405D02*
X0135700Y0078405D01*
X0135700Y0079003D02*
X0009800Y0079003D01*
X0009800Y0079602D02*
X0135700Y0079602D01*
X0078576Y0080201D02*
X0009800Y0080201D01*
X0081024Y0080201D02*
X0135700Y0080201D01*
X0077978Y0080799D02*
X0009800Y0080799D01*
X0081622Y0080799D02*
X0098478Y0080799D01*
X0101522Y0080799D02*
X0135700Y0080799D01*
X0065305Y0081398D02*
X0009800Y0081398D01*
X0082150Y0081398D02*
X0097879Y0081398D01*
X0102121Y0081398D02*
X0135700Y0081398D01*
X0064900Y0081996D02*
X0009800Y0081996D01*
X0082150Y0081996D02*
X0096307Y0081996D01*
X0102350Y0081996D02*
X0135700Y0081996D01*
X0064900Y0082595D02*
X0009800Y0082595D01*
X0082150Y0082595D02*
X0096200Y0082595D01*
X0102350Y0082595D02*
X0135700Y0082595D01*
X0064900Y0083193D02*
X0009800Y0083193D01*
X0082150Y0083193D02*
X0082700Y0083193D01*
X0102350Y0083193D02*
X0135700Y0083193D01*
X0064900Y0083792D02*
X0009800Y0083792D01*
X0067300Y0083792D02*
X0077968Y0083792D01*
X0081632Y0083792D02*
X0082700Y0083792D01*
X0102132Y0083792D02*
X0135700Y0083792D01*
X0064900Y0084390D02*
X0009800Y0084390D01*
X0067300Y0084390D02*
X0078567Y0084390D01*
X0081033Y0084390D02*
X0082700Y0084390D01*
X0101533Y0084390D02*
X0135700Y0084390D01*
X0064900Y0084989D02*
X0009800Y0084989D01*
X0067300Y0084989D02*
X0082700Y0084989D01*
X0098600Y0084989D02*
X0135700Y0084989D01*
X0064900Y0085587D02*
X0009800Y0085587D01*
X0067300Y0085587D02*
X0082700Y0085587D01*
X0098600Y0085587D02*
X0135700Y0085587D01*
X0064900Y0086186D02*
X0009800Y0086186D01*
X0067300Y0086186D02*
X0082700Y0086186D01*
X0098600Y0086186D02*
X0135700Y0086186D01*
X0064900Y0086784D02*
X0009800Y0086784D01*
X0067300Y0086784D02*
X0082700Y0086784D01*
X0098600Y0086784D02*
X0135700Y0086784D01*
X0064900Y0087383D02*
X0009800Y0087383D01*
X0067300Y0087383D02*
X0082700Y0087383D01*
X0098600Y0087383D02*
X0135700Y0087383D01*
X0064900Y0087981D02*
X0009800Y0087981D01*
X0067300Y0087981D02*
X0082700Y0087981D01*
X0098600Y0087981D02*
X0135700Y0087981D01*
X0064900Y0088580D02*
X0009800Y0088580D01*
X0067300Y0088580D02*
X0082700Y0088580D01*
X0098600Y0088580D02*
X0135700Y0088580D01*
X0064900Y0089178D02*
X0009800Y0089178D01*
X0067300Y0089178D02*
X0082700Y0089178D01*
X0098600Y0089178D02*
X0135700Y0089178D01*
X0064900Y0089777D02*
X0009800Y0089777D01*
X0067300Y0089777D02*
X0082700Y0089777D01*
X0098600Y0089777D02*
X0135700Y0089777D01*
X0064900Y0090375D02*
X0009800Y0090375D01*
X0067300Y0090375D02*
X0082700Y0090375D01*
X0098600Y0090375D02*
X0135700Y0090375D01*
X0064900Y0090974D02*
X0009800Y0090974D01*
X0067300Y0090974D02*
X0082700Y0090974D01*
X0098600Y0090974D02*
X0135700Y0090974D01*
X0064900Y0091572D02*
X0009800Y0091572D01*
X0067300Y0091572D02*
X0082700Y0091572D01*
X0098600Y0091572D02*
X0135700Y0091572D01*
X0064900Y0092171D02*
X0009800Y0092171D01*
X0067300Y0092171D02*
X0082700Y0092171D01*
X0098600Y0092171D02*
X0135700Y0092171D01*
X0064900Y0092769D02*
X0009800Y0092769D01*
X0067300Y0092769D02*
X0082700Y0092769D01*
X0098600Y0092769D02*
X0135700Y0092769D01*
X0064900Y0093368D02*
X0009800Y0093368D01*
X0067300Y0093368D02*
X0082700Y0093368D01*
X0098600Y0093368D02*
X0135700Y0093368D01*
X0064900Y0093966D02*
X0009800Y0093966D01*
X0067300Y0093966D02*
X0082700Y0093966D01*
X0098600Y0093966D02*
X0135700Y0093966D01*
X0064900Y0094565D02*
X0009800Y0094565D01*
X0067300Y0094565D02*
X0082700Y0094565D01*
X0098600Y0094565D02*
X0135700Y0094565D01*
X0064900Y0095163D02*
X0009800Y0095163D01*
X0067300Y0095163D02*
X0082700Y0095163D01*
X0098600Y0095163D02*
X0135700Y0095163D01*
X0064900Y0095762D02*
X0009800Y0095762D01*
X0067300Y0095762D02*
X0082700Y0095762D01*
X0098600Y0095762D02*
X0135700Y0095762D01*
X0064900Y0096360D02*
X0009800Y0096360D01*
X0067300Y0096360D02*
X0082700Y0096360D01*
X0098600Y0096360D02*
X0135700Y0096360D01*
X0064900Y0096959D02*
X0009800Y0096959D01*
X0067300Y0096959D02*
X0079018Y0096959D01*
X0081582Y0096959D02*
X0082700Y0096959D01*
X0098600Y0096959D02*
X0135700Y0096959D01*
X0013062Y0097557D02*
X0009800Y0097557D01*
X0017738Y0097557D02*
X0064531Y0097557D01*
X0067669Y0097557D02*
X0078419Y0097557D01*
X0082181Y0097557D02*
X0096200Y0097557D01*
X0098600Y0097557D02*
X0135700Y0097557D01*
X0011622Y0098156D02*
X0009800Y0098156D01*
X0019178Y0098156D02*
X0063933Y0098156D01*
X0098600Y0098156D02*
X0135700Y0098156D01*
X0011024Y0098754D02*
X0009800Y0098754D01*
X0019776Y0098754D02*
X0063900Y0098754D01*
X0098600Y0098754D02*
X0135700Y0098754D01*
X0010425Y0099353D02*
X0009800Y0099353D01*
X0020375Y0099353D02*
X0063900Y0099353D01*
X0098600Y0099353D02*
X0135700Y0099353D01*
X0009827Y0099951D02*
X0009800Y0099951D01*
X0020973Y0099951D02*
X0063900Y0099951D01*
X0098146Y0099951D02*
X0135700Y0099951D01*
X0064439Y0100550D02*
X0021265Y0100550D01*
X0067761Y0100550D02*
X0078527Y0100550D01*
X0082073Y0100550D02*
X0135700Y0100550D01*
X0064900Y0101148D02*
X0021513Y0101148D01*
X0067300Y0101148D02*
X0079125Y0101148D01*
X0081475Y0101148D02*
X0119628Y0101148D01*
X0122372Y0101148D02*
X0135700Y0101148D01*
X0064900Y0101747D02*
X0021761Y0101747D01*
X0067300Y0101747D02*
X0119030Y0101747D01*
X0122970Y0101747D02*
X0135700Y0101747D01*
X0064900Y0102345D02*
X0022009Y0102345D01*
X0067300Y0102345D02*
X0118650Y0102345D01*
X0123350Y0102345D02*
X0135700Y0102345D01*
X0064900Y0102944D02*
X0022062Y0102944D01*
X0067300Y0102944D02*
X0118650Y0102944D01*
X0123350Y0102944D02*
X0135700Y0102944D01*
X0064900Y0103542D02*
X0022062Y0103542D01*
X0067300Y0103542D02*
X0118436Y0103542D01*
X0123350Y0103542D02*
X0135700Y0103542D01*
X0064900Y0104141D02*
X0022062Y0104141D01*
X0067300Y0104141D02*
X0117838Y0104141D01*
X0123282Y0104141D02*
X0135700Y0104141D01*
X0064900Y0104739D02*
X0022062Y0104739D01*
X0067300Y0104739D02*
X0117239Y0104739D01*
X0122684Y0104739D02*
X0135700Y0104739D01*
X0064900Y0105338D02*
X0021974Y0105338D01*
X0067300Y0105338D02*
X0116641Y0105338D01*
X0123061Y0105338D02*
X0135700Y0105338D01*
X0064900Y0105937D02*
X0021726Y0105937D01*
X0067300Y0105937D02*
X0116042Y0105937D01*
X0123660Y0105937D02*
X0135700Y0105937D01*
X0064900Y0106535D02*
X0021478Y0106535D01*
X0067300Y0106535D02*
X0115444Y0106535D01*
X0123950Y0106535D02*
X0135700Y0106535D01*
X0054869Y0107134D02*
X0021230Y0107134D01*
X0067300Y0107134D02*
X0114845Y0107134D01*
X0123950Y0107134D02*
X0135700Y0107134D01*
X0054300Y0107732D02*
X0020890Y0107732D01*
X0067300Y0107732D02*
X0114247Y0107732D01*
X0123950Y0107732D02*
X0135700Y0107732D01*
X0054300Y0108331D02*
X0020291Y0108331D01*
X0067300Y0108331D02*
X0113648Y0108331D01*
X0123793Y0108331D02*
X0135700Y0108331D01*
X0054300Y0108929D02*
X0019693Y0108929D01*
X0067068Y0108929D02*
X0113050Y0108929D01*
X0124940Y0108929D02*
X0135700Y0108929D01*
X0054300Y0109528D02*
X0018982Y0109528D01*
X0056700Y0109528D02*
X0112451Y0109528D01*
X0125539Y0109528D02*
X0135700Y0109528D01*
X0054300Y0110126D02*
X0017537Y0110126D01*
X0056700Y0110126D02*
X0111853Y0110126D01*
X0126100Y0110126D02*
X0135700Y0110126D01*
X0054300Y0110725D02*
X0013994Y0110725D01*
X0056700Y0110725D02*
X0111254Y0110725D01*
X0126100Y0110725D02*
X0135700Y0110725D01*
X0054300Y0111323D02*
X0014593Y0111323D01*
X0056700Y0111323D02*
X0110656Y0111323D01*
X0126100Y0111323D02*
X0135700Y0111323D01*
X0054300Y0111922D02*
X0015191Y0111922D01*
X0056700Y0111922D02*
X0110057Y0111922D01*
X0126090Y0111922D02*
X0135700Y0111922D01*
X0054300Y0112520D02*
X0015790Y0112520D01*
X0056700Y0112520D02*
X0109459Y0112520D01*
X0120201Y0112520D02*
X0122309Y0112520D01*
X0125491Y0112520D02*
X0135700Y0112520D01*
X0054300Y0113119D02*
X0016388Y0113119D01*
X0056700Y0113119D02*
X0108860Y0113119D01*
X0119603Y0113119D02*
X0122907Y0113119D01*
X0124893Y0113119D02*
X0135700Y0113119D01*
X0054300Y0113717D02*
X0016987Y0113717D01*
X0056700Y0113717D02*
X0108262Y0113717D01*
X0119004Y0113717D02*
X0135700Y0113717D01*
X0054300Y0114316D02*
X0017585Y0114316D01*
X0056700Y0114316D02*
X0107663Y0114316D01*
X0118406Y0114316D02*
X0135700Y0114316D01*
X0054300Y0114914D02*
X0018184Y0114914D01*
X0056700Y0114914D02*
X0107064Y0114914D01*
X0117807Y0114914D02*
X0135700Y0114914D01*
X0054300Y0115513D02*
X0018783Y0115513D01*
X0056700Y0115513D02*
X0106466Y0115513D01*
X0117209Y0115513D02*
X0135700Y0115513D01*
X0054300Y0116111D02*
X0019381Y0116111D01*
X0056700Y0116111D02*
X0080278Y0116111D01*
X0082722Y0116111D02*
X0105867Y0116111D01*
X0116610Y0116111D02*
X0135700Y0116111D01*
X0054300Y0116710D02*
X0019980Y0116710D01*
X0056700Y0116710D02*
X0079679Y0116710D01*
X0083321Y0116710D02*
X0105269Y0116710D01*
X0116012Y0116710D02*
X0135700Y0116710D01*
X0029180Y0117308D02*
X0020578Y0117308D01*
X0031219Y0117308D02*
X0054300Y0117308D01*
X0056700Y0117308D02*
X0079300Y0117308D01*
X0083700Y0117308D02*
X0104670Y0117308D01*
X0115413Y0117308D02*
X0135700Y0117308D01*
X0028582Y0117907D02*
X0021177Y0117907D01*
X0031818Y0117907D02*
X0054300Y0117907D01*
X0056700Y0117907D02*
X0079300Y0117907D01*
X0083700Y0117907D02*
X0104072Y0117907D01*
X0114815Y0117907D02*
X0135700Y0117907D01*
X0028000Y0118505D02*
X0021775Y0118505D01*
X0032400Y0118505D02*
X0054300Y0118505D01*
X0056700Y0118505D02*
X0079300Y0118505D01*
X0083700Y0118505D02*
X0103473Y0118505D01*
X0114216Y0118505D02*
X0135700Y0118505D01*
X0028000Y0119104D02*
X0022374Y0119104D01*
X0032400Y0119104D02*
X0054300Y0119104D01*
X0056700Y0119104D02*
X0079492Y0119104D01*
X0083508Y0119104D02*
X0102875Y0119104D01*
X0113618Y0119104D02*
X0135700Y0119104D01*
X0028000Y0119702D02*
X0022972Y0119702D01*
X0032400Y0119702D02*
X0054300Y0119702D01*
X0056700Y0119702D02*
X0080091Y0119702D01*
X0082909Y0119702D02*
X0102276Y0119702D01*
X0113019Y0119702D02*
X0135700Y0119702D01*
X0028000Y0120301D02*
X0023571Y0120301D01*
X0032798Y0120301D02*
X0054300Y0120301D01*
X0056700Y0120301D02*
X0080300Y0120301D01*
X0082700Y0120301D02*
X0101678Y0120301D01*
X0112421Y0120301D02*
X0135700Y0120301D01*
X0028588Y0120899D02*
X0024169Y0120899D01*
X0033396Y0120899D02*
X0054300Y0120899D01*
X0056700Y0120899D02*
X0080300Y0120899D01*
X0082700Y0120899D02*
X0101079Y0120899D01*
X0111822Y0120899D02*
X0135700Y0120899D01*
X0029187Y0121498D02*
X0024768Y0121498D01*
X0033995Y0121498D02*
X0054300Y0121498D01*
X0056700Y0121498D02*
X0080300Y0121498D01*
X0082700Y0121498D02*
X0100481Y0121498D01*
X0111224Y0121498D02*
X0135700Y0121498D01*
X0031199Y0122096D02*
X0025366Y0122096D01*
X0034593Y0122096D02*
X0054300Y0122096D01*
X0056700Y0122096D02*
X0080300Y0122096D01*
X0082700Y0122096D02*
X0099882Y0122096D01*
X0110625Y0122096D02*
X0135700Y0122096D01*
X0031798Y0122695D02*
X0025965Y0122695D01*
X0035192Y0122695D02*
X0054300Y0122695D01*
X0082700Y0122695D02*
X0099284Y0122695D01*
X0110026Y0122695D02*
X0135700Y0122695D01*
X0032396Y0123293D02*
X0026563Y0123293D01*
X0035790Y0123293D02*
X0054300Y0123293D01*
X0082700Y0123293D02*
X0098685Y0123293D01*
X0109428Y0123293D02*
X0135700Y0123293D01*
X0032995Y0123892D02*
X0027162Y0123892D01*
X0036389Y0123892D02*
X0054300Y0123892D01*
X0082700Y0123892D02*
X0098087Y0123892D01*
X0108829Y0123892D02*
X0135700Y0123892D01*
X0033593Y0124490D02*
X0027760Y0124490D01*
X0036987Y0124490D02*
X0054493Y0124490D01*
X0082507Y0124490D02*
X0097488Y0124490D01*
X0108231Y0124490D02*
X0135700Y0124490D01*
X0034192Y0125089D02*
X0028359Y0125089D01*
X0037586Y0125089D02*
X0096890Y0125089D01*
X0107632Y0125089D02*
X0135700Y0125089D01*
X0034790Y0125687D02*
X0028957Y0125687D01*
X0038184Y0125687D02*
X0096291Y0125687D01*
X0107034Y0125687D02*
X0135700Y0125687D01*
X0035389Y0126286D02*
X0029556Y0126286D01*
X0038783Y0126286D02*
X0095693Y0126286D01*
X0106435Y0126286D02*
X0135700Y0126286D01*
X0035987Y0126884D02*
X0030154Y0126884D01*
X0039381Y0126884D02*
X0095094Y0126884D01*
X0105837Y0126884D02*
X0135700Y0126884D01*
X0036586Y0127483D02*
X0030753Y0127483D01*
X0039980Y0127483D02*
X0094496Y0127483D01*
X0105238Y0127483D02*
X0135700Y0127483D01*
X0036504Y0128081D02*
X0031351Y0128081D01*
X0040578Y0128081D02*
X0093897Y0128081D01*
X0104640Y0128081D02*
X0135700Y0128081D01*
X0035905Y0128680D02*
X0031950Y0128680D01*
X0041177Y0128680D02*
X0093299Y0128680D01*
X0104041Y0128680D02*
X0135700Y0128680D01*
X0035307Y0129278D02*
X0032548Y0129278D01*
X0041775Y0129278D02*
X0092700Y0129278D01*
X0103443Y0129278D02*
X0135700Y0129278D01*
X0034708Y0129877D02*
X0033147Y0129877D01*
X0042374Y0129877D02*
X0092102Y0129877D01*
X0102844Y0129877D02*
X0135700Y0129877D01*
X0034110Y0130475D02*
X0033745Y0130475D01*
X0042973Y0130475D02*
X0091503Y0130475D01*
X0102246Y0130475D02*
X0135700Y0130475D01*
X0090905Y0131074D02*
X0043571Y0131074D01*
X0101647Y0131074D02*
X0135700Y0131074D01*
X0090306Y0131672D02*
X0044170Y0131672D01*
X0101049Y0131672D02*
X0135700Y0131672D01*
X0089708Y0132271D02*
X0044768Y0132271D01*
X0100450Y0132271D02*
X0135700Y0132271D01*
X0089109Y0132870D02*
X0045367Y0132870D01*
X0099852Y0132870D02*
X0135700Y0132870D01*
X0088511Y0133468D02*
X0045965Y0133468D01*
X0099253Y0133468D02*
X0135700Y0133468D01*
X0087912Y0134067D02*
X0046564Y0134067D01*
X0098655Y0134067D02*
X0135700Y0134067D01*
X0087314Y0134665D02*
X0047162Y0134665D01*
X0098056Y0134665D02*
X0135700Y0134665D01*
X0086715Y0135264D02*
X0047761Y0135264D01*
X0097458Y0135264D02*
X0135700Y0135264D01*
X0086117Y0135862D02*
X0048359Y0135862D01*
X0096859Y0135862D02*
X0135700Y0135862D01*
X0085941Y0136461D02*
X0048958Y0136461D01*
X0096261Y0136461D02*
X0135700Y0136461D01*
X0085941Y0137059D02*
X0049556Y0137059D01*
X0095662Y0137059D02*
X0135700Y0137059D01*
X0085941Y0137658D02*
X0050155Y0137658D01*
X0095064Y0137658D02*
X0135700Y0137658D01*
X0085941Y0138256D02*
X0050753Y0138256D01*
X0094465Y0138256D02*
X0135700Y0138256D01*
X0085941Y0138855D02*
X0051352Y0138855D01*
X0094059Y0138855D02*
X0135700Y0138855D01*
X0085941Y0139453D02*
X0051950Y0139453D01*
X0094059Y0139453D02*
X0135700Y0139453D01*
X0085941Y0140052D02*
X0052549Y0140052D01*
X0094059Y0140052D02*
X0135700Y0140052D01*
X0085941Y0140650D02*
X0053147Y0140650D01*
X0094059Y0140650D02*
X0135700Y0140650D01*
X0085941Y0141249D02*
X0053746Y0141249D01*
X0094059Y0141249D02*
X0135700Y0141249D01*
X0085941Y0141847D02*
X0054344Y0141847D01*
X0094059Y0141847D02*
X0135700Y0141847D01*
X0085941Y0142446D02*
X0054943Y0142446D01*
X0094059Y0142446D02*
X0135700Y0142446D01*
X0085941Y0143044D02*
X0055541Y0143044D01*
X0094059Y0143044D02*
X0135700Y0143044D01*
X0085941Y0143643D02*
X0056140Y0143643D01*
X0094059Y0143643D02*
X0135700Y0143643D01*
X0085941Y0144241D02*
X0056738Y0144241D01*
X0094059Y0144241D02*
X0135700Y0144241D01*
X0085941Y0144840D02*
X0057337Y0144840D01*
X0094059Y0144840D02*
X0135700Y0144840D01*
X0085941Y0145438D02*
X0057935Y0145438D01*
X0094059Y0145438D02*
X0135700Y0145438D01*
X0085941Y0146037D02*
X0058534Y0146037D01*
X0094059Y0146037D02*
X0135700Y0146037D01*
X0085941Y0146635D02*
X0059132Y0146635D01*
X0094059Y0146635D02*
X0135700Y0146635D01*
X0085941Y0147234D02*
X0059731Y0147234D01*
X0094059Y0147234D02*
X0135700Y0147234D01*
X0085941Y0147832D02*
X0060329Y0147832D01*
X0094059Y0147832D02*
X0135700Y0147832D01*
X0085941Y0148431D02*
X0060928Y0148431D01*
X0094059Y0148431D02*
X0135700Y0148431D01*
X0085941Y0149029D02*
X0061526Y0149029D01*
X0094059Y0149029D02*
X0135700Y0149029D01*
X0085941Y0149628D02*
X0062125Y0149628D01*
X0094059Y0149628D02*
X0135700Y0149628D01*
X0085941Y0150226D02*
X0062723Y0150226D01*
X0094059Y0150226D02*
X0135700Y0150226D01*
X0080052Y0150825D02*
X0063322Y0150825D01*
X0083148Y0150825D02*
X0085941Y0150825D01*
X0094059Y0150825D02*
X0135700Y0150825D01*
X0085941Y0151423D02*
X0083747Y0151423D01*
X0094059Y0151423D02*
X0135700Y0151423D01*
X0085941Y0152022D02*
X0083950Y0152022D01*
X0094059Y0152022D02*
X0135700Y0152022D01*
X0085941Y0152620D02*
X0083950Y0152620D01*
X0094059Y0152620D02*
X0135700Y0152620D01*
X0085941Y0153219D02*
X0083950Y0153219D01*
X0094059Y0153219D02*
X0135700Y0153219D01*
X0085941Y0153817D02*
X0083706Y0153817D01*
X0094059Y0153817D02*
X0094559Y0153817D01*
X0097041Y0153817D02*
X0135700Y0153817D01*
X0085776Y0154416D02*
X0083107Y0154416D01*
X0107216Y0154416D02*
X0135700Y0154416D01*
X0085754Y0155014D02*
X0082829Y0155014D01*
X0107239Y0155014D02*
X0135700Y0155014D01*
X0085754Y0155613D02*
X0082829Y0155613D01*
X0107239Y0155613D02*
X0135700Y0155613D01*
X0085754Y0156211D02*
X0082829Y0156211D01*
X0107239Y0156211D02*
X0135700Y0156211D01*
X0085754Y0156810D02*
X0082829Y0156810D01*
X0107239Y0156810D02*
X0135700Y0156810D01*
X0085754Y0157408D02*
X0082829Y0157408D01*
X0107239Y0157408D02*
X0135700Y0157408D01*
X0085754Y0158007D02*
X0082829Y0158007D01*
X0107239Y0158007D02*
X0135700Y0158007D01*
X0085754Y0158605D02*
X0082829Y0158605D01*
X0107239Y0158605D02*
X0135700Y0158605D01*
X0085754Y0159204D02*
X0082829Y0159204D01*
X0107239Y0159204D02*
X0135700Y0159204D01*
X0085754Y0159803D02*
X0082829Y0159803D01*
X0107239Y0159803D02*
X0135700Y0159803D01*
X0135700Y0160401D02*
X0107239Y0160401D01*
X0107239Y0161000D02*
X0135700Y0161000D01*
X0135700Y0161598D02*
X0107239Y0161598D01*
X0107239Y0162197D02*
X0135115Y0162197D01*
X0134257Y0162795D02*
X0107239Y0162795D01*
X0109698Y0163394D02*
X0133141Y0163394D01*
X0131993Y0163992D02*
X0110191Y0163992D01*
X0110191Y0164591D02*
X0130846Y0164591D01*
X0129699Y0165189D02*
X0110191Y0165189D01*
X0110191Y0165788D02*
X0128552Y0165788D01*
X0127405Y0166386D02*
X0110191Y0166386D01*
X0110191Y0166985D02*
X0126257Y0166985D01*
X0125110Y0167583D02*
X0110191Y0167583D01*
X0110191Y0168182D02*
X0123744Y0168182D01*
X0122117Y0168780D02*
X0110191Y0168780D01*
X0110191Y0169379D02*
X0120491Y0169379D01*
X0118865Y0169977D02*
X0110191Y0169977D01*
X0110191Y0170576D02*
X0117238Y0170576D01*
X0115612Y0171174D02*
X0110191Y0171174D01*
X0110191Y0171773D02*
X0113829Y0171773D01*
X0111207Y0172371D02*
X0109933Y0172371D01*
X0108584Y0172970D02*
X0105064Y0172970D01*
X0105064Y0173568D02*
X0105962Y0173568D01*
X0143033Y0036967D02*
X0143033Y0039800D01*
X0132900Y0039800D01*
X0132900Y0051300D01*
X0081600Y0152600D02*
X0063400Y0152600D01*
X0060445Y0056745D02*
X0060190Y0057000D01*
X0040700Y0057000D01*
X0030200Y0119400D02*
X0063400Y0152600D01*
X0066399Y0055057D02*
X0064975Y0056476D01*
X0062672Y0058972D01*
X0062900Y0054500D02*
X0062999Y0054500D01*
X0064975Y0056476D01*
X0079800Y0082300D02*
X0066100Y0082300D01*
X0066100Y0099100D01*
X0080300Y0099000D02*
X0097400Y0099000D01*
X0100000Y0082600D02*
X0097400Y0082600D01*
X0097400Y0099000D01*
X0066100Y0108200D02*
X0055500Y0108200D01*
X0055500Y0123800D01*
X0081500Y0123800D01*
X0081500Y0118000D01*
X0066100Y0099100D02*
X0080300Y0099100D01*
X0080300Y0099000D01*
X0066100Y0099100D02*
X0066100Y0108200D01*
D20*
X0067400Y0030600D03*
X0089100Y0030600D03*
X0072300Y0043200D03*
X0050000Y0038900D03*
X0065300Y0044800D03*
X0094100Y0045700D03*
X0099600Y0042300D03*
X0084500Y0077300D03*
X0080700Y0087500D03*
X0100000Y0093900D03*
X0132900Y0051300D03*
X0084400Y0150200D03*
X0103000Y0150800D03*
X0130500Y0132400D03*
X0131900Y0122800D03*
X0133900Y0119500D03*
X0128700Y0122900D03*
X0072300Y0065600D03*
X0083000Y0140500D03*
X0132400Y0144500D03*
X0081600Y0152600D03*
X0095800Y0155900D03*
X0121600Y0107200D03*
X0121000Y0103100D03*
X0080300Y0099000D03*
X0079800Y0082300D03*
X0100000Y0082600D03*
D21*
X0115900Y0142900D03*
X0117100Y0155100D03*
X0086800Y0062400D03*
X0086800Y0042400D03*
X0074500Y0150200D03*
X0065300Y0150300D03*
X0059300Y0113700D03*
X0076900Y0117500D03*
X0046200Y0053300D03*
X0040700Y0057000D03*
X0030200Y0119400D03*
X0123900Y0111000D03*
X0061100Y0025600D03*
X0062900Y0054500D03*
X0066100Y0099100D03*
X0081500Y0118000D03*
D22*
X0095118Y0157469D02*
X0095200Y0158887D01*
X0095200Y0156500D01*
X0095800Y0155900D01*
X0090000Y0157469D02*
X0090000Y0137200D01*
X0120000Y0107200D01*
X0121600Y0107200D01*
X0087441Y0157469D02*
X0087441Y0136659D01*
X0121000Y0103100D01*
X0092559Y0157469D02*
X0092559Y0138041D01*
X0119600Y0111000D01*
X0123900Y0111000D01*
D23*
X0036967Y0143033D02*
X0036967Y0136667D01*
X0007700Y0107400D01*
X0007700Y0075500D01*
X0016700Y0066500D01*
X0016700Y0051600D01*
X0042700Y0025600D01*
X0061100Y0025600D01*
M02*
