%
M48
M72
T01C0.0100
T02C0.0130
T03C0.0132
T04C0.0140
T05C0.0354
T06C0.0433
T07C0.0472
T08C0.1260
%
T01
X11590Y14290
X11710Y15510
X8680Y6240
X8680Y4240
X7450Y15020
X6530Y15030
X5930Y11370
X7690Y11750
X4620Y5330
X4070Y5700
X3020Y11940
X12390Y11100
X6110Y2560
X6290Y5450
X6610Y9910
X8150Y11800
T02
X6740Y3060
X8910Y3060
X7230Y4320
X5000Y3890
X6530Y4480
X9410Y4570
X9960Y4230
X8450Y7730
X8070Y8750
X10000Y9390
X13290Y5130
X8440Y15020
X10300Y15080
X13050Y13240
X13190Y12280
X13390Y11950
X12870Y12290
X7230Y6560
X8300Y14050
X13240Y14450
X8160Y15260
X9580Y15590
X12160Y10720
X12100Y10310
X8030Y9900
X7980Y8230
X10000Y8260
T03
X10840Y13030
T04
X11240Y13020
X10840Y12620
X11240Y12620
T05
X2540Y10380
T06
X4540Y6380
T07
X1540Y10380
X5540Y6380
T08
X5430Y16370
X16900Y6840
X9000Y880
M30
