G75*
%MOIN*%
%OFA0B0*%
%FSLAX25Y25*%
%IPPOS*%
%LPD*%
%AMOC8*
5,1,8,0,0,1.08239X$1,22.5*
%
%ADD10R,0.06693X0.11811*%
%ADD11R,0.03150X0.11811*%
%ADD12R,0.02717X0.03898*%
%ADD13R,0.02756X0.01969*%
%ADD14R,0.03543X0.02756*%
%ADD15R,0.01969X0.02756*%
%ADD16R,0.01969X0.00787*%
%ADD17R,0.00787X0.01969*%
%ADD18R,0.18110X0.18110*%
%ADD19R,0.02756X0.03543*%
%ADD20R,0.03150X0.03150*%
%ADD21C,0.00394*%
%ADD22C,0.00354*%
%ADD23C,0.00630*%
%ADD24C,0.00118*%
%ADD25R,0.03543X0.03937*%
%ADD26R,0.04000X0.10000*%
%ADD27R,0.03937X0.05512*%
%ADD28R,0.01772X0.01772*%
%ADD29R,0.03740X0.03346*%
%ADD30R,0.04331X0.03937*%
%ADD31R,0.02500X0.02600*%
%ADD32C,0.00157*%
%ADD33C,0.01213*%
%ADD34R,0.08661X0.05118*%
%ADD35R,0.01969X0.02953*%
%ADD36R,0.16900X0.13400*%
%ADD37C,0.05543*%
%ADD38C,0.06496*%
%ADD39C,0.00600*%
%ADD40C,0.03000*%
%ADD41C,0.00700*%
%ADD42C,0.02919*%
%ADD43C,0.00866*%
%ADD44C,0.02400*%
%ADD45C,0.02900*%
%ADD46C,0.02600*%
D10*
X0123841Y0083974D03*
X0123841Y0068226D03*
X0113959Y0068226D03*
X0113959Y0083974D03*
D11*
X0130731Y0083974D03*
X0130731Y0068226D03*
X0107069Y0068226D03*
X0107069Y0083974D03*
D12*
X0098040Y0069018D03*
X0094300Y0069018D03*
X0090560Y0069018D03*
X0090560Y0058782D03*
X0094300Y0058782D03*
X0098040Y0058782D03*
D13*
X0127500Y0129775D03*
X0127500Y0126625D03*
X0128200Y0140675D03*
X0128200Y0137525D03*
X0131800Y0140675D03*
X0131800Y0137525D03*
X0132200Y0149125D03*
X0132200Y0152275D03*
X0117100Y0150875D03*
X0117100Y0147725D03*
X0102900Y0147575D03*
X0102900Y0144425D03*
X0091500Y0140475D03*
X0091500Y0137325D03*
X0086722Y0140437D03*
X0086722Y0143587D03*
X0083400Y0042375D03*
X0083400Y0039225D03*
X0072300Y0039675D03*
X0072300Y0036525D03*
X0080700Y0090825D03*
X0080700Y0093975D03*
X0100000Y0089175D03*
X0100000Y0086025D03*
X0117100Y0030725D03*
X0117100Y0033875D03*
X0124700Y0033775D03*
X0124700Y0030625D03*
X0127000Y0047525D03*
X0127000Y0050675D03*
X0106600Y0151075D03*
X0106600Y0147925D03*
X0070400Y0158925D03*
X0070400Y0162075D03*
X0070900Y0148675D03*
X0070900Y0145525D03*
D14*
X0091200Y0150159D03*
X0091200Y0145041D03*
X0072200Y0030659D03*
X0072200Y0025541D03*
D15*
X0116325Y0142900D03*
X0119475Y0142900D03*
X0059575Y0039200D03*
X0056425Y0039200D03*
X0079975Y0049300D03*
X0076825Y0049300D03*
X0094133Y0049385D03*
X0097282Y0049385D03*
X0087625Y0077400D03*
X0090775Y0077400D03*
X0116075Y0051500D03*
X0112925Y0051500D03*
X0116075Y0047500D03*
X0112925Y0047500D03*
X0079975Y0040500D03*
X0076825Y0040500D03*
X0034725Y0053400D03*
X0037875Y0053400D03*
X0038725Y0043600D03*
X0041875Y0043600D03*
X0062275Y0043000D03*
X0059125Y0043000D03*
X0062175Y0046700D03*
X0059025Y0046700D03*
X0099275Y0171400D03*
X0096125Y0171400D03*
X0099275Y0164500D03*
X0096125Y0164500D03*
X0099275Y0167900D03*
X0096125Y0167900D03*
X0130525Y0126600D03*
X0133675Y0126600D03*
X0069925Y0121000D03*
X0073075Y0121000D03*
X0073175Y0117500D03*
X0070025Y0117500D03*
D16*
X0099180Y0136861D03*
X0099180Y0135287D03*
X0099180Y0133712D03*
X0099180Y0132137D03*
X0099180Y0130562D03*
X0099180Y0128987D03*
X0099180Y0127413D03*
X0099180Y0125838D03*
X0099180Y0124263D03*
X0099180Y0122688D03*
X0099180Y0121113D03*
X0099180Y0119539D03*
X0121620Y0119539D03*
X0121620Y0121113D03*
X0121620Y0122688D03*
X0121620Y0124263D03*
X0121620Y0125838D03*
X0121620Y0127413D03*
X0121620Y0128987D03*
X0121620Y0130562D03*
X0121620Y0132137D03*
X0121620Y0133712D03*
X0121620Y0135287D03*
X0121620Y0136861D03*
D17*
X0101739Y0116980D03*
X0103313Y0116980D03*
X0104888Y0116980D03*
X0106463Y0116980D03*
X0108038Y0116980D03*
X0109613Y0116980D03*
X0111187Y0116980D03*
X0112762Y0116980D03*
X0114337Y0116980D03*
X0115912Y0116980D03*
X0117487Y0116980D03*
X0119061Y0116980D03*
X0119061Y0139420D03*
X0117487Y0139420D03*
X0115912Y0139420D03*
X0114337Y0139420D03*
X0112762Y0139420D03*
X0111187Y0139420D03*
X0109613Y0139420D03*
X0108038Y0139420D03*
X0106463Y0139420D03*
X0104888Y0139420D03*
X0103313Y0139420D03*
X0101739Y0139420D03*
D18*
X0110400Y0128200D03*
D19*
X0050141Y0053300D03*
X0055259Y0053300D03*
D20*
X0029653Y0053400D03*
X0023747Y0053400D03*
X0034953Y0043600D03*
X0029047Y0043600D03*
D21*
X0047147Y0048554D02*
X0045179Y0048554D01*
X0045179Y0048946D01*
X0047147Y0048946D01*
X0047147Y0048554D01*
X0047147Y0046979D02*
X0045179Y0046979D01*
X0045179Y0047371D01*
X0047147Y0047371D01*
X0047147Y0046979D01*
X0047147Y0045404D02*
X0045179Y0045404D01*
X0045179Y0045796D01*
X0047147Y0045796D01*
X0047147Y0045404D01*
X0047147Y0043829D02*
X0045179Y0043829D01*
X0045179Y0044221D01*
X0047147Y0044221D01*
X0047147Y0043829D01*
X0047147Y0042254D02*
X0045179Y0042254D01*
X0045179Y0042646D01*
X0047147Y0042646D01*
X0047147Y0042254D01*
X0055021Y0042254D02*
X0053053Y0042254D01*
X0053053Y0042646D01*
X0055021Y0042646D01*
X0055021Y0042254D01*
X0055021Y0043829D02*
X0053053Y0043829D01*
X0053053Y0044221D01*
X0055021Y0044221D01*
X0055021Y0043829D01*
X0055021Y0045404D02*
X0053053Y0045404D01*
X0053053Y0045796D01*
X0055021Y0045796D01*
X0055021Y0045404D01*
X0055021Y0046979D02*
X0053053Y0046979D01*
X0053053Y0047371D01*
X0055021Y0047371D01*
X0055021Y0046979D01*
X0055021Y0048554D02*
X0053053Y0048554D01*
X0053053Y0048946D01*
X0055021Y0048946D01*
X0055021Y0048554D01*
D22*
X0051694Y0048769D02*
X0051694Y0042431D01*
X0048506Y0042431D01*
X0048506Y0048769D01*
X0051694Y0048769D01*
X0051694Y0042784D02*
X0048506Y0042784D01*
X0048506Y0043137D02*
X0051694Y0043137D01*
X0051694Y0043490D02*
X0048506Y0043490D01*
X0048506Y0043843D02*
X0051694Y0043843D01*
X0051694Y0044196D02*
X0048506Y0044196D01*
X0048506Y0044549D02*
X0051694Y0044549D01*
X0051694Y0044902D02*
X0048506Y0044902D01*
X0048506Y0045255D02*
X0051694Y0045255D01*
X0051694Y0045608D02*
X0048506Y0045608D01*
X0048506Y0045961D02*
X0051694Y0045961D01*
X0051694Y0046314D02*
X0048506Y0046314D01*
X0048506Y0046667D02*
X0051694Y0046667D01*
X0051694Y0047020D02*
X0048506Y0047020D01*
X0048506Y0047373D02*
X0051694Y0047373D01*
X0051694Y0047726D02*
X0048506Y0047726D01*
X0048506Y0048079D02*
X0051694Y0048079D01*
X0051694Y0048432D02*
X0048506Y0048432D01*
D23*
X0085709Y0033434D02*
X0085709Y0027766D01*
X0076891Y0027766D01*
X0076891Y0033434D01*
X0085709Y0033434D01*
X0085709Y0028395D02*
X0076891Y0028395D01*
X0076891Y0029024D02*
X0085709Y0029024D01*
X0085709Y0029653D02*
X0076891Y0029653D01*
X0076891Y0030282D02*
X0085709Y0030282D01*
X0085709Y0030911D02*
X0076891Y0030911D01*
X0076891Y0031540D02*
X0085709Y0031540D01*
X0085709Y0032169D02*
X0076891Y0032169D01*
X0076891Y0032798D02*
X0085709Y0032798D01*
X0085709Y0033427D02*
X0076891Y0033427D01*
D24*
X0077992Y0025619D02*
X0077992Y0023769D01*
X0076930Y0023769D01*
X0076930Y0025619D01*
X0077992Y0025619D01*
X0077992Y0023886D02*
X0076930Y0023886D01*
X0076930Y0024003D02*
X0077992Y0024003D01*
X0077992Y0024120D02*
X0076930Y0024120D01*
X0076930Y0024237D02*
X0077992Y0024237D01*
X0077992Y0024354D02*
X0076930Y0024354D01*
X0076930Y0024471D02*
X0077992Y0024471D01*
X0077992Y0024588D02*
X0076930Y0024588D01*
X0076930Y0024705D02*
X0077992Y0024705D01*
X0077992Y0024822D02*
X0076930Y0024822D01*
X0076930Y0024939D02*
X0077992Y0024939D01*
X0077992Y0025056D02*
X0076930Y0025056D01*
X0076930Y0025173D02*
X0077992Y0025173D01*
X0077992Y0025290D02*
X0076930Y0025290D01*
X0076930Y0025407D02*
X0077992Y0025407D01*
X0077992Y0025524D02*
X0076930Y0025524D01*
X0080551Y0025619D02*
X0080551Y0023769D01*
X0079489Y0023769D01*
X0079489Y0025619D01*
X0080551Y0025619D01*
X0080551Y0023886D02*
X0079489Y0023886D01*
X0079489Y0024003D02*
X0080551Y0024003D01*
X0080551Y0024120D02*
X0079489Y0024120D01*
X0079489Y0024237D02*
X0080551Y0024237D01*
X0080551Y0024354D02*
X0079489Y0024354D01*
X0079489Y0024471D02*
X0080551Y0024471D01*
X0080551Y0024588D02*
X0079489Y0024588D01*
X0079489Y0024705D02*
X0080551Y0024705D01*
X0080551Y0024822D02*
X0079489Y0024822D01*
X0079489Y0024939D02*
X0080551Y0024939D01*
X0080551Y0025056D02*
X0079489Y0025056D01*
X0079489Y0025173D02*
X0080551Y0025173D01*
X0080551Y0025290D02*
X0079489Y0025290D01*
X0079489Y0025407D02*
X0080551Y0025407D01*
X0080551Y0025524D02*
X0079489Y0025524D01*
X0083111Y0025619D02*
X0083111Y0023769D01*
X0082049Y0023769D01*
X0082049Y0025619D01*
X0083111Y0025619D01*
X0083111Y0023886D02*
X0082049Y0023886D01*
X0082049Y0024003D02*
X0083111Y0024003D01*
X0083111Y0024120D02*
X0082049Y0024120D01*
X0082049Y0024237D02*
X0083111Y0024237D01*
X0083111Y0024354D02*
X0082049Y0024354D01*
X0082049Y0024471D02*
X0083111Y0024471D01*
X0083111Y0024588D02*
X0082049Y0024588D01*
X0082049Y0024705D02*
X0083111Y0024705D01*
X0083111Y0024822D02*
X0082049Y0024822D01*
X0082049Y0024939D02*
X0083111Y0024939D01*
X0083111Y0025056D02*
X0082049Y0025056D01*
X0082049Y0025173D02*
X0083111Y0025173D01*
X0083111Y0025290D02*
X0082049Y0025290D01*
X0082049Y0025407D02*
X0083111Y0025407D01*
X0083111Y0025524D02*
X0082049Y0025524D01*
X0085670Y0025619D02*
X0085670Y0023769D01*
X0084608Y0023769D01*
X0084608Y0025619D01*
X0085670Y0025619D01*
X0085670Y0023886D02*
X0084608Y0023886D01*
X0084608Y0024003D02*
X0085670Y0024003D01*
X0085670Y0024120D02*
X0084608Y0024120D01*
X0084608Y0024237D02*
X0085670Y0024237D01*
X0085670Y0024354D02*
X0084608Y0024354D01*
X0084608Y0024471D02*
X0085670Y0024471D01*
X0085670Y0024588D02*
X0084608Y0024588D01*
X0084608Y0024705D02*
X0085670Y0024705D01*
X0085670Y0024822D02*
X0084608Y0024822D01*
X0084608Y0024939D02*
X0085670Y0024939D01*
X0085670Y0025056D02*
X0084608Y0025056D01*
X0084608Y0025173D02*
X0085670Y0025173D01*
X0085670Y0025290D02*
X0084608Y0025290D01*
X0084608Y0025407D02*
X0085670Y0025407D01*
X0085670Y0025524D02*
X0084608Y0025524D01*
X0085670Y0037431D02*
X0085670Y0035581D01*
X0084608Y0035581D01*
X0084608Y0037431D01*
X0085670Y0037431D01*
X0085670Y0035698D02*
X0084608Y0035698D01*
X0084608Y0035815D02*
X0085670Y0035815D01*
X0085670Y0035932D02*
X0084608Y0035932D01*
X0084608Y0036049D02*
X0085670Y0036049D01*
X0085670Y0036166D02*
X0084608Y0036166D01*
X0084608Y0036283D02*
X0085670Y0036283D01*
X0085670Y0036400D02*
X0084608Y0036400D01*
X0084608Y0036517D02*
X0085670Y0036517D01*
X0085670Y0036634D02*
X0084608Y0036634D01*
X0084608Y0036751D02*
X0085670Y0036751D01*
X0085670Y0036868D02*
X0084608Y0036868D01*
X0084608Y0036985D02*
X0085670Y0036985D01*
X0085670Y0037102D02*
X0084608Y0037102D01*
X0084608Y0037219D02*
X0085670Y0037219D01*
X0085670Y0037336D02*
X0084608Y0037336D01*
X0083111Y0037431D02*
X0083111Y0035581D01*
X0082049Y0035581D01*
X0082049Y0037431D01*
X0083111Y0037431D01*
X0083111Y0035698D02*
X0082049Y0035698D01*
X0082049Y0035815D02*
X0083111Y0035815D01*
X0083111Y0035932D02*
X0082049Y0035932D01*
X0082049Y0036049D02*
X0083111Y0036049D01*
X0083111Y0036166D02*
X0082049Y0036166D01*
X0082049Y0036283D02*
X0083111Y0036283D01*
X0083111Y0036400D02*
X0082049Y0036400D01*
X0082049Y0036517D02*
X0083111Y0036517D01*
X0083111Y0036634D02*
X0082049Y0036634D01*
X0082049Y0036751D02*
X0083111Y0036751D01*
X0083111Y0036868D02*
X0082049Y0036868D01*
X0082049Y0036985D02*
X0083111Y0036985D01*
X0083111Y0037102D02*
X0082049Y0037102D01*
X0082049Y0037219D02*
X0083111Y0037219D01*
X0083111Y0037336D02*
X0082049Y0037336D01*
X0080551Y0037431D02*
X0080551Y0035581D01*
X0079489Y0035581D01*
X0079489Y0037431D01*
X0080551Y0037431D01*
X0080551Y0035698D02*
X0079489Y0035698D01*
X0079489Y0035815D02*
X0080551Y0035815D01*
X0080551Y0035932D02*
X0079489Y0035932D01*
X0079489Y0036049D02*
X0080551Y0036049D01*
X0080551Y0036166D02*
X0079489Y0036166D01*
X0079489Y0036283D02*
X0080551Y0036283D01*
X0080551Y0036400D02*
X0079489Y0036400D01*
X0079489Y0036517D02*
X0080551Y0036517D01*
X0080551Y0036634D02*
X0079489Y0036634D01*
X0079489Y0036751D02*
X0080551Y0036751D01*
X0080551Y0036868D02*
X0079489Y0036868D01*
X0079489Y0036985D02*
X0080551Y0036985D01*
X0080551Y0037102D02*
X0079489Y0037102D01*
X0079489Y0037219D02*
X0080551Y0037219D01*
X0080551Y0037336D02*
X0079489Y0037336D01*
X0077992Y0037431D02*
X0077992Y0035581D01*
X0076930Y0035581D01*
X0076930Y0037431D01*
X0077992Y0037431D01*
X0077992Y0035698D02*
X0076930Y0035698D01*
X0076930Y0035815D02*
X0077992Y0035815D01*
X0077992Y0035932D02*
X0076930Y0035932D01*
X0076930Y0036049D02*
X0077992Y0036049D01*
X0077992Y0036166D02*
X0076930Y0036166D01*
X0076930Y0036283D02*
X0077992Y0036283D01*
X0077992Y0036400D02*
X0076930Y0036400D01*
X0076930Y0036517D02*
X0077992Y0036517D01*
X0077992Y0036634D02*
X0076930Y0036634D01*
X0076930Y0036751D02*
X0077992Y0036751D01*
X0077992Y0036868D02*
X0076930Y0036868D01*
X0076930Y0036985D02*
X0077992Y0036985D01*
X0077992Y0037102D02*
X0076930Y0037102D01*
X0076930Y0037219D02*
X0077992Y0037219D01*
X0077992Y0037336D02*
X0076930Y0037336D01*
D25*
X0082653Y0065609D03*
X0076747Y0065609D03*
X0076747Y0054191D03*
X0082653Y0054191D03*
D26*
X0138000Y0126600D03*
X0164000Y0126600D03*
D27*
X0120884Y0047540D03*
X0124624Y0038878D03*
X0117144Y0038878D03*
X0105120Y0038052D03*
X0101380Y0047501D03*
X0108860Y0047501D03*
D28*
X0088327Y0171173D03*
X0091673Y0171173D03*
X0091673Y0167827D03*
X0088327Y0167827D03*
D29*
X0121646Y0147736D03*
X0127354Y0147736D03*
X0127354Y0152264D03*
X0121646Y0152264D03*
D30*
X0098700Y0143954D03*
X0098700Y0150646D03*
D31*
X0118440Y0024900D03*
X0118440Y0012700D03*
X0108360Y0024900D03*
X0108360Y0012700D03*
D32*
X0085197Y0094252D02*
X0085197Y0093622D01*
X0084173Y0093622D01*
X0084173Y0094252D01*
X0085197Y0094252D01*
X0085197Y0093778D02*
X0084173Y0093778D01*
X0084173Y0093934D02*
X0085197Y0093934D01*
X0085197Y0094090D02*
X0084173Y0094090D01*
X0084173Y0094246D02*
X0085197Y0094246D01*
X0085197Y0092677D02*
X0085197Y0092047D01*
X0084173Y0092047D01*
X0084173Y0092677D01*
X0085197Y0092677D01*
X0085197Y0092203D02*
X0084173Y0092203D01*
X0084173Y0092359D02*
X0085197Y0092359D01*
X0085197Y0092515D02*
X0084173Y0092515D01*
X0084173Y0092671D02*
X0085197Y0092671D01*
X0085197Y0091102D02*
X0085197Y0090472D01*
X0084173Y0090472D01*
X0084173Y0091102D01*
X0085197Y0091102D01*
X0085197Y0090628D02*
X0084173Y0090628D01*
X0084173Y0090784D02*
X0085197Y0090784D01*
X0085197Y0090940D02*
X0084173Y0090940D01*
X0084173Y0091096D02*
X0085197Y0091096D01*
X0085197Y0089528D02*
X0085197Y0088898D01*
X0084173Y0088898D01*
X0084173Y0089528D01*
X0085197Y0089528D01*
X0085197Y0089054D02*
X0084173Y0089054D01*
X0084173Y0089210D02*
X0085197Y0089210D01*
X0085197Y0089366D02*
X0084173Y0089366D01*
X0084173Y0089522D02*
X0085197Y0089522D01*
X0085197Y0087953D02*
X0085197Y0087323D01*
X0084173Y0087323D01*
X0084173Y0087953D01*
X0085197Y0087953D01*
X0085197Y0087479D02*
X0084173Y0087479D01*
X0084173Y0087635D02*
X0085197Y0087635D01*
X0085197Y0087791D02*
X0084173Y0087791D01*
X0084173Y0087947D02*
X0085197Y0087947D01*
X0085197Y0086378D02*
X0085197Y0085748D01*
X0084173Y0085748D01*
X0084173Y0086378D01*
X0085197Y0086378D01*
X0085197Y0085904D02*
X0084173Y0085904D01*
X0084173Y0086060D02*
X0085197Y0086060D01*
X0085197Y0086216D02*
X0084173Y0086216D01*
X0084173Y0086372D02*
X0085197Y0086372D01*
X0086378Y0084173D02*
X0085748Y0084173D01*
X0085748Y0085197D01*
X0086378Y0085197D01*
X0086378Y0084173D01*
X0086378Y0084329D02*
X0085748Y0084329D01*
X0085748Y0084485D02*
X0086378Y0084485D01*
X0086378Y0084641D02*
X0085748Y0084641D01*
X0085748Y0084797D02*
X0086378Y0084797D01*
X0086378Y0084953D02*
X0085748Y0084953D01*
X0085748Y0085109D02*
X0086378Y0085109D01*
X0087953Y0084173D02*
X0087323Y0084173D01*
X0087323Y0085197D01*
X0087953Y0085197D01*
X0087953Y0084173D01*
X0087953Y0084329D02*
X0087323Y0084329D01*
X0087323Y0084485D02*
X0087953Y0084485D01*
X0087953Y0084641D02*
X0087323Y0084641D01*
X0087323Y0084797D02*
X0087953Y0084797D01*
X0087953Y0084953D02*
X0087323Y0084953D01*
X0087323Y0085109D02*
X0087953Y0085109D01*
X0089528Y0084173D02*
X0088898Y0084173D01*
X0088898Y0085197D01*
X0089528Y0085197D01*
X0089528Y0084173D01*
X0089528Y0084329D02*
X0088898Y0084329D01*
X0088898Y0084485D02*
X0089528Y0084485D01*
X0089528Y0084641D02*
X0088898Y0084641D01*
X0088898Y0084797D02*
X0089528Y0084797D01*
X0089528Y0084953D02*
X0088898Y0084953D01*
X0088898Y0085109D02*
X0089528Y0085109D01*
X0091102Y0084173D02*
X0090472Y0084173D01*
X0090472Y0085197D01*
X0091102Y0085197D01*
X0091102Y0084173D01*
X0091102Y0084329D02*
X0090472Y0084329D01*
X0090472Y0084485D02*
X0091102Y0084485D01*
X0091102Y0084641D02*
X0090472Y0084641D01*
X0090472Y0084797D02*
X0091102Y0084797D01*
X0091102Y0084953D02*
X0090472Y0084953D01*
X0090472Y0085109D02*
X0091102Y0085109D01*
X0092677Y0084173D02*
X0092047Y0084173D01*
X0092047Y0085197D01*
X0092677Y0085197D01*
X0092677Y0084173D01*
X0092677Y0084329D02*
X0092047Y0084329D01*
X0092047Y0084485D02*
X0092677Y0084485D01*
X0092677Y0084641D02*
X0092047Y0084641D01*
X0092047Y0084797D02*
X0092677Y0084797D01*
X0092677Y0084953D02*
X0092047Y0084953D01*
X0092047Y0085109D02*
X0092677Y0085109D01*
X0094252Y0084173D02*
X0093622Y0084173D01*
X0093622Y0085197D01*
X0094252Y0085197D01*
X0094252Y0084173D01*
X0094252Y0084329D02*
X0093622Y0084329D01*
X0093622Y0084485D02*
X0094252Y0084485D01*
X0094252Y0084641D02*
X0093622Y0084641D01*
X0093622Y0084797D02*
X0094252Y0084797D01*
X0094252Y0084953D02*
X0093622Y0084953D01*
X0093622Y0085109D02*
X0094252Y0085109D01*
X0095827Y0086378D02*
X0095827Y0085748D01*
X0094803Y0085748D01*
X0094803Y0086378D01*
X0095827Y0086378D01*
X0095827Y0085904D02*
X0094803Y0085904D01*
X0094803Y0086060D02*
X0095827Y0086060D01*
X0095827Y0086216D02*
X0094803Y0086216D01*
X0094803Y0086372D02*
X0095827Y0086372D01*
X0095827Y0087953D02*
X0095827Y0087323D01*
X0094803Y0087323D01*
X0094803Y0087953D01*
X0095827Y0087953D01*
X0095827Y0087479D02*
X0094803Y0087479D01*
X0094803Y0087635D02*
X0095827Y0087635D01*
X0095827Y0087791D02*
X0094803Y0087791D01*
X0094803Y0087947D02*
X0095827Y0087947D01*
X0095827Y0089528D02*
X0095827Y0088898D01*
X0094803Y0088898D01*
X0094803Y0089528D01*
X0095827Y0089528D01*
X0095827Y0089054D02*
X0094803Y0089054D01*
X0094803Y0089210D02*
X0095827Y0089210D01*
X0095827Y0089366D02*
X0094803Y0089366D01*
X0094803Y0089522D02*
X0095827Y0089522D01*
X0095827Y0091102D02*
X0095827Y0090472D01*
X0094803Y0090472D01*
X0094803Y0091102D01*
X0095827Y0091102D01*
X0095827Y0090628D02*
X0094803Y0090628D01*
X0094803Y0090784D02*
X0095827Y0090784D01*
X0095827Y0090940D02*
X0094803Y0090940D01*
X0094803Y0091096D02*
X0095827Y0091096D01*
X0095827Y0092677D02*
X0095827Y0092047D01*
X0094803Y0092047D01*
X0094803Y0092677D01*
X0095827Y0092677D01*
X0095827Y0092203D02*
X0094803Y0092203D01*
X0094803Y0092359D02*
X0095827Y0092359D01*
X0095827Y0092515D02*
X0094803Y0092515D01*
X0094803Y0092671D02*
X0095827Y0092671D01*
X0095827Y0094252D02*
X0095827Y0093622D01*
X0094803Y0093622D01*
X0094803Y0094252D01*
X0095827Y0094252D01*
X0095827Y0093778D02*
X0094803Y0093778D01*
X0094803Y0093934D02*
X0095827Y0093934D01*
X0095827Y0094090D02*
X0094803Y0094090D01*
X0094803Y0094246D02*
X0095827Y0094246D01*
X0093622Y0095827D02*
X0094252Y0095827D01*
X0094252Y0094803D01*
X0093622Y0094803D01*
X0093622Y0095827D01*
X0093622Y0094959D02*
X0094252Y0094959D01*
X0094252Y0095115D02*
X0093622Y0095115D01*
X0093622Y0095271D02*
X0094252Y0095271D01*
X0094252Y0095427D02*
X0093622Y0095427D01*
X0093622Y0095583D02*
X0094252Y0095583D01*
X0094252Y0095739D02*
X0093622Y0095739D01*
X0092677Y0094803D02*
X0092047Y0094803D01*
X0092047Y0095827D01*
X0092677Y0095827D01*
X0092677Y0094803D01*
X0092677Y0094959D02*
X0092047Y0094959D01*
X0092047Y0095115D02*
X0092677Y0095115D01*
X0092677Y0095271D02*
X0092047Y0095271D01*
X0092047Y0095427D02*
X0092677Y0095427D01*
X0092677Y0095583D02*
X0092047Y0095583D01*
X0092047Y0095739D02*
X0092677Y0095739D01*
X0091102Y0094803D02*
X0090472Y0094803D01*
X0090472Y0095827D01*
X0091102Y0095827D01*
X0091102Y0094803D01*
X0091102Y0094959D02*
X0090472Y0094959D01*
X0090472Y0095115D02*
X0091102Y0095115D01*
X0091102Y0095271D02*
X0090472Y0095271D01*
X0090472Y0095427D02*
X0091102Y0095427D01*
X0091102Y0095583D02*
X0090472Y0095583D01*
X0090472Y0095739D02*
X0091102Y0095739D01*
X0089528Y0094803D02*
X0088898Y0094803D01*
X0088898Y0095827D01*
X0089528Y0095827D01*
X0089528Y0094803D01*
X0089528Y0094959D02*
X0088898Y0094959D01*
X0088898Y0095115D02*
X0089528Y0095115D01*
X0089528Y0095271D02*
X0088898Y0095271D01*
X0088898Y0095427D02*
X0089528Y0095427D01*
X0089528Y0095583D02*
X0088898Y0095583D01*
X0088898Y0095739D02*
X0089528Y0095739D01*
X0087953Y0094803D02*
X0087323Y0094803D01*
X0087323Y0095827D01*
X0087953Y0095827D01*
X0087953Y0094803D01*
X0087953Y0094959D02*
X0087323Y0094959D01*
X0087323Y0095115D02*
X0087953Y0095115D01*
X0087953Y0095271D02*
X0087323Y0095271D01*
X0087323Y0095427D02*
X0087953Y0095427D01*
X0087953Y0095583D02*
X0087323Y0095583D01*
X0087323Y0095739D02*
X0087953Y0095739D01*
X0086378Y0094803D02*
X0085748Y0094803D01*
X0085748Y0095827D01*
X0086378Y0095827D01*
X0086378Y0094803D01*
X0086378Y0094959D02*
X0085748Y0094959D01*
X0085748Y0095115D02*
X0086378Y0095115D01*
X0086378Y0095271D02*
X0085748Y0095271D01*
X0085748Y0095427D02*
X0086378Y0095427D01*
X0086378Y0095583D02*
X0085748Y0095583D01*
X0085748Y0095739D02*
X0086378Y0095739D01*
D33*
X0092740Y0092425D02*
X0092740Y0087575D01*
X0087260Y0087575D01*
X0087260Y0092425D01*
X0092740Y0092425D01*
X0092740Y0088787D02*
X0087260Y0088787D01*
X0087260Y0089999D02*
X0092740Y0089999D01*
X0092740Y0091211D02*
X0087260Y0091211D01*
X0087260Y0092423D02*
X0092740Y0092423D01*
D34*
X0077900Y0162068D03*
X0077900Y0145532D03*
D35*
X0041700Y0111150D03*
X0046700Y0111150D03*
X0051700Y0111150D03*
X0056700Y0111150D03*
X0041700Y0142650D03*
X0046700Y0142650D03*
X0051700Y0142650D03*
X0056700Y0142650D03*
D36*
X0049200Y0126900D03*
D37*
X0025400Y0103800D03*
D38*
X0045400Y0063800D03*
D39*
X0127200Y0056800D02*
X0092900Y0056800D01*
X0092900Y0071100D01*
X0099500Y0071100D01*
X0099500Y0061100D01*
X0111100Y0061100D01*
X0111100Y0090200D01*
X0127200Y0090200D01*
X0127200Y0056800D01*
X0127200Y0056859D02*
X0092900Y0056859D01*
X0092900Y0057457D02*
X0127200Y0057457D01*
X0127200Y0058056D02*
X0092900Y0058056D01*
X0092900Y0058654D02*
X0127200Y0058654D01*
X0127200Y0059253D02*
X0092900Y0059253D01*
X0092900Y0059851D02*
X0127200Y0059851D01*
X0127200Y0060450D02*
X0092900Y0060450D01*
X0092900Y0061048D02*
X0127200Y0061048D01*
X0099500Y0061647D02*
X0092900Y0061647D01*
X0111100Y0061647D02*
X0127200Y0061647D01*
X0099500Y0062245D02*
X0092900Y0062245D01*
X0111100Y0062245D02*
X0127200Y0062245D01*
X0099500Y0062844D02*
X0092900Y0062844D01*
X0111100Y0062844D02*
X0127200Y0062844D01*
X0099500Y0063442D02*
X0092900Y0063442D01*
X0111100Y0063442D02*
X0127200Y0063442D01*
X0099500Y0064041D02*
X0092900Y0064041D01*
X0111100Y0064041D02*
X0127200Y0064041D01*
X0099500Y0064639D02*
X0092900Y0064639D01*
X0111100Y0064639D02*
X0127200Y0064639D01*
X0099500Y0065238D02*
X0092900Y0065238D01*
X0111100Y0065238D02*
X0127200Y0065238D01*
X0099500Y0065836D02*
X0092900Y0065836D01*
X0111100Y0065836D02*
X0127200Y0065836D01*
X0099500Y0066435D02*
X0092900Y0066435D01*
X0111100Y0066435D02*
X0127200Y0066435D01*
X0099500Y0067033D02*
X0092900Y0067033D01*
X0111100Y0067033D02*
X0127200Y0067033D01*
X0099500Y0067632D02*
X0092900Y0067632D01*
X0111100Y0067632D02*
X0127200Y0067632D01*
X0099500Y0068230D02*
X0092900Y0068230D01*
X0111100Y0068230D02*
X0127200Y0068230D01*
X0099500Y0068829D02*
X0092900Y0068829D01*
X0111100Y0068829D02*
X0127200Y0068829D01*
X0099500Y0069427D02*
X0092900Y0069427D01*
X0111100Y0069427D02*
X0127200Y0069427D01*
X0099500Y0070026D02*
X0092900Y0070026D01*
X0111100Y0070026D02*
X0127200Y0070026D01*
X0099500Y0070624D02*
X0092900Y0070624D01*
X0111100Y0070624D02*
X0127200Y0070624D01*
X0127200Y0071223D02*
X0111100Y0071223D01*
X0111100Y0071821D02*
X0127200Y0071821D01*
X0127200Y0072420D02*
X0111100Y0072420D01*
X0111100Y0073018D02*
X0127200Y0073018D01*
X0127200Y0073617D02*
X0111100Y0073617D01*
X0111100Y0074215D02*
X0127200Y0074215D01*
X0127200Y0074814D02*
X0111100Y0074814D01*
X0111100Y0075412D02*
X0127200Y0075412D01*
X0127200Y0076011D02*
X0111100Y0076011D01*
X0111100Y0076609D02*
X0127200Y0076609D01*
X0127200Y0077208D02*
X0111100Y0077208D01*
X0111100Y0077806D02*
X0127200Y0077806D01*
X0127200Y0078405D02*
X0111100Y0078405D01*
X0111100Y0079003D02*
X0127200Y0079003D01*
X0127200Y0079602D02*
X0111100Y0079602D01*
X0111100Y0080201D02*
X0127200Y0080201D01*
X0127200Y0080799D02*
X0111100Y0080799D01*
X0111100Y0081398D02*
X0127200Y0081398D01*
X0127200Y0081996D02*
X0111100Y0081996D01*
X0111100Y0082595D02*
X0127200Y0082595D01*
X0127200Y0083193D02*
X0111100Y0083193D01*
X0111100Y0083792D02*
X0127200Y0083792D01*
X0127200Y0084390D02*
X0111100Y0084390D01*
X0111100Y0084989D02*
X0127200Y0084989D01*
X0127200Y0085587D02*
X0111100Y0085587D01*
X0111100Y0086186D02*
X0127200Y0086186D01*
X0127200Y0086784D02*
X0111100Y0086784D01*
X0111100Y0087383D02*
X0127200Y0087383D01*
X0127200Y0087981D02*
X0111100Y0087981D01*
X0111100Y0088580D02*
X0127200Y0088580D01*
X0127200Y0089178D02*
X0111100Y0089178D01*
X0111100Y0089777D02*
X0127200Y0089777D01*
X0106463Y0116980D02*
X0106463Y0111600D01*
X0071700Y0111600D01*
X0090560Y0069018D02*
X0090560Y0071500D01*
X0071700Y0071500D01*
X0071700Y0111600D01*
X0121620Y0128987D02*
X0124387Y0128987D01*
X0125200Y0129800D01*
X0127475Y0129800D01*
X0127500Y0129775D01*
X0085139Y0024694D02*
X0085139Y0030600D01*
X0087000Y0030600D01*
X0072300Y0039675D02*
X0072300Y0043200D01*
X0046163Y0042450D02*
X0046163Y0042600D01*
X0050000Y0042600D01*
X0062175Y0046700D02*
X0065300Y0046700D01*
X0065300Y0044800D01*
X0065300Y0043000D01*
X0062275Y0043000D01*
X0094133Y0049385D02*
X0094100Y0049385D01*
X0094100Y0045700D01*
X0101380Y0047501D02*
X0099600Y0047501D01*
X0099600Y0042300D01*
X0059575Y0039200D02*
X0062275Y0039200D01*
X0062275Y0043000D01*
X0084500Y0077300D02*
X0087625Y0077400D01*
X0080700Y0087500D02*
X0080700Y0090825D01*
X0100000Y0089175D02*
X0100000Y0093900D01*
X0100000Y0093937D01*
X0092362Y0097600D02*
X0100000Y0097600D01*
X0100000Y0093900D01*
X0127000Y0050675D02*
X0132275Y0050675D01*
X0132900Y0051300D01*
X0091200Y0150159D02*
X0091159Y0150200D01*
X0084400Y0150200D01*
X0091500Y0140475D02*
X0091463Y0140437D01*
X0102900Y0147575D02*
X0103000Y0150800D01*
X0092362Y0097600D02*
X0092362Y0095315D01*
X0095315Y0093937D02*
X0095315Y0093900D01*
X0100000Y0093900D01*
X0110400Y0128200D02*
X0110400Y0130200D01*
X0076747Y0065609D02*
X0072300Y0065609D01*
X0072300Y0065600D01*
X0086722Y0140437D02*
X0083400Y0140437D01*
X0083000Y0140500D01*
X0135700Y0139700D02*
X0134900Y0139700D01*
X0134700Y0139900D01*
X0127000Y0139900D01*
X0125700Y0141200D01*
X0125700Y0149200D01*
X0130600Y0149200D01*
X0130600Y0149800D01*
X0135700Y0149800D01*
X0135700Y0139700D01*
X0135700Y0140052D02*
X0126848Y0140052D01*
X0126250Y0140650D02*
X0135700Y0140650D01*
X0135700Y0141249D02*
X0125700Y0141249D01*
X0125700Y0141847D02*
X0135700Y0141847D01*
X0135700Y0142446D02*
X0125700Y0142446D01*
X0125700Y0143044D02*
X0135700Y0143044D01*
X0135700Y0143643D02*
X0125700Y0143643D01*
X0125700Y0144241D02*
X0135700Y0144241D01*
X0135700Y0144840D02*
X0125700Y0144840D01*
X0125700Y0145438D02*
X0135700Y0145438D01*
X0135700Y0146037D02*
X0125700Y0146037D01*
X0125700Y0146635D02*
X0135700Y0146635D01*
X0135700Y0147234D02*
X0125700Y0147234D01*
X0125700Y0147832D02*
X0135700Y0147832D01*
X0135700Y0148431D02*
X0125700Y0148431D01*
X0125700Y0149029D02*
X0135700Y0149029D01*
X0135700Y0149628D02*
X0130600Y0149628D01*
X0121646Y0152264D02*
X0121646Y0155100D01*
X0117100Y0155100D01*
X0117100Y0150875D01*
X0090560Y0058782D02*
X0090560Y0062400D01*
X0086800Y0062400D01*
X0086800Y0049300D01*
X0079975Y0049300D01*
X0083400Y0042375D02*
X0083400Y0042400D01*
X0086800Y0042400D01*
X0086700Y0042300D01*
X0091500Y0140475D02*
X0086722Y0140475D01*
X0086722Y0140437D01*
X0115900Y0142900D02*
X0116325Y0142900D01*
X0070900Y0148675D02*
X0070900Y0150200D01*
X0074500Y0150200D01*
X0070400Y0158925D02*
X0065300Y0158925D01*
X0065300Y0150300D01*
X0056700Y0111150D02*
X0059300Y0111150D01*
X0059300Y0113700D01*
X0073175Y0117500D02*
X0076900Y0117500D01*
X0081600Y0152600D02*
X0092500Y0152600D01*
X0095800Y0155900D01*
X0046163Y0048750D02*
X0040700Y0048750D01*
X0040700Y0057000D01*
X0023747Y0057000D01*
X0023747Y0053400D01*
X0029047Y0040800D02*
X0043900Y0040800D01*
X0043900Y0044025D01*
X0046163Y0044025D01*
X0029047Y0043600D02*
X0023747Y0048900D01*
X0023747Y0053400D01*
X0029047Y0043600D02*
X0029047Y0040800D01*
X0023747Y0057000D02*
X0023800Y0057053D01*
X0030200Y0119400D02*
X0019800Y0119400D01*
X0008400Y0108000D01*
X0020100Y0057000D02*
X0023747Y0057000D01*
X0008400Y0108000D02*
X0008400Y0079000D01*
X0020100Y0067300D01*
X0020100Y0057000D01*
X0121600Y0107200D02*
X0121600Y0119518D01*
X0121620Y0119539D01*
X0121000Y0103100D02*
X0119061Y0105039D01*
X0119061Y0116980D01*
X0121620Y0121113D02*
X0123187Y0121113D01*
X0124200Y0120100D01*
X0124200Y0111400D01*
X0123900Y0111000D01*
X0121620Y0127413D02*
X0124387Y0127413D01*
X0125200Y0126600D01*
X0127475Y0126600D01*
X0127500Y0126625D01*
X0121620Y0130562D02*
X0123962Y0130562D01*
X0128500Y0135100D01*
X0130000Y0135100D01*
X0131800Y0136900D01*
X0131800Y0137525D01*
X0121620Y0132137D02*
X0123437Y0132137D01*
X0128200Y0136900D01*
X0128200Y0137525D01*
X0121620Y0133712D02*
X0123112Y0133712D01*
X0124900Y0135500D01*
X0124900Y0140300D01*
X0124500Y0140700D01*
X0124500Y0151000D01*
X0125764Y0152264D01*
X0127354Y0152264D01*
X0132200Y0152275D02*
X0127354Y0152275D01*
X0127354Y0152264D01*
X0121620Y0135287D02*
X0122787Y0135287D01*
X0123600Y0136100D01*
X0121700Y0141700D02*
X0121700Y0147682D01*
X0121646Y0147736D01*
X0123600Y0136100D02*
X0123600Y0139800D01*
X0121700Y0141700D01*
X0117100Y0147725D02*
X0117111Y0147736D01*
X0121646Y0147736D01*
X0103313Y0139420D02*
X0103313Y0141700D01*
X0098700Y0141700D01*
X0098700Y0143954D01*
X0106600Y0151075D02*
X0106600Y0153200D01*
X0098700Y0153200D01*
X0098700Y0150646D01*
X0104888Y0139420D02*
X0104888Y0144425D01*
X0102900Y0144425D01*
X0106600Y0147925D02*
X0106600Y0144425D01*
X0104888Y0144425D01*
X0103313Y0116980D02*
X0103313Y0114700D01*
X0068600Y0114700D01*
X0068600Y0060200D01*
X0082300Y0060200D01*
X0082300Y0054191D01*
X0082653Y0054191D01*
X0108038Y0116980D02*
X0108038Y0110100D01*
X0073300Y0110100D01*
X0073300Y0073300D01*
X0094500Y0073300D01*
X0094500Y0081800D01*
X0093937Y0081800D01*
X0093937Y0084685D01*
X0109613Y0116980D02*
X0109613Y0108500D01*
X0074700Y0108500D01*
X0074700Y0074800D01*
X0093100Y0074800D01*
X0093100Y0080300D01*
X0092362Y0080300D01*
X0092362Y0084685D01*
X0111187Y0116980D02*
X0111187Y0107000D01*
X0076300Y0107000D01*
X0076300Y0079700D01*
X0089200Y0079700D01*
X0089213Y0084685D02*
X0089213Y0079713D01*
X0089200Y0079700D01*
X0112762Y0116980D02*
X0112762Y0105500D01*
X0077800Y0105500D01*
X0077800Y0084685D01*
X0086063Y0084685D01*
X0114337Y0116980D02*
X0114337Y0104000D01*
X0086063Y0104000D01*
X0086063Y0095315D01*
X0115912Y0116980D02*
X0115912Y0102500D01*
X0087638Y0102500D01*
X0087638Y0095315D01*
X0117487Y0116980D02*
X0117487Y0101000D01*
X0089213Y0101000D01*
X0089213Y0095315D01*
X0090787Y0099600D02*
X0128500Y0099600D01*
X0121620Y0122688D02*
X0125412Y0122688D01*
X0128500Y0119600D01*
X0128500Y0099600D01*
X0090787Y0099600D02*
X0090787Y0095315D01*
X0099180Y0136861D02*
X0091500Y0136861D01*
X0091500Y0137325D01*
X0054037Y0042450D02*
X0054037Y0039200D01*
X0056425Y0039200D01*
X0054037Y0044025D02*
X0059025Y0044025D01*
X0059125Y0043000D01*
X0054037Y0045600D02*
X0059025Y0045600D01*
X0059025Y0046700D01*
X0080020Y0024694D02*
X0080020Y0021200D01*
X0077400Y0021200D01*
X0072200Y0021200D01*
X0072200Y0025541D01*
X0077461Y0024694D02*
X0077400Y0024694D01*
X0077400Y0021200D01*
X0054037Y0048750D02*
X0055259Y0048750D01*
X0055259Y0053300D01*
X0124700Y0033775D02*
X0124624Y0033850D01*
X0124624Y0038878D01*
X0080020Y0021200D02*
X0128000Y0021200D01*
X0128000Y0033775D01*
X0124700Y0033775D01*
X0061100Y0025600D02*
X0061100Y0035900D01*
X0068300Y0035900D01*
X0068300Y0057100D01*
X0055259Y0057100D01*
X0055259Y0053300D01*
X0054037Y0047175D02*
X0055575Y0047175D01*
X0062900Y0054500D01*
X0046163Y0045600D02*
X0041875Y0045600D01*
X0041875Y0043600D01*
X0046163Y0047175D02*
X0037875Y0047175D01*
X0037875Y0053400D01*
X0034725Y0053400D02*
X0029653Y0053400D01*
X0034953Y0043600D02*
X0038725Y0043600D01*
X0085139Y0036506D02*
X0089000Y0036506D01*
X0089000Y0045500D01*
X0076825Y0045500D01*
X0076825Y0040500D01*
X0100000Y0086025D02*
X0100000Y0086063D01*
X0080020Y0036506D02*
X0080020Y0040500D01*
X0079975Y0040500D01*
X0080020Y0036506D02*
X0077461Y0036506D01*
X0077461Y0036525D01*
X0072300Y0036525D01*
X0101739Y0139420D02*
X0094600Y0139420D01*
X0094600Y0145000D01*
X0091200Y0145000D01*
X0091200Y0145041D01*
X0086822Y0145041D01*
X0086722Y0143587D01*
X0088013Y0080900D02*
X0077500Y0080900D01*
X0077500Y0083485D01*
X0082700Y0083485D01*
X0082700Y0082876D01*
X0082876Y0082700D01*
X0088013Y0082700D01*
X0088013Y0080900D01*
X0082451Y0092709D02*
X0079000Y0092709D01*
X0079000Y0104300D01*
X0084863Y0104300D01*
X0084863Y0097300D01*
X0082876Y0097300D01*
X0082700Y0097124D01*
X0082700Y0092460D01*
X0082451Y0092709D01*
X0067400Y0101800D02*
X0067400Y0059703D01*
X0068103Y0059000D01*
X0081100Y0059000D01*
X0081100Y0057060D01*
X0080508Y0057060D01*
X0079981Y0056533D01*
X0079981Y0051850D01*
X0080253Y0051578D01*
X0078618Y0051578D01*
X0078091Y0051051D01*
X0078091Y0047549D01*
X0078618Y0047022D01*
X0081332Y0047022D01*
X0081859Y0047549D01*
X0081859Y0048100D01*
X0087297Y0048100D01*
X0088000Y0048803D01*
X0088000Y0060489D01*
X0088302Y0060790D01*
X0088302Y0056460D01*
X0088829Y0055933D01*
X0092070Y0055933D01*
X0092103Y0055900D01*
X0090703Y0055900D01*
X0090000Y0055197D01*
X0090000Y0046197D01*
X0089497Y0046700D01*
X0076328Y0046700D01*
X0075625Y0045997D01*
X0075625Y0042778D01*
X0075468Y0042778D01*
X0074941Y0042251D01*
X0074941Y0038749D01*
X0075468Y0038222D01*
X0078182Y0038222D01*
X0078709Y0038749D01*
X0078709Y0042251D01*
X0078182Y0042778D01*
X0078025Y0042778D01*
X0078025Y0044300D01*
X0085589Y0044300D01*
X0085349Y0044061D01*
X0085151Y0044259D01*
X0081649Y0044259D01*
X0081122Y0043732D01*
X0081122Y0041018D01*
X0081340Y0040800D01*
X0081122Y0040582D01*
X0081122Y0037868D01*
X0081126Y0037865D01*
X0081089Y0037828D01*
X0081089Y0035183D01*
X0081622Y0034650D01*
X0076387Y0034650D01*
X0075676Y0033938D01*
X0075676Y0032700D01*
X0074581Y0032700D01*
X0074344Y0032937D01*
X0070056Y0032937D01*
X0069878Y0032759D01*
X0068564Y0032759D01*
X0068373Y0032950D01*
X0066427Y0032950D01*
X0065050Y0031573D01*
X0065050Y0029627D01*
X0066427Y0028250D01*
X0068373Y0028250D01*
X0068682Y0028559D01*
X0069878Y0028559D01*
X0070056Y0028381D01*
X0074344Y0028381D01*
X0074463Y0028500D01*
X0075676Y0028500D01*
X0075676Y0027262D01*
X0076387Y0026550D01*
X0076504Y0026550D01*
X0075971Y0026017D01*
X0075971Y0023372D01*
X0076200Y0023143D01*
X0076200Y0022400D01*
X0073400Y0022400D01*
X0073400Y0023263D01*
X0074344Y0023263D01*
X0074872Y0023790D01*
X0074872Y0027292D01*
X0074344Y0027819D01*
X0070056Y0027819D01*
X0069878Y0027641D01*
X0062300Y0027641D01*
X0062300Y0034700D01*
X0068797Y0034700D01*
X0069500Y0035403D01*
X0069500Y0057597D01*
X0068797Y0058300D01*
X0059322Y0058300D01*
X0061048Y0060026D01*
X0062062Y0062475D01*
X0062062Y0065125D01*
X0061048Y0067574D01*
X0059174Y0069448D01*
X0056725Y0070462D01*
X0054075Y0070462D01*
X0051626Y0069448D01*
X0049752Y0067574D01*
X0049039Y0065853D01*
X0048917Y0066150D01*
X0047750Y0067317D01*
X0046600Y0067793D01*
X0046600Y0101800D01*
X0067400Y0101800D01*
X0070549Y0037791D02*
X0074051Y0037791D01*
X0074578Y0038318D01*
X0074578Y0041032D01*
X0074051Y0041559D01*
X0073982Y0041559D01*
X0074650Y0042227D01*
X0074650Y0044173D01*
X0073273Y0045550D01*
X0071327Y0045550D01*
X0069950Y0044173D01*
X0069950Y0042227D01*
X0070618Y0041559D01*
X0070549Y0041559D01*
X0070022Y0041032D01*
X0070022Y0038318D01*
X0070549Y0037791D01*
X0083131Y0159136D02*
X0083131Y0165000D01*
X0082603Y0165527D01*
X0073196Y0165527D01*
X0072669Y0165000D01*
X0072669Y0163440D01*
X0072151Y0163959D01*
X0068649Y0163959D01*
X0068122Y0163432D01*
X0068122Y0160718D01*
X0068340Y0160500D01*
X0068122Y0160282D01*
X0068122Y0160125D01*
X0064803Y0160125D01*
X0064100Y0159422D01*
X0064100Y0152211D01*
X0063100Y0151211D01*
X0063100Y0149389D01*
X0064389Y0148100D01*
X0066211Y0148100D01*
X0066600Y0148489D01*
X0066600Y0147597D01*
X0066197Y0148000D01*
X0046203Y0148000D01*
X0045500Y0147297D01*
X0045500Y0145026D01*
X0045343Y0145026D01*
X0044816Y0144499D01*
X0044816Y0140801D01*
X0045343Y0140274D01*
X0048057Y0140274D01*
X0048584Y0140801D01*
X0048584Y0144499D01*
X0048057Y0145026D01*
X0047900Y0145026D01*
X0047900Y0145600D01*
X0050500Y0145600D01*
X0050500Y0145026D01*
X0050343Y0145026D01*
X0049816Y0144499D01*
X0049816Y0140801D01*
X0050343Y0140274D01*
X0053057Y0140274D01*
X0053584Y0140801D01*
X0053584Y0144100D01*
X0054816Y0144100D01*
X0054816Y0140801D01*
X0055343Y0140274D01*
X0058057Y0140274D01*
X0058584Y0140801D01*
X0058584Y0141450D01*
X0061400Y0141450D01*
X0061400Y0128490D01*
X0061590Y0128300D01*
X0061200Y0127910D01*
X0061200Y0114911D01*
X0060211Y0115900D01*
X0058389Y0115900D01*
X0057100Y0114611D01*
X0057100Y0113526D01*
X0055343Y0113526D01*
X0054816Y0112999D01*
X0054816Y0109600D01*
X0053584Y0109600D01*
X0053584Y0112999D01*
X0053057Y0113526D01*
X0050343Y0113526D01*
X0049816Y0112999D01*
X0049816Y0109301D01*
X0050343Y0108774D01*
X0050500Y0108774D01*
X0050500Y0107903D01*
X0050503Y0107900D01*
X0047900Y0107900D01*
X0047900Y0108774D01*
X0048057Y0108774D01*
X0048584Y0109301D01*
X0048584Y0112999D01*
X0048057Y0113526D01*
X0045343Y0113526D01*
X0044816Y0112999D01*
X0044816Y0109301D01*
X0045343Y0108774D01*
X0045500Y0108774D01*
X0045500Y0106300D01*
X0042900Y0106300D01*
X0042900Y0108774D01*
X0043057Y0108774D01*
X0043584Y0109301D01*
X0043584Y0112999D01*
X0043057Y0113526D01*
X0040343Y0113526D01*
X0039816Y0112999D01*
X0039816Y0109301D01*
X0040343Y0108774D01*
X0040500Y0108774D01*
X0040500Y0104603D01*
X0041203Y0103900D01*
X0044603Y0103900D01*
X0044200Y0103497D01*
X0044200Y0067793D01*
X0043050Y0067317D01*
X0041883Y0066150D01*
X0041252Y0064625D01*
X0041252Y0062975D01*
X0041883Y0061450D01*
X0043050Y0060283D01*
X0044575Y0059652D01*
X0046225Y0059652D01*
X0047750Y0060283D01*
X0048917Y0061450D01*
X0049039Y0061747D01*
X0049752Y0060026D01*
X0051626Y0058152D01*
X0054059Y0057144D01*
X0054059Y0055972D01*
X0053508Y0055972D01*
X0052981Y0055444D01*
X0052981Y0051156D01*
X0053508Y0050628D01*
X0054059Y0050628D01*
X0054059Y0050043D01*
X0052598Y0050043D01*
X0052271Y0049716D01*
X0052241Y0049746D01*
X0052241Y0050978D01*
X0052419Y0051156D01*
X0052419Y0055444D01*
X0051892Y0055972D01*
X0048390Y0055972D01*
X0047863Y0055444D01*
X0047863Y0055400D01*
X0047211Y0055400D01*
X0047111Y0055500D01*
X0045289Y0055500D01*
X0044000Y0054211D01*
X0044000Y0052389D01*
X0045289Y0051100D01*
X0047111Y0051100D01*
X0047211Y0051200D01*
X0047863Y0051200D01*
X0047863Y0051156D01*
X0048041Y0050978D01*
X0048041Y0049828D01*
X0047929Y0049716D01*
X0047602Y0050043D01*
X0044724Y0050043D01*
X0044631Y0049950D01*
X0041900Y0049950D01*
X0041900Y0055089D01*
X0042900Y0056089D01*
X0042900Y0057911D01*
X0041611Y0059200D01*
X0039789Y0059200D01*
X0038789Y0058200D01*
X0024350Y0058200D01*
X0024297Y0058253D01*
X0023303Y0058253D01*
X0023250Y0058200D01*
X0021300Y0058200D01*
X0021300Y0067797D01*
X0020597Y0068500D01*
X0009600Y0079497D01*
X0009600Y0100393D01*
X0009752Y0100026D01*
X0011626Y0098152D01*
X0014075Y0097138D01*
X0016725Y0097138D01*
X0019174Y0098152D01*
X0021048Y0100026D01*
X0022018Y0102369D01*
X0022287Y0101720D01*
X0023320Y0100687D01*
X0024670Y0100128D01*
X0026130Y0100128D01*
X0027480Y0100687D01*
X0028513Y0101720D01*
X0029072Y0103070D01*
X0029072Y0104530D01*
X0028513Y0105880D01*
X0027480Y0106913D01*
X0026130Y0107472D01*
X0024670Y0107472D01*
X0023320Y0106913D01*
X0022287Y0105880D01*
X0022018Y0105231D01*
X0021048Y0107574D01*
X0019174Y0109448D01*
X0016725Y0110462D01*
X0014075Y0110462D01*
X0011626Y0109448D01*
X0009752Y0107574D01*
X0009600Y0107207D01*
X0009600Y0107503D01*
X0020297Y0118200D01*
X0028289Y0118200D01*
X0029289Y0117200D01*
X0031111Y0117200D01*
X0032400Y0118489D01*
X0032400Y0120311D01*
X0031111Y0121600D01*
X0029289Y0121600D01*
X0028289Y0120600D01*
X0019303Y0120600D01*
X0007903Y0109200D01*
X0007200Y0108497D01*
X0007200Y0078503D01*
X0018900Y0066803D01*
X0018900Y0056503D01*
X0019603Y0055800D01*
X0021725Y0055800D01*
X0021272Y0055348D01*
X0021272Y0051452D01*
X0021800Y0050925D01*
X0022547Y0050925D01*
X0022547Y0048403D01*
X0023250Y0047700D01*
X0026572Y0044378D01*
X0026572Y0041652D01*
X0027100Y0041125D01*
X0027847Y0041125D01*
X0027847Y0040303D01*
X0028550Y0039600D01*
X0044397Y0039600D01*
X0045100Y0040303D01*
X0045100Y0041157D01*
X0047602Y0041157D01*
X0047845Y0041400D01*
X0047900Y0041400D01*
X0047900Y0040123D01*
X0047650Y0039873D01*
X0047650Y0037927D01*
X0049027Y0036550D01*
X0050973Y0036550D01*
X0052350Y0037927D01*
X0052350Y0039873D01*
X0052100Y0040123D01*
X0052100Y0041354D01*
X0052141Y0041354D01*
X0052271Y0041484D01*
X0052598Y0041157D01*
X0052837Y0041157D01*
X0052837Y0038703D01*
X0053540Y0038000D01*
X0054541Y0038000D01*
X0054541Y0037449D01*
X0055068Y0036922D01*
X0057782Y0036922D01*
X0058000Y0037140D01*
X0058218Y0036922D01*
X0060425Y0036922D01*
X0059900Y0036397D01*
X0059900Y0027511D01*
X0058900Y0026511D01*
X0058900Y0024689D01*
X0060189Y0023400D01*
X0062011Y0023400D01*
X0062052Y0023441D01*
X0069878Y0023441D01*
X0070056Y0023263D01*
X0071000Y0023263D01*
X0071000Y0020703D01*
X0071703Y0020000D01*
X0128497Y0020000D01*
X0129200Y0020703D01*
X0129200Y0034272D01*
X0128497Y0034975D01*
X0126978Y0034975D01*
X0126978Y0035132D01*
X0126887Y0035222D01*
X0126966Y0035222D01*
X0127493Y0035750D01*
X0127493Y0042007D01*
X0126966Y0042534D01*
X0122283Y0042534D01*
X0121756Y0042007D01*
X0121756Y0035750D01*
X0122283Y0035222D01*
X0122513Y0035222D01*
X0122422Y0035132D01*
X0122422Y0032418D01*
X0122640Y0032200D01*
X0122422Y0031982D01*
X0122422Y0031925D01*
X0119378Y0031925D01*
X0119378Y0032082D01*
X0119160Y0032300D01*
X0119378Y0032518D01*
X0119378Y0035222D01*
X0119485Y0035222D01*
X0120012Y0035750D01*
X0120012Y0042007D01*
X0119485Y0042534D01*
X0118300Y0042534D01*
X0118300Y0043397D01*
X0117597Y0044100D01*
X0111456Y0044100D01*
X0111729Y0044372D01*
X0111729Y0045222D01*
X0114282Y0045222D01*
X0114500Y0045440D01*
X0114718Y0045222D01*
X0117432Y0045222D01*
X0117959Y0045749D01*
X0117959Y0046340D01*
X0118016Y0046340D01*
X0118016Y0044411D01*
X0118543Y0043884D01*
X0123225Y0043884D01*
X0123753Y0044411D01*
X0123753Y0046340D01*
X0124722Y0046340D01*
X0124722Y0046168D01*
X0125249Y0045641D01*
X0128751Y0045641D01*
X0129278Y0046168D01*
X0129278Y0048882D01*
X0129060Y0049100D01*
X0129278Y0049318D01*
X0129278Y0049475D01*
X0131402Y0049475D01*
X0131927Y0048950D01*
X0133873Y0048950D01*
X0135250Y0050327D01*
X0135250Y0052273D01*
X0133873Y0053650D01*
X0131927Y0053650D01*
X0130550Y0052273D01*
X0130550Y0051875D01*
X0129278Y0051875D01*
X0129278Y0052032D01*
X0128751Y0052559D01*
X0125249Y0052559D01*
X0124722Y0052032D01*
X0124722Y0049318D01*
X0124940Y0049100D01*
X0124722Y0048882D01*
X0124722Y0048740D01*
X0123753Y0048740D01*
X0123753Y0050668D01*
X0123225Y0051196D01*
X0118543Y0051196D01*
X0118016Y0050668D01*
X0118016Y0048740D01*
X0117959Y0048740D01*
X0117959Y0049251D01*
X0117710Y0049500D01*
X0117959Y0049749D01*
X0117959Y0053251D01*
X0117432Y0053778D01*
X0117275Y0053778D01*
X0117275Y0055197D01*
X0116872Y0055600D01*
X0127697Y0055600D01*
X0128400Y0056303D01*
X0128400Y0090697D01*
X0127697Y0091400D01*
X0110603Y0091400D01*
X0109900Y0090697D01*
X0109900Y0090440D01*
X0109713Y0090252D01*
X0109713Y0077696D01*
X0109900Y0077508D01*
X0109900Y0074692D01*
X0109713Y0074504D01*
X0109713Y0062300D01*
X0100700Y0062300D01*
X0100700Y0071597D01*
X0099997Y0072300D01*
X0095197Y0072300D01*
X0095700Y0072803D01*
X0095700Y0082297D01*
X0095297Y0082700D01*
X0097124Y0082700D01*
X0097300Y0082876D01*
X0097300Y0092700D01*
X0097877Y0092700D01*
X0098800Y0091777D01*
X0098800Y0091059D01*
X0098249Y0091059D01*
X0097722Y0090532D01*
X0097722Y0087818D01*
X0098249Y0087291D01*
X0101751Y0087291D01*
X0102278Y0087818D01*
X0102278Y0090532D01*
X0101751Y0091059D01*
X0101200Y0091059D01*
X0101200Y0091777D01*
X0102350Y0092927D01*
X0102350Y0094873D01*
X0101200Y0096023D01*
X0101200Y0098097D01*
X0100897Y0098400D01*
X0128997Y0098400D01*
X0129700Y0099103D01*
X0129700Y0120097D01*
X0129247Y0120550D01*
X0129673Y0120550D01*
X0130250Y0121127D01*
X0130927Y0120450D01*
X0131550Y0120450D01*
X0131550Y0118527D01*
X0132927Y0117150D01*
X0134873Y0117150D01*
X0135700Y0117977D01*
X0135700Y0018211D01*
X0134167Y0017142D01*
X0124488Y0012092D01*
X0114242Y0008321D01*
X0103598Y0005892D01*
X0100104Y0005555D01*
X0100599Y0007405D01*
X0100599Y0010195D01*
X0099877Y0012891D01*
X0098481Y0015308D01*
X0096508Y0017281D01*
X0094091Y0018677D01*
X0091395Y0019399D01*
X0088605Y0019399D01*
X0085909Y0018677D01*
X0083492Y0017281D01*
X0081519Y0015308D01*
X0080123Y0012891D01*
X0079401Y0010195D01*
X0079401Y0007405D01*
X0079911Y0005502D01*
X0071041Y0006936D01*
X0060575Y0010042D01*
X0050592Y0014462D01*
X0041256Y0020121D01*
X0032720Y0026928D01*
X0025125Y0034771D01*
X0018595Y0043520D01*
X0013237Y0053033D01*
X0009140Y0063153D01*
X0006371Y0073713D01*
X0004975Y0084541D01*
X0004975Y0095459D01*
X0006371Y0106287D01*
X0009140Y0116847D01*
X0013237Y0126967D01*
X0018595Y0136480D01*
X0025125Y0145229D01*
X0032720Y0153072D01*
X0041256Y0159879D01*
X0043918Y0161493D01*
X0044423Y0159609D01*
X0045819Y0157192D01*
X0047792Y0155219D01*
X0050209Y0153823D01*
X0052905Y0153101D01*
X0055695Y0153101D01*
X0058391Y0153823D01*
X0060808Y0155219D01*
X0062781Y0157192D01*
X0064177Y0159609D01*
X0064899Y0162305D01*
X0064899Y0165095D01*
X0064177Y0167791D01*
X0062781Y0170208D01*
X0062470Y0170520D01*
X0071041Y0173064D01*
X0081819Y0174806D01*
X0092731Y0175156D01*
X0103598Y0174108D01*
X0114242Y0171679D01*
X0124488Y0167908D01*
X0134167Y0162858D01*
X0135700Y0161789D01*
X0135700Y0151000D01*
X0134478Y0151000D01*
X0134478Y0153632D01*
X0133951Y0154159D01*
X0130449Y0154159D01*
X0130124Y0153834D01*
X0130124Y0154310D01*
X0129597Y0154837D01*
X0125111Y0154837D01*
X0124584Y0154310D01*
X0124584Y0152781D01*
X0124564Y0152761D01*
X0124416Y0152613D01*
X0124416Y0154310D01*
X0123889Y0154837D01*
X0122846Y0154837D01*
X0122846Y0155597D01*
X0122143Y0156300D01*
X0119011Y0156300D01*
X0118011Y0157300D01*
X0116189Y0157300D01*
X0114900Y0156011D01*
X0114900Y0154189D01*
X0115900Y0153189D01*
X0115900Y0152759D01*
X0115349Y0152759D01*
X0114822Y0152232D01*
X0114822Y0149518D01*
X0115040Y0149300D01*
X0114822Y0149082D01*
X0114822Y0146368D01*
X0115349Y0145841D01*
X0118851Y0145841D01*
X0118876Y0145866D01*
X0118876Y0145690D01*
X0119403Y0145163D01*
X0120500Y0145163D01*
X0120500Y0141203D01*
X0122400Y0139303D01*
X0122400Y0136597D01*
X0122383Y0136580D01*
X0120355Y0136580D01*
X0120355Y0137628D01*
X0120137Y0137846D01*
X0120355Y0138063D01*
X0120355Y0140778D01*
X0119828Y0141305D01*
X0118295Y0141305D01*
X0118274Y0141284D01*
X0118253Y0141305D01*
X0118209Y0141305D01*
X0118209Y0144651D01*
X0117682Y0145178D01*
X0114968Y0145178D01*
X0114441Y0144651D01*
X0114441Y0144552D01*
X0113962Y0144073D01*
X0113962Y0170797D01*
X0113259Y0171500D01*
X0101159Y0171500D01*
X0101159Y0173151D01*
X0100632Y0173678D01*
X0097918Y0173678D01*
X0097700Y0173460D01*
X0097482Y0173678D01*
X0094768Y0173678D01*
X0094241Y0173151D01*
X0094241Y0172600D01*
X0093291Y0172600D01*
X0092932Y0172959D01*
X0090415Y0172959D01*
X0089887Y0172432D01*
X0089887Y0169915D01*
X0090302Y0169500D01*
X0090000Y0169198D01*
X0089585Y0169613D01*
X0087068Y0169613D01*
X0086541Y0169085D01*
X0086541Y0166568D01*
X0087068Y0166041D01*
X0087127Y0166041D01*
X0087127Y0164003D01*
X0087830Y0163300D01*
X0094241Y0163300D01*
X0094241Y0162749D01*
X0094768Y0162222D01*
X0097482Y0162222D01*
X0097700Y0162440D01*
X0097918Y0162222D01*
X0100632Y0162222D01*
X0101159Y0162749D01*
X0101159Y0163300D01*
X0108413Y0163300D01*
X0108413Y0152897D01*
X0108351Y0152959D01*
X0107800Y0152959D01*
X0107800Y0153697D01*
X0107097Y0154400D01*
X0098203Y0154400D01*
X0097500Y0153697D01*
X0097500Y0153515D01*
X0096162Y0153515D01*
X0095635Y0152988D01*
X0095635Y0148305D01*
X0096162Y0147778D01*
X0100622Y0147778D01*
X0100622Y0146822D01*
X0096162Y0146822D01*
X0095635Y0146295D01*
X0095635Y0141612D01*
X0096162Y0141085D01*
X0097618Y0141085D01*
X0098203Y0140500D01*
X0102020Y0140500D01*
X0102020Y0138155D01*
X0100972Y0138155D01*
X0100754Y0137937D01*
X0100537Y0138155D01*
X0097822Y0138155D01*
X0097729Y0138061D01*
X0093778Y0138061D01*
X0093778Y0138682D01*
X0093560Y0138900D01*
X0093778Y0139118D01*
X0093778Y0141832D01*
X0093251Y0142359D01*
X0089749Y0142359D01*
X0089222Y0141832D01*
X0089222Y0141675D01*
X0089000Y0141675D01*
X0089000Y0141794D01*
X0088473Y0142322D01*
X0084971Y0142322D01*
X0084737Y0142087D01*
X0083973Y0142850D01*
X0083131Y0142850D01*
X0083131Y0148146D01*
X0083427Y0147850D01*
X0085373Y0147850D01*
X0086523Y0149000D01*
X0088528Y0149000D01*
X0088528Y0148408D01*
X0089056Y0147881D01*
X0093344Y0147881D01*
X0093872Y0148408D01*
X0093872Y0151910D01*
X0093689Y0152092D01*
X0095147Y0153550D01*
X0096773Y0153550D01*
X0098150Y0154927D01*
X0098150Y0156873D01*
X0096773Y0158250D01*
X0094827Y0158250D01*
X0093450Y0156873D01*
X0093450Y0155247D01*
X0092003Y0153800D01*
X0083723Y0153800D01*
X0082573Y0154950D01*
X0080627Y0154950D01*
X0079250Y0153573D01*
X0079250Y0151627D01*
X0080627Y0150250D01*
X0082050Y0150250D01*
X0082050Y0149227D01*
X0082285Y0148991D01*
X0076403Y0148991D01*
X0076700Y0149289D01*
X0076700Y0151111D01*
X0075411Y0152400D01*
X0073589Y0152400D01*
X0072589Y0151400D01*
X0070403Y0151400D01*
X0069700Y0150697D01*
X0069700Y0150559D01*
X0069149Y0150559D01*
X0069000Y0150410D01*
X0069000Y0152400D01*
X0078397Y0152400D01*
X0079100Y0153103D01*
X0079100Y0158609D01*
X0082603Y0158609D01*
X0083131Y0159136D01*
X0058023Y0134500D02*
X0040377Y0134500D01*
X0039850Y0133973D01*
X0039850Y0119827D01*
X0040377Y0119300D01*
X0058023Y0119300D01*
X0058550Y0119827D01*
X0058550Y0133973D01*
X0058023Y0134500D01*
X0116817Y0010500D02*
X0120063Y0010500D01*
X0120590Y0011027D01*
X0120590Y0014373D01*
X0120063Y0014900D01*
X0116817Y0014900D01*
X0116290Y0014373D01*
X0116290Y0011027D01*
X0116817Y0010500D01*
X0106737Y0010500D02*
X0109983Y0010500D01*
X0110510Y0011027D01*
X0110510Y0014373D01*
X0109983Y0014900D01*
X0106737Y0014900D01*
X0106210Y0014373D01*
X0106210Y0011027D01*
X0106737Y0010500D01*
X0097295Y0118772D02*
X0097822Y0118245D01*
X0100537Y0118245D01*
X0100754Y0118463D01*
X0100972Y0118245D01*
X0102020Y0118245D01*
X0102020Y0115900D01*
X0078411Y0115900D01*
X0079100Y0116589D01*
X0079100Y0118411D01*
X0077811Y0119700D01*
X0075989Y0119700D01*
X0075059Y0118770D01*
X0075059Y0119251D01*
X0074959Y0119351D01*
X0074959Y0119913D01*
X0097295Y0119913D01*
X0097295Y0118772D01*
X0079781Y0005985D02*
X0076924Y0005985D01*
X0100219Y0005985D02*
X0104005Y0005985D01*
X0079621Y0006584D02*
X0073222Y0006584D01*
X0100379Y0006584D02*
X0106628Y0006584D01*
X0079460Y0007182D02*
X0070212Y0007182D01*
X0100540Y0007182D02*
X0109250Y0007182D01*
X0079401Y0007781D02*
X0068196Y0007781D01*
X0100599Y0007781D02*
X0111872Y0007781D01*
X0079401Y0008379D02*
X0066179Y0008379D01*
X0100599Y0008379D02*
X0114398Y0008379D01*
X0079401Y0008978D02*
X0064163Y0008978D01*
X0100599Y0008978D02*
X0116025Y0008978D01*
X0079401Y0009576D02*
X0062146Y0009576D01*
X0100599Y0009576D02*
X0117651Y0009576D01*
X0079401Y0010175D02*
X0060276Y0010175D01*
X0100599Y0010175D02*
X0119278Y0010175D01*
X0079556Y0010773D02*
X0058924Y0010773D01*
X0100444Y0010773D02*
X0106464Y0010773D01*
X0110256Y0010773D02*
X0116544Y0010773D01*
X0120336Y0010773D02*
X0120904Y0010773D01*
X0079716Y0011372D02*
X0057572Y0011372D01*
X0100284Y0011372D02*
X0106210Y0011372D01*
X0110510Y0011372D02*
X0116290Y0011372D01*
X0120590Y0011372D02*
X0122530Y0011372D01*
X0079876Y0011970D02*
X0056220Y0011970D01*
X0100124Y0011970D02*
X0106210Y0011970D01*
X0110510Y0011970D02*
X0116290Y0011970D01*
X0120590Y0011970D02*
X0124157Y0011970D01*
X0080037Y0012569D02*
X0054868Y0012569D01*
X0099963Y0012569D02*
X0106210Y0012569D01*
X0110510Y0012569D02*
X0116290Y0012569D01*
X0120590Y0012569D02*
X0125401Y0012569D01*
X0080283Y0013167D02*
X0053516Y0013167D01*
X0099717Y0013167D02*
X0106210Y0013167D01*
X0110510Y0013167D02*
X0116290Y0013167D01*
X0120590Y0013167D02*
X0126549Y0013167D01*
X0080628Y0013766D02*
X0052164Y0013766D01*
X0099372Y0013766D02*
X0106210Y0013766D01*
X0110510Y0013766D02*
X0116290Y0013766D01*
X0120590Y0013766D02*
X0127696Y0013766D01*
X0080974Y0014364D02*
X0050812Y0014364D01*
X0099026Y0014364D02*
X0106210Y0014364D01*
X0110510Y0014364D02*
X0116290Y0014364D01*
X0120590Y0014364D02*
X0128843Y0014364D01*
X0081319Y0014963D02*
X0049765Y0014963D01*
X0098681Y0014963D02*
X0129990Y0014963D01*
X0081772Y0015561D02*
X0048778Y0015561D01*
X0098228Y0015561D02*
X0131137Y0015561D01*
X0082370Y0016160D02*
X0047791Y0016160D01*
X0097630Y0016160D02*
X0132285Y0016160D01*
X0082969Y0016758D02*
X0046803Y0016758D01*
X0097031Y0016758D02*
X0133432Y0016758D01*
X0083622Y0017357D02*
X0045816Y0017357D01*
X0096378Y0017357D02*
X0134475Y0017357D01*
X0084659Y0017955D02*
X0044829Y0017955D01*
X0095341Y0017955D02*
X0135333Y0017955D01*
X0085696Y0018554D02*
X0043841Y0018554D01*
X0094304Y0018554D02*
X0135700Y0018554D01*
X0087683Y0019152D02*
X0042854Y0019152D01*
X0092317Y0019152D02*
X0135700Y0019152D01*
X0135700Y0019751D02*
X0041867Y0019751D01*
X0040970Y0020349D02*
X0071354Y0020349D01*
X0128846Y0020349D02*
X0135700Y0020349D01*
X0071000Y0020948D02*
X0040219Y0020948D01*
X0129200Y0020948D02*
X0135700Y0020948D01*
X0071000Y0021546D02*
X0039469Y0021546D01*
X0129200Y0021546D02*
X0135700Y0021546D01*
X0071000Y0022145D02*
X0038718Y0022145D01*
X0129200Y0022145D02*
X0135700Y0022145D01*
X0071000Y0022743D02*
X0037968Y0022743D01*
X0073400Y0022743D02*
X0076200Y0022743D01*
X0129200Y0022743D02*
X0135700Y0022743D01*
X0069977Y0023342D02*
X0037217Y0023342D01*
X0074423Y0023342D02*
X0076001Y0023342D01*
X0129200Y0023342D02*
X0135700Y0023342D01*
X0059648Y0023940D02*
X0036467Y0023940D01*
X0074872Y0023940D02*
X0075971Y0023940D01*
X0129200Y0023940D02*
X0135700Y0023940D01*
X0059050Y0024539D02*
X0035716Y0024539D01*
X0074872Y0024539D02*
X0075971Y0024539D01*
X0129200Y0024539D02*
X0135700Y0024539D01*
X0058900Y0025137D02*
X0034966Y0025137D01*
X0074872Y0025137D02*
X0075971Y0025137D01*
X0129200Y0025137D02*
X0135700Y0025137D01*
X0058900Y0025736D02*
X0034215Y0025736D01*
X0074872Y0025736D02*
X0075971Y0025736D01*
X0129200Y0025736D02*
X0135700Y0025736D01*
X0058900Y0026334D02*
X0033465Y0026334D01*
X0074872Y0026334D02*
X0076288Y0026334D01*
X0129200Y0026334D02*
X0135700Y0026334D01*
X0059322Y0026933D02*
X0032715Y0026933D01*
X0074872Y0026933D02*
X0076005Y0026933D01*
X0129200Y0026933D02*
X0135700Y0026933D01*
X0059900Y0027532D02*
X0032136Y0027532D01*
X0074632Y0027532D02*
X0075676Y0027532D01*
X0129200Y0027532D02*
X0135700Y0027532D01*
X0059900Y0028130D02*
X0031556Y0028130D01*
X0062300Y0028130D02*
X0075676Y0028130D01*
X0129200Y0028130D02*
X0135700Y0028130D01*
X0059900Y0028729D02*
X0030977Y0028729D01*
X0062300Y0028729D02*
X0065948Y0028729D01*
X0129200Y0028729D02*
X0135700Y0028729D01*
X0059900Y0029327D02*
X0030397Y0029327D01*
X0062300Y0029327D02*
X0065350Y0029327D01*
X0129200Y0029327D02*
X0135700Y0029327D01*
X0059900Y0029926D02*
X0029817Y0029926D01*
X0062300Y0029926D02*
X0065050Y0029926D01*
X0129200Y0029926D02*
X0135700Y0029926D01*
X0059900Y0030524D02*
X0029238Y0030524D01*
X0062300Y0030524D02*
X0065050Y0030524D01*
X0129200Y0030524D02*
X0135700Y0030524D01*
X0059900Y0031123D02*
X0028658Y0031123D01*
X0062300Y0031123D02*
X0065050Y0031123D01*
X0129200Y0031123D02*
X0135700Y0031123D01*
X0059900Y0031721D02*
X0028078Y0031721D01*
X0062300Y0031721D02*
X0065198Y0031721D01*
X0129200Y0031721D02*
X0135700Y0031721D01*
X0059900Y0032320D02*
X0027499Y0032320D01*
X0062300Y0032320D02*
X0065796Y0032320D01*
X0119180Y0032320D02*
X0122520Y0032320D01*
X0129200Y0032320D02*
X0135700Y0032320D01*
X0059900Y0032918D02*
X0026919Y0032918D01*
X0062300Y0032918D02*
X0066395Y0032918D01*
X0068405Y0032918D02*
X0070037Y0032918D01*
X0074363Y0032918D02*
X0075676Y0032918D01*
X0119378Y0032918D02*
X0122422Y0032918D01*
X0129200Y0032918D02*
X0135700Y0032918D01*
X0059900Y0033517D02*
X0026340Y0033517D01*
X0062300Y0033517D02*
X0075676Y0033517D01*
X0119378Y0033517D02*
X0122422Y0033517D01*
X0129200Y0033517D02*
X0135700Y0033517D01*
X0059900Y0034115D02*
X0025760Y0034115D01*
X0062300Y0034115D02*
X0075853Y0034115D01*
X0119378Y0034115D02*
X0122422Y0034115D01*
X0129200Y0034115D02*
X0135700Y0034115D01*
X0059900Y0034714D02*
X0025180Y0034714D01*
X0068811Y0034714D02*
X0081558Y0034714D01*
X0119378Y0034714D02*
X0122422Y0034714D01*
X0128758Y0034714D02*
X0135700Y0034714D01*
X0059900Y0035312D02*
X0024721Y0035312D01*
X0069409Y0035312D02*
X0081089Y0035312D01*
X0119575Y0035312D02*
X0122193Y0035312D01*
X0127055Y0035312D02*
X0135700Y0035312D01*
X0059900Y0035911D02*
X0024274Y0035911D01*
X0069500Y0035911D02*
X0081089Y0035911D01*
X0120012Y0035911D02*
X0121756Y0035911D01*
X0127493Y0035911D02*
X0135700Y0035911D01*
X0060012Y0036509D02*
X0023827Y0036509D01*
X0069500Y0036509D02*
X0081089Y0036509D01*
X0120012Y0036509D02*
X0121756Y0036509D01*
X0127493Y0036509D02*
X0135700Y0036509D01*
X0048469Y0037108D02*
X0023381Y0037108D01*
X0051531Y0037108D02*
X0054882Y0037108D01*
X0057968Y0037108D02*
X0058032Y0037108D01*
X0069500Y0037108D02*
X0081089Y0037108D01*
X0120012Y0037108D02*
X0121756Y0037108D01*
X0127493Y0037108D02*
X0135700Y0037108D01*
X0047870Y0037706D02*
X0022934Y0037706D01*
X0052130Y0037706D02*
X0054541Y0037706D01*
X0069500Y0037706D02*
X0081089Y0037706D01*
X0120012Y0037706D02*
X0121756Y0037706D01*
X0127493Y0037706D02*
X0135700Y0037706D01*
X0047650Y0038305D02*
X0022487Y0038305D01*
X0052350Y0038305D02*
X0053235Y0038305D01*
X0069500Y0038305D02*
X0070035Y0038305D01*
X0074565Y0038305D02*
X0075385Y0038305D01*
X0078265Y0038305D02*
X0081122Y0038305D01*
X0120012Y0038305D02*
X0121756Y0038305D01*
X0127493Y0038305D02*
X0135700Y0038305D01*
X0047650Y0038903D02*
X0022041Y0038903D01*
X0052350Y0038903D02*
X0052837Y0038903D01*
X0069500Y0038903D02*
X0070022Y0038903D01*
X0074578Y0038903D02*
X0074941Y0038903D01*
X0078709Y0038903D02*
X0081122Y0038903D01*
X0120012Y0038903D02*
X0121756Y0038903D01*
X0127493Y0038903D02*
X0135700Y0038903D01*
X0047650Y0039502D02*
X0021594Y0039502D01*
X0052350Y0039502D02*
X0052837Y0039502D01*
X0069500Y0039502D02*
X0070022Y0039502D01*
X0074578Y0039502D02*
X0074941Y0039502D01*
X0078709Y0039502D02*
X0081122Y0039502D01*
X0120012Y0039502D02*
X0121756Y0039502D01*
X0127493Y0039502D02*
X0135700Y0039502D01*
X0028050Y0040100D02*
X0021147Y0040100D01*
X0044897Y0040100D02*
X0047877Y0040100D01*
X0052123Y0040100D02*
X0052837Y0040100D01*
X0069500Y0040100D02*
X0070022Y0040100D01*
X0074578Y0040100D02*
X0074941Y0040100D01*
X0078709Y0040100D02*
X0081122Y0040100D01*
X0120012Y0040100D02*
X0121756Y0040100D01*
X0127493Y0040100D02*
X0135700Y0040100D01*
X0027847Y0040699D02*
X0020701Y0040699D01*
X0045100Y0040699D02*
X0047900Y0040699D01*
X0052100Y0040699D02*
X0052837Y0040699D01*
X0069500Y0040699D02*
X0070022Y0040699D01*
X0074578Y0040699D02*
X0074941Y0040699D01*
X0078709Y0040699D02*
X0081239Y0040699D01*
X0120012Y0040699D02*
X0121756Y0040699D01*
X0127493Y0040699D02*
X0135700Y0040699D01*
X0026928Y0041297D02*
X0020254Y0041297D01*
X0047742Y0041297D02*
X0047900Y0041297D01*
X0052100Y0041297D02*
X0052458Y0041297D01*
X0069500Y0041297D02*
X0070287Y0041297D01*
X0074313Y0041297D02*
X0074941Y0041297D01*
X0078709Y0041297D02*
X0081122Y0041297D01*
X0120012Y0041297D02*
X0121756Y0041297D01*
X0127493Y0041297D02*
X0135700Y0041297D01*
X0026572Y0041896D02*
X0019807Y0041896D01*
X0069500Y0041896D02*
X0070281Y0041896D01*
X0074319Y0041896D02*
X0074941Y0041896D01*
X0078709Y0041896D02*
X0081122Y0041896D01*
X0120012Y0041896D02*
X0121756Y0041896D01*
X0127493Y0041896D02*
X0135700Y0041896D01*
X0026572Y0042494D02*
X0019361Y0042494D01*
X0069500Y0042494D02*
X0069950Y0042494D01*
X0074650Y0042494D02*
X0075185Y0042494D01*
X0078466Y0042494D02*
X0081122Y0042494D01*
X0119525Y0042494D02*
X0122243Y0042494D01*
X0127005Y0042494D02*
X0135700Y0042494D01*
X0026572Y0043093D02*
X0018914Y0043093D01*
X0069500Y0043093D02*
X0069950Y0043093D01*
X0074650Y0043093D02*
X0075625Y0043093D01*
X0078025Y0043093D02*
X0081122Y0043093D01*
X0118300Y0043093D02*
X0135700Y0043093D01*
X0026572Y0043691D02*
X0018499Y0043691D01*
X0069500Y0043691D02*
X0069950Y0043691D01*
X0074650Y0043691D02*
X0075625Y0043691D01*
X0078025Y0043691D02*
X0081122Y0043691D01*
X0118006Y0043691D02*
X0135700Y0043691D01*
X0026572Y0044290D02*
X0018162Y0044290D01*
X0069500Y0044290D02*
X0070066Y0044290D01*
X0074534Y0044290D02*
X0075625Y0044290D01*
X0078025Y0044290D02*
X0085579Y0044290D01*
X0111646Y0044290D02*
X0118137Y0044290D01*
X0123631Y0044290D02*
X0135700Y0044290D01*
X0026062Y0044888D02*
X0017824Y0044888D01*
X0069500Y0044888D02*
X0070665Y0044888D01*
X0073935Y0044888D02*
X0075625Y0044888D01*
X0111729Y0044888D02*
X0118016Y0044888D01*
X0123753Y0044888D02*
X0135700Y0044888D01*
X0025463Y0045487D02*
X0017487Y0045487D01*
X0069500Y0045487D02*
X0071263Y0045487D01*
X0073337Y0045487D02*
X0075625Y0045487D01*
X0117697Y0045487D02*
X0118016Y0045487D01*
X0123753Y0045487D02*
X0135700Y0045487D01*
X0024865Y0046085D02*
X0017150Y0046085D01*
X0069500Y0046085D02*
X0075714Y0046085D01*
X0117959Y0046085D02*
X0118016Y0046085D01*
X0123753Y0046085D02*
X0124805Y0046085D01*
X0129195Y0046085D02*
X0135700Y0046085D01*
X0024266Y0046684D02*
X0016813Y0046684D01*
X0069500Y0046684D02*
X0076312Y0046684D01*
X0089513Y0046684D02*
X0090000Y0046684D01*
X0129278Y0046684D02*
X0135700Y0046684D01*
X0023668Y0047282D02*
X0016476Y0047282D01*
X0069500Y0047282D02*
X0078357Y0047282D01*
X0081592Y0047282D02*
X0090000Y0047282D01*
X0129278Y0047282D02*
X0135700Y0047282D01*
X0023069Y0047881D02*
X0016139Y0047881D01*
X0069500Y0047881D02*
X0078091Y0047881D01*
X0081859Y0047881D02*
X0090000Y0047881D01*
X0129278Y0047881D02*
X0135700Y0047881D01*
X0022547Y0048479D02*
X0015802Y0048479D01*
X0069500Y0048479D02*
X0078091Y0048479D01*
X0087676Y0048479D02*
X0090000Y0048479D01*
X0129278Y0048479D02*
X0135700Y0048479D01*
X0022547Y0049078D02*
X0015465Y0049078D01*
X0069500Y0049078D02*
X0078091Y0049078D01*
X0088000Y0049078D02*
X0090000Y0049078D01*
X0117959Y0049078D02*
X0118016Y0049078D01*
X0123753Y0049078D02*
X0124918Y0049078D01*
X0129082Y0049078D02*
X0131799Y0049078D01*
X0134001Y0049078D02*
X0135700Y0049078D01*
X0022547Y0049676D02*
X0015128Y0049676D01*
X0069500Y0049676D02*
X0078091Y0049676D01*
X0088000Y0049676D02*
X0090000Y0049676D01*
X0117886Y0049676D02*
X0118016Y0049676D01*
X0123753Y0049676D02*
X0124722Y0049676D01*
X0134600Y0049676D02*
X0135700Y0049676D01*
X0022547Y0050275D02*
X0014791Y0050275D01*
X0041900Y0050275D02*
X0048041Y0050275D01*
X0052241Y0050275D02*
X0054059Y0050275D01*
X0069500Y0050275D02*
X0078091Y0050275D01*
X0088000Y0050275D02*
X0090000Y0050275D01*
X0117959Y0050275D02*
X0118016Y0050275D01*
X0123753Y0050275D02*
X0124722Y0050275D01*
X0135198Y0050275D02*
X0135700Y0050275D01*
X0022547Y0050873D02*
X0014454Y0050873D01*
X0041900Y0050873D02*
X0048041Y0050873D01*
X0052241Y0050873D02*
X0053263Y0050873D01*
X0069500Y0050873D02*
X0078091Y0050873D01*
X0088000Y0050873D02*
X0090000Y0050873D01*
X0117959Y0050873D02*
X0118221Y0050873D01*
X0123548Y0050873D02*
X0124722Y0050873D01*
X0135250Y0050873D02*
X0135700Y0050873D01*
X0021272Y0051472D02*
X0014117Y0051472D01*
X0041900Y0051472D02*
X0044917Y0051472D01*
X0052419Y0051472D02*
X0052981Y0051472D01*
X0069500Y0051472D02*
X0078512Y0051472D01*
X0088000Y0051472D02*
X0090000Y0051472D01*
X0117959Y0051472D02*
X0124722Y0051472D01*
X0135250Y0051472D02*
X0135700Y0051472D01*
X0021272Y0052070D02*
X0013780Y0052070D01*
X0041900Y0052070D02*
X0044318Y0052070D01*
X0052419Y0052070D02*
X0052981Y0052070D01*
X0069500Y0052070D02*
X0079981Y0052070D01*
X0088000Y0052070D02*
X0090000Y0052070D01*
X0117959Y0052070D02*
X0124761Y0052070D01*
X0129239Y0052070D02*
X0130550Y0052070D01*
X0135250Y0052070D02*
X0135700Y0052070D01*
X0021272Y0052669D02*
X0013443Y0052669D01*
X0041900Y0052669D02*
X0044000Y0052669D01*
X0052419Y0052669D02*
X0052981Y0052669D01*
X0069500Y0052669D02*
X0079981Y0052669D01*
X0088000Y0052669D02*
X0090000Y0052669D01*
X0117959Y0052669D02*
X0130946Y0052669D01*
X0134854Y0052669D02*
X0135700Y0052669D01*
X0021272Y0053268D02*
X0013143Y0053268D01*
X0041900Y0053268D02*
X0044000Y0053268D01*
X0052419Y0053268D02*
X0052981Y0053268D01*
X0069500Y0053268D02*
X0079981Y0053268D01*
X0088000Y0053268D02*
X0090000Y0053268D01*
X0117942Y0053268D02*
X0131544Y0053268D01*
X0134256Y0053268D02*
X0135700Y0053268D01*
X0021272Y0053866D02*
X0012900Y0053866D01*
X0041900Y0053866D02*
X0044000Y0053866D01*
X0052419Y0053866D02*
X0052981Y0053866D01*
X0069500Y0053866D02*
X0079981Y0053866D01*
X0088000Y0053866D02*
X0090000Y0053866D01*
X0117275Y0053866D02*
X0135700Y0053866D01*
X0021272Y0054465D02*
X0012658Y0054465D01*
X0041900Y0054465D02*
X0044253Y0054465D01*
X0052419Y0054465D02*
X0052981Y0054465D01*
X0069500Y0054465D02*
X0079981Y0054465D01*
X0088000Y0054465D02*
X0090000Y0054465D01*
X0117275Y0054465D02*
X0135700Y0054465D01*
X0021272Y0055063D02*
X0012416Y0055063D01*
X0041900Y0055063D02*
X0044852Y0055063D01*
X0052419Y0055063D02*
X0052981Y0055063D01*
X0069500Y0055063D02*
X0079981Y0055063D01*
X0088000Y0055063D02*
X0090000Y0055063D01*
X0117275Y0055063D02*
X0135700Y0055063D01*
X0021586Y0055662D02*
X0012173Y0055662D01*
X0042473Y0055662D02*
X0048080Y0055662D01*
X0052202Y0055662D02*
X0053198Y0055662D01*
X0069500Y0055662D02*
X0079981Y0055662D01*
X0088000Y0055662D02*
X0090465Y0055662D01*
X0127759Y0055662D02*
X0135700Y0055662D01*
X0019143Y0056260D02*
X0011931Y0056260D01*
X0042900Y0056260D02*
X0054059Y0056260D01*
X0069500Y0056260D02*
X0079981Y0056260D01*
X0088000Y0056260D02*
X0088502Y0056260D01*
X0128357Y0056260D02*
X0135700Y0056260D01*
X0018900Y0056859D02*
X0011689Y0056859D01*
X0042900Y0056859D02*
X0054059Y0056859D01*
X0069500Y0056859D02*
X0080307Y0056859D01*
X0088000Y0056859D02*
X0088302Y0056859D01*
X0128400Y0056859D02*
X0135700Y0056859D01*
X0018900Y0057457D02*
X0011446Y0057457D01*
X0042900Y0057457D02*
X0053304Y0057457D01*
X0069500Y0057457D02*
X0081100Y0057457D01*
X0088000Y0057457D02*
X0088302Y0057457D01*
X0128400Y0057457D02*
X0135700Y0057457D01*
X0018900Y0058056D02*
X0011204Y0058056D01*
X0042756Y0058056D02*
X0051859Y0058056D01*
X0069041Y0058056D02*
X0081100Y0058056D01*
X0088000Y0058056D02*
X0088302Y0058056D01*
X0128400Y0058056D02*
X0135700Y0058056D01*
X0018900Y0058654D02*
X0010962Y0058654D01*
X0021300Y0058654D02*
X0039243Y0058654D01*
X0042157Y0058654D02*
X0051124Y0058654D01*
X0059676Y0058654D02*
X0081100Y0058654D01*
X0088000Y0058654D02*
X0088302Y0058654D01*
X0128400Y0058654D02*
X0135700Y0058654D01*
X0018900Y0059253D02*
X0010719Y0059253D01*
X0021300Y0059253D02*
X0050526Y0059253D01*
X0060274Y0059253D02*
X0067850Y0059253D01*
X0088000Y0059253D02*
X0088302Y0059253D01*
X0128400Y0059253D02*
X0135700Y0059253D01*
X0018900Y0059851D02*
X0010477Y0059851D01*
X0021300Y0059851D02*
X0044094Y0059851D01*
X0046706Y0059851D02*
X0049927Y0059851D01*
X0060873Y0059851D02*
X0067400Y0059851D01*
X0088000Y0059851D02*
X0088302Y0059851D01*
X0128400Y0059851D02*
X0135700Y0059851D01*
X0018900Y0060450D02*
X0010235Y0060450D01*
X0021300Y0060450D02*
X0042884Y0060450D01*
X0047916Y0060450D02*
X0049577Y0060450D01*
X0061223Y0060450D02*
X0067400Y0060450D01*
X0088000Y0060450D02*
X0088302Y0060450D01*
X0128400Y0060450D02*
X0135700Y0060450D01*
X0018900Y0061048D02*
X0009993Y0061048D01*
X0021300Y0061048D02*
X0042286Y0061048D01*
X0048514Y0061048D02*
X0049329Y0061048D01*
X0061471Y0061048D02*
X0067400Y0061048D01*
X0128400Y0061048D02*
X0135700Y0061048D01*
X0018900Y0061647D02*
X0009750Y0061647D01*
X0021300Y0061647D02*
X0041802Y0061647D01*
X0048998Y0061647D02*
X0049081Y0061647D01*
X0061719Y0061647D02*
X0067400Y0061647D01*
X0128400Y0061647D02*
X0135700Y0061647D01*
X0018900Y0062245D02*
X0009508Y0062245D01*
X0021300Y0062245D02*
X0041554Y0062245D01*
X0061967Y0062245D02*
X0067400Y0062245D01*
X0128400Y0062245D02*
X0135700Y0062245D01*
X0018900Y0062844D02*
X0009266Y0062844D01*
X0021300Y0062844D02*
X0041306Y0062844D01*
X0062062Y0062844D02*
X0067400Y0062844D01*
X0100700Y0062844D02*
X0109713Y0062844D01*
X0128400Y0062844D02*
X0135700Y0062844D01*
X0018900Y0063442D02*
X0009065Y0063442D01*
X0021300Y0063442D02*
X0041252Y0063442D01*
X0062062Y0063442D02*
X0067400Y0063442D01*
X0100700Y0063442D02*
X0109713Y0063442D01*
X0128400Y0063442D02*
X0135700Y0063442D01*
X0018900Y0064041D02*
X0008908Y0064041D01*
X0021300Y0064041D02*
X0041252Y0064041D01*
X0062062Y0064041D02*
X0067400Y0064041D01*
X0100700Y0064041D02*
X0109713Y0064041D01*
X0128400Y0064041D02*
X0135700Y0064041D01*
X0018900Y0064639D02*
X0008751Y0064639D01*
X0021300Y0064639D02*
X0041258Y0064639D01*
X0062062Y0064639D02*
X0067400Y0064639D01*
X0100700Y0064639D02*
X0109713Y0064639D01*
X0128400Y0064639D02*
X0135700Y0064639D01*
X0018900Y0065238D02*
X0008594Y0065238D01*
X0021300Y0065238D02*
X0041506Y0065238D01*
X0062016Y0065238D02*
X0067400Y0065238D01*
X0100700Y0065238D02*
X0109713Y0065238D01*
X0128400Y0065238D02*
X0135700Y0065238D01*
X0018900Y0065836D02*
X0008437Y0065836D01*
X0021300Y0065836D02*
X0041754Y0065836D01*
X0061768Y0065836D02*
X0067400Y0065836D01*
X0100700Y0065836D02*
X0109713Y0065836D01*
X0128400Y0065836D02*
X0135700Y0065836D01*
X0018900Y0066435D02*
X0008280Y0066435D01*
X0021300Y0066435D02*
X0042169Y0066435D01*
X0048631Y0066435D02*
X0049280Y0066435D01*
X0061520Y0066435D02*
X0067400Y0066435D01*
X0100700Y0066435D02*
X0109713Y0066435D01*
X0128400Y0066435D02*
X0135700Y0066435D01*
X0018670Y0067033D02*
X0008123Y0067033D01*
X0021300Y0067033D02*
X0042767Y0067033D01*
X0048033Y0067033D02*
X0049528Y0067033D01*
X0061272Y0067033D02*
X0067400Y0067033D01*
X0100700Y0067033D02*
X0109713Y0067033D01*
X0128400Y0067033D02*
X0135700Y0067033D01*
X0018071Y0067632D02*
X0007966Y0067632D01*
X0021300Y0067632D02*
X0043811Y0067632D01*
X0046989Y0067632D02*
X0049810Y0067632D01*
X0060990Y0067632D02*
X0067400Y0067632D01*
X0100700Y0067632D02*
X0109713Y0067632D01*
X0128400Y0067632D02*
X0135700Y0067632D01*
X0017473Y0068230D02*
X0007809Y0068230D01*
X0020867Y0068230D02*
X0044200Y0068230D01*
X0046600Y0068230D02*
X0050409Y0068230D01*
X0060391Y0068230D02*
X0067400Y0068230D01*
X0100700Y0068230D02*
X0109713Y0068230D01*
X0128400Y0068230D02*
X0135700Y0068230D01*
X0016874Y0068829D02*
X0007652Y0068829D01*
X0020268Y0068829D02*
X0044200Y0068829D01*
X0046600Y0068829D02*
X0051007Y0068829D01*
X0059793Y0068829D02*
X0067400Y0068829D01*
X0100700Y0068829D02*
X0109713Y0068829D01*
X0128400Y0068829D02*
X0135700Y0068829D01*
X0016276Y0069427D02*
X0007495Y0069427D01*
X0019670Y0069427D02*
X0044200Y0069427D01*
X0046600Y0069427D02*
X0051606Y0069427D01*
X0059194Y0069427D02*
X0067400Y0069427D01*
X0100700Y0069427D02*
X0109713Y0069427D01*
X0128400Y0069427D02*
X0135700Y0069427D01*
X0015677Y0070026D02*
X0007338Y0070026D01*
X0019071Y0070026D02*
X0044200Y0070026D01*
X0046600Y0070026D02*
X0053021Y0070026D01*
X0057779Y0070026D02*
X0067400Y0070026D01*
X0100700Y0070026D02*
X0109713Y0070026D01*
X0128400Y0070026D02*
X0135700Y0070026D01*
X0015079Y0070624D02*
X0007181Y0070624D01*
X0018473Y0070624D02*
X0044200Y0070624D01*
X0046600Y0070624D02*
X0067400Y0070624D01*
X0100700Y0070624D02*
X0109713Y0070624D01*
X0128400Y0070624D02*
X0135700Y0070624D01*
X0014480Y0071223D02*
X0007024Y0071223D01*
X0017874Y0071223D02*
X0044200Y0071223D01*
X0046600Y0071223D02*
X0067400Y0071223D01*
X0100700Y0071223D02*
X0109713Y0071223D01*
X0128400Y0071223D02*
X0135700Y0071223D01*
X0013882Y0071821D02*
X0006867Y0071821D01*
X0017276Y0071821D02*
X0044200Y0071821D01*
X0046600Y0071821D02*
X0067400Y0071821D01*
X0100476Y0071821D02*
X0109713Y0071821D01*
X0128400Y0071821D02*
X0135700Y0071821D01*
X0013283Y0072420D02*
X0006710Y0072420D01*
X0016677Y0072420D02*
X0044200Y0072420D01*
X0046600Y0072420D02*
X0067400Y0072420D01*
X0095317Y0072420D02*
X0109713Y0072420D01*
X0128400Y0072420D02*
X0135700Y0072420D01*
X0012685Y0073018D02*
X0006553Y0073018D01*
X0016079Y0073018D02*
X0044200Y0073018D01*
X0046600Y0073018D02*
X0067400Y0073018D01*
X0095700Y0073018D02*
X0109713Y0073018D01*
X0128400Y0073018D02*
X0135700Y0073018D01*
X0012086Y0073617D02*
X0006396Y0073617D01*
X0015480Y0073617D02*
X0044200Y0073617D01*
X0046600Y0073617D02*
X0067400Y0073617D01*
X0095700Y0073617D02*
X0109713Y0073617D01*
X0128400Y0073617D02*
X0135700Y0073617D01*
X0011488Y0074215D02*
X0006306Y0074215D01*
X0014882Y0074215D02*
X0044200Y0074215D01*
X0046600Y0074215D02*
X0067400Y0074215D01*
X0095700Y0074215D02*
X0109713Y0074215D01*
X0128400Y0074215D02*
X0135700Y0074215D01*
X0010889Y0074814D02*
X0006229Y0074814D01*
X0014283Y0074814D02*
X0044200Y0074814D01*
X0046600Y0074814D02*
X0067400Y0074814D01*
X0095700Y0074814D02*
X0109900Y0074814D01*
X0128400Y0074814D02*
X0135700Y0074814D01*
X0010291Y0075412D02*
X0006152Y0075412D01*
X0013685Y0075412D02*
X0044200Y0075412D01*
X0046600Y0075412D02*
X0067400Y0075412D01*
X0095700Y0075412D02*
X0109900Y0075412D01*
X0128400Y0075412D02*
X0135700Y0075412D01*
X0009692Y0076011D02*
X0006075Y0076011D01*
X0013086Y0076011D02*
X0044200Y0076011D01*
X0046600Y0076011D02*
X0067400Y0076011D01*
X0095700Y0076011D02*
X0109900Y0076011D01*
X0128400Y0076011D02*
X0135700Y0076011D01*
X0009093Y0076609D02*
X0005998Y0076609D01*
X0012488Y0076609D02*
X0044200Y0076609D01*
X0046600Y0076609D02*
X0067400Y0076609D01*
X0095700Y0076609D02*
X0109900Y0076609D01*
X0128400Y0076609D02*
X0135700Y0076609D01*
X0008495Y0077208D02*
X0005921Y0077208D01*
X0011889Y0077208D02*
X0044200Y0077208D01*
X0046600Y0077208D02*
X0067400Y0077208D01*
X0095700Y0077208D02*
X0109900Y0077208D01*
X0128400Y0077208D02*
X0135700Y0077208D01*
X0007896Y0077806D02*
X0005843Y0077806D01*
X0011291Y0077806D02*
X0044200Y0077806D01*
X0046600Y0077806D02*
X0067400Y0077806D01*
X0095700Y0077806D02*
X0109713Y0077806D01*
X0128400Y0077806D02*
X0135700Y0077806D01*
X0007298Y0078405D02*
X0005766Y0078405D01*
X0010692Y0078405D02*
X0044200Y0078405D01*
X0046600Y0078405D02*
X0067400Y0078405D01*
X0095700Y0078405D02*
X0109713Y0078405D01*
X0128400Y0078405D02*
X0135700Y0078405D01*
X0007200Y0079003D02*
X0005689Y0079003D01*
X0010094Y0079003D02*
X0044200Y0079003D01*
X0046600Y0079003D02*
X0067400Y0079003D01*
X0095700Y0079003D02*
X0109713Y0079003D01*
X0128400Y0079003D02*
X0135700Y0079003D01*
X0007200Y0079602D02*
X0005612Y0079602D01*
X0009600Y0079602D02*
X0044200Y0079602D01*
X0046600Y0079602D02*
X0067400Y0079602D01*
X0095700Y0079602D02*
X0109713Y0079602D01*
X0128400Y0079602D02*
X0135700Y0079602D01*
X0007200Y0080201D02*
X0005535Y0080201D01*
X0009600Y0080201D02*
X0044200Y0080201D01*
X0046600Y0080201D02*
X0067400Y0080201D01*
X0095700Y0080201D02*
X0109713Y0080201D01*
X0128400Y0080201D02*
X0135700Y0080201D01*
X0007200Y0080799D02*
X0005458Y0080799D01*
X0009600Y0080799D02*
X0044200Y0080799D01*
X0046600Y0080799D02*
X0067400Y0080799D01*
X0095700Y0080799D02*
X0109713Y0080799D01*
X0128400Y0080799D02*
X0135700Y0080799D01*
X0007200Y0081398D02*
X0005380Y0081398D01*
X0009600Y0081398D02*
X0044200Y0081398D01*
X0046600Y0081398D02*
X0067400Y0081398D01*
X0077500Y0081398D02*
X0088013Y0081398D01*
X0095700Y0081398D02*
X0109713Y0081398D01*
X0128400Y0081398D02*
X0135700Y0081398D01*
X0007200Y0081996D02*
X0005303Y0081996D01*
X0009600Y0081996D02*
X0044200Y0081996D01*
X0046600Y0081996D02*
X0067400Y0081996D01*
X0077500Y0081996D02*
X0088013Y0081996D01*
X0095700Y0081996D02*
X0109713Y0081996D01*
X0128400Y0081996D02*
X0135700Y0081996D01*
X0007200Y0082595D02*
X0005226Y0082595D01*
X0009600Y0082595D02*
X0044200Y0082595D01*
X0046600Y0082595D02*
X0067400Y0082595D01*
X0077500Y0082595D02*
X0088013Y0082595D01*
X0095402Y0082595D02*
X0109713Y0082595D01*
X0128400Y0082595D02*
X0135700Y0082595D01*
X0007200Y0083193D02*
X0005149Y0083193D01*
X0009600Y0083193D02*
X0044200Y0083193D01*
X0046600Y0083193D02*
X0067400Y0083193D01*
X0077500Y0083193D02*
X0082700Y0083193D01*
X0097300Y0083193D02*
X0109713Y0083193D01*
X0128400Y0083193D02*
X0135700Y0083193D01*
X0007200Y0083792D02*
X0005072Y0083792D01*
X0009600Y0083792D02*
X0044200Y0083792D01*
X0046600Y0083792D02*
X0067400Y0083792D01*
X0097300Y0083792D02*
X0109713Y0083792D01*
X0128400Y0083792D02*
X0135700Y0083792D01*
X0007200Y0084390D02*
X0004995Y0084390D01*
X0009600Y0084390D02*
X0044200Y0084390D01*
X0046600Y0084390D02*
X0067400Y0084390D01*
X0097300Y0084390D02*
X0109713Y0084390D01*
X0128400Y0084390D02*
X0135700Y0084390D01*
X0007200Y0084989D02*
X0004975Y0084989D01*
X0009600Y0084989D02*
X0044200Y0084989D01*
X0046600Y0084989D02*
X0067400Y0084989D01*
X0097300Y0084989D02*
X0109713Y0084989D01*
X0128400Y0084989D02*
X0135700Y0084989D01*
X0007200Y0085587D02*
X0004975Y0085587D01*
X0009600Y0085587D02*
X0044200Y0085587D01*
X0046600Y0085587D02*
X0067400Y0085587D01*
X0097300Y0085587D02*
X0109713Y0085587D01*
X0128400Y0085587D02*
X0135700Y0085587D01*
X0007200Y0086186D02*
X0004975Y0086186D01*
X0009600Y0086186D02*
X0044200Y0086186D01*
X0046600Y0086186D02*
X0067400Y0086186D01*
X0097300Y0086186D02*
X0109713Y0086186D01*
X0128400Y0086186D02*
X0135700Y0086186D01*
X0007200Y0086784D02*
X0004975Y0086784D01*
X0009600Y0086784D02*
X0044200Y0086784D01*
X0046600Y0086784D02*
X0067400Y0086784D01*
X0097300Y0086784D02*
X0109713Y0086784D01*
X0128400Y0086784D02*
X0135700Y0086784D01*
X0007200Y0087383D02*
X0004975Y0087383D01*
X0009600Y0087383D02*
X0044200Y0087383D01*
X0046600Y0087383D02*
X0067400Y0087383D01*
X0097300Y0087383D02*
X0098157Y0087383D01*
X0101843Y0087383D02*
X0109713Y0087383D01*
X0128400Y0087383D02*
X0135700Y0087383D01*
X0007200Y0087981D02*
X0004975Y0087981D01*
X0009600Y0087981D02*
X0044200Y0087981D01*
X0046600Y0087981D02*
X0067400Y0087981D01*
X0097300Y0087981D02*
X0097722Y0087981D01*
X0102278Y0087981D02*
X0109713Y0087981D01*
X0128400Y0087981D02*
X0135700Y0087981D01*
X0007200Y0088580D02*
X0004975Y0088580D01*
X0009600Y0088580D02*
X0044200Y0088580D01*
X0046600Y0088580D02*
X0067400Y0088580D01*
X0097300Y0088580D02*
X0097722Y0088580D01*
X0102278Y0088580D02*
X0109713Y0088580D01*
X0128400Y0088580D02*
X0135700Y0088580D01*
X0007200Y0089178D02*
X0004975Y0089178D01*
X0009600Y0089178D02*
X0044200Y0089178D01*
X0046600Y0089178D02*
X0067400Y0089178D01*
X0097300Y0089178D02*
X0097722Y0089178D01*
X0102278Y0089178D02*
X0109713Y0089178D01*
X0128400Y0089178D02*
X0135700Y0089178D01*
X0007200Y0089777D02*
X0004975Y0089777D01*
X0009600Y0089777D02*
X0044200Y0089777D01*
X0046600Y0089777D02*
X0067400Y0089777D01*
X0097300Y0089777D02*
X0097722Y0089777D01*
X0102278Y0089777D02*
X0109713Y0089777D01*
X0128400Y0089777D02*
X0135700Y0089777D01*
X0007200Y0090375D02*
X0004975Y0090375D01*
X0009600Y0090375D02*
X0044200Y0090375D01*
X0046600Y0090375D02*
X0067400Y0090375D01*
X0097300Y0090375D02*
X0097722Y0090375D01*
X0102278Y0090375D02*
X0109835Y0090375D01*
X0128400Y0090375D02*
X0135700Y0090375D01*
X0007200Y0090974D02*
X0004975Y0090974D01*
X0009600Y0090974D02*
X0044200Y0090974D01*
X0046600Y0090974D02*
X0067400Y0090974D01*
X0097300Y0090974D02*
X0098164Y0090974D01*
X0101836Y0090974D02*
X0110177Y0090974D01*
X0128123Y0090974D02*
X0135700Y0090974D01*
X0007200Y0091572D02*
X0004975Y0091572D01*
X0009600Y0091572D02*
X0044200Y0091572D01*
X0046600Y0091572D02*
X0067400Y0091572D01*
X0097300Y0091572D02*
X0098800Y0091572D01*
X0101200Y0091572D02*
X0135700Y0091572D01*
X0007200Y0092171D02*
X0004975Y0092171D01*
X0009600Y0092171D02*
X0044200Y0092171D01*
X0046600Y0092171D02*
X0067400Y0092171D01*
X0097300Y0092171D02*
X0098406Y0092171D01*
X0101594Y0092171D02*
X0135700Y0092171D01*
X0007200Y0092769D02*
X0004975Y0092769D01*
X0009600Y0092769D02*
X0044200Y0092769D01*
X0046600Y0092769D02*
X0067400Y0092769D01*
X0079000Y0092769D02*
X0082700Y0092769D01*
X0102193Y0092769D02*
X0135700Y0092769D01*
X0007200Y0093368D02*
X0004975Y0093368D01*
X0009600Y0093368D02*
X0044200Y0093368D01*
X0046600Y0093368D02*
X0067400Y0093368D01*
X0079000Y0093368D02*
X0082700Y0093368D01*
X0102350Y0093368D02*
X0135700Y0093368D01*
X0007200Y0093966D02*
X0004975Y0093966D01*
X0009600Y0093966D02*
X0044200Y0093966D01*
X0046600Y0093966D02*
X0067400Y0093966D01*
X0079000Y0093966D02*
X0082700Y0093966D01*
X0102350Y0093966D02*
X0135700Y0093966D01*
X0007200Y0094565D02*
X0004975Y0094565D01*
X0009600Y0094565D02*
X0044200Y0094565D01*
X0046600Y0094565D02*
X0067400Y0094565D01*
X0079000Y0094565D02*
X0082700Y0094565D01*
X0102350Y0094565D02*
X0135700Y0094565D01*
X0007200Y0095163D02*
X0004975Y0095163D01*
X0009600Y0095163D02*
X0044200Y0095163D01*
X0046600Y0095163D02*
X0067400Y0095163D01*
X0079000Y0095163D02*
X0082700Y0095163D01*
X0102060Y0095163D02*
X0135700Y0095163D01*
X0007200Y0095762D02*
X0005014Y0095762D01*
X0009600Y0095762D02*
X0044200Y0095762D01*
X0046600Y0095762D02*
X0067400Y0095762D01*
X0079000Y0095762D02*
X0082700Y0095762D01*
X0101462Y0095762D02*
X0135700Y0095762D01*
X0007200Y0096360D02*
X0005091Y0096360D01*
X0009600Y0096360D02*
X0044200Y0096360D01*
X0046600Y0096360D02*
X0067400Y0096360D01*
X0079000Y0096360D02*
X0082700Y0096360D01*
X0101200Y0096360D02*
X0135700Y0096360D01*
X0007200Y0096959D02*
X0005168Y0096959D01*
X0009600Y0096959D02*
X0044200Y0096959D01*
X0046600Y0096959D02*
X0067400Y0096959D01*
X0079000Y0096959D02*
X0082700Y0096959D01*
X0101200Y0096959D02*
X0135700Y0096959D01*
X0007200Y0097557D02*
X0005246Y0097557D01*
X0009600Y0097557D02*
X0013062Y0097557D01*
X0017738Y0097557D02*
X0044200Y0097557D01*
X0046600Y0097557D02*
X0067400Y0097557D01*
X0079000Y0097557D02*
X0084863Y0097557D01*
X0101200Y0097557D02*
X0135700Y0097557D01*
X0007200Y0098156D02*
X0005323Y0098156D01*
X0009600Y0098156D02*
X0011622Y0098156D01*
X0019178Y0098156D02*
X0044200Y0098156D01*
X0046600Y0098156D02*
X0067400Y0098156D01*
X0079000Y0098156D02*
X0084863Y0098156D01*
X0101141Y0098156D02*
X0135700Y0098156D01*
X0007200Y0098754D02*
X0005400Y0098754D01*
X0009600Y0098754D02*
X0011024Y0098754D01*
X0019776Y0098754D02*
X0044200Y0098754D01*
X0046600Y0098754D02*
X0067400Y0098754D01*
X0079000Y0098754D02*
X0084863Y0098754D01*
X0129351Y0098754D02*
X0135700Y0098754D01*
X0007200Y0099353D02*
X0005477Y0099353D01*
X0009600Y0099353D02*
X0010425Y0099353D01*
X0020375Y0099353D02*
X0044200Y0099353D01*
X0046600Y0099353D02*
X0067400Y0099353D01*
X0079000Y0099353D02*
X0084863Y0099353D01*
X0129700Y0099353D02*
X0135700Y0099353D01*
X0007200Y0099951D02*
X0005554Y0099951D01*
X0009600Y0099951D02*
X0009827Y0099951D01*
X0020973Y0099951D02*
X0044200Y0099951D01*
X0046600Y0099951D02*
X0067400Y0099951D01*
X0079000Y0099951D02*
X0084863Y0099951D01*
X0129700Y0099951D02*
X0135700Y0099951D01*
X0007200Y0100550D02*
X0005631Y0100550D01*
X0021265Y0100550D02*
X0023652Y0100550D01*
X0027148Y0100550D02*
X0044200Y0100550D01*
X0046600Y0100550D02*
X0067400Y0100550D01*
X0079000Y0100550D02*
X0084863Y0100550D01*
X0129700Y0100550D02*
X0135700Y0100550D01*
X0007200Y0101148D02*
X0005709Y0101148D01*
X0021513Y0101148D02*
X0022859Y0101148D01*
X0027941Y0101148D02*
X0044200Y0101148D01*
X0046600Y0101148D02*
X0067400Y0101148D01*
X0079000Y0101148D02*
X0084863Y0101148D01*
X0129700Y0101148D02*
X0135700Y0101148D01*
X0007200Y0101747D02*
X0005786Y0101747D01*
X0021761Y0101747D02*
X0022276Y0101747D01*
X0028524Y0101747D02*
X0044200Y0101747D01*
X0046600Y0101747D02*
X0067400Y0101747D01*
X0079000Y0101747D02*
X0084863Y0101747D01*
X0129700Y0101747D02*
X0135700Y0101747D01*
X0007200Y0102345D02*
X0005863Y0102345D01*
X0022009Y0102345D02*
X0022028Y0102345D01*
X0028772Y0102345D02*
X0044200Y0102345D01*
X0079000Y0102345D02*
X0084863Y0102345D01*
X0129700Y0102345D02*
X0135700Y0102345D01*
X0007200Y0102944D02*
X0005940Y0102944D01*
X0029020Y0102944D02*
X0044200Y0102944D01*
X0079000Y0102944D02*
X0084863Y0102944D01*
X0129700Y0102944D02*
X0135700Y0102944D01*
X0007200Y0103542D02*
X0006017Y0103542D01*
X0029072Y0103542D02*
X0044245Y0103542D01*
X0079000Y0103542D02*
X0084863Y0103542D01*
X0129700Y0103542D02*
X0135700Y0103542D01*
X0007200Y0104141D02*
X0006094Y0104141D01*
X0029072Y0104141D02*
X0040962Y0104141D01*
X0079000Y0104141D02*
X0084863Y0104141D01*
X0129700Y0104141D02*
X0135700Y0104141D01*
X0007200Y0104739D02*
X0006172Y0104739D01*
X0028985Y0104739D02*
X0040500Y0104739D01*
X0129700Y0104739D02*
X0135700Y0104739D01*
X0007200Y0105338D02*
X0006249Y0105338D01*
X0021974Y0105338D02*
X0022063Y0105338D01*
X0028737Y0105338D02*
X0040500Y0105338D01*
X0129700Y0105338D02*
X0135700Y0105338D01*
X0007200Y0105937D02*
X0006326Y0105937D01*
X0021726Y0105937D02*
X0022344Y0105937D01*
X0028456Y0105937D02*
X0040500Y0105937D01*
X0129700Y0105937D02*
X0135700Y0105937D01*
X0007200Y0106535D02*
X0006436Y0106535D01*
X0021478Y0106535D02*
X0022943Y0106535D01*
X0027857Y0106535D02*
X0040500Y0106535D01*
X0042900Y0106535D02*
X0045500Y0106535D01*
X0129700Y0106535D02*
X0135700Y0106535D01*
X0007200Y0107134D02*
X0006593Y0107134D01*
X0021230Y0107134D02*
X0023853Y0107134D01*
X0026947Y0107134D02*
X0040500Y0107134D01*
X0042900Y0107134D02*
X0045500Y0107134D01*
X0129700Y0107134D02*
X0135700Y0107134D01*
X0007200Y0107732D02*
X0006750Y0107732D01*
X0009829Y0107732D02*
X0009910Y0107732D01*
X0020890Y0107732D02*
X0040500Y0107732D01*
X0042900Y0107732D02*
X0045500Y0107732D01*
X0129700Y0107732D02*
X0135700Y0107732D01*
X0007200Y0108331D02*
X0006907Y0108331D01*
X0010428Y0108331D02*
X0010509Y0108331D01*
X0020291Y0108331D02*
X0040500Y0108331D01*
X0042900Y0108331D02*
X0045500Y0108331D01*
X0047900Y0108331D02*
X0050500Y0108331D01*
X0129700Y0108331D02*
X0135700Y0108331D01*
X0007632Y0108929D02*
X0007064Y0108929D01*
X0011026Y0108929D02*
X0011107Y0108929D01*
X0019693Y0108929D02*
X0040188Y0108929D01*
X0043212Y0108929D02*
X0045188Y0108929D01*
X0048212Y0108929D02*
X0050188Y0108929D01*
X0129700Y0108929D02*
X0135700Y0108929D01*
X0008231Y0109528D02*
X0007221Y0109528D01*
X0011625Y0109528D02*
X0011818Y0109528D01*
X0018982Y0109528D02*
X0039816Y0109528D01*
X0043584Y0109528D02*
X0044816Y0109528D01*
X0048584Y0109528D02*
X0049816Y0109528D01*
X0129700Y0109528D02*
X0135700Y0109528D01*
X0008829Y0110126D02*
X0007378Y0110126D01*
X0012223Y0110126D02*
X0013263Y0110126D01*
X0017537Y0110126D02*
X0039816Y0110126D01*
X0043584Y0110126D02*
X0044816Y0110126D01*
X0048584Y0110126D02*
X0049816Y0110126D01*
X0053584Y0110126D02*
X0054816Y0110126D01*
X0129700Y0110126D02*
X0135700Y0110126D01*
X0009428Y0110725D02*
X0007535Y0110725D01*
X0012822Y0110725D02*
X0039816Y0110725D01*
X0043584Y0110725D02*
X0044816Y0110725D01*
X0048584Y0110725D02*
X0049816Y0110725D01*
X0053584Y0110725D02*
X0054816Y0110725D01*
X0129700Y0110725D02*
X0135700Y0110725D01*
X0010026Y0111323D02*
X0007692Y0111323D01*
X0013420Y0111323D02*
X0039816Y0111323D01*
X0043584Y0111323D02*
X0044816Y0111323D01*
X0048584Y0111323D02*
X0049816Y0111323D01*
X0053584Y0111323D02*
X0054816Y0111323D01*
X0129700Y0111323D02*
X0135700Y0111323D01*
X0010625Y0111922D02*
X0007849Y0111922D01*
X0014019Y0111922D02*
X0039816Y0111922D01*
X0043584Y0111922D02*
X0044816Y0111922D01*
X0048584Y0111922D02*
X0049816Y0111922D01*
X0053584Y0111922D02*
X0054816Y0111922D01*
X0129700Y0111922D02*
X0135700Y0111922D01*
X0011223Y0112520D02*
X0008006Y0112520D01*
X0014617Y0112520D02*
X0039816Y0112520D01*
X0043584Y0112520D02*
X0044816Y0112520D01*
X0048584Y0112520D02*
X0049816Y0112520D01*
X0053584Y0112520D02*
X0054816Y0112520D01*
X0129700Y0112520D02*
X0135700Y0112520D01*
X0011822Y0113119D02*
X0008163Y0113119D01*
X0015216Y0113119D02*
X0039935Y0113119D01*
X0043465Y0113119D02*
X0044935Y0113119D01*
X0048465Y0113119D02*
X0049935Y0113119D01*
X0053465Y0113119D02*
X0054935Y0113119D01*
X0129700Y0113119D02*
X0135700Y0113119D01*
X0012420Y0113717D02*
X0008320Y0113717D01*
X0015814Y0113717D02*
X0057100Y0113717D01*
X0129700Y0113717D02*
X0135700Y0113717D01*
X0013019Y0114316D02*
X0008477Y0114316D01*
X0016413Y0114316D02*
X0057100Y0114316D01*
X0129700Y0114316D02*
X0135700Y0114316D01*
X0013617Y0114914D02*
X0008634Y0114914D01*
X0017011Y0114914D02*
X0057403Y0114914D01*
X0061197Y0114914D02*
X0061200Y0114914D01*
X0129700Y0114914D02*
X0135700Y0114914D01*
X0014216Y0115513D02*
X0008790Y0115513D01*
X0017610Y0115513D02*
X0058001Y0115513D01*
X0060599Y0115513D02*
X0061200Y0115513D01*
X0129700Y0115513D02*
X0135700Y0115513D01*
X0014814Y0116111D02*
X0008947Y0116111D01*
X0018208Y0116111D02*
X0061200Y0116111D01*
X0078622Y0116111D02*
X0102020Y0116111D01*
X0129700Y0116111D02*
X0135700Y0116111D01*
X0015413Y0116710D02*
X0009104Y0116710D01*
X0018807Y0116710D02*
X0061200Y0116710D01*
X0079100Y0116710D02*
X0102020Y0116710D01*
X0129700Y0116710D02*
X0135700Y0116710D01*
X0016011Y0117308D02*
X0009327Y0117308D01*
X0019405Y0117308D02*
X0029180Y0117308D01*
X0031219Y0117308D02*
X0061200Y0117308D01*
X0079100Y0117308D02*
X0102020Y0117308D01*
X0129700Y0117308D02*
X0132768Y0117308D01*
X0135032Y0117308D02*
X0135700Y0117308D01*
X0016610Y0117907D02*
X0009569Y0117907D01*
X0020004Y0117907D02*
X0028582Y0117907D01*
X0031818Y0117907D02*
X0061200Y0117907D01*
X0079100Y0117907D02*
X0102020Y0117907D01*
X0129700Y0117907D02*
X0132170Y0117907D01*
X0135630Y0117907D02*
X0135700Y0117907D01*
X0017208Y0118505D02*
X0009812Y0118505D01*
X0032400Y0118505D02*
X0061200Y0118505D01*
X0079006Y0118505D02*
X0097562Y0118505D01*
X0129700Y0118505D02*
X0131571Y0118505D01*
X0017807Y0119104D02*
X0010054Y0119104D01*
X0032400Y0119104D02*
X0061200Y0119104D01*
X0075059Y0119104D02*
X0075392Y0119104D01*
X0078408Y0119104D02*
X0097295Y0119104D01*
X0129700Y0119104D02*
X0131550Y0119104D01*
X0018405Y0119702D02*
X0010296Y0119702D01*
X0032400Y0119702D02*
X0039975Y0119702D01*
X0058425Y0119702D02*
X0061200Y0119702D01*
X0074959Y0119702D02*
X0097295Y0119702D01*
X0129700Y0119702D02*
X0131550Y0119702D01*
X0019004Y0120301D02*
X0010539Y0120301D01*
X0032400Y0120301D02*
X0039850Y0120301D01*
X0058550Y0120301D02*
X0061200Y0120301D01*
X0129496Y0120301D02*
X0131550Y0120301D01*
X0028588Y0120899D02*
X0010781Y0120899D01*
X0031812Y0120899D02*
X0039850Y0120899D01*
X0058550Y0120899D02*
X0061200Y0120899D01*
X0130023Y0120899D02*
X0130477Y0120899D01*
X0029187Y0121498D02*
X0011023Y0121498D01*
X0031213Y0121498D02*
X0039850Y0121498D01*
X0058550Y0121498D02*
X0061200Y0121498D01*
X0039850Y0122096D02*
X0011266Y0122096D01*
X0058550Y0122096D02*
X0061200Y0122096D01*
X0039850Y0122695D02*
X0011508Y0122695D01*
X0058550Y0122695D02*
X0061200Y0122695D01*
X0039850Y0123293D02*
X0011750Y0123293D01*
X0058550Y0123293D02*
X0061200Y0123293D01*
X0039850Y0123892D02*
X0011992Y0123892D01*
X0058550Y0123892D02*
X0061200Y0123892D01*
X0039850Y0124490D02*
X0012235Y0124490D01*
X0058550Y0124490D02*
X0061200Y0124490D01*
X0039850Y0125089D02*
X0012477Y0125089D01*
X0058550Y0125089D02*
X0061200Y0125089D01*
X0039850Y0125687D02*
X0012719Y0125687D01*
X0058550Y0125687D02*
X0061200Y0125687D01*
X0039850Y0126286D02*
X0012962Y0126286D01*
X0058550Y0126286D02*
X0061200Y0126286D01*
X0039850Y0126884D02*
X0013204Y0126884D01*
X0058550Y0126884D02*
X0061200Y0126884D01*
X0039850Y0127483D02*
X0013528Y0127483D01*
X0058550Y0127483D02*
X0061200Y0127483D01*
X0039850Y0128081D02*
X0013865Y0128081D01*
X0058550Y0128081D02*
X0061372Y0128081D01*
X0039850Y0128680D02*
X0014202Y0128680D01*
X0058550Y0128680D02*
X0061400Y0128680D01*
X0039850Y0129278D02*
X0014539Y0129278D01*
X0058550Y0129278D02*
X0061400Y0129278D01*
X0039850Y0129877D02*
X0014876Y0129877D01*
X0058550Y0129877D02*
X0061400Y0129877D01*
X0039850Y0130475D02*
X0015213Y0130475D01*
X0058550Y0130475D02*
X0061400Y0130475D01*
X0039850Y0131074D02*
X0015551Y0131074D01*
X0058550Y0131074D02*
X0061400Y0131074D01*
X0039850Y0131672D02*
X0015888Y0131672D01*
X0058550Y0131672D02*
X0061400Y0131672D01*
X0039850Y0132271D02*
X0016225Y0132271D01*
X0058550Y0132271D02*
X0061400Y0132271D01*
X0039850Y0132870D02*
X0016562Y0132870D01*
X0058550Y0132870D02*
X0061400Y0132870D01*
X0039850Y0133468D02*
X0016899Y0133468D01*
X0058550Y0133468D02*
X0061400Y0133468D01*
X0039944Y0134067D02*
X0017236Y0134067D01*
X0058456Y0134067D02*
X0061400Y0134067D01*
X0061400Y0134665D02*
X0017573Y0134665D01*
X0017910Y0135264D02*
X0061400Y0135264D01*
X0061400Y0135862D02*
X0018247Y0135862D01*
X0018584Y0136461D02*
X0061400Y0136461D01*
X0061400Y0137059D02*
X0019027Y0137059D01*
X0120355Y0137059D02*
X0122400Y0137059D01*
X0061400Y0137658D02*
X0019474Y0137658D01*
X0120325Y0137658D02*
X0122400Y0137658D01*
X0061400Y0138256D02*
X0019921Y0138256D01*
X0093778Y0138256D02*
X0102020Y0138256D01*
X0120355Y0138256D02*
X0122400Y0138256D01*
X0061400Y0138855D02*
X0020367Y0138855D01*
X0093606Y0138855D02*
X0102020Y0138855D01*
X0120355Y0138855D02*
X0122400Y0138855D01*
X0061400Y0139453D02*
X0020814Y0139453D01*
X0093778Y0139453D02*
X0102020Y0139453D01*
X0120355Y0139453D02*
X0122250Y0139453D01*
X0061400Y0140052D02*
X0021261Y0140052D01*
X0093778Y0140052D02*
X0102020Y0140052D01*
X0120355Y0140052D02*
X0121651Y0140052D01*
X0044966Y0140650D02*
X0021707Y0140650D01*
X0048434Y0140650D02*
X0049966Y0140650D01*
X0053434Y0140650D02*
X0054966Y0140650D01*
X0058434Y0140650D02*
X0061400Y0140650D01*
X0093778Y0140650D02*
X0098053Y0140650D01*
X0120355Y0140650D02*
X0121053Y0140650D01*
X0044816Y0141249D02*
X0022154Y0141249D01*
X0048584Y0141249D02*
X0049816Y0141249D01*
X0053584Y0141249D02*
X0054816Y0141249D01*
X0058584Y0141249D02*
X0061400Y0141249D01*
X0093778Y0141249D02*
X0095998Y0141249D01*
X0119884Y0141249D02*
X0120500Y0141249D01*
X0044816Y0141847D02*
X0022601Y0141847D01*
X0048584Y0141847D02*
X0049816Y0141847D01*
X0053584Y0141847D02*
X0054816Y0141847D01*
X0088947Y0141847D02*
X0089237Y0141847D01*
X0093763Y0141847D02*
X0095635Y0141847D01*
X0118209Y0141847D02*
X0120500Y0141847D01*
X0044816Y0142446D02*
X0023048Y0142446D01*
X0048584Y0142446D02*
X0049816Y0142446D01*
X0053584Y0142446D02*
X0054816Y0142446D01*
X0084378Y0142446D02*
X0095635Y0142446D01*
X0118209Y0142446D02*
X0120500Y0142446D01*
X0044816Y0143044D02*
X0023494Y0143044D01*
X0048584Y0143044D02*
X0049816Y0143044D01*
X0053584Y0143044D02*
X0054816Y0143044D01*
X0083131Y0143044D02*
X0095635Y0143044D01*
X0118209Y0143044D02*
X0120500Y0143044D01*
X0044816Y0143643D02*
X0023941Y0143643D01*
X0048584Y0143643D02*
X0049816Y0143643D01*
X0053584Y0143643D02*
X0054816Y0143643D01*
X0083131Y0143643D02*
X0095635Y0143643D01*
X0118209Y0143643D02*
X0120500Y0143643D01*
X0044816Y0144241D02*
X0024388Y0144241D01*
X0048584Y0144241D02*
X0049816Y0144241D01*
X0083131Y0144241D02*
X0095635Y0144241D01*
X0113962Y0144241D02*
X0114130Y0144241D01*
X0118209Y0144241D02*
X0120500Y0144241D01*
X0045156Y0144840D02*
X0024834Y0144840D01*
X0048244Y0144840D02*
X0050156Y0144840D01*
X0083131Y0144840D02*
X0095635Y0144840D01*
X0113962Y0144840D02*
X0114630Y0144840D01*
X0118020Y0144840D02*
X0120500Y0144840D01*
X0045500Y0145438D02*
X0025327Y0145438D01*
X0047900Y0145438D02*
X0050500Y0145438D01*
X0083131Y0145438D02*
X0095635Y0145438D01*
X0113962Y0145438D02*
X0119128Y0145438D01*
X0045500Y0146037D02*
X0025907Y0146037D01*
X0083131Y0146037D02*
X0095635Y0146037D01*
X0113962Y0146037D02*
X0115153Y0146037D01*
X0045500Y0146635D02*
X0026487Y0146635D01*
X0083131Y0146635D02*
X0095975Y0146635D01*
X0113962Y0146635D02*
X0114822Y0146635D01*
X0045500Y0147234D02*
X0027066Y0147234D01*
X0083131Y0147234D02*
X0100622Y0147234D01*
X0113962Y0147234D02*
X0114822Y0147234D01*
X0046035Y0147832D02*
X0027646Y0147832D01*
X0066365Y0147832D02*
X0066600Y0147832D01*
X0083131Y0147832D02*
X0096108Y0147832D01*
X0113962Y0147832D02*
X0114822Y0147832D01*
X0064058Y0148431D02*
X0028226Y0148431D01*
X0066542Y0148431D02*
X0066600Y0148431D01*
X0085954Y0148431D02*
X0088528Y0148431D01*
X0093872Y0148431D02*
X0095635Y0148431D01*
X0113962Y0148431D02*
X0114822Y0148431D01*
X0063459Y0149029D02*
X0028805Y0149029D01*
X0076441Y0149029D02*
X0082247Y0149029D01*
X0093872Y0149029D02*
X0095635Y0149029D01*
X0113962Y0149029D02*
X0114822Y0149029D01*
X0063100Y0149628D02*
X0029385Y0149628D01*
X0076700Y0149628D02*
X0082050Y0149628D01*
X0093872Y0149628D02*
X0095635Y0149628D01*
X0113962Y0149628D02*
X0114822Y0149628D01*
X0063100Y0150226D02*
X0029964Y0150226D01*
X0076700Y0150226D02*
X0082050Y0150226D01*
X0093872Y0150226D02*
X0095635Y0150226D01*
X0113962Y0150226D02*
X0114822Y0150226D01*
X0063100Y0150825D02*
X0030544Y0150825D01*
X0069000Y0150825D02*
X0069828Y0150825D01*
X0076700Y0150825D02*
X0080052Y0150825D01*
X0093872Y0150825D02*
X0095635Y0150825D01*
X0113962Y0150825D02*
X0114822Y0150825D01*
X0063312Y0151423D02*
X0031124Y0151423D01*
X0069000Y0151423D02*
X0072612Y0151423D01*
X0076388Y0151423D02*
X0079453Y0151423D01*
X0093872Y0151423D02*
X0095635Y0151423D01*
X0113962Y0151423D02*
X0114822Y0151423D01*
X0134478Y0151423D02*
X0135700Y0151423D01*
X0063911Y0152022D02*
X0031703Y0152022D01*
X0069000Y0152022D02*
X0073211Y0152022D01*
X0075789Y0152022D02*
X0079250Y0152022D01*
X0093760Y0152022D02*
X0095635Y0152022D01*
X0113962Y0152022D02*
X0114822Y0152022D01*
X0134478Y0152022D02*
X0135700Y0152022D01*
X0064100Y0152620D02*
X0032283Y0152620D01*
X0078617Y0152620D02*
X0079250Y0152620D01*
X0094217Y0152620D02*
X0095635Y0152620D01*
X0113962Y0152620D02*
X0115211Y0152620D01*
X0124416Y0152620D02*
X0124423Y0152620D01*
X0134478Y0152620D02*
X0135700Y0152620D01*
X0052464Y0153219D02*
X0032905Y0153219D01*
X0056136Y0153219D02*
X0064100Y0153219D01*
X0079100Y0153219D02*
X0079250Y0153219D01*
X0094816Y0153219D02*
X0095866Y0153219D01*
X0107800Y0153219D02*
X0108413Y0153219D01*
X0113962Y0153219D02*
X0115870Y0153219D01*
X0124416Y0153219D02*
X0124584Y0153219D01*
X0134478Y0153219D02*
X0135700Y0153219D01*
X0050230Y0153817D02*
X0033655Y0153817D01*
X0058370Y0153817D02*
X0064100Y0153817D01*
X0079100Y0153817D02*
X0079494Y0153817D01*
X0083706Y0153817D02*
X0092020Y0153817D01*
X0097041Y0153817D02*
X0097620Y0153817D01*
X0107680Y0153817D02*
X0108413Y0153817D01*
X0113962Y0153817D02*
X0115271Y0153817D01*
X0124416Y0153817D02*
X0124584Y0153817D01*
X0134292Y0153817D02*
X0135700Y0153817D01*
X0049182Y0154416D02*
X0034406Y0154416D01*
X0059418Y0154416D02*
X0064100Y0154416D01*
X0079100Y0154416D02*
X0080093Y0154416D01*
X0083107Y0154416D02*
X0092619Y0154416D01*
X0097639Y0154416D02*
X0108413Y0154416D01*
X0113962Y0154416D02*
X0114900Y0154416D01*
X0124310Y0154416D02*
X0124690Y0154416D01*
X0130018Y0154416D02*
X0135700Y0154416D01*
X0048145Y0155014D02*
X0035156Y0155014D01*
X0060455Y0155014D02*
X0064100Y0155014D01*
X0079100Y0155014D02*
X0093217Y0155014D01*
X0098150Y0155014D02*
X0108413Y0155014D01*
X0113962Y0155014D02*
X0114900Y0155014D01*
X0122846Y0155014D02*
X0135700Y0155014D01*
X0047398Y0155613D02*
X0035907Y0155613D01*
X0061202Y0155613D02*
X0064100Y0155613D01*
X0079100Y0155613D02*
X0093450Y0155613D01*
X0098150Y0155613D02*
X0108413Y0155613D01*
X0113962Y0155613D02*
X0114900Y0155613D01*
X0122830Y0155613D02*
X0135700Y0155613D01*
X0046799Y0156211D02*
X0036657Y0156211D01*
X0061801Y0156211D02*
X0064100Y0156211D01*
X0079100Y0156211D02*
X0093450Y0156211D01*
X0098150Y0156211D02*
X0108413Y0156211D01*
X0113962Y0156211D02*
X0115100Y0156211D01*
X0122231Y0156211D02*
X0135700Y0156211D01*
X0046200Y0156810D02*
X0037408Y0156810D01*
X0062400Y0156810D02*
X0064100Y0156810D01*
X0079100Y0156810D02*
X0093450Y0156810D01*
X0098150Y0156810D02*
X0108413Y0156810D01*
X0113962Y0156810D02*
X0115699Y0156810D01*
X0118501Y0156810D02*
X0135700Y0156810D01*
X0045693Y0157408D02*
X0038158Y0157408D01*
X0062906Y0157408D02*
X0064100Y0157408D01*
X0079100Y0157408D02*
X0093985Y0157408D01*
X0097615Y0157408D02*
X0108413Y0157408D01*
X0113962Y0157408D02*
X0135700Y0157408D01*
X0045348Y0158007D02*
X0038909Y0158007D01*
X0063252Y0158007D02*
X0064100Y0158007D01*
X0079100Y0158007D02*
X0094584Y0158007D01*
X0097016Y0158007D02*
X0108413Y0158007D01*
X0113962Y0158007D02*
X0135700Y0158007D01*
X0045002Y0158605D02*
X0039659Y0158605D01*
X0063598Y0158605D02*
X0064100Y0158605D01*
X0079100Y0158605D02*
X0108413Y0158605D01*
X0113962Y0158605D02*
X0135700Y0158605D01*
X0044657Y0159204D02*
X0040410Y0159204D01*
X0063943Y0159204D02*
X0064100Y0159204D01*
X0083131Y0159204D02*
X0108413Y0159204D01*
X0113962Y0159204D02*
X0135700Y0159204D01*
X0044371Y0159803D02*
X0041160Y0159803D01*
X0064229Y0159803D02*
X0064480Y0159803D01*
X0083131Y0159803D02*
X0108413Y0159803D01*
X0113962Y0159803D02*
X0135700Y0159803D01*
X0044211Y0160401D02*
X0042117Y0160401D01*
X0064389Y0160401D02*
X0068241Y0160401D01*
X0083131Y0160401D02*
X0108413Y0160401D01*
X0113962Y0160401D02*
X0135700Y0160401D01*
X0044050Y0161000D02*
X0043105Y0161000D01*
X0064550Y0161000D02*
X0068122Y0161000D01*
X0083131Y0161000D02*
X0108413Y0161000D01*
X0113962Y0161000D02*
X0135700Y0161000D01*
X0068122Y0161598D02*
X0064710Y0161598D01*
X0083131Y0161598D02*
X0108413Y0161598D01*
X0113962Y0161598D02*
X0135700Y0161598D01*
X0068122Y0162197D02*
X0064870Y0162197D01*
X0083131Y0162197D02*
X0108413Y0162197D01*
X0113962Y0162197D02*
X0135115Y0162197D01*
X0068122Y0162795D02*
X0064899Y0162795D01*
X0083131Y0162795D02*
X0094241Y0162795D01*
X0101159Y0162795D02*
X0108413Y0162795D01*
X0113962Y0162795D02*
X0134257Y0162795D01*
X0068122Y0163394D02*
X0064899Y0163394D01*
X0083131Y0163394D02*
X0087736Y0163394D01*
X0113962Y0163394D02*
X0133141Y0163394D01*
X0072669Y0163992D02*
X0064899Y0163992D01*
X0083131Y0163992D02*
X0087138Y0163992D01*
X0113962Y0163992D02*
X0131993Y0163992D01*
X0072669Y0164591D02*
X0064899Y0164591D01*
X0083131Y0164591D02*
X0087127Y0164591D01*
X0113962Y0164591D02*
X0130846Y0164591D01*
X0072859Y0165189D02*
X0064874Y0165189D01*
X0082941Y0165189D02*
X0087127Y0165189D01*
X0113962Y0165189D02*
X0129699Y0165189D01*
X0087127Y0165788D02*
X0064714Y0165788D01*
X0113962Y0165788D02*
X0128552Y0165788D01*
X0086723Y0166386D02*
X0064553Y0166386D01*
X0113962Y0166386D02*
X0127405Y0166386D01*
X0086541Y0166985D02*
X0064393Y0166985D01*
X0113962Y0166985D02*
X0126257Y0166985D01*
X0086541Y0167583D02*
X0064233Y0167583D01*
X0113962Y0167583D02*
X0125110Y0167583D01*
X0086541Y0168182D02*
X0063951Y0168182D01*
X0113962Y0168182D02*
X0123744Y0168182D01*
X0086541Y0168780D02*
X0063606Y0168780D01*
X0113962Y0168780D02*
X0122117Y0168780D01*
X0086834Y0169379D02*
X0063260Y0169379D01*
X0089819Y0169379D02*
X0090181Y0169379D01*
X0113962Y0169379D02*
X0120491Y0169379D01*
X0089887Y0169977D02*
X0062915Y0169977D01*
X0113962Y0169977D02*
X0118865Y0169977D01*
X0089887Y0170576D02*
X0062658Y0170576D01*
X0113962Y0170576D02*
X0117238Y0170576D01*
X0089887Y0171174D02*
X0064674Y0171174D01*
X0113585Y0171174D02*
X0115612Y0171174D01*
X0089887Y0171773D02*
X0066691Y0171773D01*
X0101159Y0171773D02*
X0113829Y0171773D01*
X0089887Y0172371D02*
X0068708Y0172371D01*
X0101159Y0172371D02*
X0111207Y0172371D01*
X0094241Y0172970D02*
X0070724Y0172970D01*
X0101159Y0172970D02*
X0108584Y0172970D01*
X0094658Y0173568D02*
X0074161Y0173568D01*
X0097592Y0173568D02*
X0097808Y0173568D01*
X0100741Y0173568D02*
X0105962Y0173568D01*
X0102987Y0174167D02*
X0077863Y0174167D01*
X0081565Y0174765D02*
X0096783Y0174765D01*
X0084685Y0093937D02*
X0084685Y0094315D01*
X0080300Y0099000D01*
X0100000Y0086025D02*
X0100000Y0082600D01*
X0100000Y0086063D02*
X0095315Y0086063D01*
X0087638Y0084685D02*
X0087638Y0081600D01*
X0079800Y0082300D01*
X0082580Y0036506D02*
X0082580Y0039225D01*
X0083400Y0039225D01*
X0104888Y0116980D02*
X0104888Y0113100D01*
X0070100Y0113100D01*
X0070100Y0069600D01*
X0082700Y0069600D01*
X0082700Y0065609D01*
X0082653Y0065609D01*
X0108860Y0047501D02*
X0108860Y0047500D01*
X0112925Y0047500D01*
X0112925Y0051500D02*
X0097282Y0051500D01*
X0097282Y0049385D01*
X0118440Y0024900D02*
X0118440Y0022500D01*
X0098700Y0022500D01*
X0097282Y0022500D01*
X0097282Y0049385D02*
X0097282Y0043700D01*
X0096100Y0043700D01*
X0096100Y0022500D01*
X0097282Y0022500D01*
X0117144Y0038878D02*
X0117144Y0033875D01*
X0117100Y0033875D01*
X0117100Y0042900D01*
X0102100Y0042900D01*
X0108360Y0024900D02*
X0102100Y0024900D01*
X0102100Y0042900D01*
X0120884Y0047540D02*
X0127000Y0047540D01*
X0127000Y0047525D01*
X0120884Y0047540D02*
X0116075Y0047540D01*
X0116075Y0047500D01*
X0116075Y0051500D01*
X0082580Y0024694D02*
X0082580Y0022800D01*
X0091900Y0022800D01*
X0091900Y0034200D01*
X0091200Y0034200D01*
X0091200Y0054700D01*
X0116075Y0054700D01*
X0116075Y0051500D01*
X0124700Y0030625D02*
X0124700Y0030725D01*
X0117100Y0030725D01*
X0105120Y0038052D02*
X0105120Y0030725D01*
X0117100Y0030725D01*
X0046700Y0142650D02*
X0046700Y0146800D01*
X0065700Y0146800D01*
X0065700Y0132137D01*
X0099180Y0132137D01*
X0051700Y0142650D02*
X0051700Y0145300D01*
X0064100Y0145300D01*
X0064100Y0130562D01*
X0099180Y0130562D01*
X0056700Y0142650D02*
X0062600Y0142650D01*
X0062600Y0128987D01*
X0099180Y0128987D01*
X0099180Y0121113D02*
X0073075Y0121113D01*
X0073075Y0121000D01*
X0051700Y0111150D02*
X0051700Y0108400D01*
X0062400Y0108400D01*
X0062400Y0127413D01*
X0099180Y0127413D01*
X0046700Y0111150D02*
X0046700Y0106700D01*
X0063900Y0106700D01*
X0063900Y0125838D01*
X0099180Y0125838D01*
X0041700Y0111150D02*
X0041700Y0105100D01*
X0065400Y0105100D01*
X0065400Y0124263D01*
X0099180Y0124263D01*
X0090775Y0077400D02*
X0090787Y0080600D01*
X0090787Y0084685D01*
X0091673Y0167827D02*
X0091673Y0167900D01*
X0096125Y0167900D01*
X0088327Y0167827D02*
X0088327Y0164500D01*
X0096125Y0164500D01*
X0091673Y0171173D02*
X0091673Y0171200D01*
X0096125Y0171400D02*
X0091900Y0171400D01*
X0091673Y0171173D01*
X0099275Y0171400D02*
X0100375Y0170300D01*
X0112762Y0170300D01*
X0112762Y0139420D01*
X0109613Y0139420D02*
X0109613Y0164500D01*
X0099275Y0164500D01*
X0111187Y0139420D02*
X0111187Y0167900D01*
X0099275Y0167900D01*
X0099180Y0135287D02*
X0077900Y0135287D01*
X0077900Y0145532D01*
X0070900Y0145532D01*
X0070900Y0145525D01*
X0099180Y0133712D02*
X0075800Y0133712D01*
X0075800Y0141300D01*
X0067800Y0141300D01*
X0067800Y0153600D01*
X0077900Y0153600D01*
X0077900Y0162068D01*
X0070400Y0162068D01*
X0070400Y0162075D01*
X0069925Y0121000D02*
X0070025Y0121000D01*
X0070025Y0117500D01*
X0067100Y0117500D01*
X0067100Y0103000D01*
X0045400Y0103000D01*
X0045400Y0063800D01*
D40*
X0112400Y0130200D03*
X0108400Y0126200D03*
X0112400Y0126200D03*
D41*
X0112400Y0128987D02*
X0112400Y0130200D01*
X0110400Y0130200D01*
X0106463Y0139420D02*
X0106463Y0132237D01*
X0108400Y0130300D01*
X0050100Y0045600D02*
X0050000Y0038750D01*
X0119100Y0116941D02*
X0119061Y0116980D01*
X0088327Y0167827D02*
X0088259Y0167827D01*
D42*
X0108400Y0130300D03*
D43*
X0121620Y0128987D02*
X0113613Y0128987D01*
X0113545Y0128989D01*
X0113477Y0128995D01*
X0113410Y0129004D01*
X0113343Y0129017D01*
X0113277Y0129034D01*
X0113212Y0129055D01*
X0113149Y0129079D01*
X0113087Y0129107D01*
X0113026Y0129138D01*
X0112968Y0129173D01*
X0112911Y0129211D01*
X0112857Y0129252D01*
X0112805Y0129296D01*
X0112755Y0129342D01*
X0112709Y0129392D01*
X0112665Y0129444D01*
X0112624Y0129498D01*
X0112586Y0129555D01*
X0112551Y0129613D01*
X0112520Y0129674D01*
X0112492Y0129736D01*
X0112468Y0129799D01*
X0112447Y0129864D01*
X0112430Y0129930D01*
X0112417Y0129997D01*
X0112408Y0130064D01*
X0112402Y0130132D01*
X0112400Y0130200D01*
D44*
X0081300Y0030600D02*
X0072259Y0030600D01*
X0072246Y0030601D01*
X0072233Y0030606D01*
X0072222Y0030613D01*
X0072213Y0030622D01*
X0072206Y0030633D01*
X0072201Y0030646D01*
X0072200Y0030659D01*
X0067459Y0030659D01*
X0081300Y0030600D02*
X0087000Y0030600D01*
X0089100Y0030600D01*
X0050000Y0038750D02*
X0050000Y0042600D01*
X0050141Y0053300D02*
X0046200Y0053300D01*
X0050100Y0045600D02*
X0050141Y0045600D01*
X0050141Y0053300D01*
X0127475Y0126600D02*
X0130525Y0126600D01*
X0061100Y0025600D02*
X0061159Y0025541D01*
X0072200Y0025541D01*
X0133675Y0126600D02*
X0138000Y0126600D01*
D45*
X0067400Y0030600D03*
X0089100Y0030600D03*
X0072300Y0043200D03*
X0050000Y0038900D03*
X0065300Y0044800D03*
X0094100Y0045700D03*
X0099600Y0042300D03*
X0084500Y0077300D03*
X0080700Y0087500D03*
X0100000Y0093900D03*
X0132900Y0051300D03*
X0084400Y0150200D03*
X0103000Y0150800D03*
X0130500Y0132400D03*
X0131900Y0122800D03*
X0133900Y0119500D03*
X0128700Y0122900D03*
X0072300Y0065600D03*
X0083000Y0140500D03*
X0132400Y0144500D03*
X0081600Y0152600D03*
X0095800Y0155900D03*
X0121600Y0107200D03*
X0121000Y0103100D03*
X0080300Y0099000D03*
X0079800Y0082300D03*
X0100000Y0082600D03*
D46*
X0115900Y0142900D03*
X0117100Y0155100D03*
X0086800Y0062400D03*
X0086800Y0042400D03*
X0074500Y0150200D03*
X0065300Y0150300D03*
X0059300Y0113700D03*
X0076900Y0117500D03*
X0046200Y0053300D03*
X0040700Y0057000D03*
X0030200Y0119400D03*
X0123900Y0111000D03*
X0061100Y0025600D03*
X0062900Y0054500D03*
X0066100Y0099100D03*
X0081500Y0118000D03*
M02*
