G75*
%MOIN*%
%OFA0B0*%
%FSLAX25Y25*%
%IPPOS*%
%LPD*%
%AMOC8*
5,1,8,0,0,1.08239X$1,22.5*
%
%ADD10R,0.06693X0.11811*%
%ADD11R,0.03150X0.11811*%
%ADD12R,0.02717X0.03898*%
%ADD13R,0.02756X0.01969*%
%ADD14R,0.03543X0.02756*%
%ADD15R,0.01969X0.02756*%
%ADD16R,0.01969X0.00787*%
%ADD17R,0.00787X0.01969*%
%ADD18R,0.18110X0.18110*%
%ADD19R,0.02756X0.03543*%
%ADD20R,0.03150X0.03150*%
%ADD21C,0.00394*%
%ADD22C,0.00354*%
%ADD23C,0.00630*%
%ADD24C,0.00118*%
%ADD25R,0.03543X0.03937*%
%ADD26R,0.04000X0.10000*%
%ADD27R,0.03937X0.05512*%
%ADD28R,0.01772X0.01772*%
%ADD29R,0.03740X0.03346*%
%ADD30R,0.04331X0.03937*%
%ADD31R,0.02500X0.02600*%
%ADD32C,0.00157*%
%ADD33C,0.01213*%
%ADD34R,0.08661X0.05118*%
%ADD35R,0.01969X0.02953*%
%ADD36R,0.16900X0.13400*%
D10*
X0123841Y0083974D03*
X0123841Y0068226D03*
X0113959Y0068226D03*
X0113959Y0083974D03*
D11*
X0130731Y0083974D03*
X0130731Y0068226D03*
X0107069Y0068226D03*
X0107069Y0083974D03*
D12*
X0098040Y0069018D03*
X0094300Y0069018D03*
X0090560Y0069018D03*
X0090560Y0058782D03*
X0094300Y0058782D03*
X0098040Y0058782D03*
D13*
X0127500Y0129775D03*
X0127500Y0126625D03*
X0128200Y0140675D03*
X0128200Y0137525D03*
X0131800Y0140675D03*
X0131800Y0137525D03*
X0132200Y0149125D03*
X0132200Y0152275D03*
X0117100Y0150875D03*
X0117100Y0147725D03*
X0102900Y0147575D03*
X0102900Y0144425D03*
X0091500Y0140475D03*
X0091500Y0137325D03*
X0086722Y0140437D03*
X0086722Y0143587D03*
X0083400Y0042375D03*
X0083400Y0039225D03*
X0072300Y0039675D03*
X0072300Y0036525D03*
X0080700Y0090825D03*
X0080700Y0093975D03*
X0100000Y0089175D03*
X0100000Y0086025D03*
X0117100Y0030725D03*
X0117100Y0033875D03*
X0124700Y0033775D03*
X0124700Y0030625D03*
X0127000Y0047525D03*
X0127000Y0050675D03*
X0106600Y0151075D03*
X0106600Y0147925D03*
X0070400Y0158925D03*
X0070400Y0162075D03*
X0070900Y0148675D03*
X0070900Y0145525D03*
D14*
X0091200Y0150159D03*
X0091200Y0145041D03*
X0072200Y0030659D03*
X0072200Y0025541D03*
D15*
X0116325Y0142900D03*
X0119475Y0142900D03*
X0059575Y0039200D03*
X0056425Y0039200D03*
X0079975Y0049300D03*
X0076825Y0049300D03*
X0094133Y0049385D03*
X0097282Y0049385D03*
X0087625Y0077400D03*
X0090775Y0077400D03*
X0116075Y0051500D03*
X0112925Y0051500D03*
X0116075Y0047500D03*
X0112925Y0047500D03*
X0079975Y0040500D03*
X0076825Y0040500D03*
X0034725Y0053400D03*
X0037875Y0053400D03*
X0038725Y0043600D03*
X0041875Y0043600D03*
X0062275Y0043000D03*
X0059125Y0043000D03*
X0062175Y0046700D03*
X0059025Y0046700D03*
X0099275Y0171400D03*
X0096125Y0171400D03*
X0099275Y0164500D03*
X0096125Y0164500D03*
X0099275Y0167900D03*
X0096125Y0167900D03*
X0130525Y0126600D03*
X0133675Y0126600D03*
X0069925Y0121000D03*
X0073075Y0121000D03*
X0073175Y0117500D03*
X0070025Y0117500D03*
D16*
X0099180Y0136861D03*
X0099180Y0135287D03*
X0099180Y0133712D03*
X0099180Y0132137D03*
X0099180Y0130562D03*
X0099180Y0128987D03*
X0099180Y0127413D03*
X0099180Y0125838D03*
X0099180Y0124263D03*
X0099180Y0122688D03*
X0099180Y0121113D03*
X0099180Y0119539D03*
X0121620Y0119539D03*
X0121620Y0121113D03*
X0121620Y0122688D03*
X0121620Y0124263D03*
X0121620Y0125838D03*
X0121620Y0127413D03*
X0121620Y0128987D03*
X0121620Y0130562D03*
X0121620Y0132137D03*
X0121620Y0133712D03*
X0121620Y0135287D03*
X0121620Y0136861D03*
D17*
X0101739Y0116980D03*
X0103313Y0116980D03*
X0104888Y0116980D03*
X0106463Y0116980D03*
X0108038Y0116980D03*
X0109613Y0116980D03*
X0111187Y0116980D03*
X0112762Y0116980D03*
X0114337Y0116980D03*
X0115912Y0116980D03*
X0117487Y0116980D03*
X0119061Y0116980D03*
X0119061Y0139420D03*
X0117487Y0139420D03*
X0115912Y0139420D03*
X0114337Y0139420D03*
X0112762Y0139420D03*
X0111187Y0139420D03*
X0109613Y0139420D03*
X0108038Y0139420D03*
X0106463Y0139420D03*
X0104888Y0139420D03*
X0103313Y0139420D03*
X0101739Y0139420D03*
D18*
X0110400Y0128200D03*
D19*
X0050141Y0053300D03*
X0055259Y0053300D03*
D20*
X0029653Y0053400D03*
X0023747Y0053400D03*
X0034953Y0043600D03*
X0029047Y0043600D03*
D21*
X0047147Y0048554D02*
X0045179Y0048554D01*
X0045179Y0048946D01*
X0047147Y0048946D01*
X0047147Y0048554D01*
X0047147Y0046979D02*
X0045179Y0046979D01*
X0045179Y0047371D01*
X0047147Y0047371D01*
X0047147Y0046979D01*
X0047147Y0045404D02*
X0045179Y0045404D01*
X0045179Y0045796D01*
X0047147Y0045796D01*
X0047147Y0045404D01*
X0047147Y0043829D02*
X0045179Y0043829D01*
X0045179Y0044221D01*
X0047147Y0044221D01*
X0047147Y0043829D01*
X0047147Y0042254D02*
X0045179Y0042254D01*
X0045179Y0042646D01*
X0047147Y0042646D01*
X0047147Y0042254D01*
X0055021Y0042254D02*
X0053053Y0042254D01*
X0053053Y0042646D01*
X0055021Y0042646D01*
X0055021Y0042254D01*
X0055021Y0043829D02*
X0053053Y0043829D01*
X0053053Y0044221D01*
X0055021Y0044221D01*
X0055021Y0043829D01*
X0055021Y0045404D02*
X0053053Y0045404D01*
X0053053Y0045796D01*
X0055021Y0045796D01*
X0055021Y0045404D01*
X0055021Y0046979D02*
X0053053Y0046979D01*
X0053053Y0047371D01*
X0055021Y0047371D01*
X0055021Y0046979D01*
X0055021Y0048554D02*
X0053053Y0048554D01*
X0053053Y0048946D01*
X0055021Y0048946D01*
X0055021Y0048554D01*
D22*
X0051694Y0048769D02*
X0051694Y0042431D01*
X0048506Y0042431D01*
X0048506Y0048769D01*
X0051694Y0048769D01*
X0051694Y0042784D02*
X0048506Y0042784D01*
X0048506Y0043137D02*
X0051694Y0043137D01*
X0051694Y0043490D02*
X0048506Y0043490D01*
X0048506Y0043843D02*
X0051694Y0043843D01*
X0051694Y0044196D02*
X0048506Y0044196D01*
X0048506Y0044549D02*
X0051694Y0044549D01*
X0051694Y0044902D02*
X0048506Y0044902D01*
X0048506Y0045255D02*
X0051694Y0045255D01*
X0051694Y0045608D02*
X0048506Y0045608D01*
X0048506Y0045961D02*
X0051694Y0045961D01*
X0051694Y0046314D02*
X0048506Y0046314D01*
X0048506Y0046667D02*
X0051694Y0046667D01*
X0051694Y0047020D02*
X0048506Y0047020D01*
X0048506Y0047373D02*
X0051694Y0047373D01*
X0051694Y0047726D02*
X0048506Y0047726D01*
X0048506Y0048079D02*
X0051694Y0048079D01*
X0051694Y0048432D02*
X0048506Y0048432D01*
D23*
X0085709Y0033434D02*
X0085709Y0027766D01*
X0076891Y0027766D01*
X0076891Y0033434D01*
X0085709Y0033434D01*
X0085709Y0028395D02*
X0076891Y0028395D01*
X0076891Y0029024D02*
X0085709Y0029024D01*
X0085709Y0029653D02*
X0076891Y0029653D01*
X0076891Y0030282D02*
X0085709Y0030282D01*
X0085709Y0030911D02*
X0076891Y0030911D01*
X0076891Y0031540D02*
X0085709Y0031540D01*
X0085709Y0032169D02*
X0076891Y0032169D01*
X0076891Y0032798D02*
X0085709Y0032798D01*
X0085709Y0033427D02*
X0076891Y0033427D01*
D24*
X0077992Y0025619D02*
X0077992Y0023769D01*
X0076930Y0023769D01*
X0076930Y0025619D01*
X0077992Y0025619D01*
X0077992Y0023886D02*
X0076930Y0023886D01*
X0076930Y0024003D02*
X0077992Y0024003D01*
X0077992Y0024120D02*
X0076930Y0024120D01*
X0076930Y0024237D02*
X0077992Y0024237D01*
X0077992Y0024354D02*
X0076930Y0024354D01*
X0076930Y0024471D02*
X0077992Y0024471D01*
X0077992Y0024588D02*
X0076930Y0024588D01*
X0076930Y0024705D02*
X0077992Y0024705D01*
X0077992Y0024822D02*
X0076930Y0024822D01*
X0076930Y0024939D02*
X0077992Y0024939D01*
X0077992Y0025056D02*
X0076930Y0025056D01*
X0076930Y0025173D02*
X0077992Y0025173D01*
X0077992Y0025290D02*
X0076930Y0025290D01*
X0076930Y0025407D02*
X0077992Y0025407D01*
X0077992Y0025524D02*
X0076930Y0025524D01*
X0080551Y0025619D02*
X0080551Y0023769D01*
X0079489Y0023769D01*
X0079489Y0025619D01*
X0080551Y0025619D01*
X0080551Y0023886D02*
X0079489Y0023886D01*
X0079489Y0024003D02*
X0080551Y0024003D01*
X0080551Y0024120D02*
X0079489Y0024120D01*
X0079489Y0024237D02*
X0080551Y0024237D01*
X0080551Y0024354D02*
X0079489Y0024354D01*
X0079489Y0024471D02*
X0080551Y0024471D01*
X0080551Y0024588D02*
X0079489Y0024588D01*
X0079489Y0024705D02*
X0080551Y0024705D01*
X0080551Y0024822D02*
X0079489Y0024822D01*
X0079489Y0024939D02*
X0080551Y0024939D01*
X0080551Y0025056D02*
X0079489Y0025056D01*
X0079489Y0025173D02*
X0080551Y0025173D01*
X0080551Y0025290D02*
X0079489Y0025290D01*
X0079489Y0025407D02*
X0080551Y0025407D01*
X0080551Y0025524D02*
X0079489Y0025524D01*
X0083111Y0025619D02*
X0083111Y0023769D01*
X0082049Y0023769D01*
X0082049Y0025619D01*
X0083111Y0025619D01*
X0083111Y0023886D02*
X0082049Y0023886D01*
X0082049Y0024003D02*
X0083111Y0024003D01*
X0083111Y0024120D02*
X0082049Y0024120D01*
X0082049Y0024237D02*
X0083111Y0024237D01*
X0083111Y0024354D02*
X0082049Y0024354D01*
X0082049Y0024471D02*
X0083111Y0024471D01*
X0083111Y0024588D02*
X0082049Y0024588D01*
X0082049Y0024705D02*
X0083111Y0024705D01*
X0083111Y0024822D02*
X0082049Y0024822D01*
X0082049Y0024939D02*
X0083111Y0024939D01*
X0083111Y0025056D02*
X0082049Y0025056D01*
X0082049Y0025173D02*
X0083111Y0025173D01*
X0083111Y0025290D02*
X0082049Y0025290D01*
X0082049Y0025407D02*
X0083111Y0025407D01*
X0083111Y0025524D02*
X0082049Y0025524D01*
X0085670Y0025619D02*
X0085670Y0023769D01*
X0084608Y0023769D01*
X0084608Y0025619D01*
X0085670Y0025619D01*
X0085670Y0023886D02*
X0084608Y0023886D01*
X0084608Y0024003D02*
X0085670Y0024003D01*
X0085670Y0024120D02*
X0084608Y0024120D01*
X0084608Y0024237D02*
X0085670Y0024237D01*
X0085670Y0024354D02*
X0084608Y0024354D01*
X0084608Y0024471D02*
X0085670Y0024471D01*
X0085670Y0024588D02*
X0084608Y0024588D01*
X0084608Y0024705D02*
X0085670Y0024705D01*
X0085670Y0024822D02*
X0084608Y0024822D01*
X0084608Y0024939D02*
X0085670Y0024939D01*
X0085670Y0025056D02*
X0084608Y0025056D01*
X0084608Y0025173D02*
X0085670Y0025173D01*
X0085670Y0025290D02*
X0084608Y0025290D01*
X0084608Y0025407D02*
X0085670Y0025407D01*
X0085670Y0025524D02*
X0084608Y0025524D01*
X0085670Y0037431D02*
X0085670Y0035581D01*
X0084608Y0035581D01*
X0084608Y0037431D01*
X0085670Y0037431D01*
X0085670Y0035698D02*
X0084608Y0035698D01*
X0084608Y0035815D02*
X0085670Y0035815D01*
X0085670Y0035932D02*
X0084608Y0035932D01*
X0084608Y0036049D02*
X0085670Y0036049D01*
X0085670Y0036166D02*
X0084608Y0036166D01*
X0084608Y0036283D02*
X0085670Y0036283D01*
X0085670Y0036400D02*
X0084608Y0036400D01*
X0084608Y0036517D02*
X0085670Y0036517D01*
X0085670Y0036634D02*
X0084608Y0036634D01*
X0084608Y0036751D02*
X0085670Y0036751D01*
X0085670Y0036868D02*
X0084608Y0036868D01*
X0084608Y0036985D02*
X0085670Y0036985D01*
X0085670Y0037102D02*
X0084608Y0037102D01*
X0084608Y0037219D02*
X0085670Y0037219D01*
X0085670Y0037336D02*
X0084608Y0037336D01*
X0083111Y0037431D02*
X0083111Y0035581D01*
X0082049Y0035581D01*
X0082049Y0037431D01*
X0083111Y0037431D01*
X0083111Y0035698D02*
X0082049Y0035698D01*
X0082049Y0035815D02*
X0083111Y0035815D01*
X0083111Y0035932D02*
X0082049Y0035932D01*
X0082049Y0036049D02*
X0083111Y0036049D01*
X0083111Y0036166D02*
X0082049Y0036166D01*
X0082049Y0036283D02*
X0083111Y0036283D01*
X0083111Y0036400D02*
X0082049Y0036400D01*
X0082049Y0036517D02*
X0083111Y0036517D01*
X0083111Y0036634D02*
X0082049Y0036634D01*
X0082049Y0036751D02*
X0083111Y0036751D01*
X0083111Y0036868D02*
X0082049Y0036868D01*
X0082049Y0036985D02*
X0083111Y0036985D01*
X0083111Y0037102D02*
X0082049Y0037102D01*
X0082049Y0037219D02*
X0083111Y0037219D01*
X0083111Y0037336D02*
X0082049Y0037336D01*
X0080551Y0037431D02*
X0080551Y0035581D01*
X0079489Y0035581D01*
X0079489Y0037431D01*
X0080551Y0037431D01*
X0080551Y0035698D02*
X0079489Y0035698D01*
X0079489Y0035815D02*
X0080551Y0035815D01*
X0080551Y0035932D02*
X0079489Y0035932D01*
X0079489Y0036049D02*
X0080551Y0036049D01*
X0080551Y0036166D02*
X0079489Y0036166D01*
X0079489Y0036283D02*
X0080551Y0036283D01*
X0080551Y0036400D02*
X0079489Y0036400D01*
X0079489Y0036517D02*
X0080551Y0036517D01*
X0080551Y0036634D02*
X0079489Y0036634D01*
X0079489Y0036751D02*
X0080551Y0036751D01*
X0080551Y0036868D02*
X0079489Y0036868D01*
X0079489Y0036985D02*
X0080551Y0036985D01*
X0080551Y0037102D02*
X0079489Y0037102D01*
X0079489Y0037219D02*
X0080551Y0037219D01*
X0080551Y0037336D02*
X0079489Y0037336D01*
X0077992Y0037431D02*
X0077992Y0035581D01*
X0076930Y0035581D01*
X0076930Y0037431D01*
X0077992Y0037431D01*
X0077992Y0035698D02*
X0076930Y0035698D01*
X0076930Y0035815D02*
X0077992Y0035815D01*
X0077992Y0035932D02*
X0076930Y0035932D01*
X0076930Y0036049D02*
X0077992Y0036049D01*
X0077992Y0036166D02*
X0076930Y0036166D01*
X0076930Y0036283D02*
X0077992Y0036283D01*
X0077992Y0036400D02*
X0076930Y0036400D01*
X0076930Y0036517D02*
X0077992Y0036517D01*
X0077992Y0036634D02*
X0076930Y0036634D01*
X0076930Y0036751D02*
X0077992Y0036751D01*
X0077992Y0036868D02*
X0076930Y0036868D01*
X0076930Y0036985D02*
X0077992Y0036985D01*
X0077992Y0037102D02*
X0076930Y0037102D01*
X0076930Y0037219D02*
X0077992Y0037219D01*
X0077992Y0037336D02*
X0076930Y0037336D01*
D25*
X0082653Y0065609D03*
X0076747Y0065609D03*
X0076747Y0054191D03*
X0082653Y0054191D03*
D26*
X0138000Y0126600D03*
X0164000Y0126600D03*
D27*
X0120884Y0047540D03*
X0124624Y0038878D03*
X0117144Y0038878D03*
X0105120Y0038052D03*
X0101380Y0047501D03*
X0108860Y0047501D03*
D28*
X0088327Y0171173D03*
X0091673Y0171173D03*
X0091673Y0167827D03*
X0088327Y0167827D03*
D29*
X0121646Y0147736D03*
X0127354Y0147736D03*
X0127354Y0152264D03*
X0121646Y0152264D03*
D30*
X0098700Y0143954D03*
X0098700Y0150646D03*
D31*
X0118440Y0024900D03*
X0118440Y0012700D03*
X0108360Y0024900D03*
X0108360Y0012700D03*
D32*
X0085197Y0094252D02*
X0085197Y0093622D01*
X0084173Y0093622D01*
X0084173Y0094252D01*
X0085197Y0094252D01*
X0085197Y0093778D02*
X0084173Y0093778D01*
X0084173Y0093934D02*
X0085197Y0093934D01*
X0085197Y0094090D02*
X0084173Y0094090D01*
X0084173Y0094246D02*
X0085197Y0094246D01*
X0085197Y0092677D02*
X0085197Y0092047D01*
X0084173Y0092047D01*
X0084173Y0092677D01*
X0085197Y0092677D01*
X0085197Y0092203D02*
X0084173Y0092203D01*
X0084173Y0092359D02*
X0085197Y0092359D01*
X0085197Y0092515D02*
X0084173Y0092515D01*
X0084173Y0092671D02*
X0085197Y0092671D01*
X0085197Y0091102D02*
X0085197Y0090472D01*
X0084173Y0090472D01*
X0084173Y0091102D01*
X0085197Y0091102D01*
X0085197Y0090628D02*
X0084173Y0090628D01*
X0084173Y0090784D02*
X0085197Y0090784D01*
X0085197Y0090940D02*
X0084173Y0090940D01*
X0084173Y0091096D02*
X0085197Y0091096D01*
X0085197Y0089528D02*
X0085197Y0088898D01*
X0084173Y0088898D01*
X0084173Y0089528D01*
X0085197Y0089528D01*
X0085197Y0089054D02*
X0084173Y0089054D01*
X0084173Y0089210D02*
X0085197Y0089210D01*
X0085197Y0089366D02*
X0084173Y0089366D01*
X0084173Y0089522D02*
X0085197Y0089522D01*
X0085197Y0087953D02*
X0085197Y0087323D01*
X0084173Y0087323D01*
X0084173Y0087953D01*
X0085197Y0087953D01*
X0085197Y0087479D02*
X0084173Y0087479D01*
X0084173Y0087635D02*
X0085197Y0087635D01*
X0085197Y0087791D02*
X0084173Y0087791D01*
X0084173Y0087947D02*
X0085197Y0087947D01*
X0085197Y0086378D02*
X0085197Y0085748D01*
X0084173Y0085748D01*
X0084173Y0086378D01*
X0085197Y0086378D01*
X0085197Y0085904D02*
X0084173Y0085904D01*
X0084173Y0086060D02*
X0085197Y0086060D01*
X0085197Y0086216D02*
X0084173Y0086216D01*
X0084173Y0086372D02*
X0085197Y0086372D01*
X0086378Y0084173D02*
X0085748Y0084173D01*
X0085748Y0085197D01*
X0086378Y0085197D01*
X0086378Y0084173D01*
X0086378Y0084329D02*
X0085748Y0084329D01*
X0085748Y0084485D02*
X0086378Y0084485D01*
X0086378Y0084641D02*
X0085748Y0084641D01*
X0085748Y0084797D02*
X0086378Y0084797D01*
X0086378Y0084953D02*
X0085748Y0084953D01*
X0085748Y0085109D02*
X0086378Y0085109D01*
X0087953Y0084173D02*
X0087323Y0084173D01*
X0087323Y0085197D01*
X0087953Y0085197D01*
X0087953Y0084173D01*
X0087953Y0084329D02*
X0087323Y0084329D01*
X0087323Y0084485D02*
X0087953Y0084485D01*
X0087953Y0084641D02*
X0087323Y0084641D01*
X0087323Y0084797D02*
X0087953Y0084797D01*
X0087953Y0084953D02*
X0087323Y0084953D01*
X0087323Y0085109D02*
X0087953Y0085109D01*
X0089528Y0084173D02*
X0088898Y0084173D01*
X0088898Y0085197D01*
X0089528Y0085197D01*
X0089528Y0084173D01*
X0089528Y0084329D02*
X0088898Y0084329D01*
X0088898Y0084485D02*
X0089528Y0084485D01*
X0089528Y0084641D02*
X0088898Y0084641D01*
X0088898Y0084797D02*
X0089528Y0084797D01*
X0089528Y0084953D02*
X0088898Y0084953D01*
X0088898Y0085109D02*
X0089528Y0085109D01*
X0091102Y0084173D02*
X0090472Y0084173D01*
X0090472Y0085197D01*
X0091102Y0085197D01*
X0091102Y0084173D01*
X0091102Y0084329D02*
X0090472Y0084329D01*
X0090472Y0084485D02*
X0091102Y0084485D01*
X0091102Y0084641D02*
X0090472Y0084641D01*
X0090472Y0084797D02*
X0091102Y0084797D01*
X0091102Y0084953D02*
X0090472Y0084953D01*
X0090472Y0085109D02*
X0091102Y0085109D01*
X0092677Y0084173D02*
X0092047Y0084173D01*
X0092047Y0085197D01*
X0092677Y0085197D01*
X0092677Y0084173D01*
X0092677Y0084329D02*
X0092047Y0084329D01*
X0092047Y0084485D02*
X0092677Y0084485D01*
X0092677Y0084641D02*
X0092047Y0084641D01*
X0092047Y0084797D02*
X0092677Y0084797D01*
X0092677Y0084953D02*
X0092047Y0084953D01*
X0092047Y0085109D02*
X0092677Y0085109D01*
X0094252Y0084173D02*
X0093622Y0084173D01*
X0093622Y0085197D01*
X0094252Y0085197D01*
X0094252Y0084173D01*
X0094252Y0084329D02*
X0093622Y0084329D01*
X0093622Y0084485D02*
X0094252Y0084485D01*
X0094252Y0084641D02*
X0093622Y0084641D01*
X0093622Y0084797D02*
X0094252Y0084797D01*
X0094252Y0084953D02*
X0093622Y0084953D01*
X0093622Y0085109D02*
X0094252Y0085109D01*
X0095827Y0086378D02*
X0095827Y0085748D01*
X0094803Y0085748D01*
X0094803Y0086378D01*
X0095827Y0086378D01*
X0095827Y0085904D02*
X0094803Y0085904D01*
X0094803Y0086060D02*
X0095827Y0086060D01*
X0095827Y0086216D02*
X0094803Y0086216D01*
X0094803Y0086372D02*
X0095827Y0086372D01*
X0095827Y0087953D02*
X0095827Y0087323D01*
X0094803Y0087323D01*
X0094803Y0087953D01*
X0095827Y0087953D01*
X0095827Y0087479D02*
X0094803Y0087479D01*
X0094803Y0087635D02*
X0095827Y0087635D01*
X0095827Y0087791D02*
X0094803Y0087791D01*
X0094803Y0087947D02*
X0095827Y0087947D01*
X0095827Y0089528D02*
X0095827Y0088898D01*
X0094803Y0088898D01*
X0094803Y0089528D01*
X0095827Y0089528D01*
X0095827Y0089054D02*
X0094803Y0089054D01*
X0094803Y0089210D02*
X0095827Y0089210D01*
X0095827Y0089366D02*
X0094803Y0089366D01*
X0094803Y0089522D02*
X0095827Y0089522D01*
X0095827Y0091102D02*
X0095827Y0090472D01*
X0094803Y0090472D01*
X0094803Y0091102D01*
X0095827Y0091102D01*
X0095827Y0090628D02*
X0094803Y0090628D01*
X0094803Y0090784D02*
X0095827Y0090784D01*
X0095827Y0090940D02*
X0094803Y0090940D01*
X0094803Y0091096D02*
X0095827Y0091096D01*
X0095827Y0092677D02*
X0095827Y0092047D01*
X0094803Y0092047D01*
X0094803Y0092677D01*
X0095827Y0092677D01*
X0095827Y0092203D02*
X0094803Y0092203D01*
X0094803Y0092359D02*
X0095827Y0092359D01*
X0095827Y0092515D02*
X0094803Y0092515D01*
X0094803Y0092671D02*
X0095827Y0092671D01*
X0095827Y0094252D02*
X0095827Y0093622D01*
X0094803Y0093622D01*
X0094803Y0094252D01*
X0095827Y0094252D01*
X0095827Y0093778D02*
X0094803Y0093778D01*
X0094803Y0093934D02*
X0095827Y0093934D01*
X0095827Y0094090D02*
X0094803Y0094090D01*
X0094803Y0094246D02*
X0095827Y0094246D01*
X0093622Y0095827D02*
X0094252Y0095827D01*
X0094252Y0094803D01*
X0093622Y0094803D01*
X0093622Y0095827D01*
X0093622Y0094959D02*
X0094252Y0094959D01*
X0094252Y0095115D02*
X0093622Y0095115D01*
X0093622Y0095271D02*
X0094252Y0095271D01*
X0094252Y0095427D02*
X0093622Y0095427D01*
X0093622Y0095583D02*
X0094252Y0095583D01*
X0094252Y0095739D02*
X0093622Y0095739D01*
X0092677Y0094803D02*
X0092047Y0094803D01*
X0092047Y0095827D01*
X0092677Y0095827D01*
X0092677Y0094803D01*
X0092677Y0094959D02*
X0092047Y0094959D01*
X0092047Y0095115D02*
X0092677Y0095115D01*
X0092677Y0095271D02*
X0092047Y0095271D01*
X0092047Y0095427D02*
X0092677Y0095427D01*
X0092677Y0095583D02*
X0092047Y0095583D01*
X0092047Y0095739D02*
X0092677Y0095739D01*
X0091102Y0094803D02*
X0090472Y0094803D01*
X0090472Y0095827D01*
X0091102Y0095827D01*
X0091102Y0094803D01*
X0091102Y0094959D02*
X0090472Y0094959D01*
X0090472Y0095115D02*
X0091102Y0095115D01*
X0091102Y0095271D02*
X0090472Y0095271D01*
X0090472Y0095427D02*
X0091102Y0095427D01*
X0091102Y0095583D02*
X0090472Y0095583D01*
X0090472Y0095739D02*
X0091102Y0095739D01*
X0089528Y0094803D02*
X0088898Y0094803D01*
X0088898Y0095827D01*
X0089528Y0095827D01*
X0089528Y0094803D01*
X0089528Y0094959D02*
X0088898Y0094959D01*
X0088898Y0095115D02*
X0089528Y0095115D01*
X0089528Y0095271D02*
X0088898Y0095271D01*
X0088898Y0095427D02*
X0089528Y0095427D01*
X0089528Y0095583D02*
X0088898Y0095583D01*
X0088898Y0095739D02*
X0089528Y0095739D01*
X0087953Y0094803D02*
X0087323Y0094803D01*
X0087323Y0095827D01*
X0087953Y0095827D01*
X0087953Y0094803D01*
X0087953Y0094959D02*
X0087323Y0094959D01*
X0087323Y0095115D02*
X0087953Y0095115D01*
X0087953Y0095271D02*
X0087323Y0095271D01*
X0087323Y0095427D02*
X0087953Y0095427D01*
X0087953Y0095583D02*
X0087323Y0095583D01*
X0087323Y0095739D02*
X0087953Y0095739D01*
X0086378Y0094803D02*
X0085748Y0094803D01*
X0085748Y0095827D01*
X0086378Y0095827D01*
X0086378Y0094803D01*
X0086378Y0094959D02*
X0085748Y0094959D01*
X0085748Y0095115D02*
X0086378Y0095115D01*
X0086378Y0095271D02*
X0085748Y0095271D01*
X0085748Y0095427D02*
X0086378Y0095427D01*
X0086378Y0095583D02*
X0085748Y0095583D01*
X0085748Y0095739D02*
X0086378Y0095739D01*
D33*
X0092740Y0092425D02*
X0092740Y0087575D01*
X0087260Y0087575D01*
X0087260Y0092425D01*
X0092740Y0092425D01*
X0092740Y0088787D02*
X0087260Y0088787D01*
X0087260Y0089999D02*
X0092740Y0089999D01*
X0092740Y0091211D02*
X0087260Y0091211D01*
X0087260Y0092423D02*
X0092740Y0092423D01*
D34*
X0077900Y0162068D03*
X0077900Y0145532D03*
D35*
X0041700Y0111150D03*
X0046700Y0111150D03*
X0051700Y0111150D03*
X0056700Y0111150D03*
X0041700Y0142650D03*
X0046700Y0142650D03*
X0051700Y0142650D03*
X0056700Y0142650D03*
D36*
X0049200Y0126900D03*
M02*
