G75*
%MOIN*%
%OFA0B0*%
%FSLAX25Y25*%
%IPPOS*%
%LPD*%
%AMOC8*
5,1,8,0,0,1.08239X$1,22.5*
%
%ADD10C,0.12798*%
%ADD11R,0.06893X0.12011*%
%ADD12R,0.03350X0.12011*%
%ADD13R,0.02917X0.04098*%
%ADD14R,0.02956X0.02169*%
%ADD15R,0.03743X0.02956*%
%ADD16R,0.02169X0.02956*%
%ADD17R,0.02169X0.00987*%
%ADD18R,0.00987X0.02169*%
%ADD19R,0.18310X0.18310*%
%ADD20R,0.02956X0.03743*%
%ADD21R,0.03350X0.03350*%
%ADD22C,0.00494*%
%ADD23C,0.00374*%
%ADD24C,0.00650*%
%ADD25C,0.00138*%
%ADD26R,0.03743X0.04137*%
%ADD27R,0.04200X0.10200*%
%ADD28R,0.04137X0.05712*%
%ADD29R,0.01972X0.01972*%
%ADD30R,0.03940X0.03546*%
%ADD31R,0.04531X0.04137*%
%ADD32R,0.02700X0.02800*%
%ADD33C,0.00197*%
%ADD34C,0.01253*%
%ADD35R,0.08861X0.05318*%
%ADD36R,0.02169X0.03153*%
%ADD37R,0.17100X0.13600*%
%ADD38C,0.05543*%
%ADD39C,0.05743*%
%ADD40C,0.06496*%
%ADD41C,0.06696*%
%ADD42C,0.04924*%
%ADD43C,0.03000*%
%ADD44C,0.03200*%
%ADD45C,0.02919*%
%ADD46C,0.03119*%
%ADD47C,0.02900*%
%ADD48C,0.03100*%
%ADD49C,0.02600*%
%ADD50C,0.02800*%
D10*
X0054300Y0163700D03*
X0169000Y0068400D03*
X0090000Y0008800D03*
D11*
X0123841Y0083974D03*
X0123841Y0068226D03*
X0113959Y0068226D03*
X0113959Y0083974D03*
D12*
X0130731Y0083974D03*
X0130731Y0068226D03*
X0107069Y0068226D03*
X0107069Y0083974D03*
D13*
X0098040Y0069018D03*
X0094300Y0069018D03*
X0090560Y0069018D03*
X0090560Y0058782D03*
X0094300Y0058782D03*
X0098040Y0058782D03*
D14*
X0127500Y0129775D03*
X0127500Y0126625D03*
X0128200Y0140675D03*
X0128200Y0137525D03*
X0131800Y0140675D03*
X0131800Y0137525D03*
X0132200Y0149125D03*
X0132200Y0152275D03*
X0117100Y0150875D03*
X0117100Y0147725D03*
X0102900Y0147575D03*
X0102900Y0144425D03*
X0091500Y0140475D03*
X0091500Y0137325D03*
X0086722Y0140437D03*
X0086722Y0143587D03*
X0083400Y0042375D03*
X0083400Y0039225D03*
X0072300Y0039675D03*
X0072300Y0036525D03*
X0080700Y0090825D03*
X0080700Y0093975D03*
X0100000Y0089175D03*
X0100000Y0086025D03*
X0117100Y0030725D03*
X0117100Y0033875D03*
X0124700Y0033775D03*
X0124700Y0030625D03*
X0127000Y0047525D03*
X0127000Y0050675D03*
X0106600Y0151075D03*
X0106600Y0147925D03*
X0070400Y0158925D03*
X0070400Y0162075D03*
X0070900Y0148675D03*
X0070900Y0145525D03*
D15*
X0091200Y0150159D03*
X0091200Y0145041D03*
X0072200Y0030659D03*
X0072200Y0025541D03*
D16*
X0116325Y0142900D03*
X0119475Y0142900D03*
X0059575Y0039200D03*
X0056425Y0039200D03*
X0079975Y0049300D03*
X0076825Y0049300D03*
X0094133Y0049385D03*
X0097282Y0049385D03*
X0087625Y0077400D03*
X0090775Y0077400D03*
X0116075Y0051500D03*
X0112925Y0051500D03*
X0116075Y0047500D03*
X0112925Y0047500D03*
X0079975Y0040500D03*
X0076825Y0040500D03*
X0034725Y0053400D03*
X0037875Y0053400D03*
X0038725Y0043600D03*
X0041875Y0043600D03*
X0062275Y0043000D03*
X0059125Y0043000D03*
X0062175Y0046700D03*
X0059025Y0046700D03*
X0099275Y0171400D03*
X0096125Y0171400D03*
X0099275Y0164500D03*
X0096125Y0164500D03*
X0099275Y0167900D03*
X0096125Y0167900D03*
X0130525Y0126600D03*
X0133675Y0126600D03*
X0069925Y0121000D03*
X0073075Y0121000D03*
X0073175Y0117500D03*
X0070025Y0117500D03*
D17*
X0099180Y0136861D03*
X0099180Y0135287D03*
X0099180Y0133712D03*
X0099180Y0132137D03*
X0099180Y0130562D03*
X0099180Y0128987D03*
X0099180Y0127413D03*
X0099180Y0125838D03*
X0099180Y0124263D03*
X0099180Y0122688D03*
X0099180Y0121113D03*
X0099180Y0119539D03*
X0121620Y0119539D03*
X0121620Y0121113D03*
X0121620Y0122688D03*
X0121620Y0124263D03*
X0121620Y0125838D03*
X0121620Y0127413D03*
X0121620Y0128987D03*
X0121620Y0130562D03*
X0121620Y0132137D03*
X0121620Y0133712D03*
X0121620Y0135287D03*
X0121620Y0136861D03*
D18*
X0101739Y0116980D03*
X0103313Y0116980D03*
X0104888Y0116980D03*
X0106463Y0116980D03*
X0108038Y0116980D03*
X0109613Y0116980D03*
X0111187Y0116980D03*
X0112762Y0116980D03*
X0114337Y0116980D03*
X0115912Y0116980D03*
X0117487Y0116980D03*
X0119061Y0116980D03*
X0119061Y0139420D03*
X0117487Y0139420D03*
X0115912Y0139420D03*
X0114337Y0139420D03*
X0112762Y0139420D03*
X0111187Y0139420D03*
X0109613Y0139420D03*
X0108038Y0139420D03*
X0106463Y0139420D03*
X0104888Y0139420D03*
X0103313Y0139420D03*
X0101739Y0139420D03*
D19*
X0110400Y0128200D03*
D20*
X0050141Y0053300D03*
X0055259Y0053300D03*
D21*
X0029653Y0053400D03*
X0023747Y0053400D03*
X0034953Y0043600D03*
X0029047Y0043600D03*
D22*
X0047197Y0048504D02*
X0045129Y0048504D01*
X0045129Y0048996D01*
X0047197Y0048996D01*
X0047197Y0048504D01*
X0047197Y0046929D02*
X0045129Y0046929D01*
X0045129Y0047421D01*
X0047197Y0047421D01*
X0047197Y0046929D01*
X0047197Y0045354D02*
X0045129Y0045354D01*
X0045129Y0045846D01*
X0047197Y0045846D01*
X0047197Y0045354D01*
X0047197Y0043779D02*
X0045129Y0043779D01*
X0045129Y0044271D01*
X0047197Y0044271D01*
X0047197Y0043779D01*
X0047197Y0042204D02*
X0045129Y0042204D01*
X0045129Y0042696D01*
X0047197Y0042696D01*
X0047197Y0042204D01*
X0055071Y0042204D02*
X0053003Y0042204D01*
X0053003Y0042696D01*
X0055071Y0042696D01*
X0055071Y0042204D01*
X0055071Y0043779D02*
X0053003Y0043779D01*
X0053003Y0044271D01*
X0055071Y0044271D01*
X0055071Y0043779D01*
X0055071Y0045354D02*
X0053003Y0045354D01*
X0053003Y0045846D01*
X0055071Y0045846D01*
X0055071Y0045354D01*
X0055071Y0046929D02*
X0053003Y0046929D01*
X0053003Y0047421D01*
X0055071Y0047421D01*
X0055071Y0046929D01*
X0055071Y0048504D02*
X0053003Y0048504D01*
X0053003Y0048996D01*
X0055071Y0048996D01*
X0055071Y0048504D01*
D23*
X0051784Y0048859D02*
X0051784Y0042341D01*
X0048416Y0042341D01*
X0048416Y0048859D01*
X0051784Y0048859D01*
X0051784Y0042714D02*
X0048416Y0042714D01*
X0048416Y0043087D02*
X0051784Y0043087D01*
X0051784Y0043460D02*
X0048416Y0043460D01*
X0048416Y0043833D02*
X0051784Y0043833D01*
X0051784Y0044206D02*
X0048416Y0044206D01*
X0048416Y0044579D02*
X0051784Y0044579D01*
X0051784Y0044952D02*
X0048416Y0044952D01*
X0048416Y0045325D02*
X0051784Y0045325D01*
X0051784Y0045698D02*
X0048416Y0045698D01*
X0048416Y0046071D02*
X0051784Y0046071D01*
X0051784Y0046444D02*
X0048416Y0046444D01*
X0048416Y0046817D02*
X0051784Y0046817D01*
X0051784Y0047190D02*
X0048416Y0047190D01*
X0048416Y0047563D02*
X0051784Y0047563D01*
X0051784Y0047936D02*
X0048416Y0047936D01*
X0048416Y0048309D02*
X0051784Y0048309D01*
X0051784Y0048682D02*
X0048416Y0048682D01*
D24*
X0085799Y0033524D02*
X0085799Y0027676D01*
X0076801Y0027676D01*
X0076801Y0033524D01*
X0085799Y0033524D01*
X0085799Y0028325D02*
X0076801Y0028325D01*
X0076801Y0028974D02*
X0085799Y0028974D01*
X0085799Y0029623D02*
X0076801Y0029623D01*
X0076801Y0030272D02*
X0085799Y0030272D01*
X0085799Y0030921D02*
X0076801Y0030921D01*
X0076801Y0031570D02*
X0085799Y0031570D01*
X0085799Y0032219D02*
X0076801Y0032219D01*
X0076801Y0032868D02*
X0085799Y0032868D01*
X0085799Y0033517D02*
X0076801Y0033517D01*
D25*
X0078082Y0025709D02*
X0078082Y0023679D01*
X0076840Y0023679D01*
X0076840Y0025709D01*
X0078082Y0025709D01*
X0078082Y0023816D02*
X0076840Y0023816D01*
X0076840Y0023953D02*
X0078082Y0023953D01*
X0078082Y0024090D02*
X0076840Y0024090D01*
X0076840Y0024227D02*
X0078082Y0024227D01*
X0078082Y0024364D02*
X0076840Y0024364D01*
X0076840Y0024501D02*
X0078082Y0024501D01*
X0078082Y0024638D02*
X0076840Y0024638D01*
X0076840Y0024775D02*
X0078082Y0024775D01*
X0078082Y0024912D02*
X0076840Y0024912D01*
X0076840Y0025049D02*
X0078082Y0025049D01*
X0078082Y0025186D02*
X0076840Y0025186D01*
X0076840Y0025323D02*
X0078082Y0025323D01*
X0078082Y0025460D02*
X0076840Y0025460D01*
X0076840Y0025597D02*
X0078082Y0025597D01*
X0080641Y0025709D02*
X0080641Y0023679D01*
X0079399Y0023679D01*
X0079399Y0025709D01*
X0080641Y0025709D01*
X0080641Y0023816D02*
X0079399Y0023816D01*
X0079399Y0023953D02*
X0080641Y0023953D01*
X0080641Y0024090D02*
X0079399Y0024090D01*
X0079399Y0024227D02*
X0080641Y0024227D01*
X0080641Y0024364D02*
X0079399Y0024364D01*
X0079399Y0024501D02*
X0080641Y0024501D01*
X0080641Y0024638D02*
X0079399Y0024638D01*
X0079399Y0024775D02*
X0080641Y0024775D01*
X0080641Y0024912D02*
X0079399Y0024912D01*
X0079399Y0025049D02*
X0080641Y0025049D01*
X0080641Y0025186D02*
X0079399Y0025186D01*
X0079399Y0025323D02*
X0080641Y0025323D01*
X0080641Y0025460D02*
X0079399Y0025460D01*
X0079399Y0025597D02*
X0080641Y0025597D01*
X0083201Y0025709D02*
X0083201Y0023679D01*
X0081959Y0023679D01*
X0081959Y0025709D01*
X0083201Y0025709D01*
X0083201Y0023816D02*
X0081959Y0023816D01*
X0081959Y0023953D02*
X0083201Y0023953D01*
X0083201Y0024090D02*
X0081959Y0024090D01*
X0081959Y0024227D02*
X0083201Y0024227D01*
X0083201Y0024364D02*
X0081959Y0024364D01*
X0081959Y0024501D02*
X0083201Y0024501D01*
X0083201Y0024638D02*
X0081959Y0024638D01*
X0081959Y0024775D02*
X0083201Y0024775D01*
X0083201Y0024912D02*
X0081959Y0024912D01*
X0081959Y0025049D02*
X0083201Y0025049D01*
X0083201Y0025186D02*
X0081959Y0025186D01*
X0081959Y0025323D02*
X0083201Y0025323D01*
X0083201Y0025460D02*
X0081959Y0025460D01*
X0081959Y0025597D02*
X0083201Y0025597D01*
X0085760Y0025709D02*
X0085760Y0023679D01*
X0084518Y0023679D01*
X0084518Y0025709D01*
X0085760Y0025709D01*
X0085760Y0023816D02*
X0084518Y0023816D01*
X0084518Y0023953D02*
X0085760Y0023953D01*
X0085760Y0024090D02*
X0084518Y0024090D01*
X0084518Y0024227D02*
X0085760Y0024227D01*
X0085760Y0024364D02*
X0084518Y0024364D01*
X0084518Y0024501D02*
X0085760Y0024501D01*
X0085760Y0024638D02*
X0084518Y0024638D01*
X0084518Y0024775D02*
X0085760Y0024775D01*
X0085760Y0024912D02*
X0084518Y0024912D01*
X0084518Y0025049D02*
X0085760Y0025049D01*
X0085760Y0025186D02*
X0084518Y0025186D01*
X0084518Y0025323D02*
X0085760Y0025323D01*
X0085760Y0025460D02*
X0084518Y0025460D01*
X0084518Y0025597D02*
X0085760Y0025597D01*
X0085760Y0037521D02*
X0085760Y0035491D01*
X0084518Y0035491D01*
X0084518Y0037521D01*
X0085760Y0037521D01*
X0085760Y0035628D02*
X0084518Y0035628D01*
X0084518Y0035765D02*
X0085760Y0035765D01*
X0085760Y0035902D02*
X0084518Y0035902D01*
X0084518Y0036039D02*
X0085760Y0036039D01*
X0085760Y0036176D02*
X0084518Y0036176D01*
X0084518Y0036313D02*
X0085760Y0036313D01*
X0085760Y0036450D02*
X0084518Y0036450D01*
X0084518Y0036587D02*
X0085760Y0036587D01*
X0085760Y0036724D02*
X0084518Y0036724D01*
X0084518Y0036861D02*
X0085760Y0036861D01*
X0085760Y0036998D02*
X0084518Y0036998D01*
X0084518Y0037135D02*
X0085760Y0037135D01*
X0085760Y0037272D02*
X0084518Y0037272D01*
X0084518Y0037409D02*
X0085760Y0037409D01*
X0083201Y0037521D02*
X0083201Y0035491D01*
X0081959Y0035491D01*
X0081959Y0037521D01*
X0083201Y0037521D01*
X0083201Y0035628D02*
X0081959Y0035628D01*
X0081959Y0035765D02*
X0083201Y0035765D01*
X0083201Y0035902D02*
X0081959Y0035902D01*
X0081959Y0036039D02*
X0083201Y0036039D01*
X0083201Y0036176D02*
X0081959Y0036176D01*
X0081959Y0036313D02*
X0083201Y0036313D01*
X0083201Y0036450D02*
X0081959Y0036450D01*
X0081959Y0036587D02*
X0083201Y0036587D01*
X0083201Y0036724D02*
X0081959Y0036724D01*
X0081959Y0036861D02*
X0083201Y0036861D01*
X0083201Y0036998D02*
X0081959Y0036998D01*
X0081959Y0037135D02*
X0083201Y0037135D01*
X0083201Y0037272D02*
X0081959Y0037272D01*
X0081959Y0037409D02*
X0083201Y0037409D01*
X0080641Y0037521D02*
X0080641Y0035491D01*
X0079399Y0035491D01*
X0079399Y0037521D01*
X0080641Y0037521D01*
X0080641Y0035628D02*
X0079399Y0035628D01*
X0079399Y0035765D02*
X0080641Y0035765D01*
X0080641Y0035902D02*
X0079399Y0035902D01*
X0079399Y0036039D02*
X0080641Y0036039D01*
X0080641Y0036176D02*
X0079399Y0036176D01*
X0079399Y0036313D02*
X0080641Y0036313D01*
X0080641Y0036450D02*
X0079399Y0036450D01*
X0079399Y0036587D02*
X0080641Y0036587D01*
X0080641Y0036724D02*
X0079399Y0036724D01*
X0079399Y0036861D02*
X0080641Y0036861D01*
X0080641Y0036998D02*
X0079399Y0036998D01*
X0079399Y0037135D02*
X0080641Y0037135D01*
X0080641Y0037272D02*
X0079399Y0037272D01*
X0079399Y0037409D02*
X0080641Y0037409D01*
X0078082Y0037521D02*
X0078082Y0035491D01*
X0076840Y0035491D01*
X0076840Y0037521D01*
X0078082Y0037521D01*
X0078082Y0035628D02*
X0076840Y0035628D01*
X0076840Y0035765D02*
X0078082Y0035765D01*
X0078082Y0035902D02*
X0076840Y0035902D01*
X0076840Y0036039D02*
X0078082Y0036039D01*
X0078082Y0036176D02*
X0076840Y0036176D01*
X0076840Y0036313D02*
X0078082Y0036313D01*
X0078082Y0036450D02*
X0076840Y0036450D01*
X0076840Y0036587D02*
X0078082Y0036587D01*
X0078082Y0036724D02*
X0076840Y0036724D01*
X0076840Y0036861D02*
X0078082Y0036861D01*
X0078082Y0036998D02*
X0076840Y0036998D01*
X0076840Y0037135D02*
X0078082Y0037135D01*
X0078082Y0037272D02*
X0076840Y0037272D01*
X0076840Y0037409D02*
X0078082Y0037409D01*
D26*
X0082653Y0065609D03*
X0076747Y0065609D03*
X0076747Y0054191D03*
X0082653Y0054191D03*
D27*
X0138000Y0126600D03*
X0164000Y0126600D03*
D28*
X0120884Y0047540D03*
X0124624Y0038878D03*
X0117144Y0038878D03*
X0105120Y0038052D03*
X0101380Y0047501D03*
X0108860Y0047501D03*
D29*
X0088327Y0171173D03*
X0091673Y0171173D03*
X0091673Y0167827D03*
X0088327Y0167827D03*
D30*
X0121646Y0147736D03*
X0127354Y0147736D03*
X0127354Y0152264D03*
X0121646Y0152264D03*
D31*
X0098700Y0143954D03*
X0098700Y0150646D03*
D32*
X0118440Y0024900D03*
X0118440Y0012700D03*
X0108360Y0024900D03*
X0108360Y0012700D03*
D33*
X0085277Y0094332D02*
X0085277Y0093542D01*
X0084093Y0093542D01*
X0084093Y0094332D01*
X0085277Y0094332D01*
X0085277Y0093738D02*
X0084093Y0093738D01*
X0084093Y0093934D02*
X0085277Y0093934D01*
X0085277Y0094130D02*
X0084093Y0094130D01*
X0084093Y0094326D02*
X0085277Y0094326D01*
X0085277Y0092757D02*
X0085277Y0091967D01*
X0084093Y0091967D01*
X0084093Y0092757D01*
X0085277Y0092757D01*
X0085277Y0092163D02*
X0084093Y0092163D01*
X0084093Y0092359D02*
X0085277Y0092359D01*
X0085277Y0092555D02*
X0084093Y0092555D01*
X0084093Y0092751D02*
X0085277Y0092751D01*
X0085277Y0091182D02*
X0085277Y0090392D01*
X0084093Y0090392D01*
X0084093Y0091182D01*
X0085277Y0091182D01*
X0085277Y0090588D02*
X0084093Y0090588D01*
X0084093Y0090784D02*
X0085277Y0090784D01*
X0085277Y0090980D02*
X0084093Y0090980D01*
X0084093Y0091176D02*
X0085277Y0091176D01*
X0085277Y0089608D02*
X0085277Y0088818D01*
X0084093Y0088818D01*
X0084093Y0089608D01*
X0085277Y0089608D01*
X0085277Y0089014D02*
X0084093Y0089014D01*
X0084093Y0089210D02*
X0085277Y0089210D01*
X0085277Y0089406D02*
X0084093Y0089406D01*
X0084093Y0089602D02*
X0085277Y0089602D01*
X0085277Y0088033D02*
X0085277Y0087243D01*
X0084093Y0087243D01*
X0084093Y0088033D01*
X0085277Y0088033D01*
X0085277Y0087439D02*
X0084093Y0087439D01*
X0084093Y0087635D02*
X0085277Y0087635D01*
X0085277Y0087831D02*
X0084093Y0087831D01*
X0084093Y0088027D02*
X0085277Y0088027D01*
X0085277Y0086458D02*
X0085277Y0085668D01*
X0084093Y0085668D01*
X0084093Y0086458D01*
X0085277Y0086458D01*
X0085277Y0085864D02*
X0084093Y0085864D01*
X0084093Y0086060D02*
X0085277Y0086060D01*
X0085277Y0086256D02*
X0084093Y0086256D01*
X0084093Y0086452D02*
X0085277Y0086452D01*
X0086458Y0084093D02*
X0085668Y0084093D01*
X0085668Y0085277D01*
X0086458Y0085277D01*
X0086458Y0084093D01*
X0086458Y0084289D02*
X0085668Y0084289D01*
X0085668Y0084485D02*
X0086458Y0084485D01*
X0086458Y0084681D02*
X0085668Y0084681D01*
X0085668Y0084877D02*
X0086458Y0084877D01*
X0086458Y0085073D02*
X0085668Y0085073D01*
X0085668Y0085269D02*
X0086458Y0085269D01*
X0088033Y0084093D02*
X0087243Y0084093D01*
X0087243Y0085277D01*
X0088033Y0085277D01*
X0088033Y0084093D01*
X0088033Y0084289D02*
X0087243Y0084289D01*
X0087243Y0084485D02*
X0088033Y0084485D01*
X0088033Y0084681D02*
X0087243Y0084681D01*
X0087243Y0084877D02*
X0088033Y0084877D01*
X0088033Y0085073D02*
X0087243Y0085073D01*
X0087243Y0085269D02*
X0088033Y0085269D01*
X0089608Y0084093D02*
X0088818Y0084093D01*
X0088818Y0085277D01*
X0089608Y0085277D01*
X0089608Y0084093D01*
X0089608Y0084289D02*
X0088818Y0084289D01*
X0088818Y0084485D02*
X0089608Y0084485D01*
X0089608Y0084681D02*
X0088818Y0084681D01*
X0088818Y0084877D02*
X0089608Y0084877D01*
X0089608Y0085073D02*
X0088818Y0085073D01*
X0088818Y0085269D02*
X0089608Y0085269D01*
X0091182Y0084093D02*
X0090392Y0084093D01*
X0090392Y0085277D01*
X0091182Y0085277D01*
X0091182Y0084093D01*
X0091182Y0084289D02*
X0090392Y0084289D01*
X0090392Y0084485D02*
X0091182Y0084485D01*
X0091182Y0084681D02*
X0090392Y0084681D01*
X0090392Y0084877D02*
X0091182Y0084877D01*
X0091182Y0085073D02*
X0090392Y0085073D01*
X0090392Y0085269D02*
X0091182Y0085269D01*
X0092757Y0084093D02*
X0091967Y0084093D01*
X0091967Y0085277D01*
X0092757Y0085277D01*
X0092757Y0084093D01*
X0092757Y0084289D02*
X0091967Y0084289D01*
X0091967Y0084485D02*
X0092757Y0084485D01*
X0092757Y0084681D02*
X0091967Y0084681D01*
X0091967Y0084877D02*
X0092757Y0084877D01*
X0092757Y0085073D02*
X0091967Y0085073D01*
X0091967Y0085269D02*
X0092757Y0085269D01*
X0094332Y0084093D02*
X0093542Y0084093D01*
X0093542Y0085277D01*
X0094332Y0085277D01*
X0094332Y0084093D01*
X0094332Y0084289D02*
X0093542Y0084289D01*
X0093542Y0084485D02*
X0094332Y0084485D01*
X0094332Y0084681D02*
X0093542Y0084681D01*
X0093542Y0084877D02*
X0094332Y0084877D01*
X0094332Y0085073D02*
X0093542Y0085073D01*
X0093542Y0085269D02*
X0094332Y0085269D01*
X0095907Y0086458D02*
X0095907Y0085668D01*
X0094723Y0085668D01*
X0094723Y0086458D01*
X0095907Y0086458D01*
X0095907Y0085864D02*
X0094723Y0085864D01*
X0094723Y0086060D02*
X0095907Y0086060D01*
X0095907Y0086256D02*
X0094723Y0086256D01*
X0094723Y0086452D02*
X0095907Y0086452D01*
X0095907Y0088033D02*
X0095907Y0087243D01*
X0094723Y0087243D01*
X0094723Y0088033D01*
X0095907Y0088033D01*
X0095907Y0087439D02*
X0094723Y0087439D01*
X0094723Y0087635D02*
X0095907Y0087635D01*
X0095907Y0087831D02*
X0094723Y0087831D01*
X0094723Y0088027D02*
X0095907Y0088027D01*
X0095907Y0089608D02*
X0095907Y0088818D01*
X0094723Y0088818D01*
X0094723Y0089608D01*
X0095907Y0089608D01*
X0095907Y0089014D02*
X0094723Y0089014D01*
X0094723Y0089210D02*
X0095907Y0089210D01*
X0095907Y0089406D02*
X0094723Y0089406D01*
X0094723Y0089602D02*
X0095907Y0089602D01*
X0095907Y0091182D02*
X0095907Y0090392D01*
X0094723Y0090392D01*
X0094723Y0091182D01*
X0095907Y0091182D01*
X0095907Y0090588D02*
X0094723Y0090588D01*
X0094723Y0090784D02*
X0095907Y0090784D01*
X0095907Y0090980D02*
X0094723Y0090980D01*
X0094723Y0091176D02*
X0095907Y0091176D01*
X0095907Y0092757D02*
X0095907Y0091967D01*
X0094723Y0091967D01*
X0094723Y0092757D01*
X0095907Y0092757D01*
X0095907Y0092163D02*
X0094723Y0092163D01*
X0094723Y0092359D02*
X0095907Y0092359D01*
X0095907Y0092555D02*
X0094723Y0092555D01*
X0094723Y0092751D02*
X0095907Y0092751D01*
X0095907Y0094332D02*
X0095907Y0093542D01*
X0094723Y0093542D01*
X0094723Y0094332D01*
X0095907Y0094332D01*
X0095907Y0093738D02*
X0094723Y0093738D01*
X0094723Y0093934D02*
X0095907Y0093934D01*
X0095907Y0094130D02*
X0094723Y0094130D01*
X0094723Y0094326D02*
X0095907Y0094326D01*
X0093542Y0095907D02*
X0094332Y0095907D01*
X0094332Y0094723D01*
X0093542Y0094723D01*
X0093542Y0095907D01*
X0093542Y0094919D02*
X0094332Y0094919D01*
X0094332Y0095115D02*
X0093542Y0095115D01*
X0093542Y0095311D02*
X0094332Y0095311D01*
X0094332Y0095507D02*
X0093542Y0095507D01*
X0093542Y0095703D02*
X0094332Y0095703D01*
X0094332Y0095899D02*
X0093542Y0095899D01*
X0092757Y0094723D02*
X0091967Y0094723D01*
X0091967Y0095907D01*
X0092757Y0095907D01*
X0092757Y0094723D01*
X0092757Y0094919D02*
X0091967Y0094919D01*
X0091967Y0095115D02*
X0092757Y0095115D01*
X0092757Y0095311D02*
X0091967Y0095311D01*
X0091967Y0095507D02*
X0092757Y0095507D01*
X0092757Y0095703D02*
X0091967Y0095703D01*
X0091967Y0095899D02*
X0092757Y0095899D01*
X0091182Y0094723D02*
X0090392Y0094723D01*
X0090392Y0095907D01*
X0091182Y0095907D01*
X0091182Y0094723D01*
X0091182Y0094919D02*
X0090392Y0094919D01*
X0090392Y0095115D02*
X0091182Y0095115D01*
X0091182Y0095311D02*
X0090392Y0095311D01*
X0090392Y0095507D02*
X0091182Y0095507D01*
X0091182Y0095703D02*
X0090392Y0095703D01*
X0090392Y0095899D02*
X0091182Y0095899D01*
X0089608Y0094723D02*
X0088818Y0094723D01*
X0088818Y0095907D01*
X0089608Y0095907D01*
X0089608Y0094723D01*
X0089608Y0094919D02*
X0088818Y0094919D01*
X0088818Y0095115D02*
X0089608Y0095115D01*
X0089608Y0095311D02*
X0088818Y0095311D01*
X0088818Y0095507D02*
X0089608Y0095507D01*
X0089608Y0095703D02*
X0088818Y0095703D01*
X0088818Y0095899D02*
X0089608Y0095899D01*
X0088033Y0094723D02*
X0087243Y0094723D01*
X0087243Y0095907D01*
X0088033Y0095907D01*
X0088033Y0094723D01*
X0088033Y0094919D02*
X0087243Y0094919D01*
X0087243Y0095115D02*
X0088033Y0095115D01*
X0088033Y0095311D02*
X0087243Y0095311D01*
X0087243Y0095507D02*
X0088033Y0095507D01*
X0088033Y0095703D02*
X0087243Y0095703D01*
X0087243Y0095899D02*
X0088033Y0095899D01*
X0086458Y0094723D02*
X0085668Y0094723D01*
X0085668Y0095907D01*
X0086458Y0095907D01*
X0086458Y0094723D01*
X0086458Y0094919D02*
X0085668Y0094919D01*
X0085668Y0095115D02*
X0086458Y0095115D01*
X0086458Y0095311D02*
X0085668Y0095311D01*
X0085668Y0095507D02*
X0086458Y0095507D01*
X0086458Y0095703D02*
X0085668Y0095703D01*
X0085668Y0095899D02*
X0086458Y0095899D01*
D34*
X0092820Y0092505D02*
X0092820Y0087495D01*
X0087180Y0087495D01*
X0087180Y0092505D01*
X0092820Y0092505D01*
X0092820Y0088747D02*
X0087180Y0088747D01*
X0087180Y0089999D02*
X0092820Y0089999D01*
X0092820Y0091251D02*
X0087180Y0091251D01*
X0087180Y0092503D02*
X0092820Y0092503D01*
D35*
X0077900Y0162068D03*
X0077900Y0145532D03*
D36*
X0041700Y0111150D03*
X0046700Y0111150D03*
X0051700Y0111150D03*
X0056700Y0111150D03*
X0041700Y0142650D03*
X0046700Y0142650D03*
X0051700Y0142650D03*
X0056700Y0142650D03*
D37*
X0049200Y0126900D03*
D38*
X0025400Y0103800D03*
D39*
X0025400Y0103800D03*
D40*
X0045400Y0063800D03*
D41*
X0045400Y0063800D03*
D42*
X0015400Y0103800D03*
X0055400Y0063800D03*
D43*
X0112400Y0130200D03*
X0108400Y0126200D03*
X0112400Y0126200D03*
D44*
X0112400Y0130200D03*
X0108400Y0126200D03*
X0112400Y0126200D03*
D45*
X0108400Y0130300D03*
D46*
X0108400Y0130300D03*
D47*
X0067400Y0030600D03*
X0089100Y0030600D03*
X0072300Y0043200D03*
X0050000Y0038900D03*
X0065300Y0044800D03*
X0094100Y0045700D03*
X0099600Y0042300D03*
X0084500Y0077300D03*
X0080700Y0087500D03*
X0100000Y0093900D03*
X0132900Y0051300D03*
X0084400Y0150200D03*
X0103000Y0150800D03*
X0130500Y0132400D03*
X0131900Y0122800D03*
X0133900Y0119500D03*
X0128700Y0122900D03*
X0072300Y0065600D03*
X0083000Y0140500D03*
X0132400Y0144500D03*
X0081600Y0152600D03*
X0095800Y0155900D03*
X0121600Y0107200D03*
X0121000Y0103100D03*
X0080300Y0099000D03*
X0079800Y0082300D03*
X0100000Y0082600D03*
D48*
X0067400Y0030600D03*
X0089100Y0030600D03*
X0072300Y0043200D03*
X0050000Y0038900D03*
X0065300Y0044800D03*
X0094100Y0045700D03*
X0099600Y0042300D03*
X0084500Y0077300D03*
X0080700Y0087500D03*
X0100000Y0093900D03*
X0132900Y0051300D03*
X0084400Y0150200D03*
X0103000Y0150800D03*
X0130500Y0132400D03*
X0131900Y0122800D03*
X0133900Y0119500D03*
X0128700Y0122900D03*
X0072300Y0065600D03*
X0083000Y0140500D03*
X0132400Y0144500D03*
X0081600Y0152600D03*
X0095800Y0155900D03*
X0121600Y0107200D03*
X0121000Y0103100D03*
X0080300Y0099000D03*
X0079800Y0082300D03*
X0100000Y0082600D03*
D49*
X0115900Y0142900D03*
X0117100Y0155100D03*
X0086800Y0062400D03*
X0086800Y0042400D03*
X0074500Y0150200D03*
X0065300Y0150300D03*
X0059300Y0113700D03*
X0076900Y0117500D03*
X0046200Y0053300D03*
X0040700Y0057000D03*
X0030200Y0119400D03*
X0123900Y0111000D03*
X0061100Y0025600D03*
X0062900Y0054500D03*
X0066100Y0099100D03*
X0081500Y0118000D03*
D50*
X0115900Y0142900D03*
X0117100Y0155100D03*
X0086800Y0062400D03*
X0086800Y0042400D03*
X0074500Y0150200D03*
X0065300Y0150300D03*
X0059300Y0113700D03*
X0076900Y0117500D03*
X0046200Y0053300D03*
X0040700Y0057000D03*
X0030200Y0119400D03*
X0123900Y0111000D03*
X0061100Y0025600D03*
X0062900Y0054500D03*
X0066100Y0099100D03*
X0081500Y0118000D03*
M02*
